<svg width="60" height="59" viewBox="0 0 60 59" fill="none" xmlns="http://www.w3.org/2000/svg">
<path d="M0 8.83927V2.94641H27V8.83927H0Z" fill="#A6CEE3"/>
<path d="M0 20.625V14.7321H11.4V20.625H0Z" fill="#A6CEE3"/>
<path d="M0 32.4107V26.5179H19.2V32.4107H0Z" fill="#A6CEE3"/>
<path d="M0 44.1964V38.3036H21V44.1964H0Z" fill="#A6CEE3"/>
<path d="M0 55.9822V50.0893H7.2V55.9822H0Z" fill="#A6CEE3"/>
<path d="M27 8.83927V2.94641H51V8.83927H27Z" fill="#1F78B4"/>
<path d="M11.4 20.625V14.7321H44.4V20.625H11.4Z" fill="#1F78B4"/>
<path d="M19.2 32.4107V26.5179H57V32.4107H19.2Z" fill="#1F78B4"/>
<path d="M21 44.1964V38.3036H48.6V44.1964H21Z" fill="#1F78B4"/>
<path d="M7.20001 55.9822V50.0893H41.4V55.9822H7.20001Z" fill="#1F78B4"/>
</svg>
