<svg width="80" height="80" viewBox="0 0 80 80" fill="none" xmlns="http://www.w3.org/2000/svg">
<path d="M43.792 80C42.544 80 41.312 79.52 40.368 78.576C39.456 77.664 38.944 76.448 38.944 75.152C38.944 73.856 39.44 72.64 40.368 71.728L61.824 50.272C62.24 49.856 62.912 49.856 63.312 50.272C63.728 50.688 63.728 51.36 63.312 51.76L41.856 73.216C41.344 73.728 41.056 74.416 41.056 75.152C41.056 75.888 41.344 76.56 41.856 77.088C42.928 78.16 44.656 78.16 45.712 77.088L67.168 55.632C67.584 55.216 68.256 55.216 68.656 55.632C69.072 56.048 69.072 56.72 68.656 57.12L47.2 78.576C46.256 79.52 45.008 80 43.776 80H43.792Z" fill="white"/>
<path d="M69.8079 58.432C69.0079 58.432 68.1919 58.128 67.5839 57.504L66.3839 56.304C65.9679 55.888 65.9679 55.216 66.3839 54.816C66.7999 54.4 67.4719 54.4 67.8719 54.816L69.0719 56.016C69.4719 56.416 70.1279 56.416 70.5279 56.016C70.7199 55.824 70.8319 55.552 70.8319 55.28C70.8319 55.008 70.7199 54.736 70.5279 54.544L64.7359 48.752C64.3359 48.352 63.6639 48.352 63.2639 48.752C62.8639 49.152 62.8639 49.808 63.2639 50.208L64.4639 51.408C64.8799 51.824 64.8799 52.496 64.4639 52.896C64.0479 53.312 63.3759 53.312 62.9759 52.896L61.7759 51.696C60.5439 50.464 60.5439 48.464 61.7759 47.248C63.0079 46.016 65.0079 46.016 66.2399 47.248L72.0319 53.04C72.6239 53.632 72.9599 54.432 72.9439 55.28C72.9439 56.128 72.6079 56.912 72.0159 57.504C71.4079 58.112 70.5919 58.432 69.7919 58.432H69.8079Z" fill="white"/>
<path d="M64.304 61.072H58.48C57.888 61.072 57.424 60.592 57.424 60.016C57.424 59.44 57.904 58.96 58.48 58.96H64.304C64.896 58.96 65.36 59.44 65.36 60.016C65.36 60.592 64.88 61.072 64.304 61.072Z" fill="white"/>
<path d="M35.984 77.8401H15.04C14.448 77.8401 13.984 77.3601 13.984 76.7841V16.0321C13.984 15.4401 14.464 14.9761 15.04 14.9761H55.456C56.048 14.9761 56.512 15.4561 56.512 16.0321V52.3841C56.512 52.9761 56.032 53.4401 55.456 53.4401C54.88 53.4401 54.4 52.9601 54.4 52.3841V17.0881H16.096V75.7121H35.984C36.576 75.7121 37.04 76.1921 37.04 76.7681C37.04 77.3441 36.56 77.8241 35.984 77.8241V77.8401Z" fill="white"/>
<path d="M59.712 45.696C59.12 45.696 58.656 45.216 58.656 44.64V12.832H19.296C18.704 12.832 18.24 12.352 18.24 11.776C18.24 11.2 18.72 10.72 19.296 10.72H59.712C60.304 10.72 60.768 11.2 60.768 11.776V44.64C60.768 45.232 60.288 45.696 59.712 45.696Z" fill="white"/>
<path d="M21.12 37.5681C20.768 37.5681 20.432 37.3921 20.24 37.0881C19.92 36.5921 20.064 35.9361 20.544 35.6321L26.016 32.0801C26.416 31.8241 26.928 31.8561 27.28 32.1761L29.504 34.1121L36.608 29.2001C37.008 28.9281 37.536 28.9601 37.904 29.2801L40.176 31.2801L48.64 24.4161C49.088 24.0481 49.76 24.1121 50.128 24.5761C50.496 25.0241 50.432 25.6961 49.968 26.0641L40.816 33.4881C40.416 33.8081 39.84 33.8081 39.456 33.4561L37.136 31.4241L30.032 36.3361C29.632 36.6081 29.104 36.5761 28.736 36.2561L26.496 34.3041L21.696 37.4241C21.52 37.5361 21.312 37.6001 21.12 37.6001V37.5681Z" fill="white"/>
<path d="M21.12 44.9441C20.528 44.9441 20.064 44.4641 20.064 43.8881V40.4481C20.064 39.8561 20.544 39.3921 21.12 39.3921C21.696 39.3921 22.176 39.8721 22.176 40.4481V43.8881C22.176 44.4801 21.696 44.9441 21.12 44.9441Z" fill="white"/>
<path d="M25.1519 44.9441C24.5599 44.9441 24.0959 44.4641 24.0959 43.8881V38.2721C24.0959 37.6801 24.5759 37.2161 25.1519 37.2161C25.7279 37.2161 26.2079 37.6961 26.2079 38.2721V43.8881C26.2079 44.4801 25.7279 44.9441 25.1519 44.9441Z" fill="white"/>
<path d="M29.1841 44.9439C28.5921 44.9439 28.1281 44.4639 28.1281 43.8879V39.1519C28.1281 38.5599 28.6081 38.0959 29.1841 38.0959C29.7601 38.0959 30.2401 38.5759 30.2401 39.1519V43.8879C30.2401 44.4799 29.7601 44.9439 29.1841 44.9439Z" fill="white"/>
<path d="M33.216 44.944C32.624 44.944 32.16 44.464 32.16 43.888V37.536C32.16 36.944 32.64 36.48 33.216 36.48C33.792 36.48 34.272 36.96 34.272 37.536V43.888C34.272 44.48 33.792 44.944 33.216 44.944Z" fill="white"/>
<path d="M37.232 44.944C36.64 44.944 36.176 44.464 36.176 43.888V34.88C36.176 34.288 36.656 33.824 37.232 33.824C37.808 33.824 38.288 34.304 38.288 34.88V43.888C38.288 44.48 37.808 44.944 37.232 44.944Z" fill="white"/>
<path d="M41.264 44.9439C40.672 44.9439 40.208 44.4639 40.208 43.8879V36.5279C40.208 35.9359 40.688 35.4719 41.264 35.4719C41.84 35.4719 42.32 35.9519 42.32 36.5279V43.8879C42.32 44.4799 41.84 44.9439 41.264 44.9439Z" fill="white"/>
<path d="M45.296 44.944C44.704 44.944 44.24 44.464 44.24 43.888V34.016C44.24 33.424 44.72 32.96 45.296 32.96C45.872 32.96 46.352 33.44 46.352 34.016V43.888C46.352 44.48 45.872 44.944 45.296 44.944Z" fill="white"/>
<path d="M49.328 44.944C48.736 44.944 48.272 44.464 48.272 43.888V30.368C48.272 29.776 48.752 29.312 49.328 29.312C49.904 29.312 50.384 29.792 50.384 30.368V43.888C50.384 44.48 49.904 44.944 49.328 44.944Z" fill="white"/>
<path d="M49.472 52.7519H21.12C20.528 52.7519 20.064 52.2719 20.064 51.6959C20.064 51.1199 20.544 50.6399 21.12 50.6399H49.472C50.064 50.6399 50.528 51.1199 50.528 51.6959C50.528 52.2719 50.048 52.7519 49.472 52.7519Z" fill="white"/>
<path d="M49.472 57.7761H21.12C20.528 57.7761 20.064 57.2961 20.064 56.7201C20.064 56.1441 20.544 55.6641 21.12 55.6641H49.472C50.064 55.6641 50.528 56.1441 50.528 56.7201C50.528 57.2961 50.048 57.7761 49.472 57.7761Z" fill="white"/>
<path d="M43.856 62.8161H21.12C20.528 62.8161 20.064 62.3361 20.064 61.7601C20.064 61.1841 20.544 60.7041 21.12 60.7041H43.856C44.448 60.7041 44.912 61.1841 44.912 61.7601C44.912 62.3361 44.432 62.8161 43.856 62.8161Z" fill="white"/>
<path d="M30.464 67.8559H21.12C20.528 67.8559 20.064 67.3759 20.064 66.7999C20.064 66.2239 20.544 65.7439 21.12 65.7439H30.464C31.056 65.7439 31.52 66.2239 31.52 66.7999C31.52 67.3759 31.04 67.8559 30.464 67.8559Z" fill="white"/>
</svg>
