<svg width="80" height="80" viewBox="0 0 80 80" fill="none" xmlns="http://www.w3.org/2000/svg">
<g id="Icons/kf-portal-icons_biospecimens_2">
<path id="Vector" d="M43.2481 41.6801C41.5681 41.6801 39.9041 41.4881 38.2721 41.0881C37.7281 40.9601 37.3921 40.4001 37.5201 39.8561C37.6481 39.3121 38.2081 38.9761 38.7521 39.1041C45.6961 40.8001 53.4401 38.4001 59.0081 32.8481C59.4081 32.4481 60.0481 32.4481 60.4481 32.8481C60.8481 33.2481 60.8481 33.8881 60.4481 34.2881C55.6801 39.0561 49.4081 41.6801 43.2481 41.6801Z" fill="white"/>
<path id="Vector_2" d="M37.952 36.096C37.376 36.096 36.928 35.632 36.928 35.056C37.008 28.928 39.712 22.752 44.32 18.144C44.72 17.744 45.36 17.744 45.76 18.144C46.16 18.544 46.16 19.184 45.76 19.584C41.52 23.824 39.056 29.472 38.976 35.072C38.976 35.632 38.512 36.08 37.952 36.08V36.096Z" fill="white"/>
<path id="Vector_3" d="M46.6079 37.3919C46.3519 37.3919 46.0799 37.2959 45.8879 37.0879L38.2719 29.4719C37.8719 29.0719 37.8719 28.4319 38.2719 28.0319C38.6719 27.6319 39.3119 27.6319 39.7119 28.0319L47.3279 35.6479C47.7279 36.0479 47.7279 36.6879 47.3279 37.0879C47.1359 37.2799 46.8639 37.3919 46.6079 37.3919Z" fill="white"/>
<path id="Vector_4" d="M56.8641 37.056C56.6081 37.056 56.3361 36.96 56.1441 36.752L48.6721 29.28C48.2721 28.88 48.2721 28.24 48.6721 27.84C49.0721 27.44 49.7121 27.44 50.1121 27.84L57.5841 35.312C57.9841 35.712 57.9841 36.352 57.5841 36.752C57.3921 36.944 57.1201 37.056 56.8641 37.056Z" fill="white"/>
<path id="Vector_5" d="M45.4239 25.6161C45.1679 25.6161 44.8959 25.5201 44.7039 25.3121L41.8559 22.4641C41.4559 22.0641 41.4559 21.4241 41.8559 21.0241C42.2559 20.6241 42.8959 20.6241 43.2959 21.0241L46.1439 23.8721C46.5439 24.2721 46.5439 24.9121 46.1439 25.3121C45.9519 25.5041 45.6799 25.6161 45.4239 25.6161Z" fill="white"/>
<path id="Vector_6" d="M17.2959 47.6479C17.0399 47.6479 16.7679 47.5519 16.5759 47.3439C16.1759 46.9439 16.1759 46.3039 16.5759 45.9039C22.6399 39.8399 31.1359 37.2319 38.7519 39.1039C39.2959 39.2319 39.6319 39.7919 39.5039 40.3359C39.3759 40.8799 38.8159 41.2159 38.2719 41.0879C31.3439 39.3919 23.5839 41.7919 18.0159 47.3439C17.8239 47.5359 17.5519 47.6479 17.2959 47.6479Z" fill="white"/>
<path id="Vector_7" d="M31.9841 62.3361C31.7281 62.3361 31.4561 62.2401 31.2641 62.0321C30.8641 61.6321 30.8641 60.9921 31.2641 60.5921C35.2161 56.6401 37.6001 51.5841 38.0001 46.3361C38.0481 45.7761 38.5441 45.3601 39.0881 45.3921C39.6481 45.4401 40.0641 45.9201 40.0321 46.4801C39.6001 52.2081 36.9921 57.7281 32.7041 62.0161C32.5121 62.2081 32.2401 62.3201 31.9841 62.3201V62.3361Z" fill="white"/>
<path id="Vector_8" d="M34.6561 49.0719C34.4001 49.0719 34.1281 48.9759 33.9361 48.7679L26.4641 41.2959C26.0641 40.8959 26.0641 40.2559 26.4641 39.8559C26.8641 39.4559 27.5041 39.4559 27.9041 39.8559L35.3761 47.3279C35.7761 47.7279 35.7761 48.3679 35.3761 48.7679C35.1841 48.9599 34.9121 49.0719 34.6561 49.0719Z" fill="white"/>
<path id="Vector_9" d="M23.3279 48.336C23.0719 48.336 22.7999 48.24 22.6079 48.032L19.4399 44.864C19.0399 44.464 19.0399 43.824 19.4399 43.424C19.8399 43.024 20.4799 43.024 20.8799 43.424L24.0479 46.592C24.4479 46.992 24.4479 47.632 24.0479 48.032C23.8559 48.224 23.5839 48.336 23.3279 48.336Z" fill="white"/>
<path id="Vector_10" d="M34.4481 59.456C34.1921 59.456 33.9201 59.36 33.7281 59.152L25.9521 51.376C25.5521 50.976 25.5521 50.336 25.9521 49.936C26.3521 49.536 26.9921 49.536 27.3921 49.936L35.1681 57.712C35.5681 58.112 35.5681 58.752 35.1681 59.152C34.9761 59.344 34.7041 59.456 34.4481 59.456Z" fill="white"/>
<path id="Vector_11" d="M18.128 69.264C17.616 69.264 17.184 68.88 17.12 68.368C17.056 67.808 17.44 67.296 18 67.232C22.88 66.624 27.584 64.272 31.264 60.592C31.664 60.192 32.304 60.192 32.704 60.592C33.104 60.992 33.104 61.632 32.704 62.032C28.72 66.016 23.584 68.592 18.256 69.248C18.208 69.248 18.176 69.248 18.128 69.248V69.264Z" fill="white"/>
<path id="Vector_12" d="M10.368 61.5041C10.368 61.5041 10.288 61.5041 10.24 61.5041C9.68005 61.4401 9.28005 60.9281 9.36005 60.3681C10.032 55.0401 12.592 49.9041 16.576 45.9201C16.976 45.5201 17.616 45.5201 18.016 45.9201C18.416 46.3201 18.416 46.9601 18.016 47.3601C14.352 51.0241 11.984 55.7441 11.376 60.6241C11.312 61.1361 10.864 61.5201 10.368 61.5201V61.5041Z" fill="white"/>
<path id="Vector_13" d="M22.1121 68.3841C21.8561 68.3841 21.5841 68.2881 21.3921 68.0801L14.0161 60.7041C13.6161 60.3041 13.6161 59.6641 14.0161 59.2641C14.4161 58.8641 15.0561 58.8641 15.4561 59.2641L22.8321 66.6401C23.2321 67.0401 23.2321 67.6801 22.8321 68.0801C22.6401 68.2721 22.3681 68.3841 22.1121 68.3841Z" fill="white"/>
<path id="Vector_14" d="M29.12 64.8C28.864 64.8 28.592 64.704 28.4 64.496L25.968 62.064C25.568 61.664 25.568 61.024 25.968 60.624C26.368 60.224 27.008 60.224 27.408 60.624L29.84 63.056C30.24 63.456 30.24 64.096 29.84 64.496C29.648 64.688 29.376 64.8 29.12 64.8Z" fill="white"/>
<path id="Vector_15" d="M23.584 59.264C23.328 59.264 23.056 59.168 22.864 58.96L14.112 50.208C13.712 49.808 13.712 49.168 14.112 48.768C14.512 48.368 15.152 48.368 15.552 48.768L24.304 57.52C24.704 57.92 24.704 58.56 24.304 58.96C24.112 59.152 23.84 59.264 23.584 59.264Z" fill="white"/>
<path id="Vector_16" d="M20.0959 74.5119C15.8239 74.5119 11.8079 72.8479 8.78395 69.8239C5.75995 66.7999 4.09595 62.7839 4.09595 58.5119C4.09595 54.2399 5.75995 50.2239 8.78395 47.1999L45.9839 9.99994L43.216 7.23194C42.8159 6.83194 42.8159 6.19194 43.216 5.79194C43.6159 5.39194 44.2559 5.39194 44.6559 5.79194L48.1439 9.27994C48.3359 9.47194 48.4479 9.72794 48.4479 9.99994C48.4479 10.2719 48.3359 10.5279 48.1439 10.7199L10.2239 48.6399C7.58395 51.2799 6.12795 54.7839 6.12795 58.5119C6.12795 62.2399 7.58395 65.7439 10.2239 68.3839C12.8639 71.0239 16.3679 72.4799 20.0959 72.4799C23.8239 72.4799 27.3279 71.0239 29.9679 68.3839L35.9679 62.3839C36.3679 61.9839 37.0079 61.9839 37.4079 62.3839C37.8079 62.7839 37.8079 63.4239 37.4079 63.8239L31.4079 69.8239C28.3839 72.8479 24.3679 74.5119 20.0959 74.5119Z" fill="white"/>
<path id="Vector_17" d="M58.864 41.952C58.608 41.952 58.336 41.856 58.144 41.648C57.744 41.248 57.744 40.608 58.144 40.208L59.584 38.768C59.984 38.368 60.624 38.368 61.024 38.768C61.424 39.168 61.424 39.808 61.024 40.208L59.584 41.648C59.392 41.84 59.12 41.952 58.864 41.952Z" fill="white"/>
<path id="Vector_18" d="M43.3281 57.488C43.0721 57.488 42.8001 57.392 42.6081 57.184C42.2081 56.784 42.2081 56.144 42.6081 55.744L45.2001 53.152C45.6001 52.752 46.2401 52.752 46.6401 53.152C47.0401 53.552 47.0401 54.192 46.6401 54.592L44.0481 57.184C43.8561 57.376 43.5841 57.488 43.3281 57.488ZM51.1041 49.728C50.8481 49.728 50.5761 49.632 50.3841 49.424C49.9841 49.024 49.9841 48.384 50.3841 47.984L52.9761 45.392C53.3761 44.992 54.0161 44.992 54.4161 45.392C54.8161 45.792 54.8161 46.432 54.4161 46.832L51.8241 49.424C51.6321 49.616 51.3601 49.728 51.1041 49.728Z" fill="white"/>
<path id="Vector_19" d="M36.7041 64.1119C36.4481 64.1119 36.1761 64.0159 35.9841 63.8079C35.5841 63.4079 35.5841 62.7679 35.9841 62.3679L37.4241 60.9279C37.8241 60.5279 38.4641 60.5279 38.8641 60.9279C39.2641 61.3279 39.2641 61.9679 38.8641 62.3679L37.4241 63.8079C37.2321 63.9999 36.9601 64.1119 36.7041 64.1119Z" fill="white"/>
<path id="Vector_20" d="M60.3201 40.512C60.0641 40.512 59.792 40.416 59.6 40.208C59.2 39.808 59.2 39.168 59.6 38.768L67.8881 30.48C68.0801 30.288 68.3361 30.176 68.6081 30.176C68.8801 30.176 69.1361 30.288 69.3281 30.48L72.816 33.968C73.216 34.368 73.216 35.008 72.816 35.408C72.416 35.808 71.7761 35.808 71.3761 35.408L68.6081 32.64L61.0401 40.208C60.8481 40.4 60.5761 40.512 60.3201 40.512Z" fill="white"/>
<path id="Vector_21" d="M52.352 22.08C51.552 22.08 50.8 21.76 50.224 21.2C49.648 20.64 49.344 19.872 49.344 19.072C49.344 18.272 49.664 17.52 50.224 16.944C51.36 15.808 53.344 15.808 54.48 16.944C55.056 17.504 55.36 18.272 55.36 19.072C55.36 19.872 55.04 20.624 54.48 21.2C53.904 21.776 53.152 22.08 52.352 22.08ZM52.352 18.112C52.096 18.112 51.856 18.208 51.664 18.4C51.488 18.576 51.376 18.832 51.376 19.088C51.376 19.344 51.472 19.584 51.664 19.776C52.032 20.144 52.656 20.144 53.024 19.776C53.2 19.6 53.312 19.344 53.312 19.088C53.312 18.832 53.216 18.592 53.024 18.4C52.848 18.224 52.592 18.112 52.336 18.112H52.352Z" fill="white"/>
<path id="Vector_22" d="M63.9361 26.7039C62.7361 26.7039 61.5361 26.2399 60.6241 25.3279C58.8001 23.5039 58.8001 20.5279 60.6241 18.7039C62.4481 16.8799 65.4241 16.8799 67.2481 18.7039C69.0721 20.5279 69.0721 23.5039 67.2481 25.3279C66.3361 26.2399 65.1361 26.7039 63.9361 26.7039ZM63.9361 19.3759C63.2641 19.3759 62.5761 19.6319 62.0641 20.1439C61.0401 21.1679 61.0401 22.8479 62.0641 23.8879C63.0881 24.9119 64.7681 24.9119 65.8081 23.8879C66.8321 22.8639 66.8321 21.1839 65.8081 20.1439C65.2961 19.6319 64.6081 19.3759 63.9361 19.3759Z" fill="white"/>
<path id="Vector_23" d="M57.3601 15.0879C57.1041 15.0879 56.8321 14.9919 56.6401 14.7839C56.2401 14.3839 56.2401 13.7439 56.6401 13.3439L58.5441 11.4399C58.9441 11.0399 59.5841 11.0399 59.9841 11.4399C60.3841 11.8399 60.3841 12.4799 59.9841 12.8799L58.0801 14.7839C57.8881 14.9759 57.6161 15.0879 57.3601 15.0879Z" fill="white"/>
<path id="Vector_24" d="M55.1679 10.1601C54.912 10.1601 54.6399 10.0641 54.4479 9.85607C54.0479 9.45607 54.0479 8.81607 54.4479 8.41607L56.64 6.22407C57.04 5.82407 57.6799 5.82407 58.0799 6.22407C58.4799 6.62407 58.4799 7.26407 58.0799 7.66407L55.888 9.85607C55.696 10.0481 55.4239 10.1601 55.1679 10.1601Z" fill="white"/>
<path id="Vector_25" d="M71.552 23.44C71.296 23.44 71.024 23.344 70.832 23.136C70.432 22.736 70.432 22.096 70.832 21.696L74.144 18.384C74.544 17.984 75.184 17.984 75.584 18.384C75.984 18.784 75.984 19.424 75.584 19.824L72.272 23.136C72.08 23.328 71.808 23.44 71.552 23.44Z" fill="white"/>
<path id="Vector_26" d="M65.824 15.408C65.568 15.408 65.296 15.312 65.104 15.104C64.704 14.704 64.704 14.064 65.104 13.664L66.832 11.936C67.232 11.536 67.872 11.536 68.272 11.936C68.672 12.336 68.672 12.976 68.272 13.376L66.544 15.104C66.352 15.296 66.08 15.408 65.824 15.408Z" fill="white"/>
<path id="Vector_27" d="M57.8241 27.5839C57.5681 27.5839 57.2961 27.4879 57.1041 27.2799L55.2961 25.4719C54.8961 25.0719 54.8961 24.4319 55.2961 24.0319C55.6961 23.6319 56.3361 23.6319 56.7361 24.0319L58.5441 25.8399C58.9441 26.2399 58.9441 26.8799 58.5441 27.2799C58.3521 27.4719 58.0801 27.5839 57.8241 27.5839Z" fill="white"/>
</g>
</svg>
