<svg width="81" height="80" viewBox="0 0 81 80" fill="none" xmlns="http://www.w3.org/2000/svg">
<g id="Icons/kf-portal-icons_cloud_files">
<path id="Vector" d="M76.676 39.072C75.972 39.072 75.412 38.512 75.412 37.808C75.412 32.832 72.084 28.368 67.316 26.944C66.644 26.752 66.26 26.048 66.468 25.376C66.676 24.704 67.364 24.336 68.036 24.528C73.86 26.272 77.924 31.728 77.924 37.808C77.924 38.512 77.364 39.072 76.66 39.072H76.676Z" fill="white"/>
<path id="Vector_2" d="M17.652 51.68C13.748 51.68 10.004 50.016 7.38003 47.136C5.06003 44.576 3.78003 41.28 3.78003 37.824C3.78003 30.176 10.004 23.952 17.652 23.952C19.22 23.952 20.74 24.208 22.212 24.736C23.652 18.528 29.188 14.032 35.716 14.032C38.004 14.032 40.212 14.592 42.196 15.648C44.884 10.08 50.612 6.41602 56.868 6.41602C65.86 6.41602 73.172 13.728 73.172 22.72C73.172 24.128 72.98 25.536 72.612 26.912C75.956 29.536 77.924 33.552 77.924 37.824C77.924 42.944 75.124 47.616 70.612 50.032C70.004 50.368 69.236 50.128 68.9 49.52C68.564 48.912 68.804 48.144 69.412 47.808C73.108 45.824 75.396 42 75.396 37.824C75.396 34.064 73.54 30.56 70.436 28.448C69.972 28.128 69.78 27.552 69.94 27.008C70.404 25.6 70.628 24.16 70.628 22.72C70.628 15.12 64.452 8.94402 56.852 8.94402C51.14 8.94402 45.956 12.544 43.956 17.92C43.828 18.288 43.524 18.56 43.156 18.688C42.788 18.8 42.388 18.752 42.068 18.528C40.18 17.248 37.988 16.576 35.7 16.576C29.908 16.576 25.06 20.912 24.436 26.672C24.388 27.088 24.148 27.44 23.796 27.648C23.428 27.84 22.996 27.856 22.628 27.68C21.044 26.912 19.38 26.512 17.652 26.512C11.396 26.512 6.30803 31.6 6.30803 37.856C6.30803 40.688 7.34803 43.392 9.25203 45.472C11.396 47.84 14.468 49.2 17.652 49.2C18.356 49.2 18.916 49.76 18.916 50.464C18.916 51.168 18.356 51.728 17.652 51.728V51.68Z" fill="white"/>
<path id="Vector_3" d="M63.412 51.6801H57.972C57.268 51.6801 56.708 51.1201 56.708 50.4161C56.708 49.7121 57.268 49.1521 57.972 49.1521H63.412C64.116 49.1521 64.676 49.7121 64.676 50.4161C64.676 51.1201 64.116 51.6801 63.412 51.6801Z" fill="white"/>
<path id="Vector_4" d="M44.7399 73.6H23.2039C22.4999 73.6 21.9399 73.04 21.9399 72.336V44.304C21.9399 43.6 22.4999 43.04 23.2039 43.04H44.7399C45.4439 43.04 46.0039 43.6 46.0039 44.304V72.336C46.0039 73.04 45.4439 73.6 44.7399 73.6ZM24.4679 71.072H43.4759V45.552H24.4679V71.072Z" fill="white"/>
<path id="Vector_5" d="M54.164 65.072H49.46C48.756 65.072 48.196 64.512 48.196 63.808V41.296H32.644C31.94 41.296 31.38 40.736 31.38 40.032V35.776C31.38 35.072 31.94 34.512 32.644 34.512H54.18C54.884 34.512 55.444 35.072 55.444 35.776V63.808C55.444 64.512 54.884 65.072 54.18 65.072H54.164ZM50.708 62.544H52.9V37.024H33.892V38.768H49.444C50.148 38.768 50.708 39.328 50.708 40.032V62.544Z" fill="white"/>
<path id="Vector_6" d="M49.444 69.3281H44.74C44.036 69.3281 43.476 68.7681 43.476 68.0641V45.5521H27.924C27.22 45.5521 26.66 44.9921 26.66 44.2881V40.0321C26.66 39.3281 27.22 38.7681 27.924 38.7681H49.46C50.164 38.7681 50.724 39.3281 50.724 40.0321V68.0641C50.724 68.7681 50.164 69.3281 49.46 69.3281H49.444ZM46.004 66.8161H48.196V41.2961H29.188V43.0401H44.74C45.444 43.0401 46.004 43.6001 46.004 44.3041V66.8161Z" fill="white"/>
<path id="Vector_7" d="M40.164 52.5119H27.78C27.076 52.5119 26.516 51.9519 26.516 51.2479C26.516 50.5439 27.076 49.9839 27.78 49.9839H40.164C40.868 49.9839 41.428 50.5439 41.428 51.2479C41.428 51.9519 40.868 52.5119 40.164 52.5119Z" fill="white"/>
<path id="Vector_8" d="M40.164 57.3281H27.78C27.076 57.3281 26.516 56.7681 26.516 56.0641C26.516 55.3601 27.076 54.8 27.78 54.8H40.164C40.868 54.8 41.428 55.3601 41.428 56.0641C41.428 56.7681 40.868 57.3281 40.164 57.3281Z" fill="white"/>
<path id="Vector_9" d="M40.164 62.1601H27.78C27.076 62.1601 26.516 61.6001 26.516 60.8961C26.516 60.1921 27.076 59.6321 27.78 59.6321H40.164C40.868 59.6321 41.428 60.1921 41.428 60.8961C41.428 61.6001 40.868 62.1601 40.164 62.1601Z" fill="white"/>
<path id="Vector_10" d="M66.932 60.64H54.164C53.46 60.64 52.9 60.08 52.9 59.376C52.9 58.672 53.46 58.112 54.164 58.112H65.668V38.432C65.668 37.728 66.228 37.168 66.932 37.168C67.636 37.168 68.196 37.728 68.196 38.432V59.376C68.196 60.08 67.636 60.64 66.932 60.64Z" fill="white"/>
<path id="Vector_11" d="M64.516 41.6321C64.196 41.6321 63.876 41.5041 63.62 41.2641C63.124 40.7681 63.124 39.9681 63.62 39.4721L66.1 36.9921C66.596 36.4961 67.396 36.4961 67.892 36.9921L70.372 39.4721C70.868 39.9681 70.868 40.7681 70.372 41.2641C69.876 41.7601 69.076 41.7601 68.58 41.2641L66.996 39.6801L65.412 41.2641C65.172 41.5041 64.836 41.6321 64.516 41.6321Z" fill="white"/>
</g>
</svg>
