<svg width="80" height="80" viewBox="0 0 80 80" fill="none" xmlns="http://www.w3.org/2000/svg">
<g id="Icons/kf-portal-icons_genomes">
<path id="Vector" d="M68.7679 53.248C68.7679 53.248 68.7359 53.088 68.7039 53.008C67.0719 47.616 64.0159 42.096 58.3199 39.072C57.4559 38.608 56.5439 38.24 55.6319 37.92C55.5839 37.904 55.5359 37.888 55.4879 37.872C53.3439 37.168 51.0399 36.864 48.6239 36.96C46.5599 37.04 44.4479 37.424 42.3839 38.096C42.9119 36 42.9599 34.208 42.9759 33.968C43.3279 28.192 41.5199 22.688 37.9039 18.464C33.6799 13.536 27.0879 10.496 18.8639 9.69604C18.3199 9.64804 17.8399 10.048 17.7759 10.592C17.7279 11.136 18.1279 11.616 18.6719 11.68C19.9199 11.808 21.1199 11.984 22.2719 12.208L13.5679 27.488C12.2879 24.512 11.4559 21.296 11.2159 18.08C11.1679 17.536 10.7039 17.12 10.1599 17.168C9.61591 17.216 9.19991 17.68 9.24791 18.224C9.53591 22.176 10.7199 26.32 12.5919 30.064C12.5919 30.08 12.6079 30.096 12.6239 30.112C12.7999 30.48 12.9919 30.832 13.1839 31.184C13.9839 32.656 14.8959 34 15.8559 35.248C17.7759 37.68 19.9679 39.648 22.3679 41.024C23.7759 41.84 25.2479 42.432 26.7359 42.832C26.7999 42.864 26.8799 42.88 26.9439 42.88C30.7999 43.84 34.8799 43.424 39.0079 41.632C35.8719 49.744 37.9359 55.76 40.2879 59.424C44.4159 65.84 52.7039 70.144 61.4079 70.368C61.4079 70.368 61.4239 70.368 61.4399 70.368C61.9679 70.368 62.4159 69.936 62.4319 69.408C62.4319 68.864 62.0159 68.4 61.4719 68.384C58.0479 68.288 54.6239 67.52 51.4719 66.128L67.1999 55.072C67.5359 56.4 67.8239 57.808 68.0479 59.28C68.1279 59.776 68.5439 60.128 69.0239 60.128C69.0719 60.128 69.1199 60.128 69.1679 60.128C69.7119 60.048 70.0799 59.552 69.9999 59.008C69.7279 57.216 69.3439 55.264 68.7519 53.28L68.7679 53.248ZM48.6719 38.944C50.2239 38.88 51.6959 39.008 53.1199 39.296L39.4399 50.624C39.2639 47.728 39.8399 44.656 41.1839 41.488C41.3279 41.168 41.4399 40.848 41.5519 40.528C41.5519 40.512 41.5519 40.48 41.5679 40.464C43.8879 39.552 46.3199 39.024 48.6559 38.928L48.6719 38.944ZM24.2719 12.64C28.3519 13.696 31.7919 15.456 34.4959 17.856L16.7519 33.136C15.9679 32.048 15.2319 30.88 14.5919 29.648L24.2719 12.64ZM17.9679 34.688L35.9039 19.248C36.0639 19.408 36.2079 19.584 36.3519 19.744C37.7279 21.344 38.8159 23.168 39.5839 25.12L26.7039 40.752C25.5519 40.4 24.4159 39.92 23.3279 39.28C21.3759 38.16 19.5679 36.576 17.9519 34.688H17.9679ZM30.5279 41.376C29.9839 41.36 29.4239 41.296 28.8959 41.232L40.3359 27.344C40.8799 29.424 41.1039 31.616 40.9599 33.856C40.9599 33.856 40.9599 33.888 40.9599 33.904C40.9599 33.936 40.8959 36.512 40.0159 38.96C39.6799 39.104 39.3439 39.264 39.0079 39.424C36.1279 40.816 33.2639 41.472 30.5279 41.392V41.376ZM41.9519 58.32C40.8639 56.64 40.1439 54.832 39.7439 52.944L55.4239 39.952C56.0959 40.192 56.7359 40.48 57.3599 40.816C57.9519 41.136 58.5119 41.488 59.0719 41.872L44.2239 61.152C43.3599 60.256 42.5919 59.312 41.9519 58.304V58.32ZM49.4399 65.104C48.0639 64.352 46.8159 63.488 45.6799 62.528L60.6239 43.136C63.2479 45.52 65.2639 48.848 66.6079 53.024L49.4239 65.104H49.4399Z" fill="white"/>
<path id="Vector_2" d="M70.2079 30.768C68.8959 29.312 67.5839 28.496 66.1119 28.24C65.4079 28.112 64.7199 28.112 64.0319 28.192C64.0319 28.192 64.0319 28.192 64.0319 28.176C64.0319 27.856 64.0639 27.552 64.0639 27.28C64.0639 24.4 62.7679 22.96 61.6639 22.272C60.5759 21.584 59.2159 21.328 57.8719 21.504C58.0479 19.824 57.6479 18.352 56.6879 17.248C55.6319 16.016 53.9679 15.328 51.8559 15.232C52.1439 13.376 51.8879 11.312 49.5199 9.18397C49.1039 8.81597 48.4799 8.84797 48.1119 9.26397C47.7439 9.67997 47.7759 10.304 48.1919 10.672C49.9519 12.24 50.1279 13.664 49.8399 15.152C47.5039 14.992 46.7999 14.496 45.9359 12.528C45.7119 12.032 45.1359 11.792 44.6239 12.016C44.1279 12.24 43.8879 12.816 44.1119 13.328C45.3439 16.16 46.8799 16.896 49.3119 17.12C49.1839 17.536 49.0719 17.952 48.9759 18.368C48.5599 20.304 49.2639 22.256 50.7999 23.472C51.9999 24.416 53.5199 24.752 55.0559 24.448C54.7999 25.984 55.1519 27.456 56.0639 28.64C57.2799 30.208 59.2959 30.96 61.4399 30.624C61.6319 30.592 61.8239 30.56 62.0159 30.528C62.2079 32.56 63.0239 34.896 65.9359 36.288C66.0799 36.352 66.2239 36.384 66.3679 36.384C66.7359 36.384 67.0879 36.176 67.2639 35.824C67.5039 35.328 67.2959 34.736 66.7999 34.496C64.7359 33.52 64.1279 32 63.9999 30.208C65.6639 30.016 67.0079 30.24 68.7039 32.128C68.8959 32.352 69.1679 32.448 69.4399 32.448C69.6799 32.448 69.9199 32.368 70.1119 32.192C70.5119 31.824 70.5439 31.2 70.1919 30.784L70.2079 30.768ZM52.0639 21.856C51.1359 21.12 50.7039 19.92 50.9599 18.736C51.0559 18.304 51.1839 17.84 51.3279 17.36C51.3439 17.296 51.3599 17.232 51.3919 17.168C51.4399 17.168 51.4879 17.168 51.5359 17.168C53.1999 17.2 54.4479 17.68 55.1839 18.512C55.7919 19.216 56.0319 20.176 55.8879 21.376C55.8879 21.408 55.8879 21.44 55.8879 21.488C55.8879 21.488 55.8879 21.776 55.8079 22.112C54.4479 22.752 53.0879 22.672 52.0799 21.872L52.0639 21.856ZM61.1839 28.608C59.7599 28.816 58.4479 28.352 57.6799 27.36C56.9119 26.368 56.8159 25.008 57.3759 23.6C58.3679 23.312 59.6319 23.312 60.6079 23.92C61.5839 24.544 62.0799 25.664 62.0799 27.248C62.0799 27.472 62.0799 27.76 62.0479 28.048C62.0479 28.176 62.0479 28.32 62.0319 28.464C61.7599 28.512 61.4719 28.56 61.1839 28.608Z" fill="white"/>
<path id="Vector_3" d="M31.44 62.896C30.736 62.768 30.048 62.768 29.36 62.848C29.36 62.848 29.36 62.848 29.36 62.832C29.36 62.512 29.392 62.208 29.392 61.936C29.392 59.056 28.096 57.616 26.992 56.928C25.904 56.24 24.544 55.984 23.2 56.16C23.376 54.48 22.976 53.008 22.016 51.904C20.96 50.672 19.296 49.984 17.184 49.888C17.472 48.032 17.216 45.968 14.848 43.84C14.432 43.472 13.808 43.504 13.44 43.92C13.072 44.336 13.104 44.96 13.52 45.328C15.28 46.896 15.456 48.32 15.168 49.808C12.832 49.648 12.128 49.152 11.264 47.184C11.04 46.688 10.464 46.448 9.95201 46.672C9.45601 46.896 9.21601 47.472 9.44001 47.984C10.672 50.816 12.208 51.552 14.64 51.776C14.512 52.192 14.4 52.608 14.304 53.024C13.888 54.96 14.592 56.912 16.128 58.128C17.328 59.072 18.848 59.408 20.384 59.104C20.128 60.64 20.48 62.112 21.392 63.296C22.608 64.864 24.624 65.6 26.768 65.28C26.96 65.248 27.152 65.216 27.344 65.184C27.536 67.216 28.352 69.552 31.264 70.944C31.408 71.008 31.552 71.04 31.696 71.04C32.064 71.04 32.416 70.832 32.592 70.48C32.832 69.984 32.624 69.392 32.128 69.152C30.064 68.176 29.456 66.656 29.328 64.864C30.992 64.672 32.336 64.896 34.032 66.784C34.224 67.008 34.496 67.104 34.768 67.104C35.008 67.104 35.248 67.024 35.44 66.848C35.84 66.48 35.872 65.856 35.52 65.44C34.208 63.984 32.896 63.168 31.424 62.912L31.44 62.896ZM17.408 56.528C16.48 55.792 16.048 54.592 16.304 53.408C16.4 52.976 16.528 52.512 16.672 52.032C16.688 51.968 16.704 51.904 16.736 51.84C16.784 51.84 16.832 51.84 16.88 51.84C18.544 51.872 19.792 52.352 20.528 53.184C21.136 53.888 21.376 54.848 21.232 56.048C21.232 56.08 21.232 56.112 21.232 56.16C21.232 56.16 21.232 56.448 21.152 56.784C19.792 57.424 18.432 57.344 17.424 56.544L17.408 56.528ZM26.512 63.28C25.088 63.488 23.776 63.024 23.008 62.032C22.24 61.04 22.144 59.68 22.704 58.272C23.696 57.984 24.96 57.984 25.936 58.592C26.912 59.216 27.408 60.336 27.408 61.92C27.408 62.144 27.408 62.432 27.376 62.72C27.376 62.848 27.376 62.992 27.36 63.136C27.088 63.184 26.8 63.232 26.512 63.28Z" fill="white"/>
</g>
</svg>
