<svg width="80" height="80" viewBox="0 0 80 80" fill="none" xmlns="http://www.w3.org/2000/svg">
<g id="Icons/kf-portal-icons_studies_2">
<path id="Vector" d="M26.256 19.4241H16.656C16.224 19.4241 15.84 19.1361 15.712 18.7361C15.584 18.3201 15.744 17.8721 16.096 17.6321L25.696 11.1041C26 10.8961 26.384 10.8801 26.704 11.0561C27.024 11.2321 27.232 11.5521 27.232 11.9201V18.4481C27.232 18.9921 26.8 19.4241 26.256 19.4241ZM19.856 17.4721H25.28V13.7921L19.856 17.4721Z" fill="#2B388F"/>
<path id="Vector_2" d="M56 36.88C55.456 36.88 55.024 36.448 55.024 35.904V16.8C55.024 16.256 55.456 15.824 56 15.824H60.224C60.768 15.824 61.2 16.256 61.2 16.8V30.656C61.2 31.2 60.768 31.632 60.224 31.632C59.68 31.632 59.248 31.2 59.248 30.656V17.776H56.992V35.904C56.992 36.448 56.56 36.88 56.016 36.88H56Z" fill="#2B388F"/>
<path id="Vector_3" d="M60.224 69.056H20.88C20.336 69.056 19.904 68.624 19.904 68.08V63.216C19.904 62.672 20.336 62.24 20.88 62.24H56C56.544 62.24 56.976 62.672 56.976 63.216C56.976 63.76 56.544 64.192 56 64.192H21.856V67.088H60.224C60.768 67.088 61.2 67.52 61.2 68.064C61.2 68.608 60.768 69.04 60.224 69.04V69.056Z" fill="#2B388F"/>
<path id="Vector_4" d="M56 64.192H16.656C16.112 64.192 15.68 63.76 15.68 63.216V18.448C15.68 18.128 15.84 17.824 16.112 17.632L25.712 11.104C25.872 10.992 26.064 10.928 26.256 10.928H56C56.544 10.928 56.976 11.36 56.976 11.904V35.872C56.976 36.144 56.864 36.416 56.656 36.608C56.448 36.8 56.176 36.88 55.888 36.848L41.664 35.248L43.792 54.208L47.872 50.128C48.24 49.76 48.896 49.76 49.264 50.128L56.704 57.568C56.896 57.76 56.992 58 56.992 58.256V63.184C56.992 63.728 56.56 64.16 56.016 64.16L56 64.192ZM17.632 62.224H55.008V58.672L48.56 52.224L43.728 57.056C43.456 57.328 43.072 57.408 42.704 57.296C42.352 57.168 42.096 56.848 42.048 56.48L39.552 34.272C39.52 33.968 39.616 33.68 39.84 33.472C40.048 33.264 40.352 33.152 40.64 33.184L55.008 34.8V12.912H26.544L17.632 18.976V62.24V62.224Z" fill="#2B388F"/>
<path id="Vector_5" d="M59.376 62.624C59.12 62.624 58.88 62.528 58.688 62.336L48.576 52.24L43.744 57.072C43.472 57.344 43.088 57.424 42.72 57.312C42.368 57.184 42.112 56.864 42.064 56.496L39.568 34.288C39.536 33.984 39.632 33.696 39.856 33.488C40.064 33.28 40.368 33.168 40.656 33.2L62.864 35.696C63.232 35.744 63.552 35.984 63.68 36.352C63.808 36.704 63.712 37.104 63.44 37.376L58.608 42.208L68.72 52.32C69.104 52.704 69.104 53.328 68.72 53.712L60.064 62.368C59.872 62.56 59.616 62.656 59.376 62.656V62.624ZM48.576 49.856C48.832 49.856 49.072 49.952 49.264 50.144L59.36 60.256L66.64 52.976L56.528 42.864C56.336 42.672 56.24 42.432 56.24 42.176C56.24 41.92 56.336 41.664 56.528 41.488L60.608 37.408L41.648 35.28L43.776 54.24L47.856 50.16C48.048 49.968 48.304 49.872 48.544 49.872L48.576 49.856Z" fill="#2B388F"/>
<path id="Vector_6" d="M40.016 29.696H22.016C21.472 29.696 21.04 29.264 21.04 28.72V24.08C21.04 23.536 21.472 23.104 22.016 23.104H40.016C40.56 23.104 40.992 23.536 40.992 24.08V28.72C40.992 29.264 40.56 29.696 40.016 29.696ZM22.992 27.744H39.024V25.072H22.992V27.744Z" fill="#2B388F"/>
<path id="Vector_7" d="M34.336 35.7601H22.016C21.472 35.7601 21.04 35.3281 21.04 34.7841C21.04 34.2401 21.472 33.8081 22.016 33.8081H34.336C34.88 33.8081 35.312 34.2401 35.312 34.7841C35.312 35.3281 34.88 35.7601 34.336 35.7601Z" fill="#2B388F"/>
<path id="Vector_8" d="M36.992 41.44H22.016C21.472 41.44 21.04 41.008 21.04 40.464C21.04 39.92 21.472 39.488 22.016 39.488H36.992C37.536 39.488 37.968 39.92 37.968 40.464C37.968 41.008 37.536 41.44 36.992 41.44Z" fill="#2B388F"/>
<path id="Vector_9" d="M36.992 47.1361H22.016C21.472 47.1361 21.04 46.7041 21.04 46.1601C21.04 45.6161 21.472 45.1841 22.016 45.1841H36.992C37.536 45.1841 37.968 45.6161 37.968 46.1601C37.968 46.7041 37.536 47.1361 36.992 47.1361Z" fill="#2B388F"/>
<path id="Vector_10" d="M36.992 52.816H22.016C21.472 52.816 21.04 52.384 21.04 51.84C21.04 51.296 21.472 50.864 22.016 50.864H36.992C37.536 50.864 37.968 51.296 37.968 51.84C37.968 52.384 37.536 52.816 36.992 52.816Z" fill="#2B388F"/>
<path id="Vector_11" d="M36.992 58.4959H22.016C21.472 58.4959 21.04 58.0639 21.04 57.5199C21.04 56.9759 21.472 56.5439 22.016 56.5439H36.992C37.536 56.5439 37.968 56.9759 37.968 57.5199C37.968 58.0639 37.536 58.4959 36.992 58.4959Z" fill="#2B388F"/>
</g>
</svg>
