<svg width="81" height="80" viewBox="0 0 81 80" fill="none" xmlns="http://www.w3.org/2000/svg">
<g id="Icons/kf-portal-icons_participants_3">
<path id="Vector" d="M33.044 52.384H15.028C14.468 52.384 14.02 51.936 14.02 51.376V46.72C14.02 43.056 17.012 40.064 20.676 40.064H21.38C21.94 40.064 22.388 40.512 22.388 41.072C22.388 41.632 21.94 42.08 21.38 42.08H20.676C18.116 42.08 16.02 44.16 16.02 46.736V50.4H32.036V46.736C32.036 44.176 29.956 42.08 27.38 42.08H26.676C26.116 42.08 25.668 41.632 25.668 41.072C25.668 40.512 26.116 40.064 26.676 40.064H27.38C31.044 40.064 34.036 43.056 34.036 46.72V51.376C34.036 51.936 33.588 52.384 33.028 52.384H33.044Z" fill="white"/>
<path id="Vector_2" d="M21.284 52.3841C21.284 52.3841 21.188 52.3841 21.14 52.3841C20.596 52.3041 20.212 51.8081 20.276 51.2481L21.22 44.4801C21.3 43.9361 21.796 43.5521 22.356 43.6161C22.9 43.6961 23.284 44.1921 23.22 44.7521L22.276 51.5201C22.212 52.0161 21.78 52.3841 21.284 52.3841Z" fill="white"/>
<path id="Vector_3" d="M26.804 52.3841C26.308 52.3841 25.876 52.0161 25.812 51.5201L24.868 44.7521C24.788 44.2081 25.172 43.6961 25.732 43.6161C26.276 43.5521 26.788 43.9201 26.868 44.4801L27.812 51.2481C27.892 51.7921 27.508 52.3041 26.948 52.3841C26.9 52.3841 26.852 52.3841 26.804 52.3841Z" fill="white"/>
<path id="Vector_4" d="M24.036 38.48C21.076 38.48 18.66 36.064 18.66 33.104C18.66 30.144 21.076 27.728 24.036 27.728C26.996 27.728 29.412 30.144 29.412 33.104C29.412 36.064 26.996 38.48 24.036 38.48ZM24.036 29.744C22.18 29.744 20.66 31.264 20.66 33.12C20.66 34.976 22.18 36.496 24.036 36.496C25.892 36.496 27.412 34.976 27.412 33.12C27.412 31.264 25.892 29.744 24.036 29.744Z" fill="white"/>
<path id="Vector_5" d="M62.82 31.5999H50.34C49.78 31.5999 49.332 31.1519 49.332 30.5919V27.3599C49.332 24.9759 51.028 22.9439 53.364 22.5279C53.908 22.4319 54.436 22.7839 54.532 23.3439C54.628 23.8879 54.276 24.4159 53.716 24.5119C52.34 24.7679 51.332 25.9679 51.332 27.3759V29.5999H61.796V27.3759C61.796 25.9679 60.788 24.7679 59.412 24.5119C58.868 24.4159 58.5 23.8879 58.596 23.3439C58.692 22.7999 59.22 22.4319 59.764 22.5279C62.1 22.9439 63.812 24.9919 63.812 27.3599V30.5919C63.812 31.1519 63.364 31.5999 62.804 31.5999H62.82Z" fill="white"/>
<path id="Vector_6" d="M54.66 31.6C54.66 31.6 54.564 31.6 54.516 31.6C53.972 31.52 53.588 31.024 53.652 30.464L54.308 25.776C54.388 25.232 54.884 24.848 55.444 24.912C55.988 24.992 56.372 25.488 56.308 26.048L55.652 30.736C55.588 31.232 55.156 31.6 54.66 31.6Z" fill="white"/>
<path id="Vector_7" d="M58.484 31.6C57.988 31.6 57.556 31.232 57.492 30.736L56.836 26.048C56.756 25.504 57.14 24.992 57.7 24.912C58.244 24.848 58.756 25.216 58.836 25.776L59.492 30.464C59.572 31.008 59.188 31.52 58.628 31.6C58.58 31.6 58.532 31.6 58.484 31.6Z" fill="white"/>
<path id="Vector_8" d="M56.58 21.9839C54.356 21.9839 52.548 20.1759 52.548 17.9519C52.548 15.7279 54.356 13.9199 56.58 13.9199C58.804 13.9199 60.612 15.7279 60.612 17.9519C60.612 20.1759 58.804 21.9839 56.58 21.9839ZM56.58 15.9199C55.46 15.9199 54.548 16.8319 54.548 17.9519C54.548 19.0719 55.46 19.9839 56.58 19.9839C57.7 19.9839 58.612 19.0719 58.612 17.9519C58.612 16.8319 57.7 15.9199 56.58 15.9199Z" fill="white"/>
<path id="Vector_9" d="M24.036 59.5359C14.212 59.5359 6.22803 51.5519 6.22803 41.7279C6.22803 31.9039 14.212 23.9199 24.036 23.9199C33.86 23.9199 41.844 31.9039 41.844 41.7279C41.844 51.5519 33.86 59.5359 24.036 59.5359ZM24.036 25.9359C15.332 25.9359 8.24403 33.0239 8.24403 41.7279C8.24403 50.4319 15.332 57.5199 24.036 57.5199C32.74 57.5199 39.828 50.4319 39.828 41.7279C39.828 33.0239 32.74 25.9359 24.036 25.9359Z" fill="white"/>
<path id="Vector_10" d="M11.652 42.7361C11.092 42.7361 10.644 42.2881 10.644 41.7281C10.644 38.0161 12.212 34.4321 14.932 31.9041C15.332 31.5201 15.972 31.5521 16.356 31.9521C16.74 32.3521 16.708 32.9921 16.308 33.3761C13.988 35.5201 12.66 38.5601 12.66 41.7281C12.66 42.2881 12.212 42.7361 11.652 42.7361Z" fill="white"/>
<path id="Vector_11" d="M36.42 42.7361C35.86 42.7361 35.412 42.2881 35.412 41.7281C35.412 38.5761 34.084 35.5361 31.764 33.3761C31.364 32.9921 31.332 32.3681 31.716 31.9521C32.1 31.5521 32.724 31.5201 33.14 31.9041C35.86 34.4321 37.428 38.0161 37.428 41.7281C37.428 42.2881 36.98 42.7361 36.42 42.7361Z" fill="white"/>
<path id="Vector_12" d="M56.5801 38.2881C48.8841 38.2881 42.6121 32.0161 42.6121 24.3201C42.6121 16.6241 48.8841 10.3521 56.5801 10.3521C64.2761 10.3521 70.5481 16.6241 70.5481 24.3201C70.5481 32.0161 64.2761 38.2881 56.5801 38.2881ZM56.5801 12.3681C49.9881 12.3681 44.6281 17.7281 44.6281 24.3201C44.6281 30.9121 49.9881 36.2721 56.5801 36.2721C63.1721 36.2721 68.5321 30.9121 68.5321 24.3201C68.5321 17.7281 63.1721 12.3681 56.5801 12.3681Z" fill="white"/>
<path id="Vector_13" d="M62.932 66.4161H50.452C49.892 66.4161 49.444 65.9681 49.444 65.4081V62.1761C49.444 59.7921 51.14 57.7601 53.476 57.3441C54.02 57.2481 54.548 57.6001 54.644 58.1601C54.74 58.7041 54.388 59.2321 53.828 59.3281C52.452 59.5841 51.444 60.7841 51.444 62.1921V64.4161H61.908V62.1921C61.908 60.7841 60.9 59.5841 59.524 59.3281C58.98 59.2321 58.612 58.7041 58.708 58.1601C58.804 57.6161 59.332 57.2481 59.876 57.3441C62.212 57.7601 63.924 59.8081 63.924 62.1761V65.4081C63.924 65.9681 63.476 66.4161 62.916 66.4161H62.932Z" fill="white"/>
<path id="Vector_14" d="M54.772 66.4159C54.772 66.4159 54.676 66.4159 54.628 66.4159C54.084 66.3359 53.7 65.8399 53.764 65.2799L54.42 60.5919C54.5 60.0479 54.996 59.6639 55.556 59.7279C56.1 59.8079 56.484 60.3039 56.42 60.8639L55.764 65.5519C55.7 66.0479 55.268 66.4159 54.772 66.4159Z" fill="white"/>
<path id="Vector_15" d="M58.596 66.4159C58.1 66.4159 57.668 66.0479 57.604 65.5519L56.948 60.8639C56.868 60.3199 57.252 59.8079 57.812 59.7279C58.356 59.6639 58.868 60.0319 58.948 60.5919L59.604 65.2799C59.684 65.8239 59.3 66.3359 58.74 66.4159C58.692 66.4159 58.644 66.4159 58.596 66.4159Z" fill="white"/>
<path id="Vector_16" d="M56.692 56.784C54.468 56.784 52.66 54.976 52.66 52.752C52.66 50.528 54.468 48.72 56.692 48.72C58.916 48.72 60.724 50.528 60.724 52.752C60.724 54.976 58.916 56.784 56.692 56.784ZM56.692 50.736C55.572 50.736 54.66 51.648 54.66 52.768C54.66 53.888 55.572 54.8 56.692 54.8C57.812 54.8 58.724 53.888 58.724 52.768C58.724 51.648 57.812 50.736 56.692 50.736Z" fill="white"/>
<path id="Vector_17" d="M56.692 73.0881C48.996 73.0881 42.724 66.8161 42.724 59.1201C42.724 51.4241 48.996 45.1521 56.692 45.1521C64.388 45.1521 70.66 51.4241 70.66 59.1201C70.66 66.8161 64.388 73.0881 56.692 73.0881ZM56.692 47.1681C50.1 47.1681 44.74 52.5281 44.74 59.1201C44.74 65.7121 50.1 71.0721 56.692 71.0721C63.284 71.0721 68.644 65.7121 68.644 59.1201C68.644 52.5281 63.284 47.1681 56.692 47.1681Z" fill="white"/>
<path id="Vector_18" d="M38.18 33.6479C37.78 33.6479 37.396 33.4079 37.236 33.0079C37.044 32.4959 37.3 31.9039 37.812 31.7119L44.58 29.1199C45.092 28.9279 45.684 29.1839 45.876 29.6959C46.068 30.2079 45.812 30.7999 45.3 30.9919L38.532 33.5839C38.42 33.6319 38.292 33.6479 38.18 33.6479Z" fill="white"/>
<path id="Vector_19" d="M56.692 73.0881C48.996 73.0881 42.724 66.8161 42.724 59.1201C42.724 51.4241 48.996 45.1521 56.692 45.1521C64.388 45.1521 70.66 51.4241 70.66 59.1201C70.66 66.8161 64.388 73.0881 56.692 73.0881ZM56.692 47.1681C50.1 47.1681 44.74 52.5281 44.74 59.1201C44.74 65.7121 50.1 71.0721 56.692 71.0721C63.284 71.0721 68.644 65.7121 68.644 59.1201C68.644 52.5281 63.284 47.1681 56.692 47.1681Z" fill="white"/>
<path id="Vector_20" d="M45.06 54.4C44.948 54.4 44.82 54.384 44.708 54.336L37.94 51.744C37.428 51.552 37.156 50.96 37.364 50.448C37.556 49.936 38.148 49.664 38.66 49.872L45.428 52.464C45.94 52.656 46.212 53.248 46.004 53.76C45.844 54.16 45.476 54.4 45.06 54.4Z" fill="white"/>
</g>
</svg>
