<svg width="80" height="80" viewBox="0 0 80 80" fill="none" xmlns="http://www.w3.org/2000/svg">
<g id="Icons/kf-portal-icons_studies_2">
<path id="Vector" d="M26.256 19.4241H16.656C16.224 19.4241 15.84 19.1361 15.712 18.7361C15.584 18.3201 15.744 17.8721 16.096 17.6321L25.696 11.1041C26 10.8961 26.384 10.8801 26.704 11.0561C27.024 11.2321 27.232 11.5521 27.232 11.9201V18.4481C27.232 18.9921 26.8 19.4241 26.256 19.4241ZM19.856 17.4721H25.28V13.7921L19.856 17.4721Z" fill="white"/>
<path id="Vector_2" d="M56 36.88C55.456 36.88 55.024 36.448 55.024 35.904V16.8C55.024 16.256 55.456 15.824 56 15.824H60.224C60.768 15.824 61.2001 16.256 61.2001 16.8V30.656C61.2001 31.2 60.768 31.632 60.224 31.632C59.68 31.632 59.248 31.2 59.248 30.656V17.776H56.992V35.904C56.992 36.448 56.56 36.88 56.016 36.88H56Z" fill="white"/>
<path id="Vector_3" d="M60.2241 69.056H20.8801C20.3361 69.056 19.9041 68.624 19.9041 68.08V63.216C19.9041 62.672 20.3361 62.24 20.8801 62.24H56.0001C56.5441 62.24 56.9761 62.672 56.9761 63.216C56.9761 63.76 56.5441 64.192 56.0001 64.192H21.8561V67.088H60.2241C60.7681 67.088 61.2001 67.52 61.2001 68.064C61.2001 68.608 60.7681 69.04 60.2241 69.04V69.056Z" fill="white"/>
<path id="Vector_4" d="M56.0001 64.192H16.6561C16.1121 64.192 15.6801 63.76 15.6801 63.216V18.448C15.6801 18.128 15.8401 17.824 16.1121 17.632L25.7121 11.104C25.8721 10.992 26.0641 10.928 26.2561 10.928H56.0001C56.5441 10.928 56.9761 11.36 56.9761 11.904V35.872C56.9761 36.144 56.8641 36.416 56.6561 36.608C56.4481 36.8 56.1761 36.88 55.8881 36.848L41.6641 35.248L43.7921 54.208L47.8721 50.128C48.2401 49.76 48.8961 49.76 49.2641 50.128L56.7041 57.568C56.8961 57.76 56.9921 58 56.9921 58.256V63.184C56.9921 63.728 56.5601 64.16 56.0161 64.16L56.0001 64.192ZM17.6321 62.224H55.0081V58.672L48.5601 52.224L43.7281 57.056C43.4561 57.328 43.0721 57.408 42.7041 57.296C42.3521 57.168 42.0961 56.848 42.0481 56.48L39.5521 34.272C39.5201 33.968 39.6161 33.68 39.8401 33.472C40.0481 33.264 40.3521 33.152 40.6401 33.184L55.0081 34.8V12.912H26.5441L17.6321 18.976V62.24V62.224Z" fill="white"/>
<path id="Vector_5" d="M59.376 62.624C59.12 62.624 58.88 62.528 58.688 62.336L48.576 52.24L43.744 57.072C43.472 57.344 43.088 57.424 42.72 57.312C42.368 57.184 42.112 56.864 42.064 56.496L39.568 34.288C39.536 33.984 39.632 33.696 39.856 33.488C40.064 33.28 40.368 33.168 40.656 33.2L62.864 35.696C63.232 35.744 63.552 35.984 63.68 36.352C63.808 36.704 63.712 37.104 63.44 37.376L58.608 42.208L68.72 52.32C69.104 52.704 69.104 53.328 68.72 53.712L60.064 62.368C59.872 62.56 59.616 62.656 59.376 62.656V62.624ZM48.576 49.856C48.832 49.856 49.072 49.952 49.264 50.144L59.36 60.256L66.64 52.976L56.528 42.864C56.336 42.672 56.24 42.432 56.24 42.176C56.24 41.92 56.336 41.664 56.528 41.488L60.608 37.408L41.648 35.28L43.776 54.24L47.856 50.16C48.048 49.968 48.304 49.872 48.544 49.872L48.576 49.856Z" fill="white"/>
<path id="Vector_6" d="M40.016 29.696H22.016C21.472 29.696 21.04 29.264 21.04 28.72V24.08C21.04 23.536 21.472 23.104 22.016 23.104H40.016C40.56 23.104 40.992 23.536 40.992 24.08V28.72C40.992 29.264 40.56 29.696 40.016 29.696ZM22.992 27.744H39.024V25.072H22.992V27.744Z" fill="white"/>
<path id="Vector_7" d="M34.336 35.7601H22.016C21.472 35.7601 21.04 35.3281 21.04 34.7841C21.04 34.2401 21.472 33.8081 22.016 33.8081H34.336C34.88 33.8081 35.312 34.2401 35.312 34.7841C35.312 35.3281 34.88 35.7601 34.336 35.7601Z" fill="white"/>
<path id="Vector_8" d="M36.992 41.44H22.016C21.472 41.44 21.04 41.008 21.04 40.464C21.04 39.92 21.472 39.488 22.016 39.488H36.992C37.536 39.488 37.968 39.92 37.968 40.464C37.968 41.008 37.536 41.44 36.992 41.44Z" fill="white"/>
<path id="Vector_9" d="M36.992 47.1361H22.016C21.472 47.1361 21.04 46.7041 21.04 46.1601C21.04 45.6161 21.472 45.1841 22.016 45.1841H36.992C37.536 45.1841 37.968 45.6161 37.968 46.1601C37.968 46.7041 37.536 47.1361 36.992 47.1361Z" fill="white"/>
<path id="Vector_10" d="M36.992 52.816H22.016C21.472 52.816 21.04 52.384 21.04 51.84C21.04 51.296 21.472 50.864 22.016 50.864H36.992C37.536 50.864 37.968 51.296 37.968 51.84C37.968 52.384 37.536 52.816 36.992 52.816Z" fill="white"/>
<path id="Vector_11" d="M36.992 58.4959H22.016C21.472 58.4959 21.04 58.0639 21.04 57.5199C21.04 56.9759 21.472 56.5439 22.016 56.5439H36.992C37.536 56.5439 37.968 56.9759 37.968 57.5199C37.968 58.0639 37.536 58.4959 36.992 58.4959Z" fill="white"/>
</g>
</svg>
