<svg width="119" height="87" viewBox="0 0 119 87" fill="none" xmlns="http://www.w3.org/2000/svg">
<g opacity="0.5">
<path d="M39.7012 60.5008H13.9012V37.1008C13.9012 36.9358 13.7662 36.8008 13.6012 36.8008H11.5012C11.3362 36.8008 11.2012 36.9358 11.2012 37.1008V62.9008C11.2012 63.0658 11.3362 63.2008 11.5012 63.2008H39.7012C39.8662 63.2008 40.0012 63.0658 40.0012 62.9008V60.8008C40.0012 60.6358 39.8662 60.5008 39.7012 60.5008ZM17.2012 57.5008H19.3012C19.4662 57.5008 19.6012 57.3658 19.6012 57.2008V51.8008C19.6012 51.6358 19.4662 51.5008 19.3012 51.5008H17.2012C17.0362 51.5008 16.9012 51.6358 16.9012 51.8008V57.2008C16.9012 57.3658 17.0362 57.5008 17.2012 57.5008ZM22.9012 57.5008H25.0012C25.1662 57.5008 25.3012 57.3658 25.3012 57.2008V45.2008C25.3012 45.0358 25.1662 44.9008 25.0012 44.9008H22.9012C22.7362 44.9008 22.6012 45.0358 22.6012 45.2008V57.2008C22.6012 57.3658 22.7362 57.5008 22.9012 57.5008ZM28.6012 57.5008H30.7012C30.8662 57.5008 31.0012 57.3658 31.0012 57.2008V48.1258C31.0012 47.9608 30.8662 47.8258 30.7012 47.8258H28.6012C28.4362 47.8258 28.3012 47.9608 28.3012 48.1258V57.2008C28.3012 57.3658 28.4362 57.5008 28.6012 57.5008ZM34.3012 57.5008H36.4012C36.5662 57.5008 36.7012 57.3658 36.7012 57.2008V42.2008C36.7012 42.0358 36.5662 41.9008 36.4012 41.9008H34.3012C34.1362 41.9008 34.0012 42.0358 34.0012 42.2008V57.2008C34.0012 57.3658 34.1362 57.5008 34.3012 57.5008Z" fill="#A9ADC0"/>
</g>
<g opacity="0.5">
<path d="M80.525 47.9512H49.325C48.6612 47.9512 48.125 48.4874 48.125 49.1512V73.1512C48.125 73.8149 48.6612 74.3512 49.325 74.3512H80.525C81.1888 74.3512 81.725 73.8149 81.725 73.1512V49.1512C81.725 48.4874 81.1888 47.9512 80.525 47.9512ZM79.025 71.6512H50.825V50.6512H79.025V71.6512ZM54.3163 68.5649C54.4325 68.6812 54.6238 68.6812 54.74 68.5649L61.2088 62.0962L65.4988 66.3899C65.615 66.5062 65.8062 66.5062 65.9225 66.3899L77.06 55.2449C77.1763 55.1287 77.1763 54.9374 77.06 54.8212L75.68 53.4412C75.6236 53.3853 75.5475 53.354 75.4681 53.354C75.3888 53.354 75.3126 53.3853 75.2563 53.4412L65.7125 62.9887L61.4225 58.6949C61.3661 58.6391 61.29 58.6078 61.2106 58.6078C61.1313 58.6078 61.0551 58.6391 60.9987 58.6949L52.94 66.7574C52.8842 66.8138 52.8529 66.8899 52.8529 66.9693C52.8529 67.0486 52.8842 67.1248 52.94 67.1812L54.3163 68.5649Z" fill="#A9ADC0"/>
</g>
<g opacity="0.5">
<path d="M67.3992 25.8257H53.9742V12.4007C53.9742 12.2357 53.8392 12.1007 53.6742 12.1007H52.6992C50.7294 12.0975 48.7783 12.4838 46.9583 13.2375C45.1383 13.9911 43.4852 15.0971 42.0942 16.492C40.7244 17.8576 39.6329 19.4763 38.8805 21.2582C38.0975 23.1064 37.6957 25.0936 37.6992 27.1007C37.696 29.0706 38.0823 31.0217 38.8359 32.8417C39.5896 34.6617 40.6956 36.3148 42.0905 37.7057C43.4667 39.082 45.0717 40.1658 46.8567 40.9195C48.7049 41.7025 50.6921 42.1043 52.6992 42.1007C54.6691 42.104 56.6202 41.7177 58.4402 40.964C60.2602 40.2104 61.9133 39.1044 63.3042 37.7095C64.6805 36.3333 65.7642 34.7283 66.518 32.9432C67.301 31.0951 67.7027 29.1079 67.6992 27.1007V26.1257C67.6992 25.9607 67.5642 25.8257 67.3992 25.8257ZM61.463 35.9433C60.3018 37.0954 58.9247 38.0071 57.4105 38.6261C55.8964 39.2452 54.275 39.5594 52.6392 39.5508C49.3355 39.5358 46.2305 38.242 43.8942 35.9058C41.543 33.5545 40.2492 30.427 40.2492 27.1007C40.2492 23.7745 41.543 20.647 43.8942 18.2957C45.9417 16.2482 48.578 14.9995 51.4242 14.7145V28.3757H65.0855C64.7967 31.237 63.5367 33.8883 61.463 35.9433ZM70.6992 23.7407L70.6017 22.6832C70.283 19.2295 68.7492 15.9707 66.2817 13.5107C63.8125 11.0462 60.5605 9.52099 57.0867 9.19825L56.0255 9.10075C55.8492 9.08575 55.6992 9.22075 55.6992 9.397V23.8007C55.6992 23.9657 55.8342 24.1007 55.9992 24.1007L70.3992 24.0632C70.5755 24.0632 70.7142 23.9132 70.6992 23.7407ZM58.2417 21.5582V11.9357C60.604 12.4302 62.7718 13.6001 64.4817 15.3032C66.1955 17.0132 67.3692 19.1882 67.8567 21.532L58.2417 21.5582Z" fill="#A9ADC0"/>
</g>
<g opacity="0.5">
<path d="M107.502 39.9012H81.702V16.5012C81.702 16.3362 81.567 16.2012 81.402 16.2012H79.302C79.137 16.2012 79.002 16.3362 79.002 16.5012V42.3012C79.002 42.4662 79.137 42.6012 79.302 42.6012H107.502C107.667 42.6012 107.802 42.4662 107.802 42.3012V40.2012C107.802 40.0362 107.667 39.9012 107.502 39.9012ZM85.002 32.8512C85.002 33.4877 85.2548 34.0981 85.7049 34.5482C86.155 34.9983 86.7654 35.2512 87.402 35.2512C88.0385 35.2512 88.6489 34.9983 89.099 34.5482C89.5491 34.0981 89.802 33.4877 89.802 32.8512C89.802 32.2147 89.5491 31.6042 89.099 31.1541C88.6489 30.704 88.0385 30.4512 87.402 30.4512C86.7654 30.4512 86.155 30.704 85.7049 31.1541C85.2548 31.6042 85.002 32.2147 85.002 32.8512ZM89.427 24.4512C89.427 24.9286 89.6166 25.3864 89.9542 25.724C90.2917 26.0615 90.7496 26.2512 91.227 26.2512C91.7043 26.2512 92.1622 26.0615 92.4997 25.724C92.8373 25.3864 93.027 24.9286 93.027 24.4512C93.027 23.9738 92.8373 23.5159 92.4997 23.1784C92.1622 22.8408 91.7043 22.6512 91.227 22.6512C90.7496 22.6512 90.2917 22.8408 89.9542 23.1784C89.6166 23.5159 89.427 23.9738 89.427 24.4512ZM95.352 33.0012C95.352 33.9559 95.7312 34.8716 96.4064 35.5468C97.0815 36.2219 97.9972 36.6012 98.952 36.6012C99.9067 36.6012 100.822 36.2219 101.498 35.5468C102.173 34.8716 102.552 33.9559 102.552 33.0012C102.552 32.0464 102.173 31.1307 101.498 30.4556C100.822 29.7805 99.9067 29.4012 98.952 29.4012C97.9972 29.4012 97.0815 29.7805 96.4064 30.4556C95.7312 31.1307 95.352 32.0464 95.352 33.0012ZM100.902 21.2262C100.902 21.7831 101.123 22.3173 101.517 22.7111C101.911 23.1049 102.445 23.3262 103.002 23.3262C103.559 23.3262 104.093 23.1049 104.487 22.7111C104.881 22.3173 105.102 21.7831 105.102 21.2262C105.102 20.6692 104.881 20.1351 104.487 19.7412C104.093 19.3474 103.559 19.1262 103.002 19.1262C102.445 19.1262 101.911 19.3474 101.517 19.7412C101.123 20.1351 100.902 20.6692 100.902 21.2262Z" fill="#A9ADC0"/>
</g>
</svg>
