<svg width="205" height="52" viewBox="0 0 205 52" fill="none" xmlns="http://www.w3.org/2000/svg">
<g opacity="0.5">
<path d="M39.7012 36.1004H13.9012V12.7004C13.9012 12.5354 13.7662 12.4004 13.6012 12.4004H11.5012C11.3362 12.4004 11.2012 12.5354 11.2012 12.7004V38.5004C11.2012 38.6654 11.3362 38.8004 11.5012 38.8004H39.7012C39.8662 38.8004 40.0012 38.6654 40.0012 38.5004V36.4004C40.0012 36.2354 39.8662 36.1004 39.7012 36.1004ZM17.2012 33.1004H19.3012C19.4662 33.1004 19.6012 32.9654 19.6012 32.8004V27.4004C19.6012 27.2354 19.4662 27.1004 19.3012 27.1004H17.2012C17.0362 27.1004 16.9012 27.2354 16.9012 27.4004V32.8004C16.9012 32.9654 17.0362 33.1004 17.2012 33.1004ZM22.9012 33.1004H25.0012C25.1662 33.1004 25.3012 32.9654 25.3012 32.8004V20.8004C25.3012 20.6354 25.1662 20.5004 25.0012 20.5004H22.9012C22.7362 20.5004 22.6012 20.6354 22.6012 20.8004V32.8004C22.6012 32.9654 22.7362 33.1004 22.9012 33.1004ZM28.6012 33.1004H30.7012C30.8662 33.1004 31.0012 32.9654 31.0012 32.8004V23.7254C31.0012 23.5604 30.8662 23.4254 30.7012 23.4254H28.6012C28.4362 23.4254 28.3012 23.5604 28.3012 23.7254V32.8004C28.3012 32.9654 28.4362 33.1004 28.6012 33.1004ZM34.3012 33.1004H36.4012C36.5662 33.1004 36.7012 32.9654 36.7012 32.8004V17.8004C36.7012 17.6354 36.5662 17.5004 36.4012 17.5004H34.3012C34.1362 17.5004 34.0012 17.6354 34.0012 17.8004V32.8004C34.0012 32.9654 34.1362 33.1004 34.3012 33.1004Z" fill="#A9ADC0"/>
</g>
<g opacity="0.5">
<path d="M89.9989 25.8257H76.5739V12.4007C76.5739 12.2357 76.4389 12.1007 76.2739 12.1007H75.2989C73.329 12.0975 71.3779 12.4838 69.5579 13.2375C67.7379 13.9911 66.0848 15.0971 64.6939 16.492C63.324 17.8576 62.2325 19.4763 61.4801 21.2582C60.6971 23.1064 60.2953 25.0936 60.2989 27.1007C60.2956 29.0706 60.6819 31.0217 61.4356 32.8417C62.1892 34.6617 63.2952 36.3148 64.6901 37.7057C66.0664 39.082 67.6714 40.1658 69.4564 40.9195C71.3045 41.7025 73.2917 42.1043 75.2989 42.1007C77.2687 42.104 79.2198 41.7177 81.0398 40.964C82.8598 40.2104 84.5129 39.1044 85.9039 37.7095C87.2801 36.3333 88.3639 34.7283 89.1176 32.9432C89.9006 31.0951 90.3024 29.1079 90.2989 27.1007V26.1257C90.2989 25.9607 90.1639 25.8257 89.9989 25.8257ZM84.0626 35.9433C82.9014 37.0954 81.5243 38.0071 80.0102 38.6261C78.496 39.2452 76.8746 39.5594 75.2389 39.5508C71.9351 39.5358 68.8301 38.242 66.4939 35.9058C64.1426 33.5545 62.8489 30.427 62.8489 27.1007C62.8489 23.7745 64.1426 20.647 66.4939 18.2957C68.5414 16.2482 71.1776 14.9995 74.0239 14.7145V28.3757H87.6851C87.3964 31.237 86.1364 33.8883 84.0626 35.9433ZM93.2989 23.7407L93.2014 22.6832C92.8826 19.2295 91.3489 15.9707 88.8814 13.5107C86.4121 11.0462 83.1601 9.52099 79.6864 9.19825L78.6251 9.10075C78.4489 9.08575 78.2989 9.22075 78.2989 9.397V23.8007C78.2989 23.9657 78.4339 24.1007 78.5989 24.1007L92.9989 24.0632C93.1751 24.0632 93.3139 23.9132 93.2989 23.7407ZM80.8414 21.5582V11.9357C83.2036 12.4302 85.3714 13.6001 87.0814 15.3032C88.7951 17.0132 89.9689 19.1882 90.4564 21.532L80.8414 21.5582Z" fill="#A9ADC0"/>
</g>
<g opacity="0.5">
<path d="M143.525 12.5508H112.325C111.661 12.5508 111.125 13.087 111.125 13.7508V37.7508C111.125 38.4145 111.661 38.9508 112.325 38.9508H143.525C144.189 38.9508 144.725 38.4145 144.725 37.7508V13.7508C144.725 13.087 144.189 12.5508 143.525 12.5508ZM142.025 36.2508H113.825V15.2508H142.025V36.2508ZM117.316 33.1645C117.433 33.2808 117.624 33.2808 117.74 33.1645L124.209 26.6958L128.499 30.9895C128.615 31.1058 128.806 31.1058 128.923 30.9895L140.06 19.8445C140.176 19.7283 140.176 19.537 140.06 19.4208L138.68 18.0408C138.624 17.985 138.547 17.9536 138.468 17.9536C138.389 17.9536 138.313 17.985 138.256 18.0408L128.713 27.5883L124.423 23.2945C124.366 23.2387 124.29 23.2074 124.211 23.2074C124.131 23.2074 124.055 23.2387 123.999 23.2945L115.94 31.357C115.884 31.4134 115.853 31.4896 115.853 31.5689C115.853 31.6483 115.884 31.7244 115.94 31.7808L117.316 33.1645Z" fill="#A9ADC0"/>
</g>
<g opacity="0.5">
<path d="M193.301 36.1004H167.501V12.7004C167.501 12.5354 167.366 12.4004 167.201 12.4004H165.101C164.936 12.4004 164.801 12.5354 164.801 12.7004V38.5004C164.801 38.6654 164.936 38.8004 165.101 38.8004H193.301C193.466 38.8004 193.601 38.6654 193.601 38.5004V36.4004C193.601 36.2354 193.466 36.1004 193.301 36.1004ZM170.801 29.0504C170.801 29.6869 171.054 30.2974 171.504 30.7474C171.954 31.1975 172.564 31.4504 173.201 31.4504C173.837 31.4504 174.448 31.1975 174.898 30.7474C175.348 30.2974 175.601 29.6869 175.601 29.0504C175.601 28.4139 175.348 27.8034 174.898 27.3533C174.448 26.9032 173.837 26.6504 173.201 26.6504C172.564 26.6504 171.954 26.9032 171.504 27.3533C171.054 27.8034 170.801 28.4139 170.801 29.0504ZM175.226 20.6504C175.226 21.1278 175.415 21.5856 175.753 21.9232C176.091 22.2607 176.548 22.4504 177.026 22.4504C177.503 22.4504 177.961 22.2607 178.299 21.9232C178.636 21.5856 178.826 21.1278 178.826 20.6504C178.826 20.173 178.636 19.7152 178.299 19.3776C177.961 19.04 177.503 18.8504 177.026 18.8504C176.548 18.8504 176.091 19.04 175.753 19.3776C175.415 19.7152 175.226 20.173 175.226 20.6504ZM181.151 29.2004C181.151 30.1552 181.53 31.0708 182.205 31.746C182.88 32.4211 183.796 32.8004 184.751 32.8004C185.706 32.8004 186.621 32.4211 187.296 31.746C187.971 31.0708 188.351 30.1552 188.351 29.2004C188.351 28.2456 187.971 27.3299 187.296 26.6548C186.621 25.9797 185.706 25.6004 184.751 25.6004C183.796 25.6004 182.88 25.9797 182.205 26.6548C181.53 27.3299 181.151 28.2456 181.151 29.2004ZM186.701 17.4254C186.701 17.9823 186.922 18.5165 187.316 18.9103C187.71 19.3041 188.244 19.5254 188.801 19.5254C189.358 19.5254 189.892 19.3041 190.286 18.9103C190.68 18.5165 190.901 17.9823 190.901 17.4254C190.901 16.8684 190.68 16.3343 190.286 15.9405C189.892 15.5466 189.358 15.3254 188.801 15.3254C188.244 15.3254 187.71 15.5466 187.316 15.9405C186.922 16.3343 186.701 16.8684 186.701 17.4254Z" fill="#A9ADC0"/>
</g>
</svg>
