<svg width="144" height="36" viewBox="0 0 144 36" fill="none" xmlns="http://www.w3.org/2000/svg">
<g opacity="0.5">
<path d="M27.7898 25.2697H9.72984V8.88969C9.72984 8.77419 9.63534 8.67969 9.51984 8.67969H8.04984C7.93434 8.67969 7.83984 8.77419 7.83984 8.88969V26.9497C7.83984 27.0652 7.93434 27.1597 8.04984 27.1597H27.7898C27.9053 27.1597 27.9998 27.0652 27.9998 26.9497V25.4797C27.9998 25.3642 27.9053 25.2697 27.7898 25.2697ZM12.0398 23.1697H13.5098C13.6253 23.1697 13.7198 23.0752 13.7198 22.9597V19.1797C13.7198 19.0642 13.6253 18.9697 13.5098 18.9697H12.0398C11.9243 18.9697 11.8298 19.0642 11.8298 19.1797V22.9597C11.8298 23.0752 11.9243 23.1697 12.0398 23.1697ZM16.0298 23.1697H17.4998C17.6153 23.1697 17.7098 23.0752 17.7098 22.9597V14.5597C17.7098 14.4442 17.6153 14.3497 17.4998 14.3497H16.0298C15.9143 14.3497 15.8198 14.4442 15.8198 14.5597V22.9597C15.8198 23.0752 15.9143 23.1697 16.0298 23.1697ZM20.0198 23.1697H21.4898C21.6053 23.1697 21.6998 23.0752 21.6998 22.9597V16.6072C21.6998 16.4917 21.6053 16.3972 21.4898 16.3972H20.0198C19.9043 16.3972 19.8098 16.4917 19.8098 16.6072V22.9597C19.8098 23.0752 19.9043 23.1697 20.0198 23.1697ZM24.0098 23.1697H25.4798C25.5953 23.1697 25.6898 23.0752 25.6898 22.9597V12.4597C25.6898 12.3442 25.5953 12.2497 25.4798 12.2497H24.0098C23.8943 12.2497 23.7998 12.3442 23.7998 12.4597V22.9597C23.7998 23.0752 23.8943 23.1697 24.0098 23.1697Z" fill="#A9ADC0"/>
</g>
<g opacity="0.5">
<path d="M63.001 18.0794H53.6035V8.68189C53.6035 8.56639 53.509 8.47189 53.3935 8.47189H52.711C51.332 8.46963 49.9663 8.74005 48.6923 9.26759C47.4183 9.79512 46.2611 10.5694 45.2875 11.5458C44.3286 12.5017 43.5645 13.6348 43.0378 14.8821C42.4897 16.1758 42.2085 17.5669 42.211 18.9719C42.2087 20.3508 42.4791 21.7166 43.0066 22.9906C43.5342 24.2646 44.3084 25.4217 45.2848 26.3954C46.2482 27.3588 47.3717 28.1174 48.6212 28.645C49.9149 29.1931 51.3059 29.4743 52.711 29.4719C54.0899 29.4741 55.4556 29.2037 56.7296 28.6762C58.0036 28.1487 59.1608 27.3744 60.1345 26.398C61.0978 25.4346 61.8565 24.3111 62.3841 23.0616C62.9322 21.7679 63.2134 20.3769 63.211 18.9719V18.2894C63.211 18.1739 63.1165 18.0794 63.001 18.0794ZM58.8456 25.1616C58.0327 25.9681 57.0688 26.6063 56.0089 27.0397C54.949 27.473 53.814 27.6929 52.669 27.6869C50.3563 27.6764 48.1828 26.7708 46.5475 25.1354C44.9016 23.4895 43.996 21.3003 43.996 18.9719C43.996 16.6435 44.9016 14.4543 46.5475 12.8084C47.9807 11.3751 49.8261 10.501 51.8185 10.3015V19.8644H61.3813C61.1792 21.8673 60.2972 23.7231 58.8456 25.1616ZM65.311 16.6199L65.2427 15.8796C65.0196 13.462 63.946 11.1809 62.2187 9.45889C60.4903 7.73373 58.2138 6.66606 55.7822 6.44014L55.0393 6.37189C54.916 6.36139 54.811 6.45589 54.811 6.57927V16.6619C54.811 16.7774 54.9055 16.8719 55.021 16.8719L65.101 16.8456C65.2243 16.8456 65.3215 16.7406 65.311 16.6199ZM56.5907 15.0921V8.35639C58.2443 8.70249 59.7617 9.52141 60.9587 10.7136C62.1583 11.9106 62.98 13.4331 63.3212 15.0738L56.5907 15.0921Z" fill="#A9ADC0"/>
</g>
<g opacity="0.5">
<path d="M100.467 8.78516H78.6271C78.1625 8.78516 77.7871 9.16053 77.7871 9.62516V26.4252C77.7871 26.8898 78.1625 27.2652 78.6271 27.2652H100.467C100.932 27.2652 101.307 26.8898 101.307 26.4252V9.62516C101.307 9.16053 100.932 8.78516 100.467 8.78516ZM99.4171 25.3752H79.6771V10.6752H99.4171V25.3752ZM82.121 23.2148C82.2024 23.2962 82.3362 23.2962 82.4176 23.2148L86.9457 18.6867L89.9487 21.6923C90.0301 21.7737 90.164 21.7737 90.2454 21.6923L98.0416 13.8908C98.123 13.8094 98.123 13.6755 98.0416 13.5942L97.0756 12.6282C97.0361 12.5891 96.9828 12.5672 96.9273 12.5672C96.8718 12.5672 96.8185 12.5891 96.779 12.6282L90.0984 19.3114L87.0954 16.3058C87.0559 16.2667 87.0026 16.2448 86.947 16.2448C86.8915 16.2448 86.8382 16.2667 86.7987 16.3058L81.1576 21.9495C81.1185 21.989 81.0966 22.0423 81.0966 22.0978C81.0966 22.1534 81.1185 22.2067 81.1576 22.2462L82.121 23.2148Z" fill="#A9ADC0"/>
</g>
<g opacity="0.5">
<path d="M135.309 25.2697H117.249V8.88969C117.249 8.77419 117.155 8.67969 117.039 8.67969H115.569C115.454 8.67969 115.359 8.77419 115.359 8.88969V26.9497C115.359 27.0652 115.454 27.1597 115.569 27.1597H135.309C135.425 27.1597 135.519 27.0652 135.519 26.9497V25.4797C135.519 25.3642 135.425 25.2697 135.309 25.2697ZM119.559 20.3347C119.559 20.7803 119.736 21.2076 120.051 21.5226C120.366 21.8377 120.794 22.0147 121.239 22.0147C121.685 22.0147 122.112 21.8377 122.427 21.5226C122.742 21.2076 122.919 20.7803 122.919 20.3347C122.919 19.8891 122.742 19.4618 122.427 19.1467C122.112 18.8317 121.685 18.6547 121.239 18.6547C120.794 18.6547 120.366 18.8317 120.051 19.1467C119.736 19.4618 119.559 19.8891 119.559 20.3347ZM122.657 14.4547C122.657 14.7889 122.79 15.1093 123.026 15.3456C123.262 15.5819 123.583 15.7147 123.917 15.7147C124.251 15.7147 124.572 15.5819 124.808 15.3456C125.044 15.1093 125.177 14.7889 125.177 14.4547C125.177 14.1205 125.044 13.8 124.808 13.5637C124.572 13.3274 124.251 13.1947 123.917 13.1947C123.583 13.1947 123.262 13.3274 123.026 13.5637C122.79 13.8 122.657 14.1205 122.657 14.4547ZM126.804 20.4397C126.804 21.108 127.07 21.749 127.542 22.2216C128.015 22.6942 128.656 22.9597 129.324 22.9597C129.993 22.9597 130.634 22.6942 131.106 22.2216C131.579 21.749 131.844 21.108 131.844 20.4397C131.844 19.7713 131.579 19.1304 131.106 18.6578C130.634 18.1852 129.993 17.9197 129.324 17.9197C128.656 17.9197 128.015 18.1852 127.542 18.6578C127.07 19.1304 126.804 19.7713 126.804 20.4397ZM130.689 12.1972C130.689 12.5871 130.844 12.961 131.12 13.2366C131.396 13.5123 131.77 13.6672 132.159 13.6672C132.549 13.6672 132.923 13.5123 133.199 13.2366C133.474 12.961 133.629 12.5871 133.629 12.1972C133.629 11.8073 133.474 11.4334 133.199 11.1577C132.923 10.8821 132.549 10.7272 132.159 10.7272C131.77 10.7272 131.396 10.8821 131.12 11.1577C130.844 11.4334 130.689 11.8073 130.689 12.1972Z" fill="#A9ADC0"/>
</g>
</svg>
