<svg width="84" height="61" viewBox="0 0 84 61" fill="none" xmlns="http://www.w3.org/2000/svg">
<g opacity="0.5">
<path d="M28.1395 42.3498H10.0795V25.9698C10.0795 25.8543 9.98495 25.7598 9.86945 25.7598H8.39945C8.28395 25.7598 8.18945 25.8543 8.18945 25.9698V44.0298C8.18945 44.1453 8.28395 44.2398 8.39945 44.2398H28.1395C28.255 44.2398 28.3495 44.1453 28.3495 44.0298V42.5598C28.3495 42.4443 28.255 42.3498 28.1395 42.3498ZM12.3895 40.2498H13.8595C13.975 40.2498 14.0695 40.1553 14.0695 40.0398V36.2598C14.0695 36.1443 13.975 36.0498 13.8595 36.0498H12.3895C12.274 36.0498 12.1795 36.1443 12.1795 36.2598V40.0398C12.1795 40.1553 12.274 40.2498 12.3895 40.2498ZM16.3795 40.2498H17.8495C17.965 40.2498 18.0595 40.1553 18.0595 40.0398V31.6398C18.0595 31.5243 17.965 31.4298 17.8495 31.4298H16.3795C16.264 31.4298 16.1695 31.5243 16.1695 31.6398V40.0398C16.1695 40.1553 16.264 40.2498 16.3795 40.2498ZM20.3695 40.2498H21.8395C21.955 40.2498 22.0495 40.1553 22.0495 40.0398V33.6873C22.0495 33.5718 21.955 33.4773 21.8395 33.4773H20.3695C20.254 33.4773 20.1595 33.5718 20.1595 33.6873V40.0398C20.1595 40.1553 20.254 40.2498 20.3695 40.2498ZM24.3595 40.2498H25.8295C25.945 40.2498 26.0395 40.1553 26.0395 40.0398V29.5398C26.0395 29.4243 25.945 29.3298 25.8295 29.3298H24.3595C24.244 29.3298 24.1495 29.4243 24.1495 29.5398V40.0398C24.1495 40.1553 24.244 40.2498 24.3595 40.2498Z" fill="#A9ADC0"/>
</g>
<g opacity="0.5">
<path d="M56.7171 33.5664H34.8771C34.4125 33.5664 34.0371 33.9418 34.0371 34.4064V51.2064C34.0371 51.671 34.4125 52.0464 34.8771 52.0464H56.7171C57.1817 52.0464 57.5571 51.671 57.5571 51.2064V34.4064C57.5571 33.9418 57.1817 33.5664 56.7171 33.5664ZM55.6671 50.1564H35.9271V35.4564H55.6671V50.1564ZM38.371 47.996C38.4524 48.0774 38.5862 48.0774 38.6676 47.996L43.1957 43.4679L46.1987 46.4735C46.2801 46.5549 46.414 46.5549 46.4954 46.4735L54.2916 38.672C54.373 38.5907 54.373 38.4568 54.2916 38.3754L53.3256 37.4094C53.2861 37.3703 53.2328 37.3484 53.1773 37.3484C53.1218 37.3484 53.0685 37.3703 53.029 37.4094L46.3484 44.0927L43.3454 41.087C43.3059 41.048 43.2526 41.026 43.197 41.026C43.1415 41.026 43.0882 41.048 43.0487 41.087L37.4076 46.7308C37.3685 46.7703 37.3466 46.8236 37.3466 46.8791C37.3466 46.9346 37.3685 46.9879 37.4076 47.0274L38.371 47.996Z" fill="#A9ADC0"/>
</g>
<g opacity="0.5">
<path d="M47.5303 18.0794H38.1328V8.68189C38.1328 8.56639 38.0383 8.47189 37.9228 8.47189H37.2403C35.8613 8.46963 34.4956 8.74005 33.2216 9.26759C31.9476 9.79512 30.7904 10.5694 29.8168 11.5458C28.8579 12.5017 28.0938 13.6348 27.5671 14.8821C27.019 16.1758 26.7378 17.5669 26.7403 18.9719C26.738 20.3508 27.0084 21.7166 27.5359 22.9906C28.0635 24.2646 28.8377 25.4217 29.8141 26.3954C30.7775 27.3588 31.901 28.1174 33.1505 28.645C34.4442 29.1931 35.8352 29.4743 37.2403 29.4719C38.6192 29.4742 39.9849 29.2037 41.2589 28.6762C42.5329 28.1487 43.6901 27.3744 44.6638 26.398C45.6271 25.4346 46.3858 24.3111 46.9134 23.0616C47.4615 21.7679 47.7427 20.3769 47.7403 18.9719V18.2894C47.7403 18.1739 47.6458 18.0794 47.5303 18.0794ZM43.3749 25.1616C42.562 25.9681 41.5981 26.6063 40.5382 27.0397C39.4783 27.473 38.3433 27.6929 37.1983 27.6869C34.8856 27.6764 32.7121 26.7708 31.0768 25.1354C29.4309 23.4895 28.5253 21.3003 28.5253 18.9719C28.5253 16.6435 29.4309 14.4543 31.0768 12.8084C32.51 11.3751 34.3554 10.501 36.3478 10.3015V19.8644H45.9106C45.7085 21.8673 44.8265 23.7231 43.3749 25.1616ZM49.8403 16.6199L49.772 15.8796C49.5489 13.462 48.4753 11.1809 46.748 9.45889C45.0196 7.73373 42.7431 6.66606 40.3115 6.44014L39.5686 6.37189C39.4453 6.36139 39.3403 6.45589 39.3403 6.57927V16.6619C39.3403 16.7774 39.4348 16.8719 39.5503 16.8719L49.6303 16.8456C49.7536 16.8456 49.8508 16.7406 49.8403 16.6199ZM41.12 15.0921V8.35639C42.7736 8.70249 44.291 9.52141 45.488 10.7136C46.6876 11.9106 47.5093 13.4331 47.8505 15.0738L41.12 15.0921Z" fill="#A9ADC0"/>
</g>
<g opacity="0.5">
<path d="M75.5984 27.9318H57.5384V11.5518C57.5384 11.4363 57.4439 11.3418 57.3284 11.3418H55.8584C55.7429 11.3418 55.6484 11.4363 55.6484 11.5518V29.6118C55.6484 29.7273 55.7429 29.8218 55.8584 29.8218H75.5984C75.7139 29.8218 75.8084 29.7273 75.8084 29.6118V28.1418C75.8084 28.0263 75.7139 27.9318 75.5984 27.9318ZM59.8484 22.9968C59.8484 23.4424 60.0254 23.8697 60.3405 24.1847C60.6556 24.4998 61.0829 24.6768 61.5284 24.6768C61.974 24.6768 62.4013 24.4998 62.7164 24.1847C63.0314 23.8697 63.2084 23.4424 63.2084 22.9968C63.2084 22.5512 63.0314 22.1239 62.7164 21.8089C62.4013 21.4938 61.974 21.3168 61.5284 21.3168C61.0829 21.3168 60.6556 21.4938 60.3405 21.8089C60.0254 22.1239 59.8484 22.5512 59.8484 22.9968ZM62.9459 17.1168C62.9459 17.451 63.0787 17.7715 63.315 18.0078C63.5513 18.244 63.8718 18.3768 64.2059 18.3768C64.5401 18.3768 64.8606 18.244 65.0969 18.0078C65.3332 17.7715 65.4659 17.451 65.4659 17.1168C65.4659 16.7826 65.3332 16.4621 65.0969 16.2258C64.8606 15.9895 64.5401 15.8568 64.2059 15.8568C63.8718 15.8568 63.5513 15.9895 63.315 16.2258C63.0787 16.4621 62.9459 16.7826 62.9459 17.1168ZM67.0934 23.1018C67.0934 23.7701 67.3589 24.4111 67.8315 24.8837C68.3041 25.3563 68.9451 25.6218 69.6134 25.6218C70.2818 25.6218 70.9228 25.3563 71.3953 24.8837C71.8679 24.4111 72.1334 23.7701 72.1334 23.1018C72.1334 22.4335 71.8679 21.7925 71.3953 21.3199C70.9228 20.8473 70.2818 20.5818 69.6134 20.5818C68.9451 20.5818 68.3041 20.8473 67.8315 21.3199C67.3589 21.7925 67.0934 22.4335 67.0934 23.1018ZM70.9784 14.8593C70.9784 15.2492 71.1333 15.6231 71.409 15.8987C71.6847 16.1744 72.0586 16.3293 72.4484 16.3293C72.8383 16.3293 73.2122 16.1744 73.4879 15.8987C73.7636 15.6231 73.9184 15.2492 73.9184 14.8593C73.9184 14.4694 73.7636 14.0955 73.4879 13.8199C73.2122 13.5442 72.8383 13.3893 72.4484 13.3893C72.0586 13.3893 71.6847 13.5442 71.409 13.8199C71.1333 14.0955 70.9784 14.4694 70.9784 14.8593Z" fill="#A9ADC0"/>
</g>
</svg>
