<svg id="Layer_1" data-name="Layer 1" xmlns="http://www.w3.org/2000/svg" viewBox="0 0 94 94"><defs><style>.cls-1{fill:#fff;}.cls-2{fill:#009bb8;}</style></defs><title>icon-success</title><circle class="cls-1" cx="47" cy="47" r="43"/><path class="cls-2" d="M47,94A47,47,0,1,1,94,47,47,47,0,0,1,47,94ZM47,8A39,39,0,1,0,86,47,39.05,39.05,0,0,0,47,8Z"/><path class="cls-2" d="M39.57,65.67,24.51,50.61a2.31,2.31,0,0,1,0-3.28l3.28-3.27a2.3,2.3,0,0,1,3.27,0L41.21,54.2,62.94,32.47a2.32,2.32,0,0,1,3.27,0l3.28,3.28a2.31,2.31,0,0,1,0,3.28L42.85,65.67a2.31,2.31,0,0,1-3.28,0Z"/></svg>