<svg id="Layer_1" data-name="Layer 1" xmlns="http://www.w3.org/2000/svg" viewBox="0 0 90 81.55"><defs><style>.cls-1{fill:#00afed;}</style></defs><title>icon-researcher</title><path class="cls-1" d="M58.18,25.49a4,4,0,0,0-1.74-1,11.8,11.8,0,0,0-2.56-.2h-1.4c-.59,0-1.08,0-1.53,0l-.38,0a6.17,6.17,0,0,0-3.47.94,19.38,19.38,0,0,1-4.19,0,6.13,6.13,0,0,0-3.48-.94l-.38,0c-.46,0-.94,0-1.53,0h-1.4a11.74,11.74,0,0,0-2.56.2,4,4,0,0,0-1.74,1A4.13,4.13,0,0,0,31,29a8,8,0,0,0,1.27,3.63c1,1.47,2.82,2.23,5.48,2.25h.07a5.48,5.48,0,0,0,3.41-1,7.68,7.68,0,0,0,2.13-2.69,9.21,9.21,0,0,0,.8-2.11,4.32,4.32,0,0,0,.1-1.15,2.18,2.18,0,0,1,1.56,0,4.24,4.24,0,0,0,.1,1.15,9.15,9.15,0,0,0,.8,2.11,7.65,7.65,0,0,0,2.13,2.69,5.48,5.48,0,0,0,3.41,1h.07c2.65,0,4.49-.78,5.47-2.25A8,8,0,0,0,59,29,4.12,4.12,0,0,0,58.18,25.49Zm-5.7.36h1.4a10.37,10.37,0,0,1,2.23.16,2.58,2.58,0,0,1,1,.57,2.86,2.86,0,0,1,.4,2.22,6.52,6.52,0,0,1-1,2.94c-.68,1-2.1,1.56-4.22,1.57h-.06a4,4,0,0,1-2.49-.7A6.15,6.15,0,0,1,48,30.45a7.64,7.64,0,0,1-.67-1.76A2,2,0,0,1,48,26.58a5,5,0,0,1,2.72-.66l.35,0C51.47,25.86,51.93,25.85,52.48,25.85ZM37.77,33.32h-.06c-2.12,0-3.54-.55-4.22-1.57a6.5,6.5,0,0,1-1-2.94,2.87,2.87,0,0,1,.4-2.22,2.59,2.59,0,0,1,1-.57,10.5,10.5,0,0,1,2.23-.16h1.39c.55,0,1,0,1.43,0l.39,0a4.87,4.87,0,0,1,2.68.66,2,2,0,0,1,.62,2.12A7.8,7.8,0,0,1,42,30.45a6.17,6.17,0,0,1-1.7,2.17A4,4,0,0,1,37.77,33.32Z"/><path class="cls-1" d="M67.68,24.73a2.56,2.56,0,0,0-1.4-.75,26.33,26.33,0,0,0,1.39-6.18,12,12,0,0,0-1.23-7.52C63.78,5.6,57.61,2.45,51.62,1,45.33-.48,38.47-.62,33,2.62a10,10,0,0,0-4,4.1l-.17.09c-6.82-1-7.5,7.37-6.52,11.2a33.73,33.73,0,0,0,2,5.92,2.59,2.59,0,0,0-1.92.79,3.39,3.39,0,0,0-.83,2.53c.12,2.5,1.71,5.66,2.89,7.82.11.2.23.45.36.71.62,1.28,1.51,3.11,3.06,3.68a20.47,20.47,0,0,0,1,2.73c2.51,5.38,9.31,9.28,16.18,9.28s13.67-3.9,16.18-9.28a20.4,20.4,0,0,0,1-2.73c1.55-.57,2.43-2.4,3.06-3.68.13-.26.25-.51.36-.71,1.19-2.16,2.78-5.32,2.89-7.82A3.4,3.4,0,0,0,67.68,24.73Zm-5,8.75c-.13.24-.28.54-.43.86a8.75,8.75,0,0,1-1.16,2,1.66,1.66,0,0,0-1.81,1.24,18.38,18.38,0,0,1-1.13,3.26c-2,4.2-7.62,7.36-13.17,7.36S33.79,45,31.83,40.8a18.28,18.28,0,0,1-1.13-3.26,1.66,1.66,0,0,0-1.61-1.25h-.21a8.85,8.85,0,0,1-1.16-2c-.15-.32-.3-.61-.43-.86a21.39,21.39,0,0,1-2.41-5.73,10.34,10.34,0,0,1,1.39,1.41,1.66,1.66,0,0,0,2,.47c1.43-.63,1-3,.82-4.14a54.27,54.27,0,0,1-.77-6.2c-.1-2.2-.08-5,1.63-6.63a4.31,4.31,0,0,1,3.68-.77c2.69.41,4.73,1.72,7.16,2.58A19,19,0,0,0,50,15c2.6-.4,5.83-2.07,8.47-1.36,4.07,1.1,3.57,6.36,3.1,9.55-.23,1.55-.5,3.1-.73,4.65a1.66,1.66,0,0,0,2.93,1.3,10.41,10.41,0,0,1,1.39-1.41A21.43,21.43,0,0,1,62.71,33.48Z"/><path class="cls-1" d="M89.83,76.78A47,47,0,0,0,89,68.35c-1.83-8.19-8.91-11.9-15.6-14.44-3.55-1.35-7.07-2.64-10.38-3.84a25.38,25.38,0,0,1-36,0c-3.31,1.2-6.83,2.49-10.37,3.84C9.93,56.46,2.85,60.16,1,68.35a47.09,47.09,0,0,0-.86,8.43C.13,77.86.08,79,0,80.07a1.38,1.38,0,0,0,1.38,1.48H88.62A1.39,1.39,0,0,0,90,80.07C89.92,79,89.87,77.86,89.83,76.78Z"/></svg>