<svg id="Layer_1" data-name="Layer 1" xmlns="http://www.w3.org/2000/svg" viewBox="0 0 81 91.72"><defs><style>.cls-1{fill:#009bb8;}</style></defs><title>icon-clinician</title><path class="cls-1" d="M37.5,0A17.13,17.13,0,0,0,23.94,7c-3.49,4.47-5.71,10.85-6.28,18.87.26,3,.42,17.49,2.44,19.56a2.06,2.06,0,0,0,2.47.53c2.1,4.63,4.38-1.39,7.59,1.81l-.56,2c-6.17,2.23-13,3.37-18.47,4.72-3.28.79-5.58,2-6.84,5.16C2.36,70,1,78.86,0,89.81a2.08,2.08,0,0,0,2,1.91H79a2.08,2.08,0,0,0,2-2.06c-.46-8.65-.24-17.3-1.22-25.28-1.1-4.4-3.29-7.15-5.87-8.44C66.49,54.27,58.39,51,51.44,49.72l-.56-2c3.28-3.41,6,2,7.56-1.84a2.06,2.06,0,0,0,2.47-.5C62.7,43,63.24,29.78,63.47,27c-.25-8.48-1.57-14-3.84-17.72a10.5,10.5,0,0,0-8.22-5.16,12.89,12.89,0,0,0-7-3.59A34.71,34.71,0,0,0,37.5,0ZM50.09,16.88a43.27,43.27,0,0,1,4.19,6.75c1.4,3,2,5.91,1.09,8.81-1.65,4.22-3.71,8.5-6.34,11.5s-5.84,4.86-8.5,4.84-5.82-1.85-8.59-4.94a31.63,31.63,0,0,1-6.37-11.44c-.44-1.9-.59-4.13.56-5.34,1-1.06,3.25-2,6.16-2.75C37.5,22.9,44.63,21.55,50.09,16.88ZM33.53,50.5a12.93,12.93,0,0,0,7,2.28,12.7,12.7,0,0,0,7-2.28l1.06,3.63a9,9,0,0,1-8.16,5.47,8.65,8.65,0,0,1-8-5.37Zm20.88,4.19.87.28A22.32,22.32,0,0,1,59.81,67a4,4,0,1,0,2,0,27.28,27.28,0,0,0-3.41-11.12c5,1.55,9.1,2.14,13.72,3.63,1.41.7,2.85,2.24,3.75,5.78.87,7,1,16.89,1.09,22.44H4.19C5,78.86,6,68.86,8,61.06c.75-1.9,2.54-2.34,4.12-2.75,3-.69,5.5-1.18,8.22-1.81-1.66,3.28-3.2,7.14-3.47,10.47a6.44,6.44,0,0,0-4.06,2.69,11.39,11.39,0,0,0-1.94,6.19c0,1.37,0,2.83,0,4.34A4.85,4.85,0,0,0,12.44,84a6,6,0,0,0,1.41.75,1.05,1.05,0,0,0,1.41-.94c0-.42-.28-.54-.47-.81-.38-.18-.75-.36-1.09-.56a2.59,2.59,0,0,1-.84-2.28c0-1.43,0-3.07,0-4.28a9.41,9.41,0,0,1,1.56-5.06,4.11,4.11,0,0,1,6.94-.12,9.06,9.06,0,0,1,1.47,5.16c0,1.36,0,2.8,0,4.28A2.73,2.73,0,0,1,22,82.5,3.26,3.26,0,0,1,21,83c-.35.18-.37.47-.53.88a1.05,1.05,0,0,0,1.34,1A10.41,10.41,0,0,0,23.28,84a4.91,4.91,0,0,0,1.56-3.87c0-1.51,0-2.84,0-4.31A10.85,10.85,0,0,0,23,69.56,6.43,6.43,0,0,0,18.91,67a27.48,27.48,0,0,1,4.22-11.12c1.17-.31,2.32-.69,3.47-1.06.78,10.81,7.46,19.49,12.06,27.72a2.18,2.18,0,0,0,1.72,1.22,2.46,2.46,0,0,0,1.94-1.15C48,71.86,53.51,64.73,54.41,54.69Zm6.44,14.19a2,2,0,1,1,0,4,2,2,0,0,1,0-4Zm-.19,7a2,2,0,1,0,.19,4h10a2,2,0,1,0,0-4Z"/></svg>