<svg id="Layer_1" data-name="Layer 1" xmlns="http://www.w3.org/2000/svg" viewBox="0 0 496 496"><defs><style>.cls-1{fill:#a9adc0;}</style></defs><title>icon-info</title><path class="cls-1" d="M248,0C111,0,0,111.08,0,248S111,496,248,496,496,385,496,248,385,0,248,0Zm0,448A200,200,0,1,1,448,248,199.88,199.88,0,0,1,248,448ZM355.24,192.8c0,67.05-72.42,68.08-72.42,92.86V292a12,12,0,0,1-12,12H225.18a12,12,0,0,1-12-12v-8.66c0-35.74,27.1-50,47.58-61.52,17.56-9.85,28.32-16.54,28.32-29.58,0-17.25-22-28.69-39.78-28.69-23.19,0-33.89,11-48.94,30a12,12,0,0,1-16.67,2.12l-27.82-21.1a12,12,0,0,1-2.64-16.36C176.85,123.49,206.94,104,253.79,104,302.86,104,355.24,142.3,355.24,192.8ZM290,360a42,42,0,1,1-42-42A42,42,0,0,1,290,360Z"/></svg>