<svg id="Layer_1" data-name="Layer 1" xmlns="http://www.w3.org/2000/svg" viewBox="0 0 57.47 87.5"><defs><style>.cls-1{fill:#00afed;}</style></defs><title>icon-beta-progress</title><path class="cls-1" d="M55.31,71.8,45.21,59.1l-7-8.9V30.9a5.84,5.84,0,0,0,3.5-5.4,5.91,5.91,0,0,0-5.9-5.9h-5.6a5.84,5.84,0,0,0-5.4-8.2,5.85,5.85,0,0,0-5.9,5.9,6,6,0,0,0,.6,2.7,5.94,5.94,0,0,0-.4,11V50.3l-7,8.9-10,12.6A9.48,9.48,0,0,0,1,82a9.59,9.59,0,0,0,8.7,5.5h38.1a9.65,9.65,0,0,0,7.5-15.7ZM24.81,14.4a2.9,2.9,0,0,1,2.9,2.9,2.94,2.94,0,0,1-1.2,2.3h-3.4a2.94,2.94,0,0,1-1.2-2.3A2.9,2.9,0,0,1,24.81,14.4Zm-7.5,44.7,5.9-7.5V27.5l-1.8-.2a1.86,1.86,0,0,1-1.7-1.9,1.9,1.9,0,0,1,1.9-1.9h14.2a1.92,1.92,0,0,1,1.9,2A1.86,1.86,0,0,1,36,27.4l-1.8.1V51.6l5.9,7.5Z"/><path class="cls-1" d="M39.71,16a8,8,0,1,0-8-8A8,8,0,0,0,39.71,16Zm0-13a5,5,0,0,1,5,5,5,5,0,0,1-10,0A5,5,0,0,1,39.71,3Z"/></svg>