<svg id="studies_grey" data-name="studies grey" xmlns="http://www.w3.org/2000/svg" viewBox="0 0 15 15"><defs><style>.cls-1{fill:#a9adc0;}</style></defs><title>icon-studies-grey</title><path class="cls-1" d="M7.83.59l-7,3.64A.44.44,0,0,0,.85,5l7,3.64a.72.72,0,0,0,.61,0l7-3.64a.44.44,0,0,0,0-.76L8.41.59A.66.66,0,0,0,7.83.59Z" transform="translate(-0.64 -0.52)"/><path class="cls-1" d="M15.39,7.61l-1.31-.67a.36.36,0,0,0-.25,0l-5,2.61a1.38,1.38,0,0,1-.7.16,1.67,1.67,0,0,1-.7-.16l-5-2.61a.36.36,0,0,0-.25,0L.85,7.61a.44.44,0,0,0,0,.76l7,3.64a.72.72,0,0,0,.61,0l7-3.64A.45.45,0,0,0,15.39,7.61Z" transform="translate(-0.64 -0.52)"/><path class="cls-1" d="M15.39,11.05l-1.31-.67a.36.36,0,0,0-.25,0L8.82,13a1.48,1.48,0,0,1-.7.15,1.83,1.83,0,0,1-.7-.15l-5-2.62a.36.36,0,0,0-.25,0l-1.31.67a.45.45,0,0,0,0,.77l7,3.63a.66.66,0,0,0,.61,0l7-3.63A.46.46,0,0,0,15.39,11.05Z" transform="translate(-0.64 -0.52)"/></svg>