<svg id="Isolation_Mode" data-name="Isolation Mode" xmlns="http://www.w3.org/2000/svg" viewBox="0 0 103.06 84.43"><defs><style>.cls-1{fill:#a9adc0;}.cls-2{fill:#fff;}</style></defs><title>icon-family-members</title><path class="cls-1" d="M91.66,52.86v4.71h2.81V52.86A10.26,10.26,0,0,0,84.23,42.62h-31V36.39a18.25,18.25,0,1,0-2.81,0v6.22h-31A10.26,10.26,0,0,0,9.25,52.86v4.71h2.81V52.86a7.44,7.44,0,0,1,7.43-7.44h31V57.57h2.81V45.43h31A7.44,7.44,0,0,1,91.66,52.86Z"/><path class="cls-2" d="M55.49,21.24h-6.8a6.37,6.37,0,0,0-6.37,6.37v.11H61.86V27.6A6.37,6.37,0,0,0,55.49,21.24Z"/><circle class="cls-2" cx="51.74" cy="13.15" r="6.52"/><path class="cls-1" d="M13.68,75.71H6.61C3,75.71,0,80.67,0,84.32v.11H20.29v-.11C20.29,80.67,17.33,75.71,13.68,75.71Z"/><circle class="cls-1" cx="9.78" cy="67.31" r="6.78"/><path class="cls-1" d="M55.33,75.71H48.26c-3.65,0-6.61,5-6.61,8.61v.11H61.94v-.11C61.94,80.67,59,75.71,55.33,75.71Z"/><circle class="cls-1" cx="51.43" cy="67.31" r="6.78"/><path class="cls-1" d="M96.45,75.71H89.39c-3.65,0-6.61,5-6.61,8.61v.11h20.29v-.11C103.06,80.67,100.1,75.71,96.45,75.71Z"/><circle class="cls-1" cx="92.55" cy="67.31" r="6.78"/></svg>