<svg id="Layer_1" data-name="Layer 1" xmlns="http://www.w3.org/2000/svg" xmlns:xlink="http://www.w3.org/1999/xlink" viewBox="0 0 79.9 41.48"><defs><style>.cls-1{fill:url(#linear-gradient);}.cls-2{fill:url(#linear-gradient-2);}</style><linearGradient id="linear-gradient" y1="35.65" x2="79.9" y2="35.65" gradientUnits="userSpaceOnUse"><stop offset="0" stop-color="#d634ff"/><stop offset="0.18" stop-color="#b148f9"/><stop offset="0.59" stop-color="#557beb"/><stop offset="0.95" stop-color="#0ad"/></linearGradient><linearGradient id="linear-gradient-2" x1="29.18" y1="35.8" x2="50.74" y2="23.35" gradientTransform="matrix(1, 0, 0, -1, 0, 42)" xlink:href="#linear-gradient"/></defs><title>logo-cavatica</title><path class="cls-1" d="M31.5,35.5,34,29.7H32.7l-2.5,5.8Zm-16.8,0,1.8-4.1,1.7,4.1h1.3L17,29.7H15.9l-2.4,5.8Zm11.8,0L24,29.7H22.7l2.5,5.8Zm-25.4,0a4.31,4.31,0,0,1,1.4-3.2,4.83,4.83,0,0,1,6.8,0c.2.2.5.6.9,1.1V31.5l-.1-.1a5.66,5.66,0,0,0-4.2-1.7,6.07,6.07,0,0,0-4.2,1.7,5.61,5.61,0,0,0-1.7,4H1.1Zm71.5,0,1.7-4.1,1.8,4.1h1.2l-2.5-5.8h-1l-2.5,5.8Zm-13.7,0a4.31,4.31,0,0,1,1.4-3.2,4.83,4.83,0,0,1,6.8,0c.2.2.5.6.9,1.1V31.5l-.1-.1a5.66,5.66,0,0,0-4.2-1.7,6.07,6.07,0,0,0-4.2,1.7,5.61,5.61,0,0,0-1.7,4h1.1Zm-53,4.9a4.78,4.78,0,0,1-4.7-3.8H0a5.32,5.32,0,0,0,1.7,3.2,5.66,5.66,0,0,0,4.2,1.7,6.07,6.07,0,0,0,4.2-1.7l.1-.1V37.8c-.4.5-.7.9-.9,1.1A4.29,4.29,0,0,1,5.9,40.4ZM55.4,29.7h1.2v5.8H55.4ZM38.5,35.5l1.8-4.1L42,35.5h1.2l-2.4-5.8H39.7l-2.4,5.8Zm11.3,0H51V30.8h3.3V29.7H46.5v1.1h3.3ZM13,36.6l-2.2,5h1.3l2.1-5Zm50.7,3.8A4.78,4.78,0,0,1,59,36.6H57.8a5.32,5.32,0,0,0,1.7,3.2,5.66,5.66,0,0,0,4.2,1.7,6.07,6.07,0,0,0,4.2-1.7l.1-.1V37.8c-.4.5-.7.9-.9,1.1A4.16,4.16,0,0,1,63.7,40.4Zm7.1-3.8-2.1,5h1.2l2.2-5Zm-15.4,0h1.2v5H55.4Zm-36.7,0,2.1,5h1.3l-2.1-5Zm57.8,0,2.2,5h1.2l-2.1-5Zm-46.8,0-1.3,3.3L27,36.6H25.7l2.1,5h1.1l2.1-5Zm7,0-2.1,5h1.3l2.1-5Zm13.1,0H51v5H49.8Zm-7.3,0,2.1,5h1.3l-2.1-5Z" transform="translate(0 -0.12)"/><path class="cls-2" d="M52.9,13.4a.89.89,0,0,0-1.1-.5l-3.6-8a1.13,1.13,0,0,0,.3-1.1,1,1,0,0,0-1.3-.5c-.1.1-.3.2-.3.3L41.2,1.2a.75.75,0,0,0-.1-.5A1,1,0,0,0,39.8.2a1,1,0,0,0-.6.9L32.7,3.3a1,1,0,1,0-1.8.8,1.21,1.21,0,0,0,.5.5L28,10.7a.75.75,0,0,0-.5.1A.88.88,0,0,0,27,12a1.1,1.1,0,0,0,1,.6l3.1,6.9a.93.93,0,0,0-.3,1.2,1,1,0,0,0,1.3.5.78.78,0,0,0,.4-.4l6.3,2.9a.6.6,0,0,0,.1.4,1,1,0,0,0,1.3.5,1,1,0,0,0,.6-.9l6.9-2.3a1.15,1.15,0,0,0,1.2.4,1,1,0,0,0,.5-1.3,1.21,1.21,0,0,0-.5-.5l2.8-5.3a.93.93,0,0,0,1.2-1.3ZM39.8,17.1,45,17a.6.6,0,0,0,.1.4,1,1,0,0,0,1.3.5l1.4,2.2ZM28.7,12.2l2.7,1.5a.85.85,0,0,0,0,.7,1.06,1.06,0,0,0,.7.6l-.4,4.5h-.3l-3.1-6.9C28.4,12.4,28.6,12.3,28.7,12.2ZM47.9,5l3.6,8-.3.3L46.5,9.4a1.1,1.1,0,0,0,0-.8,1.38,1.38,0,0,0-.3-.4L47.3,5ZM45.6,16.1a1.21,1.21,0,0,0-.5.5l-5.4.1a.6.6,0,0,0-.1-.4,1.38,1.38,0,0,0-.3-.4l6.1-6.1h.1ZM34.3,8l4.4.2c0,.1,0,.2.1.2a1.56,1.56,0,0,0,.8.6l-.9,6.7a.76.76,0,0,0-.4.1c-.1,0-.1.1-.2.1l-4-7.6C34.2,8.2,34.3,8.1,34.3,8ZM44.7,9.3a1.38,1.38,0,0,0,.3.4l-6,6L39.9,9H40a1.21,1.21,0,0,0,.5-.5l4.1.4A.6.6,0,0,0,44.7,9.3Zm0-.8-4.1-.4a.6.6,0,0,0-.1-.4,1,1,0,0,0-.4-.5l.1-5.4a.37.37,0,0,0,.3-.1c.1-.1.2-.1.3-.3L45,8.2ZM39.9,1.9l-.1,5.3a.9.9,0,0,0-.5.1,1.06,1.06,0,0,0-.6.7l-4.3-.2a.76.76,0,0,0-.1-.4.35.35,0,0,0-.1-.2ZM33.5,8.7a.37.37,0,0,0,.3-.1h.1l4,7.7v.1l-4.7-2.1c.1-.2,0-.4,0-.6a1.21,1.21,0,0,0-.5-.5Zm-1.1,11a1.38,1.38,0,0,0-.4-.3l.4-4.6c.1,0,.1,0,.2-.1a1.38,1.38,0,0,0,.4-.3l4.7,2.1v.4ZM46,16l-.3-6.1a.37.37,0,0,0,.3-.1c.1-.1.2-.1.3-.2l4.8,4V14l-4.4,2.4A.87.87,0,0,0,46,16Zm.7-11.5a.78.78,0,0,0,.4.4L45.8,8c-.2-.1-.4,0-.6,0l-4-6.5,5.4,2.2A2.2,2.2,0,0,0,46.7,4.5ZM39.3,1.3c.1.1.2.3.3.4L33.9,6.9a1.27,1.27,0,0,0-.6-.1l-.9-2.5a1.08,1.08,0,0,0,.3-.7ZM31.7,4.5a.6.6,0,0,0,.4-.1L33,6.9a.91.91,0,0,0-.5,1.2.74.74,0,0,0,.6.5l-.9,4.3a.6.6,0,0,0-.4.1c-.1.1-.3.2-.4.3l-2.7-1.5v-.6a.78.78,0,0,0-.4-.4Zm.9,16V20L38,17.3a1,1,0,0,0,.9.4l.6,5.1h-.1a1,1,0,0,0-.5.6Zm8,2.8a1.56,1.56,0,0,0-.8-.6l-.6-5.1.3-.3,8.1,3a.88.88,0,0,0-.1.7Zm7.9-3.4a.6.6,0,0,0-.4.1l-1.4-2.3a.91.91,0,0,0,.2-1.1l4.4-2.3c0,.1.1.1.2.2Z" transform="translate(0 -0.12)"/></svg>