<svg id="Layer_1" data-name="Layer 1" xmlns="http://www.w3.org/2000/svg" viewBox="0 0 116.1 61.2"><defs><style>.cls-1{fill:#232323;}.cls-2{fill:#dccc32;}.cls-3{fill:#222;}</style></defs><title>logo-gen3</title><path class="cls-1" d="M1.6,22.2C1.6,8,10,.9,18.9.9A15.66,15.66,0,0,1,30.7,5.5L27.6,8.7A12,12,0,0,0,19,5.3C13,5.3,7.2,9.5,7.2,22.2c0,12,3.8,17,11,17a16.26,16.26,0,0,0,7.9-2V24.6H17.9l-.6-4.4H31.2V39.9a25.64,25.64,0,0,1-13.5,3.6C7.9,43.5,1.6,36.4,1.6,22.2Z"/><path class="cls-1" d="M39.1,26.7H49.9v3H39.1V39.9H52.3v2.9H35.5V13.9H51.9l-.4,3H39.1Z"/><path class="cls-1" d="M58.5,17.5c.1,1.3.5,6.5.5,10.9V42.9H55.6v-29h5L71,39.4c0-1.2-.5-5.8-.5-11V13.9h3.4V42.8H68.8Z"/><path class="cls-2" d="M94.1,23.3V17.9q4,0,5.4-.9a5.61,5.61,0,0,0,2.5-5.1,5.73,5.73,0,0,0-1.8-4.4,6.52,6.52,0,0,0-4.6-1.7,5.78,5.78,0,0,0-4.1,1.3,9.5,9.5,0,0,0-2.1,4.4H83.1c.7-4,2-6.9,4-8.7S92,0,95.7,0a12.89,12.89,0,0,1,9.1,3.3,11.16,11.16,0,0,1,3.5,8.4,10.18,10.18,0,0,1-4.6,9c3.5,2.1,5.2,5.4,5.2,10a12.36,12.36,0,0,1-3.8,9.3,13.78,13.78,0,0,1-9.8,3.6c-5.1,0-8.9-1.9-11.3-5.6a13.91,13.91,0,0,1-1.9-6.5h6.2a6.85,6.85,0,0,0,7.4,6.3,6.64,6.64,0,0,0,5.1-2.1,7.58,7.58,0,0,0,2-5.3c0-2.8-1-4.9-3-6.1A12.66,12.66,0,0,0,94.1,23.3Z"/><path class="cls-3" d="M2.5,60.9H0V50.5H2.4c2.5,0,5,.8,5,5.1S4.8,60.9,2.5,60.9Zm.2-9h-1v7.7h1c1.4,0,2.8-.8,2.8-3.9C5.5,52.4,4,51.9,2.7,51.9Z"/><path class="cls-3" d="M16.8,59.9,16.4,61a1.76,1.76,0,0,1-1.6-1.1A3.25,3.25,0,0,1,12.3,61a2.39,2.39,0,0,1-2.6-2.5c0-1.6,1.4-2.6,3.8-2.6h1.1v-.5c0-1-.6-1.4-1.8-1.4a6.33,6.33,0,0,0-2.1.4l-.4-1.2a7.55,7.55,0,0,1,2.8-.5c2.1,0,3.2,1,3.2,2.7v3.5C16.2,59.6,16.4,59.8,16.8,59.9Zm-2.2-1.1V57h-.9c-1.6,0-2.2.6-2.2,1.5a1.21,1.21,0,0,0,1.3,1.3A2,2,0,0,0,14.6,58.8Z"/><path class="cls-3" d="M24.4,61.1a2.48,2.48,0,0,1-2.8-2.6V54.2H19.9V53h1.8V51.2l1.7-.2v2h2.7l-.3,1.2H23.3v4.3c0,.9.4,1.3,1.4,1.3a3.31,3.31,0,0,0,1.5-.4l.6,1.1A5.65,5.65,0,0,1,24.4,61.1Z"/><path class="cls-3" d="M36.7,59.9,36.3,61a1.76,1.76,0,0,1-1.6-1.1A3.25,3.25,0,0,1,32.2,61a2.39,2.39,0,0,1-2.6-2.5c0-1.6,1.4-2.6,3.8-2.6h1.1v-.5c0-1-.6-1.4-1.8-1.4a6.33,6.33,0,0,0-2.1.4l-.4-1.2a7.55,7.55,0,0,1,2.8-.5c2.1,0,3.2,1,3.2,2.7v3.5C36.1,59.6,36.3,59.8,36.7,59.9Zm-2.2-1.1V57h-.9c-1.6,0-2.2.6-2.2,1.5a1.21,1.21,0,0,0,1.3,1.3A2,2,0,0,0,34.5,58.8Z"/><path class="cls-3" d="M57.1,51.4l-.9,1.1a3.23,3.23,0,0,0-2.1-.8c-1.5,0-2.9,1.1-2.9,4s1.2,4,2.9,4a3.06,3.06,0,0,0,2.3-.9l.8,1.1A4.29,4.29,0,0,1,54,61.1c-2.6,0-4.6-1.9-4.6-5.4s2.1-5.4,4.6-5.4A4.33,4.33,0,0,1,57.1,51.4Z"/><path class="cls-3" d="M66.7,56.9c0,2.5-1.3,4.2-3.6,4.2s-3.6-1.6-3.6-4.2,1.3-4.2,3.6-4.2S66.7,54.4,66.7,56.9Zm-5.4,0c0,2,.6,2.9,1.8,2.9s1.8-.9,1.8-2.9S64.3,54,63.1,54,61.3,54.9,61.3,56.9Z"/><path class="cls-3" d="M76.9,55v5.9H75.4V55.2c0-.8-.1-1.2-.5-1.2a1.45,1.45,0,0,0-1.2.8v6H72.3V55.2c0-.8-.1-1.2-.5-1.2a1.45,1.45,0,0,0-1.2.8v6H69.1V52.9h1.3l.1.9c.5-.6.9-1.1,1.7-1.1a1.27,1.27,0,0,1,1.3,1,2.21,2.21,0,0,1,1.7-1C76.2,52.7,76.9,53.2,76.9,55Z"/><path class="cls-3" d="M86.8,55v5.9H85.3V55.2c0-.8-.1-1.2-.5-1.2a1.45,1.45,0,0,0-1.2.8v6H82.2V55.2c0-.8-.1-1.2-.5-1.2a1.45,1.45,0,0,0-1.2.8v6H79V52.9h1.3l.1.9c.5-.6.9-1.1,1.7-1.1a1.27,1.27,0,0,1,1.3,1,2.21,2.21,0,0,1,1.7-1C86.2,52.7,86.8,53.2,86.8,55Z"/><path class="cls-3" d="M96.5,56.9c0,2.5-1.3,4.2-3.6,4.2s-3.6-1.6-3.6-4.2,1.3-4.2,3.6-4.2S96.5,54.4,96.5,56.9Zm-5.4,0c0,2,.6,2.9,1.8,2.9s1.8-.9,1.8-2.9S94.1,54,92.9,54,91.1,54.9,91.1,56.9Z"/><path class="cls-3" d="M99.7,53h1.5l.1,1a3.37,3.37,0,0,1,2.6-1.2c1.5,0,2.2.9,2.2,2.4V61h-1.7V56.1c0-1.4-.2-1.9-1.1-1.9a2.65,2.65,0,0,0-1.9,1.2v5.7H99.7Z"/><path class="cls-3" d="M114.2,58.7c0-.6-.3-.9-1.9-1.4s-2.6-1-2.6-2.3,1.2-2.3,3.2-2.3a5.09,5.09,0,0,1,3,.9l-.7,1.1A3.84,3.84,0,0,0,113,54c-1.1,0-1.5.3-1.5.9s.4.8,2,1.3,2.6,1,2.6,2.5c0,1.7-1.7,2.5-3.5,2.5a5.2,5.2,0,0,1-3.3-1.1l.9-1a3.7,3.7,0,0,0,2.4.9C113.6,59.8,114.2,59.4,114.2,58.7Z"/></svg>