<svg id="_7c_H" data-name="7c H" xmlns="http://www.w3.org/2000/svg" viewBox="0 0 776.87 239.08"><defs><style>.cls-1,.cls-16{fill:#f6921e;}.cls-2{fill:#fd9d6f;}.cls-3{fill:#b86966;}.cls-11,.cls-4{fill:#fff;}.cls-4{opacity:0.38;}.cls-5{fill:#fb5c0f;}.cls-6{fill:#882d00;}.cls-10,.cls-7{fill:#c39;}.cls-8{fill:#dfdfdf;}.cls-9{fill:#0d99b7;}.cls-10,.cls-13,.cls-14,.cls-15,.cls-16,.cls-9{fill-rule:evenodd;}.cls-12,.cls-17{fill:#2b388f;}.cls-12{stroke:#2e3191;stroke-width:0.81px;}.cls-13{fill:#90278e;}.cls-14{fill:#00adee;}.cls-15{fill:#be1e2d;}.cls-18{fill:#2e3191;}</style></defs><title>logo-kids-first-data-portal-BETA</title><path class="cls-1" d="M348.48,29.44a21.56,21.56,0,0,1,4.26-2.57,15.87,15.87,0,0,1,4.87-1.27,34.8,34.8,0,0,1-3.87.17,15.65,15.65,0,0,0-6.67,1.32,23.29,23.29,0,0,0-5.61,3.65,17.18,17.18,0,0,0-4.94-4.85A13.69,13.69,0,0,0,328,24.08a36,36,0,0,0-6.1,1.11A15,15,0,0,0,317,27.48c-.34.24-.65.5-.94.75s-.53.49-.77.75a13,13,0,0,0-1.26,1.58,14.61,14.61,0,0,0-2.26,6.74,25.18,25.18,0,0,0-6.74-.28,20.51,20.51,0,0,0-3.06.55,17.12,17.12,0,0,0-2.72,1l-.32.15h0l-.43.17a15,15,0,0,1-2.13.66h0l-.36.08a14.18,14.18,0,0,0-4.75,2c-1.51.93-3.14,2.09-4.89,3.31a22.94,22.94,0,0,0-3.41-5.3,13.72,13.72,0,0,0-6.72-3.89h.07c-.9-.24-1.82-.46-2.77-.67l-1.45-.28-1.38-.23h0l-.07,0h0a14.84,14.84,0,0,0-8.31,1,15.93,15.93,0,0,0-5.64,4.36,14.9,14.9,0,0,0-6.35-3.53,14.62,14.62,0,0,0-9,.74,55.05,55.05,0,0,0-5.21,2.38A14.45,14.45,0,0,0,230,45.19a17.45,17.45,0,0,0-1.95,6.66,20.2,20.2,0,0,0-6.85-.22,14.5,14.5,0,0,0-3.45,1,18.75,18.75,0,0,0-3.21,1.83,30.22,30.22,0,0,1-3.07,2,7.87,7.87,0,0,0-1.95,1.4,6.67,6.67,0,0,0-1.06,1.57,12.17,12.17,0,0,1-1.18,1.89,10.23,10.23,0,0,1-2,1.92A52.35,52.35,0,0,0,204,57.62a22.19,22.19,0,0,0-4.7-6.66c-.21-.18-.43-.37-.68-.55a8.36,8.36,0,0,0-1.87-.8,3.17,3.17,0,0,0-1,.08l-.82.2c-.54.13-1.09.26-1.65.43-.27.08-.55.18-.82.28l-.42.18-.39.18-1.49.71-3,1.44A30.06,30.06,0,0,1,184,54.34a6,6,0,0,1-3.2-.26,7.64,7.64,0,0,0-3.31.05c-1.08.22-.19.91-1.09.24.86.72,0-.12,1.06.06s1.41,0,2.53.14c.51,0,1.92.59,2.44.56a7.23,7.23,0,0,1,1.85.5,6.39,6.39,0,0,1,1.94,1.29,7.29,7.29,0,0,1,1.25,1.95,9.12,9.12,0,0,1,.65,2.22c.06.36.09.78.16,1.19s.14.83.25,1.24a7.45,7.45,0,0,0,1,2.4c2.2,3.25,6.88,3.49,7,3.49a12.88,12.88,0,0,0,6.95-1,9.53,9.53,0,0,0,2.37,3,10.27,10.27,0,0,0,4,2,12.78,12.78,0,0,0,5.07.24,15.26,15.26,0,0,0,5.14-1.77A47.76,47.76,0,0,0,225,68.82a17.16,17.16,0,0,0,1.84-1.53,13.32,13.32,0,0,0,1.31-1.47,14,14,0,0,0,1.79-3,21.75,21.75,0,0,0,1.47-6.51,26.52,26.52,0,0,0,6.59.62,15.54,15.54,0,0,0,6.46-1.78A36.94,36.94,0,0,1,248,53.5a14.47,14.47,0,0,0,5.15-3.35,44.07,44.07,0,0,0,4-4.84,35.06,35.06,0,0,0,4.69,4.19,14.25,14.25,0,0,0,6,2.46l-.32,0,1,.16.47.08.45.09c.59.12,1.2.25,1.82.42h0l.49.13-.25-.07a16.11,16.11,0,0,0,7,.14,19.1,19.1,0,0,0,6.52-2.68,13.61,13.61,0,0,0,5.33,5.44,14.26,14.26,0,0,0,10.06,1.1,31.72,31.72,0,0,0,6.26-2.15,15.26,15.26,0,0,0,4.39-3,12,12,0,0,0,2.41-3.29,17.46,17.46,0,0,0,1.55-6.61,47.91,47.91,0,0,0,6.26,1c.49,0,1,0,1.44,0l1.34,0a11.78,11.78,0,0,0,2.5-.39,17.45,17.45,0,0,1,3.05-.53A15.35,15.35,0,0,0,335.48,40a28,28,0,0,0,5.33-3.76,18.75,18.75,0,0,0,4.74,4.92,14.33,14.33,0,0,0,8.09,2.35,51.37,51.37,0,0,0,5.88-.26,15.28,15.28,0,0,1-7.21-.89,13.64,13.64,0,0,1-4.74-3.19l-1.74-2c-.83-1.09-1.58-2.23-2.33-3.37,1-.92,2-1.84,3-2.72v0C346.59,31,348.48,29.44,348.48,29.44Zm-146.12,29a11.84,11.84,0,0,1,.51,3.3c.06,1.13.23,2.66-.7,3.53S196.35,67,195.24,67c-1.48-.08-3.61-.66-4.59-1.83a6.39,6.39,0,0,1-1-1.93,10.16,10.16,0,0,1-.33-1.11L189,60.9a10.22,10.22,0,0,0-.93-2.33,7.91,7.91,0,0,0-1.53-2,6.63,6.63,0,0,0-2.18-1.18,6,6,0,0,0-1.38-.31,7.22,7.22,0,0,0,1.2-.22,32.27,32.27,0,0,0,3.19-1.07l3.09-1.26,1.55-.63.38-.15.36-.13c.24-.08.5-.15.76-.21.51-.13,1-.22,1.59-.32l.82-.15a2.59,2.59,0,0,1,.62,0c3,.43,4.36,4.1,4.51,4.42C201.51,56.4,202,57.42,202.36,58.46Zm25.24.67-.32,2.6a18.19,18.19,0,0,1-.57,2.4c-.12.4-.26.79-.41,1.18-.08.19-.16.39-.25.58a5.83,5.83,0,0,1-.32.6s-1.25,1.79-1.23,1.81a13.85,13.85,0,0,1-1.95,2,14.71,14.71,0,0,1-2.18.86c-.62.18-2.23.5-2.23.5a12.43,12.43,0,0,1-5.86-.58l-2.6-1.33a10.22,10.22,0,0,1-3.08-3.37,11,11,0,0,0,1.65-2c.42-1,1.56-3.17,1.56-3.17a19.53,19.53,0,0,1,1.5-3.31s.88-1.06.8-1.13a3.72,3.72,0,0,1,1.06-1,10.83,10.83,0,0,1,3.48-1.07c.36,0,.79-.13,1.2-.18s.83-.09,1.25-.11a18.64,18.64,0,0,1,2.48,0l2.63.33c1.2.2,2.41.46,3.6.73C227.75,56.71,227.7,57.93,227.6,59.13Zm23.48-10.61c-.77,1.26-3.7,4.61-3.7,4.61a14,14,0,0,1-1.26,1,15.47,15.47,0,0,1-1.85.36l-1.7.13a22.07,22.07,0,0,1-4.55-.41S233,53,231.67,52.65c.1-1.32,1.1-6.57,1.1-6.57a13.75,13.75,0,0,1,2.42-4.61,13.23,13.23,0,0,1,3.64-3.16,18.61,18.61,0,0,1,4.57-.71,15.37,15.37,0,0,1,11.14,5.18C253.74,44,251.08,48.52,251.08,48.52Zm32.41-1.66c-1.07.7-2.17,1.38-3.28,2-2.15,2-8.35,3-8.36,3.06a16,16,0,0,1-2.08.16l-.61-.29-.29-.15-1.78-1A18.89,18.89,0,0,1,264,48l-1.61-1.82c-1-1.19-2-2.45-3.06-3.67.89-1.09,5-5,6.18-5.59a29.27,29.27,0,0,1,5.65-1.69,6.48,6.48,0,0,1,1.13-.09c.4,0,.81,0,1.22.06a27.41,27.41,0,0,1,2.59,1.16,15.34,15.34,0,0,1,1.66,1.18,32.24,32.24,0,0,1,3.59,4.14C281.77,42.33,283.05,45.86,283.49,46.86Zm27.76-1.57,0,0c0,.26,0,.51-.07.76a7.36,7.36,0,0,1-.49,1.87h0A13.54,13.54,0,0,1,306.29,54a20.24,20.24,0,0,1-2.66,1.63A15.41,15.41,0,0,1,299,56c-5.47-.69-7.31-3.23-7.57-3.56A19.42,19.42,0,0,1,288.1,48a51.2,51.2,0,0,0,3.95-3.75l1.46-1.53A24.16,24.16,0,0,1,296,40.46s1.55-1.06,1.79-1.2a42.28,42.28,0,0,1,4.3-.09,27.6,27.6,0,0,1,9.52,1.77A42.6,42.6,0,0,1,311.25,45.29Zm24.94-9.57a23,23,0,0,1-5.53,4.7c-.42.27-2.11,1.15-2.57,1.34-.47,0-2.68-.44-2.68-.44-.58-.15-1.17-.34-1.78-.55s-1.23-.44-1.93-.65l-2.29-.75c-1.3-.44-2.65-.87-4-1.26a25.66,25.66,0,0,1,.69-4.3,7.88,7.88,0,0,1,.52-2.16,10.25,10.25,0,0,1,.95-1.47,12.11,12.11,0,0,1,2.91-3.25A14.34,14.34,0,0,1,325,24.66a13.69,13.69,0,0,1,5,.58,12.61,12.61,0,0,1,4.53,2.63,18.67,18.67,0,0,1,2.23,2.33c.08.11,1.5,2.1,2.1,3Z"/><path class="cls-2" d="M309.48,43l-.29-.41a2.18,2.18,0,0,1-.52.53,2.32,2.32,0,0,1-.77.35l.32.43a.19.19,0,0,1-.07.24h0l3.07,4.2c.2.28.73.25,1.17-.07s.65-.8.45-1.08L309.73,43h0A.17.17,0,0,1,309.48,43Z"/><path class="cls-3" d="M304.68,39.33l1.13,1.56,1.81,2.52,0,.06.46.64h0a.19.19,0,0,0,.07-.24l-.32-.43a2.32,2.32,0,0,0,.77-.35,2.18,2.18,0,0,0,.52-.53l.29.41a.17.17,0,0,0,.24,0h0l-.42-.6-.08-.11-1.84-2.57S305,39.3,304.68,39.33Z"/><path class="cls-4" d="M305.9,39.88l5.92,8.25h0A.59.59,0,0,1,311,48l-5.85-8.17Z"/><path class="cls-2" d="M347.8,35.2l.06-.5a2,2,0,0,1-.74,0,2.17,2.17,0,0,1-.8-.27l-.06.53a.18.18,0,0,1-.21.13h0l-.24,2,1.74,2,.46-3.72h0A.17.17,0,0,1,347.8,35.2Z"/><path class="cls-3" d="M346.93,28.17l-.42,3-.39,3.08v.06l-.09.79h0a.18.18,0,0,0,.21-.13l.06-.53a2.17,2.17,0,0,0,.8.27,2,2,0,0,0,.74,0l-.06.5a.17.17,0,0,0,.16.17h0l.1-.73v-.13l.39-3.14.42-3c0-.34-.37-.6-.91-.67S347,27.83,346.93,28.17Z"/><path class="cls-4" d="M347.62,28l-1.21,9.66-.48-.66L347,28.5a.59.59,0,0,1,.63-.54Z"/><path class="cls-2" d="M235.65,50.76l-.27-.4a2.34,2.34,0,0,1-.53.51,2.19,2.19,0,0,1-.78.32l.29.43a.18.18,0,0,1-.07.23l0,0,2.88,4.33c.19.28.7.25,1.16-.05s.68-.78.49-1l-2.88-4.33h0A.17.17,0,0,1,235.65,50.76Z"/><path class="cls-3" d="M232.24,48.9l1.55,2.28,0,0,.42.64,0,0a.18.18,0,0,0,.07-.23l-.29-.43a2.19,2.19,0,0,0,.78-.32,2.34,2.34,0,0,0,.53-.51l.27.4a.17.17,0,0,0,.24,0h0l-.39-.59-.07-.11-1.69-2.53-1-1.46Z"/><path class="cls-4" d="M232.48,48,238,56.23h0a.57.57,0,0,1-.79-.17l-4.83-7.25Z"/><path class="cls-2" d="M264.38,43.15l.05-.48a2,2,0,0,1-.74,0,2.38,2.38,0,0,1-.81-.23l-.05.51c0,.08-.09.14-.2.13h0l-.48,5.22c0,.33.39.64.93.69s1-.17,1.05-.5l.47-5.22h0C264.45,43.3,264.37,43.23,264.38,43.15Z"/><path class="cls-3" d="M263,38.84l-.05.48-.28,3v.07l-.07.76h0c.11,0,.2-.05.2-.13l.05-.51a2.38,2.38,0,0,0,.81.23,2,2,0,0,0,.74,0l-.05.48c0,.08.07.15.17.16h0l.07-.7v-.13l.29-3,.22-2.35C265.19,36.77,263,38.84,263,38.84Z"/><path class="cls-4" d="M263.73,38.31,262.8,48h0a.57.57,0,0,1-.5-.63l.81-8.5Z"/><path class="cls-2" d="M226.22,57.46l-.3-.37a2.31,2.31,0,0,1-.49.55,2.19,2.19,0,0,1-.75.4l.33.4a.18.18,0,0,1,0,.23l0,0,2.38,3,.31-2.68-1.14-1.51h0A.17.17,0,0,1,226.22,57.46Z"/><path class="cls-3" d="M220.84,53.6l1.69,2.12L224.4,58l0,.05.48.6,0,0a.18.18,0,0,0,0-.23l-.33-.4a2.19,2.19,0,0,0,.75-.4,2.31,2.31,0,0,0,.49-.55l.3.37a.17.17,0,0,0,.24,0h0l-.45-.56-.08-.1L224,54.42l-1.64-2.07c-.21-.25-.68-.14-1.11.21S220.63,53.34,220.84,53.6Z"/><path class="cls-4" d="M221.17,53l6.13,7.6-.13.74-6.07-7.54a.57.57,0,0,1,.07-.8Z"/><path class="cls-2" d="M251.76,43.92l-.11-.46a2.43,2.43,0,0,1-.68.28,2.17,2.17,0,0,1-.84,0l.12.5a.17.17,0,0,1-.15.19h0l1,4.14c.37-.58,1.47-2.44,1.47-2.44L252,44h0A.18.18,0,0,1,251.76,43.92Z"/><path class="cls-3" d="M248.71,38.72l.48,2,.68,2.9,0,.07.18.74h0a.17.17,0,0,0,.15-.19l-.12-.5a2.17,2.17,0,0,0,.84,0,2.43,2.43,0,0,0,.68-.28l.11.46A.18.18,0,0,0,252,44h0l-.17-.69,0-.13-.7-3-.47-2c-.08-.32-.55-.42-1.09-.29S248.63,38.39,248.71,38.72Z"/><path class="cls-4" d="M249.26,38.15l2.24,9.51-.43.61-2.22-9.43a.56.56,0,0,1,.41-.69Z"/><path class="cls-2" d="M299.54,48.88l-.14-.7a1.53,1.53,0,0,1-.68.32,1.64,1.64,0,0,1-.85-.08l.14.76a.21.21,0,0,1-.14.25h0L299.14,56a4.54,4.54,0,0,0,2,0l-1.35-6.93s0,0,0,0A.2.2,0,0,1,299.54,48.88Z"/><path class="cls-3" d="M296.11,40.38l.64,3.47.85,4.36,0,.1.21,1.12h0a.21.21,0,0,0,.14-.25l-.14-.76a1.64,1.64,0,0,0,.85.08,1.53,1.53,0,0,0,.68-.32l.14.7a.2.2,0,0,0,.22.18s0,0,0,0l-.2-1,0-.19-.86-4.45L298.06,40c-.09-.48-.58-.69-1.12-.59S296,39.9,296.11,40.38Z"/><path class="cls-4" d="M296.7,40l3.05,15.77s-.51.32-.6-.15L296.31,41c-.09-.47.08-.9.39-1Z"/><path class="cls-2" d="M245.44,44.16l.26.68a1.58,1.58,0,0,0-.75.08,1.62,1.62,0,0,0-.69.52l-.28-.73a.19.19,0,0,0-.25-.14l0,0-2.58-6.76c-.18-.47,1.68-1.17,1.85-.71l2.58,6.76h0A.21.21,0,0,0,245.44,44.16Z"/><path class="cls-3" d="M247.1,53.36,245.76,50l-1.61-4.23,0-.1-.41-1.08,0,0a.19.19,0,0,1,.25.14l.28.73a1.62,1.62,0,0,1,.69-.52,1.58,1.58,0,0,1,.75-.08l-.26-.68a.21.21,0,0,1,.09-.28h0l.38,1,.07.19,1.65,4.31.89,2.35A7.11,7.11,0,0,1,247.1,53.36Z"/><path class="cls-4" d="M247.36,52.33l-5.68-14.91s-.58.06-.4.51l5.63,14.78C247.08,53.17,247.36,52.33,247.36,52.33Z"/><path class="cls-5" d="M275.67,43.74l-.19.69a1.66,1.66,0,0,0-.66-.37,1.57,1.57,0,0,0-.86,0l.21-.74a.2.2,0,0,0-.12-.26h0l1.88-6.85a9.91,9.91,0,0,1,1.75,1.22l-1.72,6.15h0A.21.21,0,0,0,275.67,43.74Z"/><path class="cls-6" d="M271.67,51.55l.83-3,1.18-4.29,0-.09.3-1.1h0a.2.2,0,0,1,.12.26l-.21.74a1.57,1.57,0,0,1,.86,0,1.66,1.66,0,0,1,.66.37l.19-.69a.21.21,0,0,1,.24-.16h0l-.28,1-.05.18-1.2,4.37-.81,2.92a.86.86,0,0,1-1.16.5C271.89,52.44,271.54,52,271.67,51.55Z"/><path class="cls-4" d="M272.15,52.34l4.29-15.61-.48-.34-4.12,15c-.13.46,0,.9.31,1Z"/><path class="cls-2" d="M270.05,42.51l-.11.71a1.58,1.58,0,0,0-.69-.3,1.64,1.64,0,0,0-.85.1l.12-.76a.2.2,0,0,0-.15-.24s0,0,0,0l1-6.44a5.22,5.22,0,0,1,2.08-.46l-1.15,7.21h0A.21.21,0,0,0,270.05,42.51Z"/><path class="cls-3" d="M266.94,50.71l.49-3.08.71-4.39v-.09l.18-1.13s0,0,0,0a.2.2,0,0,1,.15.24l-.12.76a1.64,1.64,0,0,1,.85-.1,1.58,1.58,0,0,1,.69.3l.11-.71a.21.21,0,0,1,.22-.19h0l-.17,1,0,.19L269.38,48l-.55,3.58c-.06.2-.68.17-1.22.08A.78.78,0,0,1,266.94,50.71Z"/><path class="cls-4" d="M267.53,51.35l2.55-15.91-.62.34-2.35,14.63c-.07.47.11.89.42.94Z"/><path class="cls-5" d="M239.08,47.39l.14.27a1.49,1.49,0,0,0-.42.79l1,2,2.66,5c.24.43,2-.5,1.76-.94l-2.56-4.75-1.28-2.41a1.47,1.47,0,0,0-.8.09l-.12-.23a.28.28,0,0,0-.36-.15A.27.27,0,0,0,239.08,47.39Z"/><path class="cls-6" d="M235.13,41.54l3.67,6.91a1.49,1.49,0,0,1,.42-.79l-.14-.27a.27.27,0,0,1,.07-.38.28.28,0,0,1,.36.15l.12.23a1.47,1.47,0,0,1,.8-.09l-3.67-6.89a.8.8,0,0,0-.31-.32A16.56,16.56,0,0,0,235.13,41.54Z"/><path class="cls-4" d="M235.7,41.25l7.43,14h0c-.27.14-.67-.08-.9-.51l-6.94-13Z"/><path class="cls-5" d="M303.23,45.86l.14.27a1.48,1.48,0,0,0-.45.77l1,2,2.43,4.9a1,1,0,0,0,1.78-.89l-2.32-4.67-1.19-2.4a1.37,1.37,0,0,0-.8.08l-.12-.24a.25.25,0,1,0-.44.22Z"/><path class="cls-6" d="M299.08,39.2l3.84,7.7a1.48,1.48,0,0,1,.45-.77l-.14-.27a.25.25,0,1,1,.44-.22l.12.24a1.37,1.37,0,0,1,.8-.08l-3.28-6.63A6.14,6.14,0,0,0,299.08,39.2Z"/><path class="cls-4" d="M300.13,39.86,307,53.59h0c-.28.14-.68-.09-.89-.51l-6.54-13.19C299.31,39.47,300.13,39.86,300.13,39.86Z"/><path class="cls-5" d="M323,33.46l.07.3a1.47,1.47,0,0,0-.62.64l.49,2.13,1,4.31a8.7,8.7,0,0,0,2.24.63l-1.25-5.14-.6-2.62a1.53,1.53,0,0,0-.79-.11l-.06-.25a.27.27,0,0,0-.31-.23A.27.27,0,0,0,323,33.46Z"/><path class="cls-6" d="M320.59,26.46l1.85,7.94a1.47,1.47,0,0,1,.62-.64l-.07-.3a.27.27,0,0,1,.17-.34.27.27,0,0,1,.31.23l.06.25a1.53,1.53,0,0,1,.79.11L322.52,26c-.11-.47-.56-.54-1.09-.41S320.48,26,320.59,26.46Z"/><path class="cls-4" d="M321.15,25.9,324.64,41l-.63-.26L320.8,26.86c-.11-.46.05-.89.35-1Z"/><path class="cls-5" d="M328.91,32.4l0,.31a1.47,1.47,0,0,0-.72.53l.14,2.19.34,5.77c0,.48.47.42,1,.38s1-.36.94-.84l-.31-5.19-.16-2.68a1.59,1.59,0,0,0-.77-.24v-.26a.27.27,0,0,0-.27-.27A.27.27,0,0,0,328.91,32.4Z"/><path class="cls-6" d="M327.69,24.74l.52,8.5a1.47,1.47,0,0,1,.72-.53l0-.31a.27.27,0,0,1,.22-.3.27.27,0,0,1,.27.27v.26a1.59,1.59,0,0,1,.77.24l-.48-7.69A9.57,9.57,0,0,0,327.69,24.74Z"/><path class="cls-4" d="M328.37,25.12l1,16.31c-.31,0-.6,0-.66-1.64l-.91-14.68C327.78,24.63,328.37,25.12,328.37,25.12Z"/><path class="cls-5" d="M210.07,67.07l0-.22a1.63,1.63,0,0,1-.8-.23L209,65l-.74-4.18a.93.93,0,0,1,.84-.91c.54-.1,1,0,1.08.39l.74,4.17.35,1.94a1.64,1.64,0,0,1-.7.34l0,.19a.22.22,0,0,1-.2.25A.23.23,0,0,1,210.07,67.07Z"/><path class="cls-6" d="M209.79,69.79l-.56-3.17a1.63,1.63,0,0,0,.8.23l0,.22a.23.23,0,0,0,.28.16.22.22,0,0,0,.2-.25l0-.19a1.64,1.64,0,0,0,.7-.34l.81,4.49A8.55,8.55,0,0,1,209.79,69.79Z"/><path class="cls-4" d="M210.54,70.19l-1.68-9.37h0a.61.61,0,0,0-.44.72l1.47,8.23Z"/><path class="cls-5" d="M200.1,63.82l.09-.14a1.84,1.84,0,0,1-.46-.63l.65-.93,2.15-3a15.35,15.35,0,0,1,.35,2.84l-.8,1.23-.81,1.14a2.45,2.45,0,0,1-.69-.31l-.08.11c-.05.07-.18.06-.29,0S200.05,63.88,200.1,63.82Z"/><path class="cls-6" d="M196.26,67.91l3.47-4.86a1.84,1.84,0,0,0,.46.63l-.09.14c0,.06,0,.18.11.26s.24.09.29,0l.08-.11a2.45,2.45,0,0,0,.69.31l-3,4.21a1.35,1.35,0,0,1-1.28.22C196.45,68.58,196.15,68.07,196.26,67.91Z"/><path class="cls-4" d="M196.76,68.41l5.86-8.32h0a.51.51,0,0,0-.71,0l-5.44,7.7C196.33,68,196.76,68.41,196.76,68.41Z"/><path class="cls-5" d="M191,55.45l.12-.16a1.66,1.66,0,0,1-.43-.69l.81-1.14,1.29-1.83a17.29,17.29,0,0,1,2.87-.61l-2.45,3.45-1,1.41a2.15,2.15,0,0,1-.72-.28l-.1.13c0,.09-.19.09-.3,0A.23.23,0,0,1,191,55.45Z"/><path class="cls-6" d="M187.78,58.75l2.93-4.15a1.66,1.66,0,0,0,.43.69l-.12.16a.23.23,0,0,0,.1.29c.11.08.25.08.3,0l.1-.13a2.15,2.15,0,0,0,.72.28l-3.37,4.62c-.18.25-.59-.33-.79-.67S187.6,59,187.78,58.75Z"/><path class="cls-4" d="M188.07,59.46l5.5-7.83s-.59-.12-.77.12l-4.87,6.94a.55.55,0,0,0,.14.77Z"/><path class="cls-2" d="M197.56,62.39l.37-.48a1.78,1.78,0,0,1-.66-.33,1.82,1.82,0,0,1-.53-.67l-.4.51a.18.18,0,0,1-.26,0l0,0-3.81,4.8a.92.92,0,0,0,.23,1.25c.43.34,1,.45,1.22.12l3.92-4.93h0A.19.19,0,0,1,197.56,62.39Z"/><path class="cls-3" d="M201,55.21l-2,2.45L196.7,60.6l0,.07-.6.75,0,0a.18.18,0,0,0,.26,0l.4-.51a1.82,1.82,0,0,0,.53.67,1.78,1.78,0,0,0,.66.33l-.37.48a.19.19,0,0,0,0,.26h0l.55-.7.1-.13,2.37-3,1.26-1.61A10.39,10.39,0,0,0,201,55.21Z"/><path class="cls-4" d="M200.94,56.31l-8.5,10.75h0a.66.66,0,0,1,0-.92l7.82-9.88C200.52,55.94,200.94,56.31,200.94,56.31Z"/><path class="cls-2" d="M194.62,59.42l.41-.56a1.59,1.59,0,0,1-1.22-1l-.44.61a.21.21,0,0,1-.28.06l0,0-3.76,5.1a.92.92,0,0,0,.28,1.28c.44.33.8.61,1.09.23l4-5.43h0A.2.2,0,0,1,194.62,59.42Z"/><path class="cls-3" d="M198.21,51.58l-1.86,2.5-2.57,3.48-.06.08-.66.89,0,0a.21.21,0,0,0,.28-.06l.44-.61a1.59,1.59,0,0,0,1.22,1l-.41.56a.2.2,0,0,0,0,.28h0l.61-.82.11-.15L198,55.19l1.67-2.26A3,3,0,0,0,198.21,51.58Z"/><path class="cls-4" d="M198.72,52l-9.3,12.6h0c-.25-.19-.23-.64.05-1l8.63-11.69C198.38,51.51,198.72,52,198.72,52Z"/><path class="cls-5" d="M294.18,47.41l0,.58a1.91,1.91,0,0,0-.72-.18,1.8,1.8,0,0,0-.83.15l0-.62a.19.19,0,0,0-.18-.19h0l.28-5.68c0-.39.48-.69,1-.66s1,.37.95.76l-.27,5.68h0A.2.2,0,0,0,294.18,47.41Z"/><path class="cls-6" d="M292.12,53.17l.07-1.43.17-3.59v-.07l0-.93h0a.19.19,0,0,1,.18.19l0,.62a1.8,1.8,0,0,1,.83-.15,1.91,1.91,0,0,1,.72.18l0-.58a.2.2,0,0,1,.2-.17h0l0,.85v.16l-.18,3.65-.11,2.55C294,54.86,292.12,53.17,292.12,53.17Z"/><path class="cls-4" d="M292.77,53.46l.6-12.11h0a.63.63,0,0,0-.59.67l-.55,11Z"/><path class="cls-5" d="M318.44,34.46l.22.4a2.06,2.06,0,0,0-.69.25,2.29,2.29,0,0,0-.65.53l-.24-.43a.18.18,0,0,0-.23,0l0,0-2-3.62c-.16-.27.11-.71.59-1s1-.26,1.14,0l2,3.62h0C318.44,34.3,318.4,34.39,318.44,34.46Z"/><path class="cls-6" d="M319.09,39.26l-.52-.9-1.37-2.47,0,0-.35-.64,0,0a.18.18,0,0,1,.23,0l.24.43a2.29,2.29,0,0,1,.65-.53,2.06,2.06,0,0,1,.69-.25l-.22-.4c0-.07,0-.16.09-.22h0l.33.59.06.1,1.39,2.52,1.57,2.73A13,13,0,0,1,319.09,39.26Z"/><path class="cls-4" d="M320,39.56l-4.81-8.67h0a.55.55,0,0,0-.22.75l4.21,7.6Z"/><path class="cls-5" d="M336.06,32.15v.45a2.19,2.19,0,0,0-.73-.12,2.3,2.3,0,0,0-.83.14v-.49c0-.08-.08-.14-.19-.14h0l0-4.14c0-.31,2,1.85,2,1.85l0,2.31h0C336.15,32,336.06,32.07,336.06,32.15Z"/><path class="cls-6" d="M334.21,38.47l0-2.86,0-2.83V32h0c.11,0,.19.06.19.14v.49a2.3,2.3,0,0,1,.83-.14,2.19,2.19,0,0,1,.73.12v-.45c0-.08.09-.14.19-.14h0v.79l0,2.88,0,2.81c0,.31-.44.5-1,.5S334.2,38.78,334.21,38.47Z"/><path class="cls-4" d="M334.47,28.71l-.1,9.5a.57.57,0,0,0,.56.56L335,29S334.48,28.4,334.47,28.71Z"/><path class="cls-2" d="M220.59,60.37l.44.57a1.57,1.57,0,0,0-.69.29,1.6,1.6,0,0,0-.52.69l-.46-.61a.21.21,0,0,0-.29-.06l0,0-4.28-5.59a1,1,0,0,1,1.58-1.2l4.27,5.58h0A.2.2,0,0,0,220.59,60.37Z"/><path class="cls-3" d="M224.45,68.36,222.5,65.8l-2.7-3.54-.06-.08-.69-.9,0,0a.21.21,0,0,1,.29.06l.46.61a1.6,1.6,0,0,1,.52-.69,1.57,1.57,0,0,1,.69-.29l-.44-.57a.2.2,0,0,1,0-.29h0l.64.84.12.15,2.75,3.6,1.52,2A11.79,11.79,0,0,1,224.45,68.36Z"/><path class="cls-4" d="M224.72,67.61l-9.44-12.38h0c-.25.19-.21.64.08,1l9,11.87Z"/><path class="cls-5" d="M280,45.06l-.06.19a1.75,1.75,0,0,0-.8.06l-.41,1.31-1.37,4.49c-.09.29.27.6.8.76s1,.12,1.09-.17l1.32-4.34.51-1.6a2.15,2.15,0,0,0-.66-.4l.05-.15a.22.22,0,0,0-.18-.25C280.17,44.92,280,45,280,45.06Z"/><path class="cls-6" d="M280.63,40.67l-1.48,4.64a1.75,1.75,0,0,1,.8-.06l.06-.19c0-.1.16-.14.29-.1a.22.22,0,0,1,.18.25l-.05.15a2.15,2.15,0,0,1,.66.4L282,43A6.39,6.39,0,0,0,280.63,40.67Z"/><path class="cls-4" d="M280.79,42.15,278,50.94h0a.55.55,0,0,1-.37-.68l2.7-8.63Z"/><path class="cls-5" d="M215.59,64.56l-.14-.28a1.52,1.52,0,0,1-.89-.1l-1-2-2.3-4.51a.87.87,0,0,1,.52-1.16c.49-.25.81-.6,1-.16l2.41,4.71,1.23,2.43a1.29,1.29,0,0,1-.53.6l.12.24a.27.27,0,0,1-.08.37A.28.28,0,0,1,215.59,64.56Z"/><path class="cls-6" d="M218.33,71.56l-3.77-7.38a1.52,1.52,0,0,0,.89.1l.14.28a.28.28,0,0,0,.36.15.27.27,0,0,0,.08-.37l-.12-.24a1.29,1.29,0,0,0,.53-.6l3.88,7.61A5,5,0,0,1,218.33,71.56Z"/><path class="cls-4" d="M218.94,71.34l-7.42-14.58h0c-.28.14-.33.6-.11,1l6.8,13.34C218.43,71.56,218.94,71.34,218.94,71.34Z"/><path class="cls-7" d="M379.1,23.28a9.61,9.61,0,0,0-7.83-.52c-6.22,2.06-8.33,8.19-6.49,13.76s7.19,9.22,13.41,7.16a14.58,14.58,0,0,0,6.13-3.93l-2.68-8.1-5.77,1.92-.75-2.26,8.23-2.73,3.93,11.86a19.85,19.85,0,0,1-8.34,5.49,13,13,0,0,1-16.82-8.53,13,13,0,0,1,8.4-16.89c3.83-1.27,7-1.09,9.82.35Z"/><path class="cls-7" d="M402.3,28.35l-.09-.42c-.6-2.85-2.26-4-5.12-3.38a7.45,7.45,0,0,0-4.63,3l-1.76-1.36c1.19-1.87,3.38-3.21,6.48-3.86s6.41.58,7.25,4.6L406,34.28A27.24,27.24,0,0,0,407,37.92l-2.26.48a16.83,16.83,0,0,1-.77-2.64l-.07,0a6.29,6.29,0,0,1-5.17,4.31c-2.92.61-6-.44-6.68-3.64-1.12-5.36,5.12-7,9.07-7.85Zm-.8,2.16c-2.36.49-7.65,1.78-7,5.09.46,2.18,2.64,2.61,4.51,2.22,3.38-.7,4.51-3.44,3.89-6.36l-.25-1.2Z"/><path class="cls-7" d="M411.66,9.82l2.38,0L414.17,23h.07a8.06,8.06,0,0,1,6.52-3.3,8.61,8.61,0,0,1,9.05,8.77,8.61,8.61,0,0,1-8.88,8.94,8,8,0,0,1-6.58-3.18h-.07l0,2.81-2.37,0Zm9.12,12a6.7,6.7,0,1,0,.13,13.39c3.92,0,6.34-3,6.31-6.76S424.7,21.79,420.78,21.83Z"/><path class="cls-7" d="M436.16,26.64c.33-1.48.54-2.76,1-5.17l2.29.51L438.76,25l.07,0a5.56,5.56,0,0,1,6-2.32,6.45,6.45,0,0,1,1.68.59l-1,2.19a3.72,3.72,0,0,0-1.3-.47A5.27,5.27,0,0,0,438,29.19l-2,9.28L433.67,38Z"/><path class="cls-7" d="M448.25,41.74,446,41.06l4.82-16.15,2.28.68Zm5-21a1.73,1.73,0,1,1,2.15-1.16A1.75,1.75,0,0,1,453.29,20.7Z"/><path class="cls-7" d="M458.42,36.9a6.29,6.29,0,0,0,9.87,6.83l1.22,2a8.78,8.78,0,0,1-8,.93,8.55,8.55,0,0,1-5.24-11.26,8.5,8.5,0,0,1,11-5.49c4.81,1.74,6.32,6.29,4.78,10.63l-.37,1Zm11.43,2A5.08,5.08,0,0,0,466.51,32c-2.92-1-6.44.5-7.37,3.11Z"/><path class="cls-7" d="M478.06,51.51l-2.3-.61,6.92-26.32,2.29.6Z"/><path class="cls-7" d="M488.58,53.72l-2.34-.43,4.83-26.78,2.34.42Z"/><path class="cls-7" d="M508.24,45.53l0-.43c.21-2.91-1.09-4.45-4-4.66A7.49,7.49,0,0,0,499,42l-1.31-1.79c1.66-1.47,4.12-2.16,7.28-1.93s6,2.32,5.71,6.41l-.55,7.5a29.59,29.59,0,0,0,0,3.79l-2.29-.16a15.74,15.74,0,0,1,0-2.75h-.07a6.31,6.31,0,0,1-6.16,2.72c-3-.21-5.66-2.07-5.42-5.33.4-5.46,6.85-5.35,10.87-5.06Zm-1.36,1.85c-2.41-.18-7.84-.39-8.09,3-.16,2.23,1.82,3.24,3.73,3.38,3.44.25,5.27-2.07,5.49-5.05l.09-1.22Z"/><path class="cls-7" d="M542.3,50.65l7.35-21.2,4-.24,1.51,25.44-2.59.16-1.31-22h-.07l-7.89,22.54-1.37.08L531.39,34h-.07l1.3,22-2.58.15L528.52,30.7l4-.23Z"/><path class="cls-7" d="M562.19,32.11a1.73,1.73,0,1,1,1.53-1.9A1.75,1.75,0,0,1,562.19,32.11Zm3.45,21.35-2.36.25L561.51,37l2.36-.25Z"/><path class="cls-7" d="M575.41,52.3l-2.36.3-3.41-27,2.35-.29Z"/><path class="cls-7" d="M585.2,50.92l-2.35.36-4-26.91,2.35-.35Z"/><path class="cls-7" d="M592.46,41.75A6.29,6.29,0,0,0,604.4,43l2.06,1.2a8.78,8.78,0,0,1-6.58,4.67,8.56,8.56,0,0,1-10-7.36,8.51,8.51,0,0,1,7-10.09c5.06-.78,8.57,2.49,9.3,7l.17,1.06Zm11-3.73a5.09,5.09,0,0,0-6.26-4.47c-3.06.49-5.42,3.53-5,6.27Z"/><path class="cls-7" d="M611.63,35.28c-.11-1.5-.29-2.79-.55-5.22l2.33-.19.25,3.13h.07a5.53,5.53,0,0,1,5.11-4,6.25,6.25,0,0,1,1.77.08l-.28,2.37a3.9,3.9,0,0,0-1.38-.08,5.28,5.28,0,0,0-4.79,5.79l.74,9.48-2.37.18Z"/><path class="cls-8" d="M179.8,155.52c13.64-24.45,10.42-53.07-1.19-79.32C198.87,91.23,204.89,137,196,163,188,186.21,165.38,181.36,179.8,155.52Z"/><path class="cls-8" d="M38.6,196.46C21.38,185,9.24,167.66,3.38,147.91,31.33,152.05,42.63,169.8,38.6,196.46Z"/><path class="cls-8" d="M57.87,48.69c-21.5,8.78-34,30.19-38.17,52.67-3.52,19-15.65,15-19.7,17.3C3.28,91.77,24.47,51.28,57.87,48.69Z"/><path class="cls-9" d="M124.5,195.18c-.1,13.09-7.64,30.33.63,37.21,6.36,5.29,12.7-9.54,19-20.42,7.23-12.44,10.93-9.79,26.05-11.17,35.11-3.21,27.9-12.65,10.36-15.59-6.55-1.09-16.12-2.52-20.54-12.14-4.19-9.12.28-17.75,7.29-27.68,9.49-13.46,12.2-21.18-8.57-9.37-21.39,12.16-22.55,15.29-45,3.52-30.15-15.8-21,.27-7.23,13.78C117.47,164.09,124.63,179.55,124.5,195.18Z"/><path class="cls-10" d="M39.84,89.35C49.76,85,65.31,87,67.6,74.45c8.63,6.24,4.16,27.15-15.26,36.44C36.82,118.31,24.65,96,39.84,89.35Z"/><path class="cls-10" d="M96.78,184.91c-13.37-29.24-19.17-49.43-6-80.26C106.49,67.71,97.22,73.52,79,97.13,62.9,118,43,119.7,13,126.22c-18,3.9-17.77,11.21,6.55,12.24,27.82,1.17,33.39,20.23,32.59,44.17a77.69,77.69,0,0,1-4.19,23.55c-9,24.88,2.22,22.71,11.19,10.14,4.46-6.26,8.45-13.31,10.44-21.4,4.06-16.45,8.55-12.14,15.8-1.21C110.4,231.5,106.5,206.17,96.78,184.91Z"/><path class="cls-9" d="M125.28,137.3c-5.23-5.75-4.29-18.21,1.56-23.53,7.45-6.79,14-6,18.13-1.92C159.18,126.1,136.73,149.88,125.28,137.3Z"/><path class="cls-7" d="M645.75,186.85c0,8.37-7.49,15.21-16.64,15.21H227.37c-9.15,0-16.64-6.84-16.64-15.21s7.49-15.2,16.64-15.2H629.11C638.26,171.65,645.75,178.49,645.75,186.85Z"/><path class="cls-11" d="M225.51,180.05h5.24c3,0,5.74.95,5.74,4.06,0,3.53-2.92,4.16-6.22,4.16h-2v5.81h-2.78Zm4.45,6.08c1.58,0,3.63-.07,3.63-2,0-1.72-1.83-2-3.32-2h-2v3.94Z"/><path class="cls-11" d="M241.15,180.05h10.32v2.26h-7.54v3.45h7.15V188h-7.15v3.8h7.94v2.26H241.15Z"/><path class="cls-11" d="M256.8,180.05h6.13c4.1,0,7.93,2.26,7.93,7s-4.51,7-8.26,7h-5.8Zm4.84,11.77c3.47,0,6.31-1.35,6.31-4.75s-2.46-4.76-5.85-4.76h-2.53v9.51Z"/><path class="cls-11" d="M275.63,180.05h2.77v14h-2.77Z"/><path class="cls-11" d="M289.05,180.05h2.4l6.71,14H295l-1.45-3.21h-6.76l-1.41,3.21h-3.1Zm3.52,8.68-2.4-5.7-2.44,5.7Z"/><path class="cls-11" d="M303.26,182.31h-4.77v-2.26h12.32v2.26H306v11.77h-2.77Z"/><path class="cls-11" d="M314.9,180.05h5.41c3,0,5.81.88,5.81,4a3.74,3.74,0,0,1-3.61,3.81l4.14,6.2H323.3l-3.6-5.94h-2v5.94H314.9Zm4.93,5.95c1.56,0,3.39-.12,3.39-1.94s-1.72-1.87-3.15-1.87h-2.4V186Z"/><path class="cls-11" d="M330.89,180.05h2.77v14h-2.77Z"/><path class="cls-11" d="M350,183.34a4.46,4.46,0,0,0-3.28-1.38,5.12,5.12,0,1,0,0,10.22,4.56,4.56,0,0,0,3.5-1.71l2.29,1.47a7.21,7.21,0,0,1-5.81,2.49c-4.8,0-8.23-2.93-8.23-7.31s3.43-7.42,8.23-7.42a7.09,7.09,0,0,1,5.45,2.22Z"/><path class="cls-11" d="M365.26,180.05h5.41c3,0,5.81.88,5.81,4a3.74,3.74,0,0,1-3.61,3.81l4.14,6.2h-3.35l-3.61-5.94h-2v5.94h-2.77Zm4.92,5.95c1.57,0,3.39-.12,3.39-1.94s-1.71-1.87-3.14-1.87H368V186Z"/><path class="cls-11" d="M381.32,180.05h10.32v2.26h-7.55v3.45h7.15V188h-7.15v3.8H392v2.26H381.32Z"/><path class="cls-11" d="M404.59,183.07a3.42,3.42,0,0,0-2.73-1.11c-1.27,0-2.55.51-2.55,1.8,0,2.81,7.39,1.21,7.39,6.2,0,3-2.64,4.47-5.69,4.47a6.82,6.82,0,0,1-5.11-1.9l2.09-1.82a3.81,3.81,0,0,0,3.08,1.47c1.28,0,2.73-.64,2.73-1.93,0-3.07-7.39-1.3-7.39-6.31,0-2.9,2.86-4.24,5.74-4.24a6.83,6.83,0,0,1,4.47,1.44Z"/><path class="cls-11" d="M411.78,180.05H422.1v2.26h-7.54v3.45h7.15V188h-7.15v3.8h7.94v2.26H411.78Z"/><path class="cls-11" d="M432.47,180.05h2.39l6.71,14h-3.16L437,190.87H430.2l-1.41,3.21h-3.1Zm3.52,8.68-2.4-5.7-2.45,5.7Z"/><path class="cls-11" d="M445.51,180.05h5.41c3,0,5.81.88,5.81,4a3.74,3.74,0,0,1-3.61,3.81l4.14,6.2h-3.34l-3.61-5.94h-2v5.94h-2.77Zm4.93,5.95c1.56,0,3.39-.12,3.39-1.94s-1.72-1.87-3.15-1.87h-2.4V186Z"/><path class="cls-11" d="M472.26,183.34A4.44,4.44,0,0,0,469,182a5.11,5.11,0,1,0,0,10.22,4.53,4.53,0,0,0,3.5-1.71l2.29,1.47a7.21,7.21,0,0,1-5.81,2.49c-4.79,0-8.23-2.93-8.23-7.31s3.44-7.42,8.23-7.42a7.11,7.11,0,0,1,5.46,2.22Z"/><path class="cls-11" d="M478.84,180.05h2.77v5.59h7.29v-5.59h2.77v14H488.9V187.9h-7.29v6.18h-2.77Z"/><path class="cls-11" d="M506.05,180.05h5.24c3,0,5.74.95,5.74,4.06,0,3.53-2.92,4.16-6.22,4.16h-2v5.81h-2.78Zm4.45,6.08c1.58,0,3.63-.07,3.63-2,0-1.72-1.83-2-3.32-2h-2v3.94Z"/><path class="cls-11" d="M521.69,180.05h5.42c3,0,5.81.88,5.81,4a3.74,3.74,0,0,1-3.61,3.81l4.13,6.2H530.1l-3.61-5.94h-2v5.94h-2.78Zm4.93,5.95c1.57,0,3.39-.12,3.39-1.94s-1.71-1.87-3.14-1.87h-2.4V186Z"/><path class="cls-11" d="M545.15,179.7c4.86-.08,8.29,2.85,8.29,7.35s-3.43,7.3-8.29,7.38-8.23-2.93-8.23-7.31S540.35,179.7,545.15,179.7Zm0,12.48a5.12,5.12,0,1,0,0-10.22,5.12,5.12,0,1,0,0,10.22Z"/><path class="cls-11" d="M572.12,193.05a14.72,14.72,0,0,1-6.45,1.38c-4.79,0-8.23-2.93-8.23-7.31s3.44-7.42,8.23-7.42a9.54,9.54,0,0,1,6.14,1.76l-2,1.86A6.28,6.28,0,0,0,565.7,182a5.12,5.12,0,1,0,0,10.22,8.11,8.11,0,0,0,3.65-.74v-3.3h-3.19v-2.26h6Z"/><path class="cls-11" d="M577.6,180.05H583c3,0,5.81.88,5.81,4a3.74,3.74,0,0,1-3.61,3.81l4.14,6.2H586l-3.61-5.94h-2v5.94H577.6Zm4.92,5.95c1.57,0,3.39-.12,3.39-1.94s-1.71-1.87-3.14-1.87h-2.4V186Z"/><path class="cls-11" d="M598.69,180.05h2.4l6.71,14h-3.16l-1.46-3.21h-6.75L595,194.08h-3.1Zm3.53,8.68-2.4-5.7-2.45,5.7Z"/><path class="cls-11" d="M611.81,180.05H616l4.16,9.83,4.2-9.83h4.18v14h-2.64V182.43h0l-4.73,11.65h-1.94l-4.73-11.65h0v11.65h-2.64Z"/><path class="cls-12" d="M234.46,86.58c.24,3.44.37,7,.41,10.77s0,8.14-.05,13.17-.12,8.61-.12,10.72,0,4.9.12,8.6.11,6.31.11,7.79a150.61,150.61,0,0,1-.58,16.74,2.89,2.89,0,0,1-1.12,2A3,3,0,0,1,229,156a3,3,0,0,1-.7-2.28,136.1,136.1,0,0,0,.58-16c0-1.41,0-4-.11-7.73s-.12-6.63-.12-8.66q0-3.28.12-10.66t.06-12.88q-.06-5.49-.41-10.65a2.81,2.81,0,0,1,.7-2.22,3,3,0,0,1,2.11-1.06,2.86,2.86,0,0,1,2.22.71A3,3,0,0,1,234.46,86.58ZM276.26,83a61,61,0,0,1-7.84,7.85,50.84,50.84,0,0,1-6,4.09l-8.2,5.51a66,66,0,0,0-7.2,5.44c-1.68,1.52-2.56,2.52-2.63,3a2,2,0,0,0,.58,1,11.71,11.71,0,0,0,2.81,2.58q1.17.93,3.86,2.69l3.4,2.46q5.26,4.68,15,15,9.26,9.84,14.64,14.52a3.1,3.1,0,0,1,1.05,2.11,2.81,2.81,0,0,1-.7,2.22,3.07,3.07,0,0,1-2.11,1.06,2.85,2.85,0,0,1-2.22-.71q-5.5-4.8-15-15t-14.63-14.52a20.35,20.35,0,0,0-2.81-2l-4.22-2.93a19.8,19.8,0,0,1-3.86-3.74,7.11,7.11,0,0,1-1.87-5.51q.34-2.93,4.56-6.79a67.59,67.59,0,0,1,8-6l8.32-5.5c3.2-2.11,5-3.35,5.5-3.75A62.8,62.8,0,0,0,271.58,79a3.05,3.05,0,0,1,2.1-1,2.88,2.88,0,0,1,2.23.7,3.1,3.1,0,0,1,1,2.11A2.81,2.81,0,0,1,276.26,83Z"/><path class="cls-12" d="M300.85,107.42q-.12,1.65-1.41,18.21t-1.29,25.23a3,3,0,0,1-3,3,3,3,0,0,1-3.05-3q0-6.44.47-13.82t1.23-16.21q.76-8.83,1-13.88a3.18,3.18,0,0,1,1.05-2,2.72,2.72,0,0,1,2.17-.76,3.19,3.19,0,0,1,2.1,1.06A2.75,2.75,0,0,1,300.85,107.42Zm-2.4-20.9a3.14,3.14,0,1,1-2.17-.87A3,3,0,0,1,298.45,86.52Z"/><path class="cls-12" d="M358.21,81.08q.35,4.56.59,14.17.22,11.23.35,13.81.59,12.06.35,22.36a89,89,0,0,1-.94,13.11,25.52,25.52,0,0,1-1.05,5.16,8.2,8.2,0,0,1-2.46,4q-2.93,2.22-8.9,1.64a50.64,50.64,0,0,1-10.3-2.35,73.24,73.24,0,0,1-10.07-4.09,24.37,24.37,0,0,1-6.67-4.45,19.88,19.88,0,0,1-5-9.49,27.44,27.44,0,0,1-.35-10.65,32.26,32.26,0,0,1,3.22-9.6c.78-1.48,1.44-2.65,2-3.51s1.31-1.93,2.28-3.22a14,14,0,0,1,3.4-3.22,15.91,15.91,0,0,1,4.27-2q6.68-2,22.48-.94a3.91,3.91,0,0,1,1.41.47V95.36q-.24-8.43-.71-13.58a3,3,0,0,1,.71-2.28,3.06,3.06,0,0,1,5.38,1.58Zm-6.91,67.79a9.42,9.42,0,0,0,.47-1.17,23.16,23.16,0,0,0,.82-4,93.27,93.27,0,0,0,.82-12.41q.24-10.31-.35-22a17.82,17.82,0,0,0-.12-2,2.53,2.53,0,0,1-2,.59q-14.64-.93-20.37.7a8.63,8.63,0,0,0-4.27,2.87,37.4,37.4,0,0,0-3.92,6,22.18,22.18,0,0,0-2.87,11.94,15.68,15.68,0,0,0,4,10.77,20.06,20.06,0,0,0,5.21,3.34,56,56,0,0,0,9,3.57,40.15,40.15,0,0,0,9,2.11C349,149.45,350.52,149.33,351.3,148.87Z"/><path class="cls-12" d="M400.82,113.63a46.35,46.35,0,0,0-11.7-4q-6.33-.83-8.9,2.92a2.84,2.84,0,0,0-.7,1.47,4.44,4.44,0,0,0,.46,1.58,16.07,16.07,0,0,0,1.41,2.1c.54.71,1,1.29,1.46,1.76a13.71,13.71,0,0,0,2.17,1.76l2,1.52,2.57,1.64c1.33.93,2.19,1.52,2.58,1.75a56.12,56.12,0,0,1,5.21,3.87,23.88,23.88,0,0,1,4.16,5,17.62,17.62,0,0,1,2.69,7q.58,4.22-3.75,7.14a24,24,0,0,1-7.61,3,46.16,46.16,0,0,1-8.25,1.41,29.94,29.94,0,0,1-6.5,0,54.11,54.11,0,0,1-6.79-2.58,3.26,3.26,0,0,1-1.64-1.75,2.75,2.75,0,0,1,.06-2.28,3.09,3.09,0,0,1,1.7-1.59,2.76,2.76,0,0,1,2.22,0,35,35,0,0,0,5.62,2.11,18.28,18.28,0,0,0,5.09.06,36.85,36.85,0,0,0,7-1.23,19.38,19.38,0,0,0,5.74-2.22q1.17-.82,1.05-1.17a12.68,12.68,0,0,0-2.81-6.27,30,30,0,0,0-6.55-5.44c-.32-.24-1.1-.76-2.35-1.58s-2.16-1.41-2.75-1.76a26.87,26.87,0,0,1-2.51-1.81,22.25,22.25,0,0,1-2.58-2.29c-.63-.66-1.33-1.48-2.11-2.45a16.84,16.84,0,0,1-1.87-2.87,9.62,9.62,0,0,1-1.17-4.8,9.8,9.8,0,0,1,1.87-4.57q4.68-6.78,14.64-5.38A48.59,48.59,0,0,1,403.4,108a3,3,0,0,1,1.58,1.75,3.07,3.07,0,0,1-.12,2.34,2.85,2.85,0,0,1-1.69,1.59A3.28,3.28,0,0,1,400.82,113.63Z"/><path class="cls-12" d="M446.83,74.64q3.75-.12,12.88.12a122,122,0,0,0,12.53-.12,2.86,2.86,0,0,1,2.22.7,3.11,3.11,0,0,1,1.06,2.11,2.85,2.85,0,0,1-.71,2.22,3,3,0,0,1-2.11,1.06q-5,.34-13.23.12-8.89-.24-12.4-.12h-.71v.12q0,7.26-1.05,18.85l-.59,5.85c2.74,1.17,5.25,2.13,7.56,2.87a57.14,57.14,0,0,0,7.37,1.81,29.43,29.43,0,0,0,7.61.41,24,24,0,0,0,7-1.58,3.06,3.06,0,0,1,2.34,0,2.85,2.85,0,0,1,1.64,1.64,3.06,3.06,0,0,1,0,2.34,2.85,2.85,0,0,1-1.64,1.64q-12.88,5.16-32.31-2.69-.36,3.17-.47,6.09-.24,5.15.23,13.46.71,10.31.7,14.05a3,3,0,1,1-6.08,0q0-3.51-.71-13.58-.46-8.89-.23-14.17.23-4.22,1.52-18.73,1-11.82,1-18.26a3,3,0,0,1,.88-2.17,2.94,2.94,0,0,1,2.17-.88h.58a3.28,3.28,0,0,1,.82-2.22A2.67,2.67,0,0,1,446.83,74.64Z"/><path class="cls-12" d="M493.54,107.42q-.12,1.65-1.4,18.21t-1.29,25.23a3,3,0,1,1-6.09,0q0-6.44.47-13.82t1.23-16.21q.77-8.83,1-13.88a3.19,3.19,0,0,1,1.06-2,2.7,2.7,0,0,1,2.16-.76,3.21,3.21,0,0,1,2.11,1.06A2.71,2.71,0,0,1,493.54,107.42Zm-2.4-20.9A3,3,0,0,1,489,91.73a3,3,0,0,1-2.17-.87,3.12,3.12,0,0,1,0-4.34,3.13,3.13,0,0,1,4.33,0Z"/><path class="cls-12" d="M515.67,117q4.44-9.48,11.12-11.12,7-1.75,14.75,5.62a3,3,0,0,1,.94,2.17,3,3,0,0,1-.88,2.16,2.77,2.77,0,0,1-2.11.94,3.15,3.15,0,0,1-2.16-.82q-5.39-5.16-9.13-4.22t-6.91,7.85a3,3,0,0,1-1.76,1.58,3.26,3.26,0,0,1-2.34-.06,3.19,3.19,0,0,1-1.76-2.22A190,190,0,0,0,519,162.33a2.56,2.56,0,0,1-.35,2.22,3.13,3.13,0,0,1-1.94,1.35,2.79,2.79,0,0,1-2.28-.41,2.94,2.94,0,0,1-1.29-2,194.76,194.76,0,0,1-2.81-58.3,2.89,2.89,0,0,1,1.11-2,3,3,0,0,1,2.23-.71,2.93,2.93,0,0,1,2,1.12,3,3,0,0,1,.7,2.28q-.58,6.91-.82,11.59A1,1,0,0,0,515.67,117Z"/><path class="cls-12" d="M576.78,113.63a46.27,46.27,0,0,0-11.71-4q-6.32-.83-8.89,2.92a2.88,2.88,0,0,0-.71,1.47,4.52,4.52,0,0,0,.47,1.58,16.07,16.07,0,0,0,1.41,2.1c.54.71,1,1.29,1.46,1.76a13.71,13.71,0,0,0,2.17,1.76l2,1.52,2.57,1.64c1.33.93,2.19,1.52,2.58,1.75a57.5,57.5,0,0,1,5.21,3.87,23.57,23.57,0,0,1,4.15,5,17.63,17.63,0,0,1,2.7,7q.59,4.22-3.75,7.14a24,24,0,0,1-7.61,3,46.31,46.31,0,0,1-8.25,1.41,29.94,29.94,0,0,1-6.5,0,54.11,54.11,0,0,1-6.79-2.58,3.26,3.26,0,0,1-1.64-1.75,2.75,2.75,0,0,1,.06-2.28,3.07,3.07,0,0,1,1.69-1.59,2.79,2.79,0,0,1,2.23,0,35,35,0,0,0,5.62,2.11,18.26,18.26,0,0,0,5.09.06,37,37,0,0,0,7-1.23,19.3,19.3,0,0,0,5.73-2.22c.78-.55,1.13-.94,1.06-1.17a12.68,12.68,0,0,0-2.81-6.27,30.05,30.05,0,0,0-6.56-5.44c-.31-.24-1.09-.76-2.34-1.58s-2.17-1.41-2.75-1.76a25.45,25.45,0,0,1-2.52-1.81,22.9,22.9,0,0,1-2.57-2.29c-.63-.66-1.33-1.48-2.11-2.45a16.25,16.25,0,0,1-1.87-2.87,8,8,0,0,1,.7-9.37q4.68-6.78,14.63-5.38A48.54,48.54,0,0,1,579.36,108a3.07,3.07,0,0,1,1.46,4.09,2.84,2.84,0,0,1-1.7,1.59A3.26,3.26,0,0,1,576.78,113.63Z"/><path class="cls-12" d="M601,111.29a23.21,23.21,0,0,1-2.57-.12,11.06,11.06,0,0,1-3.05-.35,3.85,3.85,0,0,1-1.4-.47,3.55,3.55,0,0,1-1.87-2,3.37,3.37,0,0,1,.93-3.75,3.9,3.9,0,0,1,1.64-1.11,8.59,8.59,0,0,1,1.17-.41,33.43,33.43,0,0,1,9.25-5.27,2.94,2.94,0,0,1,2.28.24,3.06,3.06,0,0,1,1.53,1.75,2.76,2.76,0,0,1-.18,2.28,3.34,3.34,0,0,1-1.76,1.59,26.54,26.54,0,0,0-3.39,1.4h2.11l7.72-.59c3-.23,4.61-.35,4.92-.35a3.28,3.28,0,0,1,2.22.82,2.67,2.67,0,0,1,.94,2.11,3.27,3.27,0,0,1-.82,2.23,2.68,2.68,0,0,1-2.11.93c-.39,0-1.93.12-4.62.35s-5,.39-6.85.47q-.93,16.28.47,26.23,1.17,8.19,3.63,10.53a2,2,0,0,0,1.75.59q1.88-.24,4.57-2.58a2.87,2.87,0,0,1,2.23-.7,3.07,3.07,0,0,1,2.1,1,2.89,2.89,0,0,1,.71,2.23,3.07,3.07,0,0,1-1.06,2.11q-4.1,3.51-7.73,4a8.14,8.14,0,0,1-6.9-2.35q-3.87-3.73-5.27-14Q600.07,127.44,601,111.29Z"/><path class="cls-13" d="M163.43,64.82c-24.74,14.2-62.1,7.91-83.35-9.39-10.2-8.31-8.3-8.51,2.63-11.23,9.43-2.34,15-4.16,26.09,4.21,6.6,5,13.33,8.64,19.5,10.15,14.7,3.59,25.79,3.28,35.89-.43C183.53,51,184.11,53,163.43,64.82Z"/><path class="cls-14" d="M131,27.58c5.46,11.5,17.8,21.56,31,22.08,9.62.38,15.66-2.18.38,3.44-9.08,3.34-19.21,3.58-32.77.27-5.1-1.25-10.69-4.21-16.28-8.27-13.54-9.84-.94-13.29,8.85-21.47C131.53,15.78,126,16.92,131,27.58Z"/><path class="cls-15" d="M86.43,2.93a89.94,89.94,0,0,0,30.11,6.94c9.48.66,11.36-.38,4,8.49a50.28,50.28,0,0,1-12.17,10.46c-11.17,7-21-7-26.73-19.29C76.3-2,75.75-1.53,86.43,2.93Z"/><path class="cls-16" d="M74.47,30.27a112.26,112.26,0,0,0,1.46-14.16c.28-8-1-8.06,3.36-1C81.62,18.85,84.46,23,87,26.37c4.23,5.69,7.41,9.44.52,11.37q-3.45,1-6.95,1.69C69.29,41.8,72.82,40.16,74.47,30.27Z"/><path class="cls-17" d="M251.6,238.23a2.24,2.24,0,0,1-2.39-2.36v-19.6a2.23,2.23,0,0,1,2.39-2.36h5.8c3.4,0,6,.93,7.84,2.81a11.14,11.14,0,0,1,3.05,7.46,34,34,0,0,1,0,3.78,11.14,11.14,0,0,1-3.05,7.46c-1.84,1.88-4.44,2.81-7.84,2.81Zm13.85-13.95c-.25-4.75-2.88-7.63-8.05-7.63h-5.35v18.84h5.35c5.13,0,7.77-2.84,8.05-7.6A31,31,0,0,0,265.45,224.28Z"/><path class="cls-18" d="M257.4,238.73h-5.8a2.76,2.76,0,0,1-2.9-2.86v-19.6a2.73,2.73,0,0,1,2.9-2.87h5.8c3.51,0,6.27,1,8.2,3a11.69,11.69,0,0,1,3.19,7.79,35.12,35.12,0,0,1,0,3.84,11.69,11.69,0,0,1-3.19,7.78C263.67,237.74,260.91,238.73,257.4,238.73Zm-5.8-24.32a1.74,1.74,0,0,0-1.89,1.86v19.6a1.76,1.76,0,0,0,1.89,1.86h5.8c3.28,0,5.72-.87,7.48-2.66a10.66,10.66,0,0,0,2.91-7.14,33.14,33.14,0,0,0,0-3.73,10.65,10.65,0,0,0-2.91-7.13c-1.76-1.79-4.2-2.66-7.48-2.66ZM257.4,236h-5.85V216.15h5.85c5.24,0,8.28,2.88,8.55,8.1a32.07,32.07,0,0,1,0,3.67C265.64,233.13,262.61,236,257.4,236Zm-4.85-1h4.85c4.66,0,7.27-2.46,7.55-7.13a30,30,0,0,0,0-3.55h0c-.24-4.69-2.85-7.16-7.55-7.16h-4.85Z"/><path class="cls-17" d="M287.35,235.46a1.26,1.26,0,0,1-.59,1.14,10.94,10.94,0,0,1-2.88,1.32,13.59,13.59,0,0,1-4.2.62c-4.45,0-6.94-2.32-6.94-5.89,0-3.23,2.49-5.63,7-5.63a19.3,19.3,0,0,1,4.86.73v-1.42c0-2.78-1.39-4-4.34-4a12.41,12.41,0,0,0-4.13.9c-1.11.42-2-.14-2-1.07a1.4,1.4,0,0,1,.9-1.32,12.72,12.72,0,0,1,5.52-1.11c4.3,0,6.84,2.08,6.84,6.49Zm-2.78-.73v-4.55a19.9,19.9,0,0,0-4.82-.76c-2.47,0-4.2,1.21-4.2,3.16,0,2.29,1.49,3.43,4.44,3.43A7,7,0,0,0,284.57,234.73Z"/><path class="cls-18" d="M279.68,239.05c-4.59,0-7.45-2.46-7.45-6.4,0-3.72,2.94-6.13,7.48-6.13a18.63,18.63,0,0,1,4.36.59v-.78c0-2.48-1.11-3.49-3.84-3.49a11.82,11.82,0,0,0-4,.87,2.1,2.1,0,0,1-2-.15,1.67,1.67,0,0,1-.71-1.4,1.9,1.9,0,0,1,1.19-1.77,13.2,13.2,0,0,1,5.73-1.15c4.73,0,7.34,2.48,7.34,7v9.23A1.78,1.78,0,0,1,287,237a11.28,11.28,0,0,1-3,1.37A14.23,14.23,0,0,1,279.68,239.05Zm0-11.53c-4,0-6.47,2-6.47,5.13,0,3.38,2.4,5.39,6.44,5.39a13.06,13.06,0,0,0,4-.6,10.22,10.22,0,0,0,2.73-1.24.79.79,0,0,0,.39-.74v-9.23c0-4-2.13-6-6.33-6a12.16,12.16,0,0,0-5.3,1.06.89.89,0,0,0-.62.86.68.68,0,0,0,.28.58,1.17,1.17,0,0,0,1.06,0,12.8,12.8,0,0,1,4.3-.93c3.26,0,4.84,1.47,4.84,4.49v2.08l-.63-.17A18.27,18.27,0,0,0,279.71,227.52Zm.28,9c-4.09,0-4.95-2.14-4.95-3.94,0-2.18,1.89-3.65,4.71-3.65a20.63,20.63,0,0,1,4.95.78l.37.09v5.15l-.15.14C284.26,235.74,282.57,236.51,280,236.51Zm-.24-6.59c-2.25,0-3.7,1-3.7,2.65,0,1.26.41,2.94,3.94,2.94a7,7,0,0,0,4.08-1v-3.93A18.54,18.54,0,0,0,279.75,229.92Z"/><path class="cls-17" d="M298.48,238.54c-3.57,0-5.34-2.29-5.34-5.72v-15.1a1.38,1.38,0,0,1,1.39-1.42,1.4,1.4,0,0,1,1.42,1.42v2.85h5.24a1.29,1.29,0,1,1,0,2.57H296v9.78c0,1.84.87,3,2.67,3a13.69,13.69,0,0,0,2.78-.62,1.3,1.3,0,0,1,1.8,1.28,1.39,1.39,0,0,1-1.14,1.36A10.22,10.22,0,0,1,298.48,238.54Z"/><path class="cls-18" d="M298.48,239.05c-3.66,0-5.84-2.33-5.84-6.23v-15.1a1.91,1.91,0,1,1,3.81,0v2.35h4.74a1.79,1.79,0,1,1,0,3.57h-4.74v9.28c0,1.67.73,2.52,2.17,2.52a12.34,12.34,0,0,0,2.64-.6,2,2,0,0,1,1.78.28,1.81,1.81,0,0,1,.67,1.48,1.85,1.85,0,0,1-1.5,1.83A10.37,10.37,0,0,1,298.48,239.05Zm-4-22.25a.88.88,0,0,0-.89.92v15.1c0,3.37,1.72,5.22,4.84,5.22a9.81,9.81,0,0,0,3.4-.55c.73-.24.82-.6.82-.89a.85.85,0,0,0-.28-.69,1.05,1.05,0,0,0-.9-.11,13.14,13.14,0,0,1-2.9.64c-2,0-3.17-1.31-3.17-3.52V222.64h5.74a.84.84,0,0,0,.82-.79.83.83,0,0,0-.82-.78h-5.74v-3.35A.91.91,0,0,0,294.53,216.8Z"/><path class="cls-17" d="M321,235.46a1.26,1.26,0,0,1-.59,1.14,10.79,10.79,0,0,1-2.88,1.32,13.59,13.59,0,0,1-4.2.62c-4.44,0-6.94-2.32-6.94-5.89,0-3.23,2.5-5.63,7-5.63a19.18,19.18,0,0,1,4.86.73v-1.42c0-2.78-1.39-4-4.34-4a12.41,12.41,0,0,0-4.13.9c-1.11.42-2-.14-2-1.07a1.4,1.4,0,0,1,.9-1.32,12.72,12.72,0,0,1,5.52-1.11c4.3,0,6.84,2.08,6.84,6.49Zm-2.78-.73v-4.55a19.9,19.9,0,0,0-4.82-.76c-2.47,0-4.2,1.21-4.2,3.16,0,2.29,1.49,3.43,4.44,3.43C316.11,236,317.68,235.28,318.23,234.73Z"/><path class="cls-18" d="M313.34,239.05c-4.59,0-7.44-2.46-7.44-6.4,0-3.72,2.93-6.13,7.47-6.13a18.57,18.57,0,0,1,4.36.59v-.78c0-2.48-1.11-3.49-3.84-3.49a11.82,11.82,0,0,0-3.95.87,2.13,2.13,0,0,1-2-.15,1.67,1.67,0,0,1-.71-1.4,1.9,1.9,0,0,1,1.19-1.77,13.23,13.23,0,0,1,5.73-1.15c4.73,0,7.34,2.48,7.34,7v9.23a1.77,1.77,0,0,1-.82,1.56,11.17,11.17,0,0,1-3,1.38A14.23,14.23,0,0,1,313.34,239.05Zm0-11.53c-4,0-6.47,2-6.47,5.13,0,3.38,2.41,5.39,6.44,5.39a13.06,13.06,0,0,0,4-.6,10.22,10.22,0,0,0,2.73-1.24.8.8,0,0,0,.4-.74v-9.23c0-4-2.14-6-6.34-6a12.16,12.16,0,0,0-5.3,1.06.9.9,0,0,0-.62.86.68.68,0,0,0,.28.58,1.17,1.17,0,0,0,1.06,0,12.8,12.8,0,0,1,4.3-.93c3.26,0,4.84,1.47,4.84,4.49v2.08l-.63-.17A18.15,18.15,0,0,0,313.37,227.52Zm.28,9c-4.09,0-4.94-2.14-4.94-3.94,0-2.18,1.89-3.65,4.7-3.65a20.55,20.55,0,0,1,4.95.78l.37.09v5.15l-.14.14C317.93,235.74,316.24,236.51,313.65,236.51Zm-.24-6.59c-2.25,0-3.7,1-3.7,2.65,0,1.26.41,2.94,3.94,2.94a7,7,0,0,0,4.08-1v-3.93A18.54,18.54,0,0,0,313.41,229.92Z"/><path class="cls-17" d="M353.32,238.37a1.33,1.33,0,0,1-1-.48l-6.53-8.06a2.26,2.26,0,0,0-1.94-1.11h-4.2v8.19a1.43,1.43,0,1,1-2.85,0V216.23a2.19,2.19,0,0,1,2.36-2.32h7.08a8.19,8.19,0,0,1,5.59,2,7,7,0,0,1,2.26,5.49c0,4-2.26,6.24-5.9,6.83l6.31,7.81a1.25,1.25,0,0,1,.31.87A1.49,1.49,0,0,1,353.32,238.37ZM339.61,226h6.24c3.55,0,5.31-1.56,5.31-4.65s-1.7-4.72-5.13-4.72h-6.42Z"/><path class="cls-18" d="M353.32,238.87a1.85,1.85,0,0,1-1.42-.65l-6.54-8.07c-.62-.75-.91-.92-1.55-.92h-3.7v7.68a1.93,1.93,0,1,1-3.85,0V216.23a2.7,2.7,0,0,1,2.86-2.83h7.08a8.64,8.64,0,0,1,5.92,2.11,7.44,7.44,0,0,1,2.43,5.86c0,3.78-1.94,6.3-5.49,7.16l5.79,7.17a1.77,1.77,0,0,1,.43,1.18A2,2,0,0,1,353.32,238.87Zm-14.21-10.65h4.7a2.76,2.76,0,0,1,2.33,1.29l6.53,8.06a.82.82,0,0,0,.65.3,1,1,0,0,0,.95-1,.73.73,0,0,0-.19-.54l-6.87-8.49.86-.14c3.58-.58,5.47-2.78,5.47-6.34a6.49,6.49,0,0,0-2.08-5.11,7.68,7.68,0,0,0-5.26-1.85h-7.08a1.69,1.69,0,0,0-1.86,1.82v20.68a1,1,0,0,0,.93,1,1,1,0,0,0,.92-1Zm6.74-1.7h-6.74V216.15H346c3.58,0,5.64,1.9,5.64,5.22C351.67,223.72,350.66,226.52,345.85,226.52Zm-5.74-1h5.74c3.29,0,4.81-1.32,4.81-4.15s-1.6-4.22-4.63-4.22h-5.92Z"/><path class="cls-17" d="M374.66,228.31a1.8,1.8,0,0,1-2.05,2H362.23v.56a4.8,4.8,0,0,0,5.18,5.1,13.5,13.5,0,0,0,4.23-.91,1.35,1.35,0,0,1,2,1.11,1.38,1.38,0,0,1-.76,1.25,12.71,12.71,0,0,1-5.52,1.11c-4.72,0-7.63-2.91-7.88-7.46a26.7,26.7,0,0,1,0-4.16c.38-4.44,3.4-7.18,7.67-7.18a7.11,7.11,0,0,1,5.41,2.11,7.47,7.47,0,0,1,2.05,5.42Zm-3.19-.35a.42.42,0,0,0,.45-.42c.17-3.15-1.67-5.27-4.69-5.27-3.33,0-5.1,2.19-5,5.69Z"/><path class="cls-18" d="M367.37,239.05c-4.91,0-8.12-3-8.38-7.94a28.32,28.32,0,0,1,0-4.24c.4-4.64,3.6-7.63,8.17-7.63a7.6,7.6,0,0,1,5.77,2.27,7.92,7.92,0,0,1,2.19,5.76v1a2.28,2.28,0,0,1-2.55,2.51h-9.87v.06a4.3,4.3,0,0,0,4.67,4.6,13.05,13.05,0,0,0,4.07-.88,2,2,0,0,1,1.92.15,1.73,1.73,0,0,1,.75,1.43,1.88,1.88,0,0,1-1,1.68A13.15,13.15,0,0,1,367.37,239.05Zm-.17-18.81c-4.07,0-6.82,2.57-7.17,6.72a26.35,26.35,0,0,0,0,4.09c.24,4.38,3,7,7.38,7a12.22,12.22,0,0,0,5.26-1,.88.88,0,0,0,.52-.82.72.72,0,0,0-.32-.6,1,1,0,0,0-1,0,13.84,13.84,0,0,1-4.41.94,5.29,5.29,0,0,1-5.68-5.6v-1.06h10.88c1.08,0,1.55-.45,1.55-1.51v-1a7,7,0,0,0-1.91-5.07A6.59,6.59,0,0,0,367.2,220.24Zm4.27,8.22h-9.72l0-.48a6.31,6.31,0,0,1,1.52-4.71,5.4,5.4,0,0,1,4-1.5h0a5.1,5.1,0,0,1,3.81,1.5,5.65,5.65,0,0,1,1.38,4.3A.92.92,0,0,1,371.47,228.46Zm-8.74-1h8.68a4.59,4.59,0,0,0-1.1-3.5,4.1,4.1,0,0,0-3.08-1.19A4.33,4.33,0,0,0,364,224,5.12,5.12,0,0,0,362.73,227.46Zm8.76,0Z"/><path class="cls-17" d="M387.26,228.1c3.09.8,4.61,2.43,4.61,4.89,0,3.37-2.67,5.55-6.73,5.55A9.44,9.44,0,0,1,379,236.6a1.45,1.45,0,0,1-.28-1.87,1.27,1.27,0,0,1,1.95-.28,6.7,6.7,0,0,0,4.75,1.56c2.33,0,3.72-1.21,3.72-2.88,0-1.21-.94-2-2.78-2.5-1.63-.38-2.46-.55-2.5-.59-3.26-.83-4.89-2.46-4.89-4.93,0-3.29,2.64-5.37,6.49-5.37a7.79,7.79,0,0,1,5,1.49,1.35,1.35,0,0,1,.17,1.94,1.33,1.33,0,0,1-1.87.18,6.6,6.6,0,0,0-3.37-1c-2.43,0-3.64.91-3.64,2.71,0,1.15.73,1.84,2.71,2.39l1.77.42Z"/><path class="cls-18" d="M385.14,239.05a10,10,0,0,1-6.5-2.06,2,2,0,0,1-.37-2.55,1.77,1.77,0,0,1,2.64-.4,6.27,6.27,0,0,0,4.47,1.47c1.95,0,3.22-.93,3.22-2.38,0-.35,0-1.42-2.4-2l-1.49-.34c-.64-.15-.91-.21-1.06-.26-3.46-.9-5.22-2.72-5.22-5.41,0-3.51,2.81-5.87,7-5.87a8.33,8.33,0,0,1,5.27,1.59,1.88,1.88,0,0,1,.69,1.4,1.68,1.68,0,0,1-.49,1.31,1.79,1.79,0,0,1-2.46.24,6.07,6.07,0,0,0-3.12-1c-2.81,0-3.14,1.25-3.14,2.2,0,.78.39,1.37,2.34,1.91l2.87.69c3.31.86,5,2.67,5,5.38C392.37,236.61,389.47,239.05,385.14,239.05Zm-5.41-4.43a.8.8,0,0,0-.64.41.93.93,0,0,0,.19,1.18,9,9,0,0,0,5.86,1.83c3.79,0,6.23-2,6.23-5,0-2.23-1.39-3.67-4.24-4.4l-2.87-.7c-1.54-.43-3.09-1.1-3.09-2.88,0-1.46.72-3.21,4.14-3.21a7.18,7.18,0,0,1,3.63,1.11c.68.41,1,.19,1.24-.07a.76.76,0,0,0,.2-.57.86.86,0,0,0-.31-.65,7.35,7.35,0,0,0-4.65-1.38c-3.64,0-6,1.91-6,4.87,0,2.22,1.48,3.67,4.52,4.45l.15,0,.84.2,1.49.34c2.62.65,3.17,2,3.17,3,0,2-1.7,3.38-4.22,3.38a7.21,7.21,0,0,1-5.05-1.66A1.13,1.13,0,0,0,379.73,234.62Z"/><path class="cls-17" d="M411.55,231.53a7,7,0,0,1-2.36,5,7.63,7.63,0,0,1-5.38,2,7.73,7.73,0,0,1-5.38-2,7,7,0,0,1-2.36-5,40.38,40.38,0,0,1,0-4.92,6.81,6.81,0,0,1,2.33-4.93,7.9,7.9,0,0,1,5.41-1.94,7.76,7.76,0,0,1,5.38,1.9,6.82,6.82,0,0,1,2.36,5A40.38,40.38,0,0,1,411.55,231.53Zm-12.67-.17a4.95,4.95,0,0,0,9.86,0,34.39,34.39,0,0,0,0-4.54,5,5,0,0,0-9.86,0A34.39,34.39,0,0,0,398.88,231.36Z"/><path class="cls-18" d="M403.81,239.05a8.25,8.25,0,0,1-5.72-2.11,7.55,7.55,0,0,1-2.52-5.38,37.62,37.62,0,0,1,0-5,7.38,7.38,0,0,1,2.49-5.27,8.41,8.41,0,0,1,5.75-2.07,8.23,8.23,0,0,1,5.71,2,7.32,7.32,0,0,1,2.53,5.31,41.37,41.37,0,0,1,0,5,7.53,7.53,0,0,1-2.53,5.38A8.09,8.09,0,0,1,403.81,239.05Zm0-18.81a7.43,7.43,0,0,0-5.08,1.82,6.29,6.29,0,0,0-2.16,4.57,39.56,39.56,0,0,0,0,4.87,6.51,6.51,0,0,0,2.2,4.7,7.28,7.28,0,0,0,5,1.84,7.18,7.18,0,0,0,5-1.84,6.5,6.5,0,0,0,2.2-4.69h0a39.4,39.4,0,0,0,0-4.86,6.31,6.31,0,0,0-2.19-4.62A7.31,7.31,0,0,0,403.81,220.24Zm0,16.17a5.19,5.19,0,0,1-5.43-5h0a32.38,32.38,0,0,1,0-4.62,5.46,5.46,0,0,1,10.86,0,35.61,35.61,0,0,1,0,4.62A5.19,5.19,0,0,1,403.81,236.41Zm-4.43-5.09a4.44,4.44,0,0,0,8.86,0,33.34,33.34,0,0,0,0-4.47,4.46,4.46,0,0,0-8.86,0A33.34,33.34,0,0,0,399.38,231.32Z"/><path class="cls-17" d="M416.86,221.44a1.41,1.41,0,0,1,1.39-1.46,1.44,1.44,0,0,1,1.42,1.46V231.5c0,2.74,1.73,4.37,4.65,4.37a8.35,8.35,0,0,0,4.79-1.28V221.44A1.41,1.41,0,0,1,430.5,220a1.44,1.44,0,0,1,1.42,1.46v13.88a1.26,1.26,0,0,1-.59,1.14,11.94,11.94,0,0,1-7,2.08c-4.55,0-7.46-2.6-7.46-7.07Z"/><path class="cls-18" d="M424.32,239.05c-4.91,0-8-2.91-8-7.58v-10a1.9,1.9,0,0,1,1.89-2,1.94,1.94,0,0,1,1.92,2V231.5c0,2.46,1.51,3.87,4.15,3.87a8,8,0,0,0,4.29-1.05V221.44a1.9,1.9,0,0,1,1.89-2,1.94,1.94,0,0,1,1.92,2v13.88a1.77,1.77,0,0,1-.82,1.57A12.42,12.42,0,0,1,424.32,239.05Zm-6.07-18.57a.9.9,0,0,0-.89,1v10c0,4.11,2.6,6.57,7,6.57a11.44,11.44,0,0,0,6.72-2,.8.8,0,0,0,.38-.73V221.44a.93.93,0,0,0-.92-1,.9.9,0,0,0-.89,1v13.42l-.22.14a8.9,8.9,0,0,1-5.07,1.37c-3.18,0-5.15-1.86-5.15-4.87V221.44A.93.93,0,0,0,418.25,220.48Z"/><path class="cls-17" d="M447.81,221.44a1.3,1.3,0,0,1-1.38,1.28,7.19,7.19,0,0,1-1.18-.14,9.47,9.47,0,0,0-1.57-.14c-1.87,0-2.81,1.08-2.81,3.13V237a1.42,1.42,0,0,1-2.84,0v-11.7c0-3.43,2.05-5.51,5.65-5.51a10.54,10.54,0,0,1,3,.38A1.27,1.27,0,0,1,447.81,221.44Z"/><path class="cls-18" d="M439.45,238.87a1.9,1.9,0,0,1-1.92-1.92v-11.7c0-3.76,2.3-6,6.16-6a10.94,10.94,0,0,1,3.16.4,1.77,1.77,0,0,1,1.46,1.8,1.79,1.79,0,0,1-1.88,1.78,9.24,9.24,0,0,1-1.27-.14,8.22,8.22,0,0,0-1.47-.14c-1.6,0-2.32.84-2.32,2.63V237A1.9,1.9,0,0,1,439.45,238.87Zm4.24-18.63c-3.28,0-5.16,1.83-5.16,5V237a.92.92,0,0,0,1.84,0V225.57c0-2.95,1.8-3.6,3.31-3.63h0a9.21,9.21,0,0,1,1.65.15,8.13,8.13,0,0,0,1.1.13.81.81,0,0,0,.88-.78c0-.33-.08-.68-.72-.84A10.35,10.35,0,0,0,443.69,220.24Z"/><path class="cls-17" d="M462.91,233a1.4,1.4,0,0,1,1.35-.94,1.34,1.34,0,0,1,1.32,1.42c0,1-.66,2.16-2,3.34a7.35,7.35,0,0,1-5.17,1.76,7.71,7.71,0,0,1-5.44-2,7.2,7.2,0,0,1-2.33-5,40.38,40.38,0,0,1,0-4.92,6.86,6.86,0,0,1,2.33-5,7.9,7.9,0,0,1,5.44-1.9,7.16,7.16,0,0,1,5.14,1.8c1.28,1.18,1.94,2.29,1.94,3.3a1.34,1.34,0,0,1-1.32,1.42,1.4,1.4,0,0,1-1.35-.94,4.57,4.57,0,0,0-4.37-2.95,4.63,4.63,0,0,0-5,4.41,34.84,34.84,0,0,0,0,4.58,4.72,4.72,0,0,0,5,4.55A4.66,4.66,0,0,0,462.91,233Z"/><path class="cls-18" d="M458.43,239.05a8.18,8.18,0,0,1-5.79-2.12,7.74,7.74,0,0,1-2.48-5.37,37.77,37.77,0,0,1,0-5,7.42,7.42,0,0,1,2.49-5.3,8.46,8.46,0,0,1,5.78-2,7.56,7.56,0,0,1,5.48,1.94c1.4,1.27,2.1,2.51,2.1,3.66a1.85,1.85,0,0,1-1.82,1.92,1.91,1.91,0,0,1-1.81-1.23,4.08,4.08,0,0,0-3.91-2.66,4.14,4.14,0,0,0-4.5,4,33.62,33.62,0,0,0,0,4.5,4.44,4.44,0,0,0,8.48,1.44v0a1.91,1.91,0,0,1,1.81-1.23,1.85,1.85,0,0,1,1.82,1.92c0,1.19-.72,2.43-2.14,3.71A7.85,7.85,0,0,1,458.43,239.05Zm0-18.81a7.37,7.37,0,0,0-5.11,1.78,6.35,6.35,0,0,0-2.16,4.61,39.57,39.57,0,0,0,0,4.87,6.7,6.7,0,0,0,2.17,4.7,7.24,7.24,0,0,0,5.1,1.84,7,7,0,0,0,4.84-1.63c1.2-1.08,1.81-2.08,1.81-3a.84.84,0,0,0-.82-.92.92.92,0,0,0-.89.63,5.14,5.14,0,0,1-4.9,3.26,5.24,5.24,0,0,1-5.5-5,36.21,36.21,0,0,1,0-4.67,5.4,5.4,0,0,1,10.34-1.61.9.9,0,0,0,.88.63.84.84,0,0,0,.82-.92,4.42,4.42,0,0,0-1.78-2.93A6.62,6.62,0,0,0,458.43,220.24Z"/><path class="cls-17" d="M485.15,228.31a1.79,1.79,0,0,1-2,2H472.73v.56a4.79,4.79,0,0,0,5.17,5.1,13.55,13.55,0,0,0,4.24-.91,1.35,1.35,0,0,1,2,1.11,1.39,1.39,0,0,1-.77,1.25,12.7,12.7,0,0,1-5.51,1.11c-4.72,0-7.64-2.91-7.88-7.46a28.16,28.16,0,0,1,0-4.16c.39-4.44,3.4-7.18,7.67-7.18a7.13,7.13,0,0,1,5.42,2.11,7.47,7.47,0,0,1,2,5.42ZM482,228a.41.41,0,0,0,.45-.42c.18-3.15-1.66-5.27-4.68-5.27-3.33,0-5.1,2.19-5,5.69Z"/><path class="cls-18" d="M477.87,239.05c-4.91,0-8.12-3-8.38-7.94a27.1,27.1,0,0,1,0-4.24c.4-4.64,3.61-7.63,8.17-7.63a7.62,7.62,0,0,1,5.78,2.27,7.92,7.92,0,0,1,2.18,5.76v1a2.28,2.28,0,0,1-2.54,2.51h-9.88v.06a4.3,4.3,0,0,0,4.67,4.6,13.05,13.05,0,0,0,4.07-.88,2,2,0,0,1,1.92.15,1.72,1.72,0,0,1,.76,1.43,1.89,1.89,0,0,1-1,1.68A13.07,13.07,0,0,1,477.87,239.05Zm-.18-18.81c-4.06,0-6.81,2.57-7.17,6.72a27.71,27.71,0,0,0,0,4.09c.23,4.38,3,7,7.38,7a12.22,12.22,0,0,0,5.26-1,.88.88,0,0,0,.52-.82.72.72,0,0,0-.32-.6,1.07,1.07,0,0,0-1,0,13.89,13.89,0,0,1-4.42.94,5.28,5.28,0,0,1-5.67-5.6v-1.06h10.88c1.08,0,1.54-.45,1.54-1.51v-1a7,7,0,0,0-1.9-5.07A6.6,6.6,0,0,0,477.69,220.24Zm4.27,8.22h-9.72V228a6.31,6.31,0,0,1,1.52-4.71,5.39,5.39,0,0,1,4-1.5,5.11,5.11,0,0,1,3.81,1.5,5.65,5.65,0,0,1,1.37,4.3A.91.91,0,0,1,482,228.46Zm-8.73-1h8.68a4.63,4.63,0,0,0-1.1-3.5,4.1,4.1,0,0,0-3.08-1.19,4.32,4.32,0,0,0-3.26,1.2A5.07,5.07,0,0,0,473.23,227.46Z"/><path class="cls-17" d="M515.45,231.71a1.34,1.34,0,0,1,1.32-.9,1.42,1.42,0,0,1,1.35,1.35,2.26,2.26,0,0,1-.1.62,8.86,8.86,0,0,1-3.47,4.2,9.47,9.47,0,0,1-5.38,1.6,9.31,9.31,0,0,1-6.87-2.74,10.39,10.39,0,0,1-3-6.94,37.78,37.78,0,0,1,0-5.63,10.63,10.63,0,0,1,3-6.9,9.34,9.34,0,0,1,6.87-2.78,9.47,9.47,0,0,1,5.38,1.6,8.68,8.68,0,0,1,3.47,4.16,2.35,2.35,0,0,1,.1.66,1.39,1.39,0,0,1-1.35,1.32,1.34,1.34,0,0,1-1.32-.9,6.78,6.78,0,0,0-6.28-4.1,6.45,6.45,0,0,0-4.86,2,8.07,8.07,0,0,0-2.19,5.1,47.74,47.74,0,0,0,0,5.35,8.07,8.07,0,0,0,2.19,5.1,6.45,6.45,0,0,0,4.86,2A6.81,6.81,0,0,0,515.45,231.71Z"/><path class="cls-18" d="M509.17,239.08a9.85,9.85,0,0,1-7.23-2.89,10.89,10.89,0,0,1-3.16-7.26,38.59,38.59,0,0,1,0-5.69,11.19,11.19,0,0,1,3.16-7.22,10.37,10.37,0,0,1,12.88-1.25,9.15,9.15,0,0,1,3.66,4.4,2.93,2.93,0,0,1,.14.84,1.88,1.88,0,0,1-1.85,1.82,1.83,1.83,0,0,1-1.78-1.21,6.24,6.24,0,0,0-5.82-3.78,6,6,0,0,0-4.5,1.82,7.58,7.58,0,0,0-2.05,4.8,46.33,46.33,0,0,0,0,5.27,7.57,7.57,0,0,0,2.05,4.78,6,6,0,0,0,4.5,1.83,6.33,6.33,0,0,0,5.82-3.83,1.83,1.83,0,0,1,1.78-1.21,1.93,1.93,0,0,1,1.85,1.86,2.89,2.89,0,0,1-.12.76,9.28,9.28,0,0,1-3.68,4.48A9.94,9.94,0,0,1,509.17,239.08Zm0-25a8.92,8.92,0,0,0-6.52,2.63,10.12,10.12,0,0,0-2.87,6.59,36.72,36.72,0,0,0,0,5.55,9.89,9.89,0,0,0,2.87,6.62,8.76,8.76,0,0,0,6.52,2.6,9,9,0,0,0,5.1-1.52,8.31,8.31,0,0,0,3.28-4,1.9,1.9,0,0,0,.07-.44.94.94,0,0,0-.85-.85.85.85,0,0,0-.86.59h0a7.34,7.34,0,0,1-6.74,4.43,6.94,6.94,0,0,1-5.22-2.13,8.59,8.59,0,0,1-2.33-5.41,49,49,0,0,1,0-5.42A8.59,8.59,0,0,1,504,218a6.94,6.94,0,0,1,5.22-2.13,7.32,7.32,0,0,1,6.74,4.4.85.85,0,0,0,.86.6.89.89,0,0,0,.85-.82,2.28,2.28,0,0,0-.08-.52,8.13,8.13,0,0,0-3.26-3.88A9,9,0,0,0,509.17,214.09Z"/><path class="cls-17" d="M537.56,228.31a1.8,1.8,0,0,1-2,2H525.13v.56a4.79,4.79,0,0,0,5.17,5.1,13.5,13.5,0,0,0,4.24-.91,1.35,1.35,0,0,1,2,1.11,1.38,1.38,0,0,1-.76,1.25,12.71,12.71,0,0,1-5.52,1.11c-4.72,0-7.64-2.91-7.88-7.46a28.16,28.16,0,0,1,0-4.16c.39-4.44,3.41-7.18,7.67-7.18a7.12,7.12,0,0,1,5.42,2.11,7.47,7.47,0,0,1,2,5.42Zm-3.2-.35a.41.41,0,0,0,.45-.42c.18-3.15-1.66-5.27-4.68-5.27-3.33,0-5.1,2.19-5,5.69Z"/><path class="cls-18" d="M530.27,239.05c-4.91,0-8.12-3-8.38-7.94a27,27,0,0,1,0-4.24c.39-4.64,3.6-7.63,8.17-7.63a7.6,7.6,0,0,1,5.77,2.27,7.92,7.92,0,0,1,2.19,5.76v1a2.28,2.28,0,0,1-2.55,2.51h-9.88v.06a4.3,4.3,0,0,0,4.67,4.6,13,13,0,0,0,4.07-.88,2,2,0,0,1,1.92.15,1.72,1.72,0,0,1,.76,1.43,1.89,1.89,0,0,1-1,1.68A13.07,13.07,0,0,1,530.27,239.05Zm-.17-18.81c-4.07,0-6.82,2.57-7.18,6.72a27.71,27.71,0,0,0,0,4.09c.23,4.38,3,7,7.38,7a12.22,12.22,0,0,0,5.26-1,.88.88,0,0,0,.52-.82.72.72,0,0,0-.32-.6,1.07,1.07,0,0,0-1,0,13.89,13.89,0,0,1-4.42.94,5.28,5.28,0,0,1-5.67-5.6v-1.06h10.88c1.08,0,1.54-.45,1.54-1.51v-1a7,7,0,0,0-1.9-5.07A6.59,6.59,0,0,0,530.1,220.24Zm4.26,8.22h-9.71l0-.48a6.31,6.31,0,0,1,1.52-4.71,5.39,5.39,0,0,1,4-1.5,5.1,5.1,0,0,1,3.81,1.5,5.61,5.61,0,0,1,1.37,4.3A.9.9,0,0,1,534.36,228.46Zm-8.73-1h8.68a4.63,4.63,0,0,0-1.1-3.5,4.1,4.1,0,0,0-3.08-1.19,4.33,4.33,0,0,0-3.26,1.2A5.07,5.07,0,0,0,525.63,227.46Zm8.76,0Z"/><path class="cls-17" d="M557.79,236.91a1.37,1.37,0,0,1-1.39,1.46,1.41,1.41,0,0,1-1.42-1.46V227c0-3-2-4.54-4.65-4.54a9.26,9.26,0,0,0-4.79,1.14v13.36a1.39,1.39,0,0,1-1.39,1.46,1.41,1.41,0,0,1-1.42-1.46v-14a1.47,1.47,0,0,1,.62-1.25,12.51,12.51,0,0,1,7-1.87c4.82,0,7.39,2.49,7.39,7.08Z"/><path class="cls-18" d="M556.4,238.87a1.92,1.92,0,0,1-1.92-2V227c0-2.53-1.56-4-4.15-4a8.92,8.92,0,0,0-4.29.94v13.06a1.88,1.88,0,0,1-1.89,2,1.92,1.92,0,0,1-1.92-2v-14a2,2,0,0,1,.82-1.65,13,13,0,0,1,7.35-2c5.09,0,7.89,2.69,7.89,7.58v10.09A1.86,1.86,0,0,1,556.4,238.87Zm-6.07-17c3.17,0,5.15,1.93,5.15,5v10a.92.92,0,0,0,.92,1,.87.87,0,0,0,.89-1V226.82c0-4.31-2.39-6.58-6.89-6.58a12.21,12.21,0,0,0-6.75,1.77,1,1,0,0,0-.42.85v14a.92.92,0,0,0,.92,1,.9.9,0,0,0,.89-1V223.27l.24-.15A9.83,9.83,0,0,1,550.33,221.91Z"/><path class="cls-17" d="M569,238.54c-3.57,0-5.34-2.29-5.34-5.72v-15.1a1.38,1.38,0,0,1,1.39-1.42,1.41,1.41,0,0,1,1.42,1.42v2.85h5.24a1.29,1.29,0,1,1,0,2.57H566.5v9.78c0,1.84.87,3,2.67,3a13.84,13.84,0,0,0,2.78-.62,1.3,1.3,0,0,1,1.8,1.28,1.39,1.39,0,0,1-1.14,1.36A10.26,10.26,0,0,1,569,238.54Z"/><path class="cls-18" d="M569,239.05c-3.66,0-5.84-2.33-5.84-6.23v-15.1a1.91,1.91,0,1,1,3.81,0v2.35h4.74a1.79,1.79,0,1,1,0,3.57H567v9.28c0,1.67.73,2.52,2.17,2.52a12.48,12.48,0,0,0,2.64-.6,2,2,0,0,1,1.77.28,1.79,1.79,0,0,1,.67,1.48,1.85,1.85,0,0,1-1.49,1.83A10.45,10.45,0,0,1,569,239.05Zm-3.95-22.25a.87.87,0,0,0-.89.92v15.1c0,3.37,1.72,5.22,4.84,5.22a9.85,9.85,0,0,0,3.4-.55c.73-.24.82-.6.82-.89a.85.85,0,0,0-.28-.69,1.06,1.06,0,0,0-.9-.11,13.26,13.26,0,0,1-2.9.64c-2,0-3.17-1.31-3.17-3.52V222.64h5.74a.84.84,0,0,0,.82-.79.83.83,0,0,0-.82-.78H566v-3.35A.91.91,0,0,0,565.08,216.8Z"/><path class="cls-17" d="M592.53,228.31a1.8,1.8,0,0,1-2,2H580.1v.56a4.79,4.79,0,0,0,5.17,5.1,13.5,13.5,0,0,0,4.24-.91,1.35,1.35,0,0,1,2,1.11,1.38,1.38,0,0,1-.76,1.25,12.71,12.71,0,0,1-5.52,1.11c-4.72,0-7.64-2.91-7.88-7.46a28.16,28.16,0,0,1,0-4.16c.39-4.44,3.41-7.18,7.67-7.18a7.12,7.12,0,0,1,5.42,2.11,7.47,7.47,0,0,1,2,5.42Zm-3.2-.35a.41.41,0,0,0,.45-.42c.18-3.15-1.66-5.27-4.68-5.27-3.33,0-5.1,2.19-5,5.69Z"/><path class="cls-18" d="M585.24,239.05c-4.91,0-8.12-3-8.38-7.94a27,27,0,0,1,0-4.24c.39-4.64,3.6-7.63,8.16-7.63a7.62,7.62,0,0,1,5.78,2.27,7.92,7.92,0,0,1,2.19,5.76v1a2.28,2.28,0,0,1-2.55,2.51H580.6v.06a4.3,4.3,0,0,0,4.67,4.6,13,13,0,0,0,4.07-.88,2,2,0,0,1,1.92.15,1.72,1.72,0,0,1,.76,1.43,1.89,1.89,0,0,1-1,1.68A13.07,13.07,0,0,1,585.24,239.05Zm-.18-18.81c-4.06,0-6.81,2.57-7.17,6.72a27.71,27.71,0,0,0,0,4.09c.23,4.38,3,7,7.38,7a12.22,12.22,0,0,0,5.26-1,.88.88,0,0,0,.52-.82.72.72,0,0,0-.32-.6,1.07,1.07,0,0,0-1,0,13.89,13.89,0,0,1-4.42.94,5.28,5.28,0,0,1-5.67-5.6v-1.06h10.88c1.08,0,1.54-.45,1.54-1.51v-1a7,7,0,0,0-1.9-5.07A6.6,6.6,0,0,0,585.06,220.24Zm4.27,8.22h-9.71l0-.48a6.31,6.31,0,0,1,1.52-4.71,5.39,5.39,0,0,1,4-1.5,5.1,5.1,0,0,1,3.81,1.5,5.61,5.61,0,0,1,1.37,4.3A.9.9,0,0,1,589.33,228.46Zm-8.73-1h8.68a4.63,4.63,0,0,0-1.1-3.5,4.1,4.1,0,0,0-3.08-1.19,4.33,4.33,0,0,0-3.26,1.2A5.07,5.07,0,0,0,580.6,227.46Z"/><path class="cls-17" d="M607.27,221.44a1.3,1.3,0,0,1-1.38,1.28,7.19,7.19,0,0,1-1.18-.14,9.36,9.36,0,0,0-1.56-.14c-1.88,0-2.82,1.08-2.82,3.13V237a1.42,1.42,0,0,1-2.84,0v-11.7c0-3.43,2-5.51,5.66-5.51a10.51,10.51,0,0,1,3,.38A1.27,1.27,0,0,1,607.27,221.44Z"/><path class="cls-18" d="M598.91,238.87A1.9,1.9,0,0,1,597,237v-11.7c0-3.76,2.3-6,6.16-6a10.94,10.94,0,0,1,3.16.4,1.77,1.77,0,0,1,1.47,1.8,1.8,1.8,0,0,1-1.89,1.78,9.24,9.24,0,0,1-1.27-.14,8.22,8.22,0,0,0-1.47-.14c-1.6,0-2.32.84-2.32,2.63V237A1.9,1.9,0,0,1,598.91,238.87Zm4.24-18.63c-3.28,0-5.16,1.83-5.16,5V237a.92.92,0,1,0,1.84,0V225.57c0-2.95,1.8-3.6,3.31-3.63h0a9.21,9.21,0,0,1,1.65.15,8.3,8.3,0,0,0,1.1.13.81.81,0,0,0,.88-.78c0-.33-.08-.68-.72-.84A10.35,10.35,0,0,0,603.15,220.24Z"/><rect class="cls-12" x="662.65" y="11.5" width="113.82" height="44.98" rx="18" ry="18"/><path class="cls-11" d="M684.22,23.7h6.35Q695,23.7,697,25a4.5,4.5,0,0,1,2,4.07,5,5,0,0,1-1,3.12,4.33,4.33,0,0,1-2.78,1.57v.14a5.51,5.51,0,0,1,3.32,1.68A5.1,5.1,0,0,1,699.57,39a5.49,5.49,0,0,1-2,4.52,8.65,8.65,0,0,1-5.6,1.63h-7.73Zm3.5,8.84h3.37a5.78,5.78,0,0,0,3.2-.69,2.66,2.66,0,0,0,1-2.37,2.37,2.37,0,0,0-1.09-2.18,6.81,6.81,0,0,0-3.46-.67h-3Zm0,2.85v6.78h3.72a5.51,5.51,0,0,0,3.32-.84,3.14,3.14,0,0,0,1.12-2.66,2.84,2.84,0,0,0-1.15-2.48,6,6,0,0,0-3.47-.8Z"/><path class="cls-11" d="M716.88,45.11H704.77V23.7h12.11v3h-8.61v5.83h8.07v2.93h-8.07v6.72h8.61Z"/><path class="cls-11" d="M729.66,45.11h-3.5V26.7h-6.3v-3H736v3h-6.3Z"/><path class="cls-11" d="M753.28,45.11l-2.14-5.94H743l-2.09,5.94h-3.7l8-21.5H749l8,21.5Zm-3.06-9-2-5.83c-.15-.39-.35-1-.61-1.85s-.44-1.45-.53-1.84a34,34,0,0,1-1.16,3.94L744,36.15Z"/></svg>