<?xml version="1.0" encoding="UTF-8"?>
<svg width="99px" height="45px" viewBox="0 0 99 45" version="1.1" xmlns="http://www.w3.org/2000/svg" xmlns:xlink="http://www.w3.org/1999/xlink">
    <!-- Generator: Sketch 53.2 (72643) - https://sketchapp.com -->
    <title>Group 41</title>
    <desc>Created with Sketch.</desc>
    <defs>
        <polygon id="path-1" points="0 0.6501 44.3497 0.6501 44.3497 45 0 45"></polygon>
    </defs>
    <g id="Page-1" stroke="none" stroke-width="1" fill="none" fill-rule="evenodd">
        <g id="Group-41" transform="translate(0.000000, -1.000000)">
            <g id="Group-40">
                <g id="Group-3" transform="translate(0.000000, 0.350000)">
                    <mask id="mask-2" fill="white">
                        <use xlink:href="#path-1"></use>
                    </mask>
                    <g id="Clip-2"></g>
                    <path d="M44.3497,22.8251 C44.3497,35.0721 34.4217,45.0001 22.1747,45.0001 C9.9277,45.0001 -0.0003,35.0721 -0.0003,22.8251 C-0.0003,10.5781 9.9277,0.6501 22.1747,0.6501 C34.4217,0.6501 44.3497,10.5781 44.3497,22.8251" id="Fill-1" fill="#323E77" mask="url(#mask-2)"></path>
                </g>
                <path d="M23.6613,13.3001 L11.8833,25.0781 C11.2483,25.7121 10.2103,25.7121 9.5763,25.0781 L8.7043,24.2061 C8.0693,23.5711 8.0693,22.5331 8.7043,21.8991 L20.4813,10.1201 C21.1163,9.4871 22.1543,9.4871 22.7893,10.1201 L23.6613,10.9931 C24.2953,11.6271 24.2953,12.6651 23.6613,13.3001" id="Fill-4" fill="#FFFFFF"></path>
                <path d="M20.9874,36.6458 L9.2104,24.8688 C8.5754,24.2338 8.5754,23.1958 9.2104,22.5608 L10.0824,21.6888 C10.7164,21.0548 11.7544,21.0548 12.3884,21.6888 L24.1674,33.4668 C24.8014,34.1018 24.8014,35.1398 24.1674,35.7738 L23.2954,36.6458 C22.6604,37.2808 21.6224,37.2808 20.9874,36.6458" id="Fill-6" fill="#00ACE7"></path>
                <path d="M35.6466,24.4505 L23.8686,36.2285 C23.2336,36.8635 22.1956,36.8635 21.5606,36.2285 L20.6886,35.3565 C20.0546,34.7225 20.0546,33.6845 20.6886,33.0505 L32.4666,21.2715 C33.1016,20.6375 34.1396,20.6375 34.7746,21.2715 L35.6466,22.1435 C36.2806,22.7785 36.2806,23.8165 35.6466,24.4505" id="Fill-8" fill="#C7CAC7"></path>
                <path d="M31.8282,24.6605 L20.0502,12.8835 C19.4162,12.2485 19.4162,11.2105 20.0502,10.5755 L20.9222,9.7035 C21.5572,9.0695 22.5952,9.0695 23.2292,9.7035 L35.0082,21.4815 C35.6412,22.1165 35.6412,23.1545 35.0082,23.7885 L34.1362,24.6605 C33.5012,25.2955 32.4632,25.2955 31.8282,24.6605" id="Fill-11" fill="#00ABA2"></path>
                <path d="M17.2033177,19.7580823 C15.4299784,21.5314216 12.0939705,18.5088538 13.7888058,16.8137308 C15.2760267,15.3262573 17.5068581,13.095047 20.4813,10.1201 C21.1163,9.4871 22.1543,9.4871 22.7893,10.1201 L23.6613,10.9931 C24.2953,11.6271 24.2953,12.6651 23.6613,13.3001 C20.7910856,16.1703144 18.6384249,18.3229751 17.2033177,19.7580823 Z" id="Fill-4" fill="#FFFFFF"></path>
                <polygon id="Fill-14" fill="#FFFFFF" points="20.622 24.729 23.729 24.729 23.729 21.622 20.622 21.622"></polygon>
                <path d="M64.9279,20.137 C64.6319,19.737 64.2479,19.445 63.7759,19.26 C63.3019,19.076 62.8389,18.985 62.3859,18.985 C61.8079,18.985 61.2819,19.089 60.8089,19.3 C60.3339,19.511 59.9269,19.8 59.5849,20.168 C59.2429,20.536 58.9809,20.968 58.7959,21.462 C58.6129,21.956 58.5199,22.493 58.5199,23.072 C58.5199,23.682 58.6099,24.24 58.7879,24.744 C58.9669,25.25 59.2229,25.684 59.5539,26.046 C59.8849,26.409 60.2819,26.692 60.7449,26.891 C61.2079,27.091 61.7289,27.191 62.3069,27.191 C62.9069,27.191 63.4389,27.072 63.9019,26.836 C64.3649,26.599 64.7389,26.285 65.0229,25.897 L66.6159,27.017 C66.1209,27.638 65.5159,28.119 64.8009,28.461 C64.0849,28.803 63.2489,28.974 62.2909,28.974 C61.4179,28.974 60.6159,28.829 59.8849,28.54 C59.1549,28.251 58.5249,27.846 57.9989,27.324 C57.4729,26.804 57.0629,26.184 56.7689,25.462 C56.4729,24.742 56.3259,23.945 56.3259,23.072 C56.3259,22.178 56.4819,21.37 56.7909,20.65 C57.1029,19.929 57.5279,19.316 58.0709,18.811 C58.6129,18.306 59.2509,17.916 59.9879,17.643 C60.7239,17.369 61.5239,17.233 62.3859,17.233 C62.7439,17.233 63.1169,17.267 63.5069,17.335 C63.8959,17.404 64.2699,17.509 64.6269,17.651 C64.9849,17.793 65.3219,17.969 65.6379,18.18 C65.9529,18.39 66.2209,18.643 66.4429,18.937 L64.9279,20.137 Z" id="Fill-16" fill="#3A3A3A"></path>
                <path d="M71.0665,22.3304 C71.3495,22.3304 71.6335,22.3094 71.9195,22.2674 C72.2025,22.2254 72.4575,22.1454 72.6835,22.0304 C72.9105,21.9144 73.0965,21.7484 73.2445,21.5334 C73.3915,21.3164 73.4645,21.0414 73.4645,20.7044 C73.4645,20.3994 73.3965,20.1494 73.2595,19.9544 C73.1235,19.7604 72.9495,19.6054 72.7395,19.4884 C72.5285,19.3734 72.2895,19.2944 72.0205,19.2534 C71.7525,19.2104 71.4925,19.1894 71.2395,19.1894 L69.4405,19.1894 L69.4405,22.3304 L71.0665,22.3304 Z M67.4525,17.5164 L71.3345,17.5164 C71.8605,17.5164 72.3705,17.5714 72.8655,17.6834 C73.3605,17.7934 73.7985,17.9744 74.1825,18.2264 C74.5675,18.4784 74.8745,18.8104 75.1065,19.2214 C75.3375,19.6314 75.4535,20.1314 75.4535,20.7204 C75.4535,21.5304 75.2245,22.1904 74.7665,22.7014 C74.3095,23.2114 73.6855,23.5564 72.8965,23.7344 L75.8795,28.6894 L73.4805,28.6894 L70.8925,23.9554 L69.4405,23.9554 L69.4405,28.6894 L67.4525,28.6894 L67.4525,17.5164 Z" id="Fill-17" fill="#3A3A3A"></path>
                <path d="M80.629,26.9544 C81.145,26.9544 81.661,26.8934 82.177,26.7724 C82.692,26.6514 83.157,26.4464 83.573,26.1564 C83.988,25.8674 84.328,25.4754 84.591,24.9814 C84.854,24.4864 84.985,23.8604 84.985,23.1034 C84.985,22.3044 84.854,21.6504 84.591,21.1464 C84.328,20.6414 83.988,20.2474 83.573,19.9634 C83.157,19.6784 82.692,19.4834 82.177,19.3794 C81.661,19.2734 81.145,19.2214 80.629,19.2214 L78.973,19.2214 L78.973,26.9544 L80.629,26.9544 Z M76.984,17.5164 L80.945,17.5164 C81.671,17.5164 82.402,17.6104 83.139,17.8004 C83.875,17.9904 84.538,18.3034 85.128,18.7394 C85.717,19.1764 86.194,19.7504 86.564,20.4604 C86.932,21.1704 87.116,22.0514 87.116,23.1034 C87.116,24.0824 86.932,24.9234 86.564,25.6284 C86.194,26.3334 85.717,26.9114 85.128,27.3644 C84.538,27.8164 83.875,28.1514 83.139,28.3664 C82.402,28.5824 81.671,28.6894 80.945,28.6894 L76.984,28.6894 L76.984,17.5164 Z" id="Fill-18" fill="#3A3A3A"></path>
                <path d="M96.7111,20.137 C96.4161,19.737 96.0321,19.445 95.5591,19.26 C95.0861,19.076 94.6221,18.985 94.1701,18.985 C93.5921,18.985 93.0651,19.089 92.5921,19.3 C92.1181,19.511 91.7111,19.8 91.3691,20.168 C91.0271,20.536 90.7641,20.968 90.5801,21.462 C90.3961,21.956 90.3041,22.493 90.3041,23.072 C90.3041,23.682 90.3931,24.24 90.5711,24.744 C90.7511,25.25 91.0061,25.684 91.3371,26.046 C91.6691,26.409 92.0661,26.692 92.5281,26.891 C92.9911,27.091 93.5131,27.191 94.0911,27.191 C94.6901,27.191 95.2221,27.072 95.6851,26.836 C96.1481,26.599 96.5221,26.285 96.8061,25.897 L98.4001,27.017 C97.9051,27.638 97.3001,28.119 96.5841,28.461 C95.8691,28.803 95.0331,28.974 94.0751,28.974 C93.2021,28.974 92.3991,28.829 91.6691,28.54 C90.9381,28.251 90.3091,27.846 89.7821,27.324 C89.2561,26.804 88.8471,26.184 88.5521,25.462 C88.2571,24.742 88.1101,23.945 88.1101,23.072 C88.1101,22.178 88.2651,21.37 88.5751,20.65 C88.8861,19.929 89.3121,19.316 89.8551,18.811 C90.3961,18.306 91.0341,17.916 91.7721,17.643 C92.5081,17.369 93.3081,17.233 94.1701,17.233 C94.5271,17.233 94.9011,17.267 95.2911,17.335 C95.6801,17.404 96.0531,17.509 96.4111,17.651 C96.7691,17.793 97.1061,17.969 97.4211,18.18 C97.7361,18.39 98.0051,18.643 98.2271,18.937 L96.7111,20.137 Z" id="Fill-19" fill="#3A3A3A"></path>
                <polygon id="Fill-20" fill="#3A3A3A" points="49.4562 4.472 52.0912 4.472 57.2832 12.836 57.3142 12.836 57.3142 4.472 59.3042 4.472 59.3042 15.645 56.7782 15.645 51.4762 7.013 51.4442 7.013 51.4442 15.645 49.4562 15.645"></polygon>
                <path d="M69.1388,7.0921 C68.8438,6.6921 68.4598,6.4001 67.9878,6.2151 C67.5138,6.0311 67.0498,5.9401 66.5978,5.9401 C66.0198,5.9401 65.4928,6.0451 65.0198,6.2551 C64.5458,6.4661 64.1388,6.7551 63.7968,7.1231 C63.4548,7.4911 63.1918,7.9231 63.0078,8.4171 C62.8238,8.9111 62.7318,9.4481 62.7318,10.0271 C62.7318,10.6371 62.8208,11.1951 62.9998,11.6991 C63.1788,12.2051 63.4338,12.6391 63.7648,13.0011 C64.0968,13.3641 64.4938,13.6471 64.9568,13.8461 C65.4188,14.0461 65.9408,14.1461 66.5188,14.1461 C67.1178,14.1461 67.6508,14.0281 68.1138,13.7911 C68.5758,13.5541 68.9508,13.2401 69.2338,12.8521 L70.8278,13.9721 C70.3328,14.5931 69.7278,15.0741 69.0128,15.4161 C68.2968,15.7581 67.4608,15.9291 66.5028,15.9291 C65.6298,15.9291 64.8278,15.7841 64.0968,15.4951 C63.3658,15.2061 62.7368,14.8011 62.2098,14.2791 C61.6848,13.7591 61.2748,13.1391 60.9798,12.4171 C60.6848,11.6971 60.5378,10.9001 60.5378,10.0271 C60.5378,9.1331 60.6938,8.3251 61.0028,7.6051 C61.3138,6.8841 61.7398,6.2711 62.2828,5.7661 C62.8238,5.2611 63.4618,4.8711 64.1998,4.5981 C64.9358,4.3241 65.7358,4.1881 66.5978,4.1881 C66.9548,4.1881 67.3288,4.2221 67.7188,4.2901 C68.1078,4.3591 68.4808,4.4641 68.8388,4.6061 C69.1968,4.7481 69.5338,4.9241 69.8498,5.1351 C70.1638,5.3451 70.4328,5.5981 70.6548,5.8921 L69.1388,7.0921 Z" id="Fill-21" fill="#3A3A3A"></path>
                <polygon id="Fill-22" fill="#3A3A3A" points="72.047 15.645 74.035 15.645 74.035 4.472 72.047 4.472"></polygon>
                <polygon id="Fill-23" fill="#3A3A3A" points="50.3136 35.9173 49.8066 35.9173 49.8066 30.9343 52.8126 30.9343 52.8126 31.3853 50.3136 31.3853 50.3136 33.1083 52.6366 33.1083 52.6366 33.5603 50.3136 33.5603"></polygon>
                <path d="M53.9601,33.0032 C53.9551,32.8622 53.9481,32.7352 53.9391,32.6232 L54.3971,32.6232 C54.4051,32.7122 54.4131,32.8112 54.4181,32.9192 C54.4221,33.0262 54.4241,33.1152 54.4241,33.1862 L54.4391,33.1862 C54.5321,32.9942 54.6741,32.8382 54.8611,32.7182 C55.0491,32.5992 55.2601,32.5392 55.4951,32.5392 C55.5561,32.5392 55.6101,32.5412 55.6601,32.5462 C55.7091,32.5502 55.7601,32.5602 55.8121,32.5732 L55.7471,33.0312 C55.7201,33.0222 55.6731,33.0132 55.6061,33.0032 C55.5421,32.9942 55.4761,32.9892 55.4101,32.9892 C55.2831,32.9892 55.1611,33.0132 55.0441,33.0602 C54.9271,33.1062 54.8251,33.1802 54.7371,33.2802 C54.6501,33.3812 54.5801,33.5102 54.5261,33.6672 C54.4731,33.8232 54.4451,34.0122 54.4451,34.2322 L54.4451,35.9172 L53.9671,35.9172 L53.9671,33.3482 C53.9671,33.2592 53.9651,33.1442 53.9601,33.0032" id="Fill-24" fill="#3A3A3A"></path>
                <path d="M58.88,34.2698 C58.684,34.2698 58.484,34.2788 58.285,34.2948 C58.086,34.3108 57.905,34.3438 57.743,34.3938 C57.581,34.4428 57.448,34.5148 57.346,34.6078 C57.242,34.7028 57.191,34.8268 57.191,34.9808 C57.191,35.0988 57.213,35.1968 57.258,35.2768 C57.303,35.3568 57.362,35.4208 57.438,35.4708 C57.512,35.5198 57.596,35.5548 57.687,35.5768 C57.778,35.5968 57.871,35.6078 57.965,35.6078 C58.134,35.6078 58.284,35.5788 58.415,35.5198 C58.547,35.4608 58.657,35.3808 58.746,35.2808 C58.835,35.1788 58.903,35.0638 58.95,34.9318 C58.997,34.8008 59.021,34.6628 59.021,34.5168 L59.021,34.2698 L58.88,34.2698 Z M59.021,33.7858 C59.021,33.5008 58.946,33.2898 58.795,33.1498 C58.646,33.0098 58.428,32.9398 58.142,32.9398 C57.943,32.9398 57.761,32.9748 57.592,33.0448 C57.423,33.1158 57.279,33.2088 57.162,33.3278 L56.896,33.0108 C57.031,32.8738 57.211,32.7618 57.434,32.6718 C57.656,32.5828 57.909,32.5398 58.191,32.5398 C58.368,32.5398 58.535,32.5628 58.691,32.6128 C58.845,32.6618 58.981,32.7358 59.098,32.8338 C59.216,32.9328 59.307,33.0578 59.373,33.2078 C59.439,33.3578 59.472,33.5338 59.472,33.7348 L59.472,35.1788 C59.472,35.3048 59.476,35.4368 59.485,35.5728 C59.495,35.7078 59.509,35.8238 59.528,35.9168 L59.098,35.9168 C59.084,35.8378 59.072,35.7508 59.064,35.6578 C59.054,35.5628 59.049,35.4718 59.049,35.3818 L59.035,35.3818 C58.885,35.6038 58.715,35.7618 58.525,35.8578 C58.334,35.9538 58.106,36.0018 57.838,36.0018 C57.711,36.0018 57.581,35.9838 57.448,35.9498 C57.314,35.9138 57.192,35.8558 57.081,35.7758 C56.971,35.6958 56.88,35.5928 56.808,35.4648 C56.734,35.3378 56.697,35.1828 56.697,34.9988 C56.697,34.7448 56.763,34.5428 56.892,34.3948 C57.021,34.2468 57.193,34.1358 57.409,34.0638 C57.625,33.9908 57.872,33.9438 58.151,33.9218 C58.431,33.9008 58.721,33.8898 59.021,33.8898 L59.021,33.7858 Z" id="Fill-25" fill="#3A3A3A"></path>
                <path d="M61.9952,32.7181 C62.1892,32.5991 62.4072,32.5391 62.6462,32.5391 C62.7352,32.5391 62.8282,32.5481 62.9242,32.5671 C63.0202,32.5861 63.1142,32.6221 63.2052,32.6761 C63.2972,32.7301 63.3822,32.8021 63.4592,32.8911 C63.5362,32.9801 63.6032,33.0951 63.6602,33.2361 C63.7722,33.0111 63.9262,32.8381 64.1212,32.7181 C64.3152,32.5991 64.5472,32.5391 64.8142,32.5391 C65.2322,32.5391 65.5452,32.6631 65.7542,32.9111 C65.9632,33.1601 66.0672,33.4891 66.0672,33.8971 L66.0672,35.9171 L65.5892,35.9171 L65.5892,34.0951 C65.5892,33.7471 65.5232,33.4681 65.3942,33.2571 C65.2662,33.0451 65.0472,32.9401 64.7372,32.9401 C64.5622,32.9401 64.4172,32.9751 64.2962,33.0451 C64.1772,33.1151 64.0812,33.2091 64.0082,33.3231 C63.9352,33.4391 63.8822,33.5691 63.8492,33.7141 C63.8172,33.8601 63.8012,34.0101 63.8012,34.1651 L63.8012,35.9171 L63.3222,35.9171 L63.3222,33.9951 C63.3222,33.8361 63.3092,33.6911 63.2862,33.5601 C63.2632,33.4281 63.2222,33.3171 63.1632,33.2251 C63.1042,33.1331 63.0232,33.0631 62.9212,33.0141 C62.8172,32.9641 62.6852,32.9401 62.5262,32.9401 C62.4142,32.9401 62.3002,32.9661 62.1852,33.0181 C62.0702,33.0691 61.9672,33.1481 61.8752,33.2531 C61.7842,33.3591 61.7102,33.4921 61.6532,33.6541 C61.5972,33.8161 61.5692,34.0071 61.5692,34.2281 L61.5692,35.9171 L61.0912,35.9171 L61.0912,33.3481 C61.0912,33.2591 61.0882,33.1441 61.0842,33.0031 C61.0782,32.8631 61.0712,32.7361 61.0622,32.6231 L61.5192,32.6231 C61.5282,32.7121 61.5362,32.8111 61.5412,32.9191 C61.5452,33.0271 61.5482,33.1151 61.5482,33.1861 L61.5622,33.1861 C61.6562,32.9941 61.8002,32.8381 61.9952,32.7181" id="Fill-26" fill="#3A3A3A"></path>
                <path d="M70.2062,34.0169 C70.1912,33.7069 70.0922,33.4509 69.9062,33.2459 C69.7212,33.0409 69.4582,32.9399 69.1142,32.9399 C68.9552,32.9399 68.8082,32.9689 68.6712,33.0279 C68.5352,33.0859 68.4152,33.1659 68.3122,33.2669 C68.2092,33.3679 68.1272,33.4829 68.0662,33.6129 C68.0052,33.7419 67.9702,33.8759 67.9602,34.0169 L70.2062,34.0169 Z M70.6912,34.1719 L70.6912,34.2769 C70.6912,34.3149 70.6892,34.3549 70.6852,34.3969 L67.9532,34.3969 C67.9582,34.5619 67.9902,34.7159 68.0522,34.8619 C68.1132,35.0069 68.1972,35.1339 68.3062,35.2419 C68.4132,35.3499 68.5402,35.4349 68.6852,35.4989 C68.8312,35.5619 68.9882,35.5929 69.1572,35.5929 C69.4062,35.5929 69.6202,35.5369 69.8012,35.4209 C69.9812,35.3069 70.1192,35.1739 70.2132,35.0239 L70.5722,35.3049 C70.3752,35.5539 70.1582,35.7319 69.9212,35.8399 C69.6842,35.9479 69.4292,36.0019 69.1572,36.0019 C68.9132,36.0019 68.6862,35.9579 68.4772,35.8719 C68.2692,35.7859 68.0902,35.6639 67.9392,35.5089 C67.7892,35.3549 67.6702,35.1709 67.5842,34.9599 C67.4972,34.7479 67.4542,34.5189 67.4542,34.2699 C67.4542,34.0219 67.4962,33.7919 67.5802,33.5799 C67.6652,33.3699 67.7822,33.1859 67.9332,33.0319 C68.0822,32.8759 68.2592,32.7549 68.4602,32.6689 C68.6622,32.5819 68.8802,32.5389 69.1142,32.5389 C69.3732,32.5389 69.6012,32.5819 69.7982,32.6689 C69.9952,32.7549 70.1582,32.8729 70.2902,33.0209 C70.4222,33.1689 70.5212,33.3409 70.5892,33.5379 C70.6572,33.7349 70.6912,33.9469 70.6912,34.1719 L70.6912,34.1719 Z" id="Fill-27" fill="#3A3A3A"></path>
                <polygon id="Fill-28" fill="#3A3A3A" points="72.17 32.6233 72.965 35.2983 72.98 35.2983 73.866 32.6233 74.33 32.6233 75.233 35.2983 75.245 35.2983 76.034 32.6233 76.541 32.6233 75.499 35.9173 74.979 35.9173 74.098 33.2503 74.084 33.2503 73.219 35.9173 72.697 35.9173 71.656 32.6233"></polygon>
                <path d="M80.6515,34.2698 C80.6515,34.0868 80.6225,33.9158 80.5635,33.7528 C80.5055,33.5908 80.4215,33.4508 80.3135,33.3308 C80.2055,33.2108 80.0745,33.1158 79.9195,33.0448 C79.7645,32.9748 79.5905,32.9398 79.3985,32.9398 C79.2065,32.9398 79.0335,32.9748 78.8815,33.0448 C78.7285,33.1158 78.5985,33.2108 78.4915,33.3308 C78.3825,33.4508 78.2995,33.5908 78.2405,33.7528 C78.1815,33.9158 78.1525,34.0868 78.1525,34.2698 C78.1525,34.4538 78.1815,34.6258 78.2405,34.7888 C78.2995,34.9498 78.3825,35.0898 78.4915,35.2088 C78.5985,35.3308 78.7285,35.4238 78.8815,35.4918 C79.0335,35.5598 79.2065,35.5928 79.3985,35.5928 C79.5905,35.5928 79.7645,35.5598 79.9195,35.4918 C80.0745,35.4238 80.2055,35.3308 80.3135,35.2088 C80.4215,35.0898 80.5055,34.9498 80.5635,34.7888 C80.6225,34.6258 80.6515,34.4538 80.6515,34.2698 M81.1585,34.2698 C81.1585,34.5188 81.1145,34.7488 81.0285,34.9598 C80.9415,35.1708 80.8205,35.3548 80.6665,35.5088 C80.5105,35.6648 80.3255,35.7858 80.1095,35.8728 C79.8935,35.9578 79.6565,36.0018 79.3985,36.0018 C79.1445,36.0018 78.9105,35.9578 78.6945,35.8728 C78.4785,35.7858 78.2935,35.6648 78.1385,35.5088 C77.9835,35.3548 77.8625,35.1708 77.7765,34.9598 C77.6895,34.7488 77.6465,34.5188 77.6465,34.2698 C77.6465,34.0218 77.6895,33.7918 77.7765,33.5808 C77.8625,33.3698 77.9835,33.1858 78.1385,33.0318 C78.2935,32.8758 78.4785,32.7548 78.6945,32.6688 C78.9105,32.5828 79.1445,32.5398 79.3985,32.5398 C79.6565,32.5398 79.8935,32.5828 80.1095,32.6688 C80.3255,32.7548 80.5105,32.8758 80.6665,33.0318 C80.8205,33.1858 80.9415,33.3698 81.0285,33.5808 C81.1145,33.7918 81.1585,34.0218 81.1585,34.2698" id="Fill-29" fill="#3A3A3A"></path>
                <path d="M82.5665,33.0032 C82.5615,32.8622 82.5545,32.7352 82.5455,32.6232 L83.0035,32.6232 C83.0115,32.7122 83.0195,32.8112 83.0235,32.9192 C83.0285,33.0262 83.0305,33.1152 83.0305,33.1862 L83.0455,33.1862 C83.1385,32.9942 83.2795,32.8382 83.4675,32.7182 C83.6555,32.5992 83.8665,32.5392 84.1005,32.5392 C84.1615,32.5392 84.2165,32.5412 84.2655,32.5462 C84.3155,32.5502 84.3665,32.5602 84.4175,32.5732 L84.3535,33.0312 C84.3265,33.0222 84.2795,33.0132 84.2125,33.0032 C84.1475,32.9942 84.0825,32.9892 84.0165,32.9892 C83.8895,32.9892 83.7675,33.0132 83.6505,33.0602 C83.5335,33.1062 83.4305,33.1802 83.3435,33.2802 C83.2565,33.3812 83.1865,33.5102 83.1325,33.6672 C83.0795,33.8232 83.0515,34.0122 83.0515,34.2322 L83.0515,35.9172 L82.5735,35.9172 L82.5735,33.3482 C82.5735,33.2592 82.5715,33.1442 82.5665,33.0032" id="Fill-30" fill="#3A3A3A"></path>
                <polygon id="Fill-31" fill="#3A3A3A" points="86.2697 34.1087 86.2907 34.1087 87.8107 32.6237 88.4997 32.6237 86.8387 34.1297 88.6697 35.9177 87.9657 35.9177 86.2907 34.1857 86.2697 34.1857 86.2697 35.9177 85.7907 35.9177 85.7907 30.5957 86.2697 30.5957"></polygon>
                <path d="M68.5314,37.8548 C68.4234,37.7048 68.2844,37.5838 68.1154,37.4928 C67.9464,37.4008 67.7424,37.3548 67.5034,37.3548 C67.3814,37.3548 67.2564,37.3738 67.1304,37.4118 C67.0034,37.4488 66.8884,37.5058 66.7844,37.5838 C66.6814,37.6618 66.5984,37.7588 66.5354,37.8758 C66.4714,37.9928 66.4404,38.1308 66.4404,38.2918 C66.4404,38.4508 66.4704,38.5828 66.5314,38.6858 C66.5934,38.7888 66.6734,38.8758 66.7734,38.9498 C66.8744,39.0228 66.9894,39.0828 67.1184,39.1288 C67.2464,39.1758 67.3814,39.2228 67.5214,39.2698 C67.6944,39.3258 67.8694,39.3868 68.0444,39.4528 C68.2194,39.5178 68.3774,39.6038 68.5184,39.7088 C68.6584,39.8148 68.7734,39.9488 68.8624,40.1108 C68.9504,40.2728 68.9954,40.4778 68.9954,40.7258 C68.9954,40.9758 68.9474,41.1908 68.8524,41.3708 C68.7584,41.5508 68.6354,41.7008 68.4834,41.8178 C68.3324,41.9348 68.1584,42.0218 67.9644,42.0788 C67.7694,42.1338 67.5734,42.1628 67.3774,42.1628 C67.2254,42.1628 67.0764,42.1468 66.9264,42.1168 C66.7754,42.0858 66.6334,42.0408 66.4964,41.9798 C66.3604,41.9178 66.2334,41.8408 66.1164,41.7478 C65.9994,41.6538 65.8954,41.5448 65.8064,41.4228 L66.2424,41.0998 C66.3504,41.2788 66.5024,41.4268 66.6974,41.5468 C66.8914,41.6668 67.1214,41.7258 67.3844,41.7258 C67.5104,41.7258 67.6394,41.7068 67.7704,41.6668 C67.9024,41.6258 68.0204,41.5658 68.1264,41.4838 C68.2314,41.4018 68.3184,41.2998 68.3864,41.1808 C68.4544,41.0608 68.4884,40.9208 68.4884,40.7618 C68.4884,40.5878 68.4544,40.4438 68.3864,40.3298 C68.3184,40.2138 68.2284,40.1178 68.1154,40.0408 C68.0034,39.9628 67.8744,39.8978 67.7274,39.8468 C67.5824,39.7948 67.4304,39.7438 67.2704,39.6928 C67.1064,39.6398 66.9444,39.5818 66.7844,39.5158 C66.6264,39.4508 66.4824,39.3648 66.3554,39.2588 C66.2284,39.1538 66.1274,39.0228 66.0504,38.8688 C65.9714,38.7128 65.9324,38.5238 65.9324,38.2978 C65.9324,38.0588 65.9814,37.8528 66.0774,37.6788 C66.1744,37.5048 66.3004,37.3628 66.4544,37.2498 C66.6094,37.1368 66.7804,37.0548 66.9684,37.0018 C67.1554,36.9518 67.3414,36.9248 67.5244,36.9248 C67.8624,36.9248 68.1504,36.9858 68.3904,37.1048 C68.6304,37.2248 68.8094,37.3668 68.9324,37.5308 L68.5314,37.8548 Z" id="Fill-32" fill="#3A3A3A"></path>
                <path d="M73.0997,40.1351 C73.0847,39.8251 72.9857,39.5691 72.7997,39.3641 C72.6147,39.1601 72.3507,39.0591 72.0077,39.0591 C71.8487,39.0591 71.7007,39.0871 71.5647,39.1471 C71.4287,39.2041 71.3087,39.2851 71.2047,39.3861 C71.1027,39.4871 71.0207,39.6021 70.9597,39.7311 C70.8987,39.8601 70.8637,39.9941 70.8537,40.1351 L73.0997,40.1351 Z M73.5847,40.2901 L73.5847,40.3961 C73.5847,40.4331 73.5817,40.4741 73.5787,40.5151 L70.8467,40.5151 C70.8517,40.6801 70.8837,40.8341 70.9457,40.9801 C71.0067,41.1251 71.0907,41.2521 71.1987,41.3601 C71.3067,41.4681 71.4337,41.5541 71.5787,41.6171 C71.7237,41.6801 71.8817,41.7121 72.0507,41.7121 C72.2997,41.7121 72.5137,41.6551 72.6947,41.5391 C72.8747,41.4251 73.0127,41.2921 73.1067,41.1421 L73.4647,41.4231 C73.2687,41.6721 73.0507,41.8511 72.8147,41.9581 C72.5777,42.0671 72.3227,42.1201 72.0507,42.1201 C71.8067,42.1201 71.5787,42.0761 71.3707,41.9901 C71.1627,41.9041 70.9837,41.7821 70.8317,41.6281 C70.6827,41.4731 70.5637,41.2891 70.4777,41.0781 C70.3907,40.8671 70.3467,40.6381 70.3467,40.3891 C70.3467,40.1411 70.3897,39.9101 70.4737,39.6991 C70.5587,39.4881 70.6757,39.3051 70.8257,39.1511 C70.9757,38.9951 71.1517,38.8741 71.3537,38.7871 C71.5557,38.7001 71.7737,38.6571 72.0077,38.6571 C72.2657,38.6571 72.4947,38.7001 72.6907,38.7871 C72.8887,38.8741 73.0517,38.9911 73.1837,39.1401 C73.3157,39.2871 73.4137,39.4601 73.4827,39.6561 C73.5507,39.8541 73.5847,40.0651 73.5847,40.2901 L73.5847,40.2901 Z" id="Fill-33" fill="#3A3A3A"></path>
                <path d="M75.1339,39.1214 C75.1279,38.9804 75.1209,38.8534 75.1129,38.7414 L75.5699,38.7414 C75.5789,38.8304 75.5859,38.9294 75.5909,39.0374 C75.5959,39.1444 75.5979,39.2344 75.5979,39.3054 L75.6129,39.3054 C75.7059,39.1124 75.8469,38.9564 76.0339,38.8374 C76.2219,38.7174 76.4339,38.6574 76.6679,38.6574 C76.7289,38.6574 76.7839,38.6594 76.8329,38.6644 C76.8819,38.6694 76.9329,38.6794 76.9849,38.6924 L76.9209,39.1504 C76.8929,39.1414 76.8459,39.1314 76.7799,39.1214 C76.7149,39.1124 76.6499,39.1074 76.5829,39.1074 C76.4569,39.1074 76.3339,39.1314 76.2179,39.1784 C76.1009,39.2254 75.9979,39.2994 75.9109,39.3994 C75.8239,39.5004 75.7539,39.6284 75.6999,39.7854 C75.6469,39.9414 75.6189,40.1304 75.6189,40.3504 L75.6189,42.0364 L75.1409,42.0364 L75.1409,39.4674 C75.1409,39.3774 75.1379,39.2624 75.1339,39.1214" id="Fill-34" fill="#3A3A3A"></path>
                <polygon id="Fill-35" fill="#3A3A3A" points="79.5538 42.0364 79.0268 42.0364 77.6818 38.7414 78.2158 38.7414 79.2858 41.5284 79.2998 41.5284 80.3768 38.7414 80.8918 38.7414"></polygon>
                <path d="M82.172,42.036 L82.651,42.036 L82.651,38.741 L82.172,38.741 L82.172,42.036 Z M82.75,37.474 C82.75,37.574 82.714,37.655 82.644,37.717 C82.573,37.781 82.496,37.813 82.411,37.813 C82.327,37.813 82.249,37.781 82.179,37.717 C82.109,37.655 82.074,37.574 82.074,37.474 C82.074,37.376 82.109,37.295 82.179,37.232 C82.249,37.168 82.327,37.137 82.411,37.137 C82.496,37.137 82.573,37.168 82.644,37.232 C82.714,37.295 82.75,37.376 82.75,37.474 L82.75,37.474 Z" id="Fill-36" fill="#3A3A3A"></path>
                <path d="M86.8253,39.4944 C86.7453,39.3684 86.6303,39.2644 86.4763,39.1814 C86.3243,39.0994 86.1583,39.0584 85.9803,39.0584 C85.7883,39.0584 85.6143,39.0934 85.4603,39.1604 C85.3043,39.2274 85.1723,39.3224 85.0613,39.4414 C84.9513,39.5614 84.8673,39.7024 84.8073,39.8644 C84.7503,40.0254 84.7213,40.2014 84.7213,40.3894 C84.7213,40.5764 84.7503,40.7504 84.8073,40.9094 C84.8673,41.0694 84.9503,41.2084 85.0583,41.3284 C85.1663,41.4484 85.2983,41.5424 85.4523,41.6094 C85.6073,41.6784 85.7813,41.7124 85.9723,41.7124 C86.1843,41.7124 86.3633,41.6724 86.5083,41.5924 C86.6533,41.5134 86.7733,41.4094 86.8673,41.2824 L87.2263,41.5504 C87.0863,41.7234 86.9133,41.8624 86.7093,41.9654 C86.5053,42.0684 86.2593,42.1204 85.9723,42.1204 C85.7063,42.1204 85.4653,42.0764 85.2493,41.9904 C85.0323,41.9034 84.8483,41.7824 84.6963,41.6284 C84.5433,41.4734 84.4253,41.2894 84.3403,41.0784 C84.2563,40.8674 84.2143,40.6384 84.2143,40.3894 C84.2143,40.1404 84.2563,39.9104 84.3403,39.6994 C84.4253,39.4874 84.5433,39.3054 84.6963,39.1504 C84.8483,38.9954 85.0323,38.8744 85.2493,38.7874 C85.4653,38.7004 85.7063,38.6574 85.9723,38.6574 C86.1943,38.6574 86.4183,38.7054 86.6453,38.8014 C86.8733,38.8974 87.0563,39.0394 87.1983,39.2274 L86.8253,39.4944 Z" id="Fill-37" fill="#3A3A3A"></path>
                <path d="M91.0138,40.1351 C90.9988,39.8251 90.8988,39.5691 90.7138,39.3641 C90.5288,39.1601 90.2648,39.0591 89.9218,39.0591 C89.7618,39.0591 89.6148,39.0871 89.4778,39.1471 C89.3428,39.2041 89.2218,39.2851 89.1188,39.3861 C89.0168,39.4871 88.9338,39.6021 88.8728,39.7311 C88.8118,39.8601 88.7778,39.9941 88.7678,40.1351 L91.0138,40.1351 Z M91.4978,40.2901 L91.4978,40.3961 C91.4978,40.4331 91.4958,40.4741 91.4918,40.5151 L88.7608,40.5151 C88.7648,40.6801 88.7978,40.8341 88.8588,40.9801 C88.9198,41.1251 89.0038,41.2521 89.1128,41.3601 C89.2198,41.4681 89.3468,41.5541 89.4928,41.6171 C89.6378,41.6801 89.7948,41.7121 89.9638,41.7121 C90.2128,41.7121 90.4278,41.6551 90.6088,41.5391 C90.7878,41.4251 90.9258,41.2921 91.0198,41.1421 L91.3788,41.4231 C91.1818,41.6721 90.9648,41.8511 90.7278,41.9581 C90.4918,42.0671 90.2358,42.1201 89.9638,42.1201 C89.7208,42.1201 89.4928,42.0761 89.2848,41.9901 C89.0768,41.9041 88.8968,41.7821 88.7458,41.6281 C88.5958,41.4731 88.4778,41.2891 88.3908,41.0781 C88.3038,40.8671 88.2608,40.6381 88.2608,40.3891 C88.2608,40.1411 88.3028,39.9101 88.3868,39.6991 C88.4718,39.4881 88.5888,39.3051 88.7398,39.1511 C88.8888,38.9951 89.0658,38.8741 89.2668,38.7871 C89.4688,38.7001 89.6868,38.6571 89.9218,38.6571 C90.1798,38.6571 90.4078,38.7001 90.6048,38.7871 C90.8018,38.8741 90.9658,38.9911 91.0978,39.1401 C91.2288,39.2871 91.3278,39.4601 91.3968,39.6561 C91.4648,39.8541 91.4978,40.0651 91.4978,40.2901 L91.4978,40.2901 Z" id="Fill-38" fill="#3A3A3A"></path>
                <path d="M94.8077,39.5228 C94.7377,39.3868 94.6297,39.2748 94.4877,39.1888 C94.3437,39.1018 94.1817,39.0588 93.9977,39.0588 C93.9127,39.0588 93.8287,39.0678 93.7447,39.0858 C93.6607,39.1058 93.5847,39.1358 93.5197,39.1778 C93.4537,39.2208 93.4007,39.2748 93.3607,39.3398 C93.3217,39.4058 93.3007,39.4838 93.3007,39.5718 C93.3007,39.7268 93.3647,39.8458 93.4917,39.9278 C93.6187,40.0098 93.8177,40.0798 94.0897,40.1348 C94.4787,40.2148 94.7667,40.3318 94.9527,40.4838 C95.1377,40.6358 95.2297,40.8408 95.2297,41.0998 C95.2297,41.2878 95.1937,41.4468 95.1207,41.5748 C95.0477,41.7048 94.9527,41.8098 94.8347,41.8908 C94.7177,41.9738 94.5857,42.0328 94.4377,42.0678 C94.2897,42.1028 94.1417,42.1208 93.9917,42.1208 C93.7427,42.1208 93.5007,42.0688 93.2657,41.9648 C93.0317,41.8628 92.8387,41.7008 92.6887,41.4798 L93.0687,41.1978 C93.1537,41.3438 93.2777,41.4658 93.4417,41.5648 C93.6057,41.6628 93.7867,41.7118 93.9837,41.7118 C94.0867,41.7118 94.1857,41.7028 94.2797,41.6838 C94.3727,41.6658 94.4547,41.6318 94.5257,41.5858 C94.5957,41.5388 94.6537,41.4788 94.6947,41.4068 C94.7377,41.3338 94.7577,41.2428 94.7577,41.1348 C94.7577,40.9608 94.6747,40.8308 94.5077,40.7448 C94.3417,40.6578 94.1007,40.5768 93.7867,40.5018 C93.6887,40.4778 93.5837,40.4488 93.4737,40.4138 C93.3637,40.3778 93.2617,40.3268 93.1677,40.2578 C93.0747,40.1908 92.9957,40.1048 92.9357,40.0018 C92.8737,39.8978 92.8437,39.7698 92.8437,39.6148 C92.8437,39.4458 92.8757,39.3008 92.9427,39.1808 C93.0077,39.0618 93.0957,38.9628 93.2057,38.8858 C93.3167,38.8088 93.4417,38.7518 93.5817,38.7128 C93.7237,38.6758 93.8687,38.6578 94.0197,38.6578 C94.2487,38.6578 94.4717,38.7098 94.6877,38.8118 C94.9037,38.9158 95.0657,39.0608 95.1737,39.2488 L94.8077,39.5228 Z" id="Fill-39" fill="#3A3A3A"></path>
            </g>
        </g>
    </g>
</svg>