<?xml version="1.0" encoding="UTF-8"?>
<svg width="410px" height="93px" viewBox="0 0 410 93" version="1.1" xmlns="http://www.w3.org/2000/svg" xmlns:xlink="http://www.w3.org/1999/xlink">
    <!-- Generator: Sketch 55 (78076) - https://sketchapp.com -->
    <title>Group 101</title>
    <desc>Created with Sketch.</desc>
    <defs>
        <polygon id="path-1" points="0.489825795 0.29 29.7535207 0.29 29.7535207 52.9695102 0.489825795 52.9695102"></polygon>
        <polygon id="path-3" points="0 0.6591 118.8704 0.6591 118.8704 23 0 23"></polygon>
    </defs>
    <g id="Welcome" stroke="none" stroke-width="1" fill="none" fill-rule="evenodd">
        <g id="Group-101" transform="translate(0.000000, -1.000000)">
            <path d="M145.1351,72.437 C144.9611,72.437 144.7781,72.399 144.5851,72.321 C143.3881,71.877 141.8051,71.655 139.8361,71.655 C139.1981,71.655 138.4531,71.701 137.5991,71.793 C136.7441,71.885 135.7861,72.027 134.7251,72.22 L134.6961,78.475 C136.5581,77.982 137.9581,77.736 138.8951,77.736 C140.3811,77.736 141.9211,77.823 143.5131,77.997 C144.4211,78.094 144.8741,78.586 144.8741,79.474 C144.8741,79.908 144.7341,80.268 144.4541,80.553 C144.1751,80.837 143.8271,80.979 143.4121,80.979 C142.9101,80.979 142.1571,80.936 141.1531,80.85 C140.1491,80.763 139.3961,80.719 138.8951,80.719 C138.2381,80.719 136.8191,80.999 134.6381,81.559 L134.5081,91.52 C134.5081,91.935 134.3721,92.285 134.1021,92.57 C133.8321,92.854 133.4891,92.997 133.0741,92.997 C132.6591,92.997 132.3141,92.854 132.0391,92.57 C131.7641,92.285 131.6261,91.935 131.6261,91.52 C131.6261,89.619 131.6621,86.764 131.7351,82.956 C131.8071,79.148 131.8431,76.293 131.8431,74.392 C131.8431,73.967 131.8361,73.328 131.8221,72.473 C131.8071,71.619 131.8001,70.98 131.8001,70.555 C131.8001,70.13 131.9321,69.773 132.1981,69.483 C132.4641,69.194 132.8081,69.049 133.2331,69.049 C133.5521,69.049 133.8371,69.136 134.0881,69.31 C135.2841,69.098 136.3611,68.94 137.3161,68.839 C138.2721,68.738 139.1121,68.687 139.8361,68.687 C140.9461,68.687 142.2151,68.846 143.6441,69.165 C145.5841,69.609 146.5541,70.188 146.5541,70.902 C146.5541,71.289 146.4281,71.631 146.1771,71.931 C145.8971,72.269 145.5501,72.437 145.1351,72.437" id="Fill-1" fill="#323D92"></path>
            <path d="M160.3958,80.7626 C160.3278,81.9696 159.8458,82.5726 158.9478,82.5726 C158.1178,82.5726 157.7028,82.0946 157.7028,81.1386 C157.7028,80.9556 157.6878,80.6176 157.6588,80.1256 L157.6158,78.9086 C156.0898,79.0926 154.8698,79.5226 153.9528,80.1976 C153.0928,80.8246 152.3788,81.7716 151.8098,83.0356 L151.8388,90.9706 C151.8388,91.9446 151.3608,92.4326 150.4048,92.4326 C149.5558,92.4326 149.1308,91.9446 149.1308,90.9706 L149.1308,80.8056 C149.1308,80.4876 149.1428,80.0096 149.1668,79.3726 C149.1908,78.7356 149.2038,78.2576 149.2038,77.9386 C149.2038,76.9646 149.6278,76.4766 150.4778,76.4766 C151.4238,76.4766 151.9008,77.2786 151.9108,78.8806 C153.7648,77.0946 155.8198,76.2016 158.0788,76.2016 C158.8608,76.2016 159.4448,76.4956 159.8308,77.0846 C160.2168,77.6736 160.4098,78.5616 160.4098,79.7486 C160.4098,80.2506 160.4048,80.5886 160.3958,80.7626" id="Fill-3" fill="#323D92"></path>
            <path d="M171.6751,82.3549 C171.6751,81.9399 171.7011,81.4889 171.7551,81.0009 C171.8071,80.5139 171.8871,79.9949 171.9931,79.4449 C171.6361,79.2619 171.3301,79.1259 171.0741,79.0399 C170.8181,78.9529 170.6131,78.9089 170.4591,78.9089 C168.9621,78.9089 167.6721,79.5199 166.5861,80.7409 C165.5001,81.9619 164.9571,83.3689 164.9571,84.9609 C164.9571,86.5439 165.2371,87.7319 165.7971,88.5229 C166.3561,89.3149 167.1961,89.7099 168.3161,89.7099 C169.2421,89.7099 170.0291,89.5419 170.6761,89.2039 C171.0231,89.0209 171.5101,88.6529 172.1381,88.1039 C171.8291,85.5449 171.6751,83.6289 171.6751,82.3549 M174.6861,92.4179 C174.5031,92.4179 174.1701,92.2059 173.6871,91.7809 C173.2531,91.3849 172.9291,91.0329 172.7171,90.7239 C171.7911,91.2259 170.9751,91.6049 170.2701,91.8599 C169.5661,92.1159 168.9771,92.2439 168.5041,92.2439 C166.2451,92.2439 164.5991,91.6069 163.5671,90.3329 C162.5921,89.1359 162.1041,87.3019 162.1041,84.8309 C162.1041,82.4949 162.9081,80.4969 164.5151,78.8369 C166.1221,77.1769 168.0411,76.3469 170.2701,76.3469 C171.1101,76.3469 172.0511,76.5629 173.0941,76.9979 C174.4061,77.5389 175.0631,78.1899 175.0631,78.9529 C175.0631,79.2129 174.9671,79.4449 174.7731,79.6469 C174.6771,80.0149 174.6021,80.6179 174.5491,81.4579 C174.4961,82.2969 174.4651,83.3739 174.4551,84.6869 C174.4451,85.8829 174.5271,86.8289 174.7011,87.5239 C174.7981,87.9489 175.1011,88.7979 175.6131,90.0719 C175.6801,90.2459 175.7921,90.5019 175.9461,90.8399 L176.0331,91.0859 C176.0331,91.4719 175.8981,91.7909 175.6281,92.0419 C175.3571,92.2929 175.0441,92.4179 174.6861,92.4179" id="Fill-5" fill="#323D92"></path>
            <path d="M196.9407,92.664 C196.1487,92.664 195.6857,92.244 195.5507,91.404 C195.3767,90.343 195.2027,88.847 195.0297,86.916 L194.5367,82.428 C194.4407,81.762 194.2767,81.11 194.0447,80.473 C193.7167,79.604 193.3587,79.17 192.9737,79.17 C192.6157,79.17 191.9497,79.474 190.9757,80.082 C190.0487,80.642 189.4407,81.091 189.1507,81.429 C189.1417,82.336 189.1657,83.243 189.2237,84.15 L189.6577,88.017 C189.8407,89.541 189.9327,90.801 189.9327,91.795 C189.9327,92.22 189.7997,92.57 189.5347,92.845 C189.2687,93.12 188.9287,93.258 188.5137,93.258 C188.0987,93.258 187.7587,93.12 187.4927,92.845 C187.2277,92.57 187.0947,92.22 187.0947,91.795 C187.0947,90.627 186.9767,88.902 186.7397,86.619 C186.5037,84.336 186.3857,82.611 186.3857,81.443 C186.3857,80.42 186.2407,79.623 185.9507,79.054 C185.2747,79.363 184.5897,79.865 183.8957,80.56 L182.1867,82.471 C182.0317,82.703 181.7857,83.007 181.4477,83.383 C181.4477,83.962 181.3947,84.816 181.2887,85.946 C181.1827,87.075 181.1297,87.91 181.1297,88.451 C181.1297,88.74 181.1747,89.146 181.2677,89.667 C181.3587,90.188 181.4047,90.565 181.4047,90.796 C181.4047,91.192 181.2577,91.525 180.9627,91.795 C180.6687,92.065 180.3237,92.201 179.9277,92.201 C178.8367,92.201 178.2917,90.96 178.2917,88.48 C178.2917,87.9 178.3447,87.037 178.4507,85.888 C178.5567,84.739 178.6097,83.875 178.6097,83.296 C178.6097,82.785 178.5647,82.018 178.4727,80.994 C178.3807,79.971 178.3357,79.199 178.3357,78.678 C178.3357,76.486 178.8277,75.391 179.8127,75.391 C180.1887,75.391 180.5337,75.555 180.8477,75.883 C181.1607,76.211 181.3177,76.569 181.3177,76.955 C181.3177,77.138 181.2937,77.423 181.2457,77.809 C181.1967,78.195 181.1727,78.489 181.1727,78.692 L181.2017,80.212 C181.7037,79.18 182.4417,78.246 183.4177,77.411 C184.3917,76.576 185.2217,76.158 185.9077,76.158 C187.4227,76.158 188.4657,76.911 189.0347,78.417 C189.5657,77.712 190.1977,77.184 190.9317,76.831 C191.6657,76.479 192.5047,76.303 193.4507,76.303 C195.0637,76.303 196.1637,77.172 196.7527,78.909 C196.8677,79.257 197.0657,80.613 197.3457,82.978 C197.6157,84.638 197.9637,87.404 198.3887,91.274 C198.4177,91.66 198.2867,91.988 197.9977,92.259 C197.7077,92.529 197.3557,92.664 196.9407,92.664" id="Fill-7" fill="#323D92"></path>
            <path d="M207.9588,78.9379 C206.7808,78.9379 205.8018,79.3939 205.0198,80.3069 C204.2378,81.2189 203.6538,82.5919 203.2678,84.4259 L207.7128,82.3119 C209.4598,81.4619 210.7048,80.7239 211.4478,80.0969 C210.6178,79.3239 209.4548,78.9379 207.9588,78.9379 M208.3498,92.1279 C206.1678,92.1279 204.4018,91.5829 203.0508,90.4919 C201.5738,89.2859 200.8348,87.5969 200.8348,85.4249 C200.8348,82.9149 201.4428,80.8109 202.6598,79.1119 C203.9818,77.2589 205.7488,76.3319 207.9588,76.3319 C209.5608,76.3319 210.8688,76.6029 211.8828,77.1429 C213.1278,77.8089 213.7508,78.8319 213.7508,80.2119 C213.7508,81.1779 213.2048,82.0559 212.1138,82.8479 C211.6318,83.1949 210.6078,83.7359 209.0448,84.4689 L203.5138,87.0899 C204.0538,87.8909 204.7278,88.4939 205.5338,88.8989 C206.3388,89.3049 207.2778,89.5079 208.3498,89.5079 C209.0158,89.5079 209.7978,89.3819 210.6948,89.1309 C211.8338,88.8129 212.5678,88.3959 212.8958,87.8789 C213.2238,87.3629 213.5768,87.1049 213.9528,87.1049 C214.2908,87.1049 214.5918,87.2319 214.8578,87.4879 C215.1238,87.7439 215.2558,88.0409 215.2558,88.3779 C215.2558,89.4499 214.3918,90.3719 212.6648,91.1439 C211.1878,91.7999 209.7498,92.1279 208.3498,92.1279" id="Fill-9" fill="#323D92"></path>
            <path d="M235.1634,78.5039 C234.4114,81.6509 233.4274,85.2079 232.2104,89.1749 C231.9404,90.0529 231.4914,90.9559 230.8644,91.8819 C230.5244,92.3939 230.0674,92.6449 229.4874,92.6349 C228.4364,92.6159 227.6144,91.3079 227.0264,88.7119 C226.8334,87.8809 226.6364,86.7519 226.4334,85.3229 L225.9544,82.0949 L224.7674,84.8599 L222.5674,90.8399 C222.4424,91.2069 222.2584,91.4859 222.0174,91.6799 C221.7274,92.2389 221.2644,92.5289 220.6274,92.5479 C219.8934,92.5769 219.1844,91.1389 218.4994,88.2329 C218.1514,86.7369 217.8044,84.7109 217.4564,82.1519 L217.1094,79.9809 C216.9834,79.1119 216.9214,78.3829 216.9214,77.7949 C216.9214,77.3889 217.0634,77.0539 217.3484,76.7879 C217.6324,76.5229 217.9774,76.3899 218.3834,76.3899 C219.1174,76.3899 219.5704,76.7909 219.7444,77.5919 C219.8704,78.1609 219.9714,78.8659 220.0484,79.7059 L220.2654,81.8339 L221.1204,88.3349 C222.1914,85.3619 223.3014,81.9359 224.4504,78.0549 C224.7674,76.9829 225.3234,76.4479 226.1144,76.4479 C226.8764,76.4479 227.3934,77.0459 227.6634,78.2429 C227.9154,79.3729 228.2274,81.1099 228.6044,83.4559 C228.9914,85.8879 229.3334,87.7849 229.6324,89.1459 L230.6904,85.2079 L232.5584,77.3169 C232.7024,76.7279 233.1164,76.4329 233.8024,76.4329 C234.2084,76.4329 234.5594,76.5709 234.8604,76.8459 C235.1594,77.1209 235.3084,77.4519 235.3084,77.8379 C235.3084,77.8859 235.2614,78.1079 235.1634,78.5039" id="Fill-11" fill="#323D92"></path>
            <path d="M244.4153,79.3872 C242.9963,79.3772 241.8913,80.0532 241.1003,81.4142 C240.4723,82.5052 240.1583,83.7502 240.1583,85.1492 C240.1583,86.5492 240.5403,87.6402 241.3033,88.4222 C241.9393,89.0692 242.6873,89.3922 243.5473,89.3922 C244.5513,89.3922 245.4143,89.0252 246.1393,88.2912 C246.9593,87.4812 247.3933,86.3852 247.4413,85.0052 C247.5763,81.2692 246.5673,79.3972 244.4153,79.3872 M243.5473,92.3172 C241.9253,92.3172 240.5303,91.7182 239.3623,90.5212 C238.0603,89.1892 237.3743,87.3992 237.3073,85.1492 C237.2483,82.9682 237.7993,81.0472 238.9573,79.3872 C240.3093,77.4282 242.1903,76.4482 244.6033,76.4482 C246.5343,76.4482 247.9963,77.3312 248.9903,79.0972 C249.7823,80.5262 250.1633,82.2442 250.1353,84.2522 C250.1053,86.3952 249.5463,88.2242 248.4553,89.7392 C247.2203,91.4572 245.5833,92.3172 243.5473,92.3172" id="Fill-13" fill="#323D92"></path>
            <path d="M264.9759,80.7626 C264.9079,81.9696 264.4249,82.5726 263.5279,82.5726 C262.6979,82.5726 262.2829,82.0946 262.2829,81.1386 C262.2829,80.9556 262.2679,80.6176 262.2399,80.1256 L262.1959,78.9086 C260.6699,79.0926 259.4499,79.5226 258.5329,80.1976 C257.6729,80.8246 256.9589,81.7716 256.3899,83.0356 L256.4179,90.9706 C256.4179,91.9446 255.9409,92.4326 254.9859,92.4326 C254.1359,92.4326 253.7109,91.9446 253.7109,90.9706 L253.7109,80.8056 C253.7109,80.4876 253.7229,80.0096 253.7469,79.3726 C253.7709,78.7356 253.7839,78.2576 253.7839,77.9386 C253.7839,76.9646 254.2079,76.4766 255.0579,76.4766 C256.0029,76.4766 256.4819,77.2786 256.4919,78.8806 C258.3439,77.0946 260.4009,76.2016 262.6599,76.2016 C263.4409,76.2016 264.0249,76.4956 264.4119,77.0846 C264.7969,77.6736 264.9909,78.5616 264.9909,79.7486 C264.9909,80.2506 264.9849,80.5886 264.9759,80.7626" id="Fill-15" fill="#323D92"></path>
            <path d="M280.0198,92.0561 C279.4898,92.0561 279.0798,91.7761 278.7898,91.2161 C278.2878,90.2411 277.5298,89.0881 276.5158,87.7561 L273.9538,84.2661 C273.3938,84.7101 272.5248,85.3331 271.3468,86.1341 C271.2408,87.6301 271.1878,89.0881 271.1878,90.5071 C271.1878,90.9411 271.0548,91.2931 270.7898,91.5641 C270.5238,91.8341 270.1838,91.9691 269.7688,91.9691 C268.7938,91.9691 268.3068,91.3131 268.3068,90.0001 C268.3068,89.1991 268.3618,87.9991 268.4728,86.4021 C268.5838,84.8051 268.6398,83.6051 268.6398,82.8041 C268.6398,81.3371 268.6618,79.6601 268.7048,77.7721 C268.7488,75.8861 268.7698,74.2181 268.7698,72.7701 C268.7698,72.3361 268.7488,71.8241 268.7048,71.2351 C268.6618,70.6471 268.6398,70.1351 268.6398,69.7011 C268.6398,69.2661 268.7718,68.9141 269.0378,68.6431 C269.3028,68.3731 269.6438,68.2381 270.0588,68.2381 C270.4738,68.2381 270.8138,68.3731 271.0798,68.6431 C271.3448,68.9141 271.4778,69.2661 271.4778,69.7011 C271.4778,70.1441 271.5008,70.6681 271.5498,71.2711 C271.5978,71.8751 271.6228,72.3991 271.6228,72.8431 L271.5208,77.5051 C271.4728,79.1841 271.4578,80.8641 271.4778,82.5431 C272.7908,81.5391 274.0548,80.4391 275.2708,79.2421 L278.4568,75.9551 C278.7748,75.6271 279.1178,75.4631 279.4848,75.4631 C279.8608,75.4631 280.2018,75.6131 280.5048,75.9121 C280.8088,76.2111 280.9608,76.5591 280.9608,76.9541 C280.9608,77.2831 280.8218,77.6061 280.5408,77.9251 C279.3538,79.3141 277.8918,80.8061 276.1548,82.3981 L279.3108,86.6991 C280.7878,88.7161 281.5258,90.0291 281.5258,90.6371 C281.5258,91.0231 281.3738,91.3561 281.0698,91.6361 C280.7658,91.9161 280.4158,92.0561 280.0198,92.0561" id="Fill-17" fill="#323D92"></path>
            <path d="M292.761,87.8569 C292.751,87.4519 292.889,87.1209 293.173,86.8649 C293.458,86.6099 293.808,86.4819 294.223,86.4819 C294.696,86.4819 295.111,86.7519 295.468,87.2929 C295.96,88.0259 296.4,88.5239 296.785,88.7839 C297.606,89.3249 298.798,89.5949 300.363,89.5949 C301.859,89.5949 303.248,89.2719 304.532,88.6249 C306.173,87.7949 306.993,86.6409 306.993,85.1639 C306.993,83.9479 306.303,82.9869 304.923,82.2829 C303.755,81.6749 302.312,81.3469 300.594,81.2979 C299.069,81.2399 297.771,80.9069 296.699,80.2989 C295.328,79.5179 294.643,78.3979 294.643,76.9399 C294.643,75.2219 295.617,73.6529 297.568,72.2339 C299.431,70.8929 301.356,70.2219 303.345,70.2219 C304.281,70.2219 305.338,70.3809 306.516,70.6999 C308.079,71.1149 308.862,71.6459 308.862,72.2929 C308.862,73.1419 308.427,73.5659 307.558,73.5659 C307.172,73.5659 306.496,73.4629 305.532,73.2549 C304.566,73.0479 303.818,72.9489 303.286,72.9589 C301.782,72.9779 300.502,73.3489 299.45,74.0729 C298.368,74.8169 297.828,75.7189 297.828,76.7809 C297.828,77.5819 298.542,78.1469 299.971,78.4749 C300.502,78.6009 301.53,78.7159 303.055,78.8219 C305.266,78.9869 306.993,79.6819 308.239,80.9069 C309.377,82.0269 309.948,83.3929 309.948,85.0049 C309.948,87.3019 308.885,89.1359 306.762,90.5069 C304.918,91.6939 302.781,92.2879 300.348,92.2879 C298.581,92.2879 296.964,91.9499 295.497,91.2739 C293.701,90.4439 292.789,89.3049 292.761,87.8569" id="Fill-19" fill="#323D92"></path>
            <path d="M319.764,78.9379 C318.586,78.9379 317.607,79.3939 316.826,80.3069 C316.043,81.2189 315.459,82.5919 315.074,84.4259 L319.518,82.3119 C321.265,81.4619 322.51,80.7239 323.254,80.0969 C322.423,79.3239 321.26,78.9379 319.764,78.9379 M320.156,92.1279 C317.974,92.1279 316.207,91.5829 314.856,90.4919 C313.379,89.2859 312.641,87.5969 312.641,85.4249 C312.641,82.9149 313.249,80.8109 314.465,79.1119 C315.787,77.2589 317.554,76.3319 319.764,76.3319 C321.367,76.3319 322.675,76.6029 323.688,77.1429 C324.933,77.8089 325.556,78.8319 325.556,80.2119 C325.556,81.1779 325.01,82.0559 323.92,82.8479 C323.437,83.1949 322.414,83.7359 320.85,84.4689 L315.32,87.0899 C315.86,87.8909 316.534,88.4939 317.339,88.8989 C318.145,89.3049 319.084,89.5079 320.156,89.5079 C320.822,89.5079 321.603,89.3819 322.501,89.1309 C323.64,88.8129 324.373,88.3959 324.701,87.8789 C325.03,87.3629 325.382,87.1049 325.759,87.1049 C326.096,87.1049 326.398,87.2319 326.663,87.4879 C326.929,87.7439 327.062,88.0409 327.062,88.3779 C327.062,89.4499 326.198,90.3719 324.47,91.1439 C322.993,91.7999 321.555,92.1279 320.156,92.1279" id="Fill-21" fill="#323D92"></path>
            <path d="M340.9036,80.7626 C340.8356,81.9696 340.3526,82.5726 339.4556,82.5726 C338.6256,82.5726 338.2106,82.0946 338.2106,81.1386 C338.2106,80.9556 338.1956,80.6176 338.1676,80.1256 L338.1236,78.9086 C336.5976,79.0926 335.3776,79.5226 334.4606,80.1976 C333.6006,80.8246 332.8866,81.7716 332.3176,83.0356 L332.3456,90.9706 C332.3456,91.9446 331.8686,92.4326 330.9136,92.4326 C330.0636,92.4326 329.6386,91.9446 329.6386,90.9706 L329.6386,80.8056 C329.6386,80.4876 329.6506,80.0096 329.6746,79.3726 C329.6986,78.7356 329.7116,78.2576 329.7116,77.9386 C329.7116,76.9646 330.1356,76.4766 330.9856,76.4766 C331.9306,76.4766 332.4096,77.2786 332.4196,78.8806 C334.2716,77.0946 336.3286,76.2016 338.5876,76.2016 C339.3686,76.2016 339.9526,76.4956 340.3396,77.0846 C340.7246,77.6736 340.9186,78.5616 340.9186,79.7486 C340.9186,80.2506 340.9126,80.5886 340.9036,80.7626" id="Fill-23" fill="#323D92"></path>
            <path d="M350.5609,90.7094 C350.5319,91.5974 350.0919,92.0414 349.2439,92.0414 C348.5389,92.0414 348.0269,91.6264 347.7079,90.7964 L345.4939,84.9174 L342.9149,78.2714 C342.8199,78.0214 342.7709,77.7994 342.7709,77.6054 C342.7709,77.2104 342.9199,76.8724 343.2199,76.5924 C343.5189,76.3134 343.8669,76.1724 344.2619,76.1724 C344.8409,76.1724 345.2559,76.4674 345.5069,77.0564 L349.1849,87.1764 C349.9099,85.6324 350.8219,83.3934 351.9209,80.4584 C352.1819,79.6864 352.5919,78.5954 353.1529,77.1864 C353.4519,76.5684 353.8759,76.2594 354.4259,76.2594 C354.8229,76.2594 355.1689,76.3994 355.4689,76.6794 C355.7679,76.9594 355.9179,77.2924 355.9179,77.6784 C355.9179,78.0454 355.1219,80.1104 353.5289,83.8754 L350.5609,90.7094 Z" id="Fill-25" fill="#323D92"></path>
            <path d="M361.0726,73.1323 C360.6086,73.1323 360.2086,72.9683 359.8706,72.6393 C359.5326,72.3123 359.3636,71.9163 359.3636,71.4523 C359.3636,70.9893 359.5326,70.5933 359.8706,70.2653 C360.2086,69.9373 360.6086,69.7733 361.0726,69.7733 C361.5356,69.7733 361.9336,69.9373 362.2666,70.2653 C362.5996,70.5933 362.7656,70.9893 362.7656,71.4523 C362.7656,71.9163 362.5996,72.3123 362.2666,72.6393 C361.9336,72.9683 361.5356,73.1323 361.0726,73.1323 M361.7236,84.8893 C361.7236,85.4683 361.7406,86.3343 361.7746,87.4873 C361.8076,88.6413 361.8256,89.5073 361.8256,90.0873 C361.8256,90.5113 361.6946,90.8593 361.4336,91.1293 C361.1736,91.4003 360.8316,91.5343 360.4066,91.5343 C359.9916,91.5343 359.6506,91.4003 359.3856,91.1293 C359.1196,90.8593 358.9876,90.5113 358.9876,90.0873 C358.9876,89.5073 358.9696,88.6413 358.9366,87.4873 C358.9026,86.3343 358.8856,85.4683 358.8856,84.8893 C358.8856,83.9823 358.9336,82.8503 359.0306,81.4933 C359.1276,80.1373 359.1756,79.0063 359.1756,78.0983 C359.1756,77.6643 359.3076,77.3123 359.5736,77.0413 C359.8396,76.7713 360.1786,76.6363 360.5936,76.6363 C361.0096,76.6363 361.3496,76.7713 361.6156,77.0413 C361.8806,77.3123 362.0126,77.6643 362.0126,78.0983 C362.0126,79.0063 361.9656,80.1373 361.8686,81.4933 C361.7716,82.8503 361.7236,83.9823 361.7236,84.8893" id="Fill-27" fill="#323D92"></path>
            <path d="M373.1614,92.3745 C371.1824,92.3745 369.5324,91.7755 368.2104,90.5795 C366.8194,89.3245 366.1254,87.6685 366.1254,85.6125 C366.1254,83.6535 366.7764,81.6315 368.0794,79.5465 C369.5274,77.2295 371.1584,76.0715 372.9744,76.0715 C373.9194,76.0715 374.9764,76.2935 376.1444,76.7375 C377.6214,77.3075 378.3594,78.0015 378.3594,78.8225 C378.3594,79.1895 378.2384,79.5155 377.9974,79.7995 C377.7564,80.0845 377.4574,80.2275 377.0994,80.2275 C376.8194,80.2275 376.5764,80.1425 376.3684,79.9735 C376.1614,79.8045 375.9614,79.6385 375.7674,79.4745 C375.1984,79.0205 374.2664,78.7935 372.9744,78.7935 C371.9884,78.7935 371.0144,79.6715 370.0494,81.4285 C369.1704,83.0405 368.7314,84.4355 368.7314,85.6125 C368.7314,86.8875 369.1654,87.8915 370.0344,88.6245 C370.8454,89.3105 371.8884,89.6525 373.1614,89.6525 C373.7404,89.6525 374.3584,89.4985 375.0154,89.1895 L376.6944,88.2915 C376.9844,88.1375 377.1914,88.0605 377.3174,88.0605 C377.6744,88.0605 377.9834,88.2025 378.2434,88.4865 C378.5044,88.7715 378.6354,89.0975 378.6354,89.4645 C378.6354,90.1685 377.8904,90.8495 376.4044,91.5055 C375.1014,92.0845 374.0204,92.3745 373.1614,92.3745" id="Fill-29" fill="#323D92"></path>
            <path d="M388.22,78.9379 C387.042,78.9379 386.063,79.3939 385.282,80.3069 C384.499,81.2189 383.915,82.5919 383.53,84.4259 L387.974,82.3119 C389.721,81.4619 390.966,80.7239 391.71,80.0969 C390.879,79.3239 389.716,78.9379 388.22,78.9379 M388.612,92.1279 C386.43,92.1279 384.663,91.5829 383.312,90.4919 C381.835,89.2859 381.097,87.5969 381.097,85.4249 C381.097,82.9149 381.705,80.8109 382.921,79.1119 C384.243,77.2589 386.01,76.3319 388.22,76.3319 C389.823,76.3319 391.131,76.6029 392.144,77.1429 C393.389,77.8089 394.012,78.8319 394.012,80.2119 C394.012,81.1779 393.466,82.0559 392.376,82.8479 C391.893,83.1949 390.87,83.7359 389.306,84.4689 L383.776,87.0899 C384.316,87.8909 384.99,88.4939 385.795,88.8989 C386.601,89.3049 387.54,89.5079 388.612,89.5079 C389.278,89.5079 390.059,89.3819 390.957,89.1309 C392.096,88.8129 392.829,88.3959 393.157,87.8789 C393.486,87.3629 393.838,87.1049 394.215,87.1049 C394.552,87.1049 394.854,87.2319 395.119,87.4879 C395.385,87.7439 395.518,88.0409 395.518,88.3779 C395.518,89.4499 394.654,90.3719 392.926,91.1439 C391.449,91.7999 390.011,92.1279 388.612,92.1279" id="Fill-31" fill="#323D92"></path>
            <path d="M407.8685,80.3134 C407.3375,80.3134 406.9655,80.1354 406.7535,79.7774 C406.6085,79.5264 406.4825,79.0054 406.3775,78.2144 C405.6525,78.3974 404.5385,78.7354 403.0325,79.2274 C401.4775,79.8454 400.6965,80.6084 400.6865,81.5154 C400.9755,81.6214 401.2615,81.6984 401.5415,81.7474 C403.7615,82.1434 405.4115,82.6884 406.4925,83.3834 C408.0655,84.3964 408.8525,85.8644 408.8525,87.7844 C408.8525,89.3584 408.1725,90.5454 406.8105,91.3464 C405.6815,92.0024 404.2535,92.3314 402.5255,92.3314 C401.2615,92.3314 400.0545,92.1184 398.9055,91.6934 C397.4195,91.1534 396.6765,90.4004 396.6765,89.4354 C396.6765,89.0494 396.8285,88.7114 397.1325,88.4214 C397.4355,88.1324 397.7815,87.9874 398.1675,87.9874 C398.4665,87.9874 398.8525,88.2194 399.3255,88.6824 C399.5565,88.9044 400.0785,89.0874 400.8895,89.2324 C401.5355,89.3484 402.0815,89.4064 402.5255,89.4064 C403.3365,89.4064 404.0505,89.3104 404.6685,89.1164 C405.5655,88.8364 406.0145,88.3934 406.0145,87.7844 C406.0145,86.4724 405.0975,85.5844 403.2645,85.1204 L401.7585,84.7874 C400.4735,84.5074 399.5615,84.1794 399.0215,83.8034 C398.2395,83.2624 397.8485,82.4474 397.8485,81.3554 C397.8485,79.3384 398.7995,77.9004 400.7015,77.0414 C401.2805,76.7804 402.2075,76.4694 403.4805,76.1074 C404.7555,75.7454 405.6675,75.4394 406.2175,75.1884 C406.6135,75.0144 407.0435,74.9274 407.5065,74.9274 C407.9215,74.9274 408.2615,75.0634 408.5265,75.3334 C408.7925,75.6034 408.9255,75.9554 408.9255,76.3904 C408.9255,76.6694 408.9855,77.0804 409.1055,77.6204 C409.2265,78.1614 409.2875,78.5714 409.2875,78.8514 C409.2875,79.2854 409.1545,79.6384 408.8895,79.9084 C408.6235,80.1784 408.2835,80.3134 407.8685,80.3134" id="Fill-33" fill="#323D92"></path>
            <path d="M221.2698,50.2758 C220.8878,53.1988 219.7098,54.0428 216.8738,53.4448 C212.8698,52.6008 209.0478,51.3378 205.3108,49.6758 C200.5568,47.5628 198.5198,43.9788 198.6488,38.8698 C198.8648,30.3178 204.1488,24.9438 212.5638,24.8738 C221.9058,24.7958 221.9058,24.7958 221.9058,34.1768 L221.9058,36.2828 C221.9388,40.9578 221.8788,45.6138 221.2698,50.2758 M226.0778,34.7658 C226.0778,25.7708 226.0808,16.7758 226.0708,7.7818 C226.0708,7.2008 226.0808,6.5838 225.8978,6.0478 C225.4648,4.7798 224.8328,3.6358 223.1868,3.8408 C221.6008,4.0388 221.0608,5.0998 221.0848,6.5508 C221.1108,8.0708 221.2828,9.5968 221.1978,11.1098 C221.0368,13.9898 222.7118,17.8808 220.7438,19.4618 C218.9408,20.9088 215.1648,20.1308 212.2808,19.9538 C204.0798,19.4498 198.7978,23.1558 195.6578,30.6018 C192.1838,38.8398 192.2058,50.4768 205.1828,55.1708 C208.9128,56.5198 212.6318,57.8128 216.5428,58.4838 C222.2948,59.4688 225.3178,57.0298 226.1278,51.2128 C226.8908,45.7378 226.7618,40.2548 226.0778,34.7658" id="Fill-35" fill="#323D92"></path>
            <g id="Group-39" transform="translate(275.000000, 0.710400)">
                <mask id="mask-2" fill="white">
                    <use xlink:href="#path-1"></use>
                </mask>
                <g id="Clip-38"></g>
                <path d="M16.4417,0.3149 C19.0167,0.3149 21.5917,0.3559 24.1657,0.2999 C26.0437,0.2599 27.6247,0.8779 27.6577,2.8639 C27.6887,4.7379 26.0927,5.2529 24.4047,5.2459 C19.6007,5.2259 14.7957,5.2739 9.9957,5.1619 C8.1827,5.1189 7.3337,5.3949 7.2847,7.5629 C7.1867,11.8789 6.7357,16.1919 6.2837,20.4909 C6.1647,21.6219 6.3377,22.3179 7.3807,22.7059 C13.1027,24.8349 18.8487,26.8539 25.0727,24.9419 C26.9787,24.3569 29.0757,23.8519 29.6607,26.3429 C30.2327,28.7799 28.0487,29.3729 26.1897,29.8409 C20.3187,31.3179 14.5677,30.6309 9.0177,28.4909 C6.1497,27.3849 5.3097,28.3279 5.4047,31.0649 C5.6177,37.1439 5.7877,43.2229 5.9807,49.3019 C6.0347,50.9709 6.2527,52.8729 3.8807,52.9659 C1.5247,53.0599 1.2717,51.3039 1.0617,49.3799 C-0.5313,34.7239 1.6307,20.1869 2.3807,5.6069 C2.5037,3.2299 5.7387,0.4219 8.3537,0.3349 C11.0467,0.2459 13.7457,0.3149 16.4417,0.3149" id="Fill-37" fill="#333E93" mask="url(#mask-2)"></path>
            </g>
            <path d="M359.7132,53.1201 C358.1342,53.3791 355.9392,52.5871 353.7992,51.6071 C352.3722,50.9531 350.8442,50.1001 351.5312,48.2361 C352.2602,46.2611 354.0882,46.2481 355.6722,47.0051 C360.0752,49.1111 364.3572,48.0621 368.6172,46.7031 C371.6922,45.7211 372.0332,44.5851 370.1712,41.8651 C368.4102,39.2921 365.7952,37.6751 363.2262,36.0471 C360.7392,34.4731 358.4062,32.7351 356.5142,30.4551 C352.1552,25.2081 354.6542,18.2971 361.4172,17.2791 C366.4512,16.5221 371.1122,18.1721 375.5812,20.2991 C376.8412,20.8981 377.4672,22.0271 376.7752,23.5081 C376.1002,24.9531 374.8482,25.2151 373.5382,24.8161 C371.3172,24.1401 369.1362,23.3121 366.9722,22.4631 C365.6002,21.9251 364.2042,22.0371 362.8142,22.1141 C361.3052,22.1991 360.1222,23.0241 359.4142,24.3031 C358.5942,25.7851 359.9222,26.6911 360.6812,27.6161 C362.7212,30.1021 365.5862,31.5611 368.1902,33.3331 C371.7412,35.7511 374.6872,38.5701 376.0442,42.8611 C377.1262,46.2831 375.9592,48.5981 373.0532,50.1731 C369.1762,52.2731 364.9222,52.9431 359.7132,53.1201" id="Fill-40" fill="#323D92"></path>
            <path d="M140.9681,25.0634 C140.7881,23.3754 142.1011,21.9914 143.4221,20.6624 C146.8331,17.2284 151.0711,14.9094 155.0311,12.2234 C158.0351,10.1854 161.0921,8.2424 163.3861,5.3404 C164.5471,3.8734 166.0561,2.5924 167.7851,4.2274 C169.4701,5.8204 168.2501,7.4304 167.0611,8.8164 C164.7561,11.5054 162.0091,13.6754 159.0471,15.5884 C155.1201,18.1234 151.1831,20.6364 147.5551,23.6074 C145.9071,24.9574 145.5921,26.1144 147.5571,27.3444 C157.7401,33.7164 164.5331,43.7164 173.3941,51.5054 C174.5961,52.5614 175.5051,53.9504 174.2451,55.4714 C172.8401,57.1674 171.3001,56.4544 170.0261,55.1894 C166.4551,51.6434 162.9121,48.0684 159.4061,44.4594 C154.9211,39.8424 150.5201,35.1644 145.0221,31.6584 C142.8631,30.2814 140.9521,28.4534 140.9681,25.0634" id="Fill-42" fill="#323D92"></path>
            <path d="M242.0735,57.2871 C240.0635,57.6531 237.7565,56.8081 235.5175,55.7721 C234.1025,55.1181 232.6185,54.2251 233.3955,52.3431 C234.1185,50.5951 235.8325,50.4401 237.2885,51.1471 C241.7965,53.3361 246.1475,52.1621 250.5785,50.9471 C253.4655,50.1541 253.5955,48.6361 252.2065,46.3831 C250.8705,44.2191 248.8815,42.8081 246.8335,41.4371 C243.8255,39.4241 240.6415,37.6191 238.3745,34.6901 C236.6205,32.4241 235.1245,30.0631 236.4705,27.0051 C237.9135,23.7281 240.4355,21.8201 243.9515,21.4411 C248.5055,20.9511 252.7145,22.3731 256.7855,24.2201 C258.3235,24.9171 259.3115,26.1221 258.4645,27.8611 C257.6005,29.6301 256.0765,29.3461 254.5505,28.7271 C251.7485,27.5911 248.9825,26.3601 245.8665,26.2621 C243.7965,26.1961 241.9825,26.8471 241.1935,28.6961 C240.4975,30.3291 242.1385,31.4251 243.1225,32.4901 C245.1285,34.6601 247.7645,36.0201 250.1895,37.6411 C253.2605,39.6941 255.8615,42.1411 257.3595,45.6051 C259.2775,50.0391 258.2465,53.0601 253.8415,54.9631 C250.2905,56.4971 246.5185,57.2841 242.0735,57.2871" id="Fill-44" fill="#323D92"></path>
            <path d="M331.0521,23.4833 C332.6871,23.3273 333.0631,22.3383 333.7021,21.7123 C338.3481,17.1543 345.2261,17.6553 349.0181,22.8603 C349.7481,23.8633 350.2251,24.8773 349.2431,26.0203 C348.2271,27.2043 347.0891,27.2813 345.8231,26.4723 C345.6261,26.3463 345.4391,26.2063 345.2461,26.0733 C339.7721,22.3063 338.8391,22.4743 335.4531,27.9983 C334.9541,28.8143 334.4481,30.0123 333.6221,29.9693 C330.0131,29.7823 330.9551,32.2803 330.8971,34.2223 C330.6561,42.0883 331.8281,49.8243 333.0871,57.5483 C333.3661,59.2613 333.6371,60.9913 331.4471,61.4813 C329.1861,61.9873 328.6041,60.1233 328.3151,58.5423 C325.9921,45.8313 325.2481,33.0373 326.5581,20.1533 C326.7421,18.3373 326.9641,16.1893 329.3581,16.6403 C331.5761,17.0573 332.0601,18.8683 331.0971,21.0253 C330.8061,21.6783 331.0521,22.5703 331.0521,23.4833" id="Fill-46" fill="#323D92"></path>
            <path d="M395.888,17.7529 C398.168,17.7529 400.38,17.7749 402.592,17.7449 C404.085,17.7249 405.155,18.3779 405.353,19.8359 C405.564,21.3829 404.406,22.1059 403.1,22.4829 C402.436,22.6759 401.718,22.7089 401.02,22.7539 C395.282,23.1229 395.253,23.1169 395.017,28.9709 C394.795,34.4759 395.195,39.9499 396.551,45.2889 C397.444,48.7999 398.567,49.1819 401.613,47.3689 C403.061,46.5059 404.48,46.0719 405.638,47.5239 C406.915,49.1269 405.748,50.3639 404.58,51.3999 C399.869,55.5769 394.326,54.0779 392.226,47.8779 C389.985,41.2629 389.869,34.3419 390.128,27.4559 C390.228,24.8279 390.237,22.8669 386.873,22.8709 C385.212,22.8729 384.299,21.5829 384.033,20.1959 C383.762,18.7939 384.876,17.9079 386.052,17.2309 C387.866,16.1859 389.605,15.0039 391.46,14.0459 C392.743,13.3849 394.081,12.3629 395.64,13.6679 C397.185,14.9609 396.354,16.3539 395.888,17.7529" id="Fill-48" fill="#333E93"></path>
            <path d="M133.9832,33.6782 C133.9832,26.3052 134.0232,18.9322 133.9562,11.5592 C133.9392,9.6262 134.1412,7.7002 136.4062,7.7052 C138.6662,7.7092 138.8892,9.6982 138.8862,11.5822 C138.8672,26.2122 138.8762,40.8422 138.8732,55.4712 C138.8732,55.9402 138.9112,56.4212 138.8202,56.8732 C138.5262,58.3402 137.9702,59.5662 136.1322,59.4482 C134.2282,59.3252 133.9602,58.0562 133.9632,56.5012 C133.9822,48.8932 133.9722,41.2852 133.9722,33.6782 L133.9832,33.6782 Z" id="Fill-50" fill="#333E93"></path>
            <path d="M308.4935,51.6201 C309.1785,42.6571 309.8595,33.6931 310.5515,24.7301 C310.6735,23.1571 311.3475,21.9181 313.1055,22.0661 C315.0115,22.2261 315.5445,23.6171 315.4255,25.3491 C314.8575,33.6251 314.2915,41.9001 313.7285,50.1761 C313.6335,51.5731 313.5075,52.9691 313.4845,54.3671 C313.4605,55.9121 313.1745,57.2261 311.2955,57.3281 C309.2905,57.4351 308.6535,56.1821 308.6075,54.4381 C308.5835,53.5021 308.6035,52.5651 308.6035,51.6281 C308.5665,51.6251 308.5305,51.6221 308.4935,51.6201" id="Fill-52" fill="#333E93"></path>
            <path d="M178.8533,48.5473 C179.3743,40.9463 179.8853,33.2633 180.4413,25.5833 C180.5743,23.7563 180.9523,21.8673 183.3833,22.0973 C185.7413,22.3203 185.4053,24.2313 185.3343,25.8673 C184.9273,35.3133 183.6703,44.7113 183.7143,54.1843 C183.7223,55.8503 183.2323,57.2583 181.2263,57.3143 C179.1023,57.3723 178.8173,55.9303 178.8463,54.2443 C178.8783,52.3763 178.8533,50.5073 178.8533,48.5473" id="Fill-54" fill="#333E93"></path>
            <path d="M184.5555,11.2856 C184.2705,12.6096 183.6955,13.6876 182.1075,13.7136 C180.5865,13.7376 179.7165,13.0096 179.6245,11.4306 C179.5295,9.7786 180.6525,9.0006 181.9425,8.9116 C183.3305,8.8166 184.2435,9.8276 184.5555,11.2856" id="Fill-56" fill="#3A4196"></path>
            <path d="M309.5784,11.3027 C309.6944,9.9127 310.3884,8.9017 311.8624,8.8467 C313.3294,8.7917 314.2654,9.7377 314.3444,11.1397 C314.4234,12.5727 313.5374,13.5287 312.0674,13.6067 C310.5624,13.6877 309.7834,12.7747 309.5784,11.3027" id="Fill-58" fill="#3A4196"></path>
            <g id="Group-62" transform="translate(0.000000, 70.710400)">
                <mask id="mask-4" fill="white">
                    <use xlink:href="#path-3"></use>
                </mask>
                <g id="Clip-61"></g>
                <path d="M118.8704,11.8291 C118.8704,17.9981 92.2604,23.0001 59.4354,23.0001 C26.6104,23.0001 -0.0006,17.9981 -0.0006,11.8291 C-0.0006,5.6601 26.6104,0.6591 59.4354,0.6591 C92.2604,0.6591 118.8704,5.6601 118.8704,11.8291" id="Fill-60" fill="#323D92" mask="url(#mask-4)"></path>
            </g>
            <path d="M8.0301,27.8427 C13.1621,25.2387 18.8691,25.4307 24.3451,24.5337 C28.6161,23.8347 32.9001,23.2497 37.0121,21.8267 C41.7611,20.1827 45.8341,17.5247 49.2051,13.7837 C51.6501,11.0717 54.0901,8.3477 56.9471,6.0507 C57.7791,5.3807 58.7251,4.2077 59.7821,4.8607 C60.9221,5.5647 60.0921,6.8367 59.7821,7.8517 C58.8871,10.7857 57.6231,13.5807 56.0951,16.2147 C49.0901,28.2867 48.6421,40.7717 53.3851,53.6947 C55.1341,58.4627 57.0761,63.1927 57.8001,68.2737 C58.0441,69.9897 58.8751,72.4577 57.2741,73.1927 C55.4081,74.0487 54.3741,71.5657 53.4441,70.1907 C51.2571,66.9617 49.3341,63.5557 47.2751,60.2397 C46.6051,59.1607 45.9031,57.8167 44.5161,57.8417 C42.9261,57.8697 42.3531,59.4367 41.9311,60.6677 C40.3201,65.3707 38.1771,69.7497 34.8841,73.5247 C33.8731,74.6827 32.8401,75.8217 31.5501,76.6467 C30.5091,77.3127 29.3381,78.2907 28.0661,77.3907 C26.8651,76.5417 27.1171,75.1737 27.3621,73.8837 C27.8091,71.5257 28.8131,69.3687 29.6961,67.1677 C32.4701,60.2507 33.5031,53.0747 32.4091,45.7117 C31.2701,38.0437 26.8751,33.8877 19.2241,32.6887 C16.8821,32.3217 14.5561,31.8447 12.2231,31.4127 C10.6071,31.1137 9.1991,30.3687 7.9151,29.3677 C7.9531,28.8597 7.9921,28.3507 8.0301,27.8427" id="Fill-63" fill="#CC359A"></path>
            <path d="M66.0301,78.0795 C66.6351,75.4385 67.1911,72.7865 67.8551,70.1605 C70.2771,60.5845 68.0621,52.0585 62.0871,44.3715 C60.1131,41.8315 57.8631,39.4855 56.3951,36.5875 C55.8071,35.4265 54.6981,34.0405 55.8421,32.8625 C56.8291,31.8455 58.2261,32.6785 59.3961,33.1355 C62.8161,34.4715 65.8331,36.5475 68.9111,38.4765 C73.5851,41.4065 78.1771,41.6275 83.0701,39.0085 C86.4971,37.1735 89.9781,35.3825 93.7351,34.2575 C94.6121,33.9955 95.6811,33.4915 96.3701,34.2775 C97.1791,35.2025 96.4601,36.2485 95.8891,37.0535 C94.3221,39.2635 92.6741,41.4165 91.0291,43.5715 C89.6851,45.3335 88.4491,47.1695 87.7571,49.2825 C86.2671,53.8295 88.3121,58.3545 92.7151,60.5425 C95.1711,61.7645 97.9411,61.9945 100.4371,63.0295 C102.2371,63.7755 104.9681,64.2365 104.6831,66.6855 C104.4221,68.9335 101.7411,68.8855 99.8971,69.2375 C95.3721,70.1025 90.7781,69.9115 86.2051,69.8065 C83.1271,69.7355 80.7991,70.9185 79.0841,73.4325 C77.1751,76.2325 75.3381,79.0865 73.3011,81.7905 C72.1251,83.3525 70.8821,85.5895 68.4591,84.5705 C66.0971,83.5765 65.9861,81.1575 66.1151,78.8725 C66.1301,78.6195 66.1531,78.3655 66.1721,78.1115 L66.0301,78.0795 Z" id="Fill-65" fill="#109AB7"></path>
            <path d="M46.4207,6.7861 C45.9977,12.8341 39.2377,19.6481 33.1757,20.1381 C29.8047,20.4101 26.5907,17.9401 25.9817,14.6081 C25.3657,11.2421 27.1207,8.6681 30.8957,7.7761 C33.2807,7.2121 35.7477,6.9991 38.1667,6.5611 C40.5757,6.1251 42.7987,5.2651 43.9777,2.9151 C44.8167,1.2401 45.3077,2.1991 45.7677,3.0751 C46.3727,4.2261 46.5317,5.4911 46.4207,6.7861" id="Fill-67" fill="#CC369A"></path>
            <path d="M70.1326,30.2734 C70.3016,27.1964 71.5536,24.7204 74.2066,23.0614 C76.3986,21.6904 78.7276,20.9734 81.1246,22.4474 C83.6806,24.0194 84.7846,26.5474 84.4306,29.3984 C83.9456,33.2964 81.6996,36.1404 77.9956,37.5554 C73.3406,39.3334 69.6706,35.8764 70.1326,30.2734" id="Fill-69" fill="#109AB7"></path>
            <path d="M19.7532,15.1293 C18.3682,16.0243 16.5322,16.7773 15.3382,18.1053 C14.1622,19.4143 13.6382,21.3033 12.9202,22.7523 C12.0422,21.3723 11.3082,19.5313 9.9862,18.3373 C8.6782,17.1533 6.7772,16.6213 5.2762,15.8723 C6.6352,15.0183 8.4792,14.2993 9.6662,12.9893 C10.8702,11.6613 11.4252,9.7493 12.1732,8.2753 C13.0262,9.6133 13.7622,11.4443 15.0792,12.6423 C16.3842,13.8293 18.2752,14.3793 19.7532,15.1293" id="Fill-71" fill="#F39337"></path>
            <path d="M105.3465,16.6533 C103.9615,17.5493 102.1245,18.3023 100.9315,19.6303 C99.7555,20.9383 99.2305,22.8283 98.5135,24.2763 C97.6355,22.8963 96.9005,21.0563 95.5795,19.8613 C94.2715,18.6773 92.3705,18.1453 90.8695,17.3973 C92.2285,16.5423 94.0715,15.8233 95.2595,14.5133 C96.4635,13.1853 97.0185,11.2733 97.7655,9.7993 C98.6185,11.1373 99.3555,12.9683 100.6725,14.1663 C101.9775,15.3543 103.8675,15.9033 105.3465,16.6533" id="Fill-73" fill="#05AEED"></path>
            <path d="M69.3392,20.2324 C68.2532,20.5354 66.9012,20.6534 65.8512,21.2774 C64.8182,21.8924 64.0912,23.0194 63.3282,23.8184 C63.0352,22.7394 62.9302,21.3894 62.3112,20.3404 C61.6972,19.3014 60.5652,18.5674 59.7372,17.7734 C60.7972,17.4924 62.1482,17.3984 63.1892,16.7844 C64.2452,16.1624 64.9972,15.0264 65.7842,14.2164 C66.0692,15.2634 66.1772,16.6084 66.7932,17.6584 C67.4042,18.6994 68.5272,19.4414 69.3392,20.2324" id="Fill-75" fill="#DFDFDF"></path>
            <path d="M114.5818,40.809 C116.3528,45.339 114.1178,50.447 109.5868,52.218 C105.0578,53.99 99.9498,51.753 98.1788,47.224 C96.4068,42.694 98.6428,37.586 103.1728,35.814 C107.7028,34.043 112.8108,36.28 114.5818,40.809" id="Fill-77" fill="#922C90"></path>
            <path d="M108.0496,38.0605 C108.2126,38.5205 108.2976,38.9925 108.3196,39.4775 C108.3406,39.9505 108.2966,40.4175 108.2126,40.8825 C108.1006,41.4945 107.9226,42.0875 107.6746,42.6595 C107.5176,43.0245 107.3346,43.3795 107.1646,43.7395 C107.1536,43.7595 107.1466,43.7815 107.1326,43.8125 C107.1896,43.8325 107.2416,43.8505 107.2936,43.8695 C107.8436,44.0675 108.3806,44.2955 108.8936,44.5735 C109.6156,44.9655 110.2796,45.4355 110.8416,46.0325 C111.2476,46.4645 111.5806,46.9475 111.7996,47.4995 C111.8576,47.6465 111.8436,47.7815 111.7336,47.8995 C111.6306,48.0105 111.5026,48.0365 111.3596,47.9935 C111.2586,47.9625 111.1766,47.9025 111.1386,47.8045 C110.9866,47.4175 110.7766,47.0635 110.5016,46.7545 C110.2686,46.4915 110.0116,46.2445 109.7466,46.0125 C109.4086,45.7175 109.0256,45.4785 108.6326,45.2605 C108.2126,45.0285 107.7786,44.8235 107.3266,44.6575 C107.1406,44.5895 106.9556,44.5205 106.7586,44.4475 C106.6556,44.6505 106.5486,44.8385 106.4626,45.0365 C106.2866,45.4425 106.1046,45.8465 105.9596,46.2635 C105.7496,46.8645 105.6186,47.4845 105.5926,48.1235 C105.5706,48.7025 105.6356,49.2675 105.8456,49.8125 C105.9206,50.0075 105.8276,50.2115 105.6416,50.2835 C105.4486,50.3565 105.2436,50.2655 105.1646,50.0635 C105.0386,49.7435 104.9526,49.4135 104.9046,49.0725 C104.8186,48.4605 104.8456,47.8535 104.9496,47.2485 C105.0606,46.5935 105.2486,45.9605 105.5136,45.3515 C105.6686,44.9975 105.8446,44.6525 106.0106,44.3035 C106.0206,44.2825 106.0326,44.2625 106.0506,44.2285 C105.9466,44.1905 105.8506,44.1575 105.7556,44.1215 C105.1836,43.9075 104.6266,43.6605 104.0966,43.3565 C103.5886,43.0665 103.1106,42.7365 102.6816,42.3435 C102.1246,41.8335 101.6706,41.2505 101.3826,40.5515 C101.3056,40.3615 101.3536,40.2095 101.4986,40.0775 C101.5496,40.0585 101.5986,40.0395 101.6486,40.0195 C101.8346,40.0245 101.9826,40.0845 102.0566,40.2695 C102.3136,40.9065 102.7386,41.4235 103.2496,41.8755 C103.7356,42.3065 104.2796,42.6575 104.8646,42.9425 C105.2236,43.1175 105.5936,43.2685 105.9626,43.4245 C106.1086,43.4865 106.2626,43.5305 106.4116,43.5825 C106.4306,43.5525 106.4446,43.5345 106.4546,43.5135 C106.6416,43.1185 106.8416,42.7295 107.0126,42.3295 C107.2666,41.7345 107.4396,41.1155 107.5306,40.4755 C107.6386,39.7055 107.6096,38.9485 107.3296,38.2115 C107.3056,38.1475 107.3016,38.0625 107.3236,37.9985 C107.3516,37.9205 107.4146,37.8535 107.4626,37.7815 L107.6126,37.7245 C107.8486,37.7225 107.9746,37.8465 108.0496,38.0605" id="Fill-79" fill="#F4F5F9"></path>
            <path d="M108.3885,48.4858 C107.8785,48.6648 107.3675,48.8438 106.8575,49.0218 C106.6985,49.0768 106.5605,49.0508 106.4625,48.9488 C106.3225,48.8038 106.3665,48.5898 106.5575,48.4958 C106.5805,48.4848 106.6055,48.4758 106.6305,48.4668 C107.6415,48.1128 108.6525,47.7578 109.6635,47.4048 C109.8495,47.3398 110.0035,47.3738 110.0975,47.4998 C110.2135,47.6538 110.1495,47.8578 109.9565,47.9338 C109.8395,47.9808 109.7185,48.0198 109.5985,48.0618 C109.1955,48.2028 108.7925,48.3438 108.3885,48.4858" id="Fill-81" fill="#F4F5F9"></path>
            <path d="M107.5418,47.2856 C107.1728,47.4436 106.8038,47.6016 106.4338,47.7586 C106.2338,47.8436 106.0498,47.7616 105.9808,47.5616 C105.9288,47.4076 105.9798,47.2386 106.1068,47.1516 C106.1398,47.1286 106.1748,47.1086 106.2108,47.0936 C106.9448,46.7786 107.6788,46.4656 108.4128,46.1526 C108.5388,46.0986 108.6618,46.0916 108.7748,46.1906 C108.9458,46.3386 108.9368,46.6166 108.7538,46.7536 C108.7178,46.7806 108.6758,46.8006 108.6348,46.8186 C108.2708,46.9746 107.9068,47.1296 107.5418,47.2856" id="Fill-83" fill="#F4F5F9"></path>
            <path d="M105.034,39.6767 C104.523,39.8557 104.013,40.0337 103.503,40.2117 C103.346,40.2667 103.212,40.2437 103.113,40.1477 C102.964,40.0017 103.009,39.7757 103.205,39.6847 C103.229,39.6747 103.254,39.6647 103.279,39.6557 C104.289,39.3027 105.3,38.9497 106.31,38.5957 C106.44,38.5497 106.566,38.5457 106.68,38.6307 C106.867,38.7697 106.829,39.0307 106.608,39.1237 C106.577,39.1367 106.544,39.1477 106.512,39.1587 C106.019,39.3317 105.527,39.5047 105.034,39.6767" id="Fill-85" fill="#F4F5F9"></path>
            <path d="M105.4476,41.4072 C105.0726,41.5672 104.6986,41.7282 104.3236,41.8862 C104.1246,41.9702 103.9486,41.8882 103.8816,41.6862 C103.8286,41.5272 103.8926,41.3482 104.0336,41.2612 C104.0536,41.2492 104.0756,41.2382 104.0976,41.2292 C105.8026,40.4992 104.3646,41.1152 106.3316,40.2752 C106.4396,40.2292 106.5446,40.2252 106.6476,40.2942 C106.7516,40.3652 106.8036,40.4682 106.7996,40.6012 C106.7936,40.7372 106.7366,40.8432 106.6216,40.9012 C106.5436,40.9412 106.4626,40.9732 106.3826,41.0082 C106.0706,41.1412 105.7596,41.2742 105.4476,41.4072" id="Fill-87" fill="#F4F5F9"></path>
            <path d="M28.2977,55.6313 C27.4907,62.7163 21.0927,67.8063 14.0067,66.9993 C6.9217,66.1923 1.8317,59.7933 2.6397,52.7083 C3.4467,45.6233 9.8447,40.5333 16.9297,41.3403 C24.0157,42.1483 29.1047,48.5463 28.2977,55.6313" id="Fill-89" fill="#BF2332"></path>
            <path d="M21.7132,47.5932 C21.6082,48.3012 21.3962,48.9702 21.0912,49.6142 C20.7952,50.2412 20.4182,50.8182 19.9902,51.3622 C19.4262,52.0782 18.7882,52.7262 18.0772,53.2982 C17.6232,53.6632 17.1422,53.9982 16.6742,54.3472 C16.6472,54.3672 16.6232,54.3902 16.5842,54.4212 C16.6442,54.4862 16.6992,54.5452 16.7542,54.6052 C17.3312,55.2392 17.8702,55.9032 18.3442,56.6142 C19.0132,57.6162 19.5512,58.6802 19.8712,59.8392 C20.1012,60.6772 20.2012,61.5322 20.1072,62.3982 C20.0812,62.6282 19.9722,62.7932 19.7472,62.8712 C19.5372,62.9432 19.3542,62.8902 19.1982,62.7362 C19.0882,62.6272 19.0252,62.4932 19.0412,62.3392 C19.1092,61.7352 19.0792,61.1312 18.9352,60.5422 C18.8132,60.0412 18.6502,59.5462 18.4642,59.0642 C18.2292,58.4492 17.8962,57.8782 17.5352,57.3252 C17.1502,56.7372 16.7272,56.1742 16.2552,55.6492 C16.0622,55.4342 15.8692,55.2182 15.6632,54.9882 C15.3922,55.1802 15.1232,55.3512 14.8762,55.5492 C14.3712,55.9542 13.8582,56.3532 13.3832,56.7942 C12.6992,57.4292 12.1052,58.1442 11.6342,58.9552 C11.2092,59.6902 10.9052,60.4672 10.8042,61.3172 C10.7682,61.6202 10.5072,61.8222 10.2172,61.7872 C9.9172,61.7512 9.7132,61.4912 9.7492,61.1762 C9.8052,60.6742 9.9202,60.1872 10.0912,59.7122 C10.3992,58.8612 10.8512,58.0932 11.4002,57.3782 C11.9932,56.6072 12.6702,55.9142 13.4312,55.3072 C13.8742,54.9542 14.3382,54.6282 14.7932,54.2892 C14.8202,54.2682 14.8502,54.2502 14.8952,54.2192 C14.7872,54.0992 14.6862,53.9892 14.5872,53.8782 C13.9922,53.2082 13.4402,52.5072 12.9602,51.7502 C12.5012,51.0262 12.1072,50.2712 11.8202,49.4672 C11.4472,48.4262 11.2572,47.3582 11.3652,46.2542 C11.3952,45.9562 11.5602,45.7922 11.8402,45.7192 C11.9182,45.7292 11.9962,45.7382 12.0732,45.7472 C12.3102,45.8812 12.4612,46.0612 12.4312,46.3512 C12.3272,47.3522 12.5252,48.3142 12.8772,49.2512 C13.2122,50.1412 13.6772,50.9692 14.2402,51.7392 C14.5852,52.2112 14.9622,52.6622 15.3332,53.1162 C15.4802,53.2962 15.6492,53.4592 15.8072,53.6292 C15.8512,53.6032 15.8822,53.5892 15.9102,53.5682 C16.4222,53.1852 16.9472,52.8182 17.4442,52.4152 C18.1802,51.8192 18.8292,51.1352 19.3852,50.3672 C20.0542,49.4442 20.5342,48.4422 20.6762,47.2962 C20.6882,47.1972 20.7422,47.0842 20.8142,47.0162 C20.9032,46.9332 21.0312,46.8902 21.1432,46.8302 C21.2212,46.8392 21.2982,46.8482 21.3762,46.8572 C21.6842,47.0172 21.7622,47.2642 21.7132,47.5932" id="Fill-91" fill="#F4F5F9"></path>
            <path d="M15.0101,61.3393 C14.2261,61.2213 13.4421,61.1043 12.6571,60.9853 C12.4131,60.9473 12.2531,60.8183 12.1961,60.6203 C12.1131,60.3353 12.3181,60.0883 12.6291,60.0983 C12.6671,60.0993 12.7051,60.1053 12.7441,60.1103 C14.2971,60.3443 15.8501,60.5773 17.4041,60.8113 C17.6891,60.8543 17.8651,61.0043 17.9011,61.2333 C17.9451,61.5103 17.7221,61.7313 17.4211,61.6983 C17.2371,61.6783 17.0531,61.6463 16.8691,61.6183 C16.2501,61.5253 15.6301,61.4323 15.0101,61.3393" id="Fill-93" fill="#F4F5F9"></path>
            <path d="M14.7347,59.2036 C14.1487,59.1556 13.5607,59.1076 12.9737,59.0576 C12.6567,59.0296 12.4747,58.7986 12.5227,58.4926 C12.5597,58.2566 12.7407,58.0726 12.9667,58.0466 C13.0257,58.0396 13.0837,58.0376 13.1417,58.0426 C14.3077,58.1376 15.4747,58.2346 16.6407,58.3316 C16.8397,58.3486 17.0037,58.4236 17.0827,58.6286 C17.2027,58.9376 17.0007,59.2906 16.6707,59.3446 C16.6047,59.3546 16.5377,59.3516 16.4717,59.3466 C15.8927,59.2996 15.3137,59.2516 14.7347,59.2036" id="Fill-95" fill="#F4F5F9"></path>
            <path d="M16.6966,47.622 C15.9126,47.504 15.1296,47.386 14.3456,47.267 C14.1036,47.231 13.9466,47.109 13.8836,46.916 C13.7896,46.625 14.0036,46.363 14.3206,46.38 C14.3586,46.382 14.3976,46.388 14.4356,46.393 C15.9876,46.627 17.5386,46.862 19.0906,47.095 C19.2916,47.124 19.4576,47.205 19.5466,47.393 C19.6946,47.702 19.4666,48.014 19.1156,47.984 C19.0666,47.979 19.0166,47.972 18.9666,47.964 C18.2096,47.85 17.4536,47.736 16.6966,47.622" id="Fill-97" fill="#F4F5F9"></path>
            <path d="M16.0477,50.1489 C15.4517,50.0989 14.8567,50.0519 14.2617,49.9999 C13.9457,49.9719 13.7757,49.7459 13.8267,49.4379 C13.8667,49.1949 14.0717,49.0069 14.3147,48.9909 C14.3497,48.9889 14.3847,48.9889 14.4197,48.9929 C17.1297,49.2159 14.8427,49.0279 17.9687,49.2859 C18.1397,49.3009 18.2797,49.3679 18.3647,49.5279 C18.4507,49.6909 18.4487,49.8609 18.3517,50.0309 C18.2517,50.2019 18.1047,50.2989 17.9157,50.2969 C17.7867,50.2959 17.6597,50.2819 17.5327,50.2719 C17.0377,50.2309 16.5427,50.1899 16.0477,50.1489" id="Fill-99" fill="#F4F5F9"></path>
        </g>
    </g>
</svg>