<svg id="_7c_H" data-name="7c H" xmlns="http://www.w3.org/2000/svg" viewBox="0 0 650 240.73"><defs><style>.cls-1,.cls-16{fill:#f6921e;}.cls-2{fill:#fd9d6f;}.cls-3{fill:#b86966;}.cls-11,.cls-4{fill:#fff;}.cls-4{opacity:0.38;}.cls-5{fill:#fb5c0f;}.cls-6{fill:#882d00;}.cls-10,.cls-7{fill:#c39;}.cls-8{fill:#dfdfdf;}.cls-9{fill:#0d99b7;}.cls-10,.cls-13,.cls-14,.cls-15,.cls-16,.cls-9{fill-rule:evenodd;}.cls-12,.cls-17{fill:#2b388f;stroke:#2e3191;}.cls-12{stroke-width:0.81px;}.cls-13{fill:#90278e;}.cls-14{fill:#00adee;}.cls-15{fill:#be1e2d;}</style></defs><title>portal</title><path class="cls-1" d="M355.77,34.64a21.4,21.4,0,0,1,4.29-2.59,15.79,15.79,0,0,1,4.9-1.28,35.16,35.16,0,0,1-3.89.17,15.84,15.84,0,0,0-6.71,1.33A23,23,0,0,0,348.71,36a17.3,17.3,0,0,0-5-4.89,13.81,13.81,0,0,0-8.62-1.82A35.48,35.48,0,0,0,329,30.36a14.87,14.87,0,0,0-4.87,2.31c-.33.23-.64.49-.94.74s-.53.5-.77.76a12.46,12.46,0,0,0-1.27,1.59,14.68,14.68,0,0,0-2.28,6.79,24.67,24.67,0,0,0-6.78-.28,20.55,20.55,0,0,0-3.08.55,16.43,16.43,0,0,0-2.74,1l-.33.14h0l-.44.18a14.78,14.78,0,0,1-2.14.66h0l-.36.08a14,14,0,0,0-4.78,2c-1.53.94-3.16,2.11-4.92,3.33a23.24,23.24,0,0,0-3.44-5.33,13.84,13.84,0,0,0-6.76-3.92l.07,0c-.9-.24-1.84-.47-2.79-.68L278.93,40l-1.39-.23h-.07a14.85,14.85,0,0,0-8.37,1,15.93,15.93,0,0,0-5.68,4.38A15.09,15.09,0,0,0,257,41.53a14.75,14.75,0,0,0-9,.75,54.5,54.5,0,0,0-5.25,2.39,14.44,14.44,0,0,0-6.2,5.82,17.49,17.49,0,0,0-2,6.7,20.49,20.49,0,0,0-6.9-.22,14.35,14.35,0,0,0-3.47,1,14.71,14.71,0,0,0-1.72.88,15.3,15.3,0,0,0-1.51,1,30.55,30.55,0,0,1-3.09,2,7.76,7.76,0,0,0-2,1.41,6.53,6.53,0,0,0-1.06,1.58,13.17,13.17,0,0,1-1.19,1.9,10.41,10.41,0,0,1-2,1.93A52.94,52.94,0,0,0,210.3,63a22.35,22.35,0,0,0-4.74-6.7c-.21-.18-.43-.37-.68-.56a8.41,8.41,0,0,0-1.88-.8,3.21,3.21,0,0,0-1,.08l-.83.19c-.54.13-1.1.27-1.65.44-.28.08-.56.18-.84.29l-.42.17-.39.19-1.5.71-3,1.44a29,29,0,0,1-3.07,1.24,6,6,0,0,1-3.23-.25,7.58,7.58,0,0,0-3.33.05c-1.09.22-.19.91-1.1.24.87.72,0-.12,1.07.06s1.42.05,2.54.14c.52,0,1.94.59,2.46.56a7.32,7.32,0,0,1,1.86.51,6.31,6.31,0,0,1,1.95,1.29,7.19,7.19,0,0,1,1.26,2,8.79,8.79,0,0,1,.66,2.23c.06.36.09.79.16,1.2a11.06,11.06,0,0,0,.25,1.25,7.68,7.68,0,0,0,1.05,2.42c2.21,3.26,6.93,3.5,7,3.51a13.07,13.07,0,0,0,7-1,9.64,9.64,0,0,0,2.39,3,10.17,10.17,0,0,0,4,2,12.75,12.75,0,0,0,5.1.24,15.62,15.62,0,0,0,5.18-1.77,48.38,48.38,0,0,0,4.89-3.12,16.37,16.37,0,0,0,1.85-1.53,14.51,14.51,0,0,0,1.32-1.48,13.83,13.83,0,0,0,1.8-3.07,21.72,21.72,0,0,0,1.48-6.55,26.88,26.88,0,0,0,6.63.62A15.62,15.62,0,0,0,251,60.47c1.19-.61,2.37-1.15,3.56-1.62a14.68,14.68,0,0,0,5.19-3.37,44.93,44.93,0,0,0,4-4.88,35.63,35.63,0,0,0,4.72,4.23,14.42,14.42,0,0,0,6.09,2.47l-.33,0,1,.17.48.08.45.08c.6.12,1.21.26,1.84.42h0l.49.13-.25-.07a16.34,16.34,0,0,0,7.06.14,19.43,19.43,0,0,0,6.56-2.7A13.68,13.68,0,0,0,297.36,61a14.36,14.36,0,0,0,10.12,1.11,33.05,33.05,0,0,0,6.3-2.17,15.47,15.47,0,0,0,4.42-3,12.22,12.22,0,0,0,2.43-3.32A17.81,17.81,0,0,0,322.19,47a48.33,48.33,0,0,0,6.29,1c.5,0,1,0,1.46,0l1.35,0a11.38,11.38,0,0,0,2.51-.4,18.5,18.5,0,0,1,3.07-.53,15.38,15.38,0,0,0,5.82-1.76,28.26,28.26,0,0,0,5.36-3.78,19,19,0,0,0,4.77,4.95A14.48,14.48,0,0,0,361,48.77a52,52,0,0,0,5.92-.27,15.24,15.24,0,0,1-7.26-.89,14,14,0,0,1-4.76-3.21l-1.75-2c-.84-1.09-1.6-2.24-2.35-3.38,1-.93,2-1.86,3-2.74v0C353.87,36.16,355.77,34.64,355.77,34.64ZM208.69,63.85a11.93,11.93,0,0,1,.52,3.32c0,1.13.23,2.68-.71,3.55s-5.86,1.74-7,1.67c-1.5-.08-3.64-.66-4.62-1.84a6.25,6.25,0,0,1-1-1.94c-.13-.36-.24-.74-.34-1.12l-.27-1.18a9.62,9.62,0,0,0-.94-2.35,7.64,7.64,0,0,0-1.54-2,6.51,6.51,0,0,0-2.19-1.19,6.09,6.09,0,0,0-1.38-.3,8.46,8.46,0,0,0,1.2-.23,30.25,30.25,0,0,0,3.21-1.08l3.11-1.26,1.56-.64.38-.15L199,57c.25-.08.51-.15.77-.21.52-.13,1.06-.22,1.61-.32l.81-.15a1.91,1.91,0,0,1,.63,0c3.06.43,4.4,4.12,4.54,4.44C207.84,61.78,208.33,62.79,208.69,63.85Zm25.41.67-.33,2.62a18.33,18.33,0,0,1-.57,2.41c-.12.4-.26.8-.41,1.19-.08.19-.16.39-.25.58l-.32.61S231,73.73,231,73.75a13.57,13.57,0,0,1-2,2,14.46,14.46,0,0,1-2.19.87c-.63.18-2.25.5-2.25.5a12.61,12.61,0,0,1-5.9-.58l-2.61-1.34a10.45,10.45,0,0,1-3.1-3.39,10.79,10.79,0,0,0,1.66-2c.43-1,1.57-3.19,1.57-3.19a19.77,19.77,0,0,1,1.51-3.33s.88-1.07.8-1.14a4,4,0,0,1,1.08-1,10.93,10.93,0,0,1,3.49-1.07l1.22-.19c.41,0,.83-.08,1.25-.11a20.86,20.86,0,0,1,2.5,0l2.64.33c1.22.2,2.43.46,3.63.74C234.25,62.08,234.2,63.31,234.1,64.52Zm23.64-10.68C257,55.1,254,58.48,254,58.48a14.64,14.64,0,0,1-1.27,1,15.78,15.78,0,0,1-1.87.36l-1.7.13a21.85,21.85,0,0,1-4.59-.42s-5.08-1.2-6.39-1.53c.11-1.34,1.11-6.62,1.11-6.62a14.13,14.13,0,0,1,2.44-4.64,13.24,13.24,0,0,1,3.66-3.17,18,18,0,0,1,4.6-.72,15.44,15.44,0,0,1,11.21,5.21C260.41,49.29,257.74,53.84,257.74,53.84Zm32.61-1.68c-1.07.71-2.18,1.4-3.3,2-2.16,2.05-8.4,3.05-8.41,3.08a14.71,14.71,0,0,1-2.09.16l-.62-.29-.29-.15-1.79-1a18.29,18.29,0,0,1-3.13-2.7l-1.62-1.83c-1-1.2-2-2.46-3.08-3.69.89-1.1,5-5,6.22-5.63a29.66,29.66,0,0,1,5.69-1.7,9.35,9.35,0,0,1,1.13-.09c.4,0,.81,0,1.23.06.89.3,2.54,1.14,2.61,1.17a15.83,15.83,0,0,1,1.67,1.18,33.32,33.32,0,0,1,3.61,4.17C288.62,47.6,289.91,51.16,290.35,52.16Zm27.94-1.57,0,0c0,.26,0,.51-.07.76a7.05,7.05,0,0,1-.5,1.88v0a13.49,13.49,0,0,1-4.4,6.16A22.34,22.34,0,0,1,310.63,61a15.81,15.81,0,0,1-4.66.31c-5.51-.68-7.36-3.25-7.62-3.57A19.71,19.71,0,0,1,295,53.31a50.2,50.2,0,0,0,4-3.78L300.44,48a23.32,23.32,0,0,1,2.46-2.26s1.56-1.08,1.8-1.21a42.68,42.68,0,0,1,4.32-.09,27.82,27.82,0,0,1,9.59,1.78A40.5,40.5,0,0,1,318.29,50.59ZM343.4,41a23.54,23.54,0,0,1-5.56,4.73c-.43.27-2.13,1.16-2.59,1.34-.48,0-2.7-.44-2.7-.44-.58-.15-1.18-.34-1.79-.55s-1.23-.44-1.94-.66l-2.3-.75c-1.31-.44-2.67-.88-4.07-1.27a25.16,25.16,0,0,1,.69-4.33,7.92,7.92,0,0,1,.52-2.17,10.12,10.12,0,0,1,1-1.48,12,12,0,0,1,2.93-3.27,14.26,14.26,0,0,1,4.54-2.29,13.82,13.82,0,0,1,5,.58,12.71,12.71,0,0,1,4.56,2.66,18.67,18.67,0,0,1,2.25,2.34c.07.11,1.5,2.11,2.11,3Z" transform="translate(-5 -5)"/><path class="cls-2" d="M316.52,48.24l-.3-.41a2,2,0,0,1-.52.53,2,2,0,0,1-.77.35l.31.44a.17.17,0,0,1-.06.24h0l3.09,4.23c.2.28.73.25,1.18-.07s.65-.81.45-1.09l-3.1-4.23v0A.17.17,0,0,1,316.52,48.24Z" transform="translate(-5 -5)"/><path class="cls-3" d="M311.68,44.59l1.14,1.57,1.82,2.54,0,0,.47.65h0a.17.17,0,0,0,.06-.24l-.31-.44a2,2,0,0,0,.77-.35,2,2,0,0,0,.52-.53l.3.41a.17.17,0,0,0,.24,0v0l-.43-.6-.08-.11-1.85-2.59S312,44.56,311.68,44.59Z" transform="translate(-5 -5)"/><path class="cls-4" d="M312.92,45.14l5.95,8.31h0a.58.58,0,0,1-.81-.17l-5.9-8.22Z" transform="translate(-5 -5)"/><path class="cls-2" d="M355.09,40.43l.06-.5a2.29,2.29,0,0,1-.74,0,2.15,2.15,0,0,1-.81-.27l-.07.53a.17.17,0,0,1-.2.14l0,0-.23,2,1.74,2,.47-3.74h0A.18.18,0,0,1,355.09,40.43Z" transform="translate(-5 -5)"/><path class="cls-3" d="M354.21,33.35l-.42,3-.39,3.1v.07l-.1.79,0,0a.17.17,0,0,0,.2-.14l.07-.53a2.15,2.15,0,0,0,.81.27,2.29,2.29,0,0,0,.74,0l-.06.5a.18.18,0,0,0,.16.18h0l.1-.74v-.13l.4-3.16.41-3c.05-.34-.37-.61-.91-.68S354.26,33,354.21,33.35Z" transform="translate(-5 -5)"/><path class="cls-4" d="M354.91,33.15l-1.22,9.72-.48-.67,1.06-8.52a.59.59,0,0,1,.64-.53Z" transform="translate(-5 -5)"/><path class="cls-2" d="M242.2,56.09l-.27-.4a2.24,2.24,0,0,1-1.32.84l.29.43a.17.17,0,0,1-.07.23l0,0,2.9,4.36c.19.28.71.25,1.17,0s.68-.78.49-1.06l-2.9-4.36h0A.17.17,0,0,1,242.2,56.09Z" transform="translate(-5 -5)"/><path class="cls-3" d="M238.77,54.22l1.56,2.29,0,.06.43.64,0,0a.17.17,0,0,0,.07-.23l-.29-.43a2.24,2.24,0,0,0,1.32-.84l.27.4a.17.17,0,0,0,.24,0h0l-.39-.59L242,55.4l-1.71-2.55-1-1.47Z" transform="translate(-5 -5)"/><path class="cls-4" d="M239,53.33l5.51,8.27h0a.56.56,0,0,1-.79-.17l-4.86-7.3Z" transform="translate(-5 -5)"/><path class="cls-2" d="M271.12,48.43l.05-.48a2.08,2.08,0,0,1-.75,0,2,2,0,0,1-.81-.24l-.05.52a.17.17,0,0,1-.2.13h0l-.47,5.25c0,.33.39.64.94.7s1-.18,1-.51l.47-5.25h0C271.19,48.59,271.11,48.51,271.12,48.43Z" transform="translate(-5 -5)"/><path class="cls-3" d="M269.74,44.1l-.05.48-.29,3v.07l-.08.77h0a.17.17,0,0,0,.2-.13l.05-.52a2,2,0,0,0,.81.24,2.08,2.08,0,0,0,.75,0l-.05.48c0,.08.07.16.17.17h0l.07-.71v-.13l.29-3,.23-2.37C271.94,42,269.74,44.1,269.74,44.1Z" transform="translate(-5 -5)"/><path class="cls-4" d="M270.46,43.56l-.93,9.78h0a.58.58,0,0,1-.51-.64l.82-8.55Z" transform="translate(-5 -5)"/><path class="cls-2" d="M232.71,62.84l-.31-.38a2,2,0,0,1-.49.56,2.19,2.19,0,0,1-.75.4l.33.4a.18.18,0,0,1-.05.24l0,0,2.4,3,.31-2.7L233,62.82v0A.18.18,0,0,1,232.71,62.84Z" transform="translate(-5 -5)"/><path class="cls-3" d="M227.29,59l1.7,2.13,1.89,2.34,0,0,.48.61,0,0a.18.18,0,0,0,.05-.24l-.33-.4a2.19,2.19,0,0,0,.75-.4,2,2,0,0,0,.49-.56l.31.38a.18.18,0,0,0,.24,0v0l-.45-.55-.08-.1-1.92-2.39-1.66-2.08c-.21-.26-.68-.14-1.11.2S227.09,58.69,227.29,59Z" transform="translate(-5 -5)"/><path class="cls-4" d="M227.62,58.37,233.8,66l-.13.74-6.12-7.58a.58.58,0,0,1,.07-.81Z" transform="translate(-5 -5)"/><path class="cls-2" d="M258.42,49.21l-.11-.47a2.14,2.14,0,0,1-.69.29,2.17,2.17,0,0,1-.84,0l.12.5a.17.17,0,0,1-.15.19h0l1,4.17c.37-.58,1.48-2.46,1.48-2.46l-.51-2.16h0A.18.18,0,0,1,258.42,49.21Z" transform="translate(-5 -5)"/><path class="cls-3" d="M255.34,44l.49,2.05.69,2.93V49l.18.75h0a.17.17,0,0,0,.15-.19l-.12-.5a2.17,2.17,0,0,0,.84,0,2.14,2.14,0,0,0,.69-.29l.11.47a.18.18,0,0,0,.22.11h0l-.17-.7,0-.12-.7-3-.47-2c-.08-.32-.56-.42-1.09-.29S255.27,43.65,255.34,44Z" transform="translate(-5 -5)"/><path class="cls-4" d="M255.9,43.4,258.16,53l-.43.62-2.25-9.49a.57.57,0,0,1,.42-.7Z" transform="translate(-5 -5)"/><path class="cls-2" d="M306.51,54.2l-.14-.71a1.6,1.6,0,0,1-.68.33,1.67,1.67,0,0,1-.86-.08l.14.76a.2.2,0,0,1-.14.25h0l1.32,6.64a4.37,4.37,0,0,0,2,0l-1.36-7h0A.22.22,0,0,1,306.51,54.2Z" transform="translate(-5 -5)"/><path class="cls-3" d="M303.06,45.65l.65,3.49.85,4.39v.1l.22,1.12h0a.2.2,0,0,0,.14-.25l-.14-.76a1.67,1.67,0,0,0,.86.08,1.6,1.6,0,0,0,.68-.33l.14.71a.22.22,0,0,0,.23.19h0l-.2-1.05,0-.19-.87-4.47-.63-3.4a.87.87,0,0,0-1.13-.6C303.35,44.77,303,45.16,303.06,45.65Z" transform="translate(-5 -5)"/><path class="cls-4" d="M303.65,45.3l3.07,15.87s-.51.33-.6-.15l-2.86-14.76c-.09-.47.08-.9.39-1Z" transform="translate(-5 -5)"/><path class="cls-2" d="M252.05,49.45l.26.68a1.6,1.6,0,0,0-.75.09,1.55,1.55,0,0,0-.69.52l-.28-.73a.21.21,0,0,0-.26-.15l0,0-2.59-6.8c-.18-.47,1.68-1.18,1.86-.71l2.6,6.8h0A.21.21,0,0,0,252.05,49.45Z" transform="translate(-5 -5)"/><path class="cls-3" d="M253.73,58.71l-1.35-3.38-1.63-4.26,0-.09-.42-1.1,0,0a.21.21,0,0,1,.26.15l.28.73a1.55,1.55,0,0,1,.69-.52,1.6,1.6,0,0,1,.75-.09l-.26-.68a.21.21,0,0,1,.1-.28h0l.38,1,.07.18,1.66,4.34.9,2.37A7.23,7.23,0,0,1,253.73,58.71Z" transform="translate(-5 -5)"/><path class="cls-4" d="M254,57.68l-5.72-15s-.58,0-.41.51l5.67,14.88C253.71,58.52,254,57.68,254,57.68Z" transform="translate(-5 -5)"/><path class="cls-5" d="M282.48,49l-.19.7a1.54,1.54,0,0,0-1.52-.37l.2-.74a.22.22,0,0,0-.12-.27h0l1.89-6.89a9.27,9.27,0,0,1,1.77,1.23l-1.73,6.18h0A.2.2,0,0,0,282.48,49Z" transform="translate(-5 -5)"/><path class="cls-6" d="M278.46,56.89l.83-3,1.19-4.32,0-.09.3-1.11h0a.22.22,0,0,1,.12.27l-.2.74a1.54,1.54,0,0,1,1.52.37l.19-.7a.2.2,0,0,1,.24-.16h0l-.28,1-.06.19-1.21,4.39-.81,2.94a.87.87,0,0,1-1.17.51C278.68,57.78,278.33,57.37,278.46,56.89Z" transform="translate(-5 -5)"/><path class="cls-4" d="M278.94,57.69,283.26,42l-.48-.34-4.15,15.06c-.13.47,0,.91.31,1Z" transform="translate(-5 -5)"/><path class="cls-2" d="M276.83,47.79l-.11.71a1.62,1.62,0,0,0-.7-.3,1.7,1.7,0,0,0-.86.11l.13-.77a.22.22,0,0,0-.15-.25h0l1-6.48a5.24,5.24,0,0,1,2.09-.47l-1.16,7.26h0A.21.21,0,0,0,276.83,47.79Z" transform="translate(-5 -5)"/><path class="cls-3" d="M273.69,56.05l.5-3.11.71-4.41,0-.1.18-1.13h0a.22.22,0,0,1,.15.25l-.13.77a1.7,1.7,0,0,1,.86-.11,1.62,1.62,0,0,1,.7.3l.11-.71a.21.21,0,0,1,.22-.19h0l-.17,1,0,.19-.72,4.5L275.6,57c-.06.21-.69.17-1.23.08A.78.78,0,0,1,273.69,56.05Z" transform="translate(-5 -5)"/><path class="cls-4" d="M274.29,56.69l2.57-16-.63.34-2.36,14.73c-.08.48.11.9.42.95Z" transform="translate(-5 -5)"/><path class="cls-5" d="M245.65,52.7l.15.28a1.5,1.5,0,0,0-.43.79l1,2,2.69,5c.23.44,2-.5,1.76-.94L248.3,55,247,52.61a1.38,1.38,0,0,0-.8.1l-.13-.24a.27.27,0,0,0-.35-.15A.28.28,0,0,0,245.65,52.7Z" transform="translate(-5 -5)"/><path class="cls-6" d="M241.68,46.82l3.69,7a1.5,1.5,0,0,1,.43-.79l-.15-.28a.28.28,0,0,1,.08-.38.27.27,0,0,1,.35.15l.13.24a1.38,1.38,0,0,1,.8-.1l-3.69-6.93a.8.8,0,0,0-.31-.32A16.85,16.85,0,0,0,241.68,46.82Z" transform="translate(-5 -5)"/><path class="cls-4" d="M242.25,46.52l7.48,14h0c-.27.15-.68-.08-.9-.51l-7-13.11Z" transform="translate(-5 -5)"/><path class="cls-5" d="M310.23,51.16l.14.28a1.46,1.46,0,0,0-.46.77l1,2,2.45,4.92a.86.86,0,0,0,1.24.26.89.89,0,0,0,.55-1.15l-2.34-4.7-1.2-2.42a1.37,1.37,0,0,0-.8.08l-.12-.24a.25.25,0,1,0-.44.22Z" transform="translate(-5 -5)"/><path class="cls-6" d="M306.05,44.46l3.86,7.75a1.46,1.46,0,0,1,.46-.77l-.14-.28a.25.25,0,1,1,.44-.22l.12.24a1.37,1.37,0,0,1,.8-.08l-3.29-6.68A6.23,6.23,0,0,0,306.05,44.46Z" transform="translate(-5 -5)"/><path class="cls-4" d="M307.11,45.12,314,59h0c-.28.13-.68-.1-.89-.52l-6.59-13.28C306.28,44.73,307.11,45.12,307.11,45.12Z" transform="translate(-5 -5)"/><path class="cls-5" d="M330.11,38.68l.08.3a1.55,1.55,0,0,0-.63.64l.5,2.16,1,4.33a8.82,8.82,0,0,0,2.26.63l-1.26-5.17-.61-2.63a1.42,1.42,0,0,0-.79-.12l-.06-.25a.25.25,0,1,0-.49.11Z" transform="translate(-5 -5)"/><path class="cls-6" d="M327.7,31.64l1.86,8a1.55,1.55,0,0,1,.63-.64l-.08-.3a.25.25,0,1,1,.49-.11l.06.25a1.42,1.42,0,0,1,.79.12l-1.81-7.75c-.11-.48-.56-.54-1.1-.41S327.59,31.16,327.7,31.64Z" transform="translate(-5 -5)"/><path class="cls-4" d="M328.26,31.07l3.52,15.21-.64-.26-3.23-14c-.11-.47,0-.9.35-1Z" transform="translate(-5 -5)"/><path class="cls-5" d="M336.07,37.61l0,.31a1.49,1.49,0,0,0-.72.54l.14,2.2.35,5.81c0,.49.47.42,1,.39s1-.36.95-.85l-.31-5.23-.17-2.69a1.4,1.4,0,0,0-.77-.24l0-.27a.26.26,0,0,0-.26-.27A.27.27,0,0,0,336.07,37.61Z" transform="translate(-5 -5)"/><path class="cls-6" d="M334.85,29.91l.52,8.55a1.49,1.49,0,0,1,.72-.54l0-.31a.27.27,0,0,1,.23-.3.26.26,0,0,1,.26.27l0,.27a1.4,1.4,0,0,1,.77.24l-.48-7.75A9,9,0,0,0,334.85,29.91Z" transform="translate(-5 -5)"/><path class="cls-4" d="M335.53,30.29l1,16.41c-.32,0-.61,0-.66-1.64L335,30.27C334.94,29.79,335.53,30.29,335.53,30.29Z" transform="translate(-5 -5)"/><path class="cls-5" d="M216.45,72.51l0-.22a1.63,1.63,0,0,1-.8-.23l-.28-1.59-.75-4.21a1,1,0,0,1,.84-.92c.54-.1,1,0,1.09.39l.75,4.21.35,2a1.64,1.64,0,0,1-.7.34l0,.19a.24.24,0,0,1-.21.26A.24.24,0,0,1,216.45,72.51Z" transform="translate(-5 -5)"/><path class="cls-6" d="M216.17,75.25l-.56-3.19a1.63,1.63,0,0,0,.8.23l0,.22a.24.24,0,0,0,.28.17.24.24,0,0,0,.21-.26l0-.19a1.64,1.64,0,0,0,.7-.34l.82,4.52A8.54,8.54,0,0,1,216.17,75.25Z" transform="translate(-5 -5)"/><path class="cls-4" d="M216.92,75.66l-1.68-9.44h0a.61.61,0,0,0-.45.73l1.48,8.27Z" transform="translate(-5 -5)"/><path class="cls-5" d="M206.41,69.24l.1-.14a1.82,1.82,0,0,1-.47-.64l.66-.94,2.16-3a15.7,15.7,0,0,1,.36,2.86l-.81,1.23-.81,1.15a2.39,2.39,0,0,1-.7-.31l-.08.11c0,.07-.18.06-.29,0S206.36,69.3,206.41,69.24Z" transform="translate(-5 -5)"/><path class="cls-6" d="M202.55,73.36l3.49-4.9a1.82,1.82,0,0,0,.47.64l-.1.14c0,.06,0,.18.12.26s.24.09.29,0l.08-.11a2.39,2.39,0,0,0,.7.31l-3,4.24a1.35,1.35,0,0,1-1.29.23C202.74,74,202.44,73.51,202.55,73.36Z" transform="translate(-5 -5)"/><path class="cls-4" d="M203.06,73.86,209,65.48h0a.52.52,0,0,0-.72,0l-5.47,7.76C202.62,73.48,203.06,73.86,203.06,73.86Z" transform="translate(-5 -5)"/><path class="cls-5" d="M197.28,60.82l.12-.17A1.8,1.8,0,0,1,197,60l.82-1.15,1.3-1.84a16.46,16.46,0,0,1,2.88-.61l-2.46,3.47-1,1.41a1.85,1.85,0,0,1-.72-.28l-.1.14a.21.21,0,0,1-.3,0C197.26,61,197.22,60.9,197.28,60.82Z" transform="translate(-5 -5)"/><path class="cls-6" d="M194,64.13,197,60a1.8,1.8,0,0,0,.44.69l-.12.17c-.06.08,0,.21.1.29a.21.21,0,0,0,.3,0l.1-.14a1.85,1.85,0,0,0,.72.28l-3.39,4.65c-.18.26-.59-.32-.79-.66S193.83,64.39,194,64.13Z" transform="translate(-5 -5)"/><path class="cls-4" d="M194.31,64.86,199.85,57s-.6-.12-.78.12l-4.9,7a.55.55,0,0,0,.14.78Z" transform="translate(-5 -5)"/><path class="cls-2" d="M203.86,67.8l.38-.48a1.75,1.75,0,0,1-.67-.33,1.82,1.82,0,0,1-.53-.68l-.41.51a.18.18,0,0,1-.26,0l0,0-3.83,4.83a.91.91,0,0,0,.23,1.25c.43.35,1,.46,1.22.13l3.95-5h0A.19.19,0,0,1,203.86,67.8Z" transform="translate(-5 -5)"/><path class="cls-3" d="M207.31,60.57l-2,2.47L203,66l-.06.07-.6.76,0,0a.18.18,0,0,0,.26,0l.41-.51a1.82,1.82,0,0,0,.53.68,1.75,1.75,0,0,0,.67.33l-.38.48a.19.19,0,0,0,0,.26h0l.55-.7.11-.13,2.38-3,1.27-1.61A10.61,10.61,0,0,0,207.31,60.57Z" transform="translate(-5 -5)"/><path class="cls-4" d="M207.26,61.68,198.71,72.5h0a.67.67,0,0,1,0-.93l7.87-9.94C206.84,61.31,207.26,61.68,207.26,61.68Z" transform="translate(-5 -5)"/><path class="cls-2" d="M200.9,64.81l.42-.56a1.74,1.74,0,0,1-.7-.29,1.63,1.63,0,0,1-.53-.69l-.45.61a.19.19,0,0,1-.28.06s0,0,0,0l-3.79,5.14a1,1,0,0,0,.29,1.29c.44.33.81.61,1.09.23l4-5.47h0A.21.21,0,0,1,200.9,64.81Z" transform="translate(-5 -5)"/><path class="cls-3" d="M204.51,56.92l-1.87,2.52-2.58,3.5L200,63l-.67.89s0,0,0,0a.19.19,0,0,0,.28-.06l.45-.61a1.63,1.63,0,0,0,.53.69,1.74,1.74,0,0,0,.7.29l-.42.56a.21.21,0,0,0,0,.29h0l.61-.83.11-.15,2.64-3.57L206,58.28A3.07,3.07,0,0,0,204.51,56.92Z" transform="translate(-5 -5)"/><path class="cls-4" d="M205,57.33,195.67,70h0c-.25-.18-.23-.64.05-1l8.69-11.76C204.69,56.85,205,57.33,205,57.33Z" transform="translate(-5 -5)"/><path class="cls-5" d="M301.12,52.73l0,.58a2,2,0,0,0-.73-.19,2,2,0,0,0-.84.15l0-.62a.19.19,0,0,0-.18-.19h0l.28-5.71c0-.4.48-.7,1-.68s1,.38,1,.78l-.28,5.71h0A.18.18,0,0,0,301.12,52.73Z" transform="translate(-5 -5)"/><path class="cls-6" d="M299,58.52l.07-1.44.18-3.61v-.08l0-.93h0a.19.19,0,0,1,.18.19l0,.62a2,2,0,0,1,.84-.15,2,2,0,0,1,.73.19l0-.58a.18.18,0,0,1,.2-.17h0l0,.86v.15l-.18,3.69-.1,2.56C301,60.22,299,58.52,299,58.52Z" transform="translate(-5 -5)"/><path class="cls-4" d="M299.7,58.81l.6-12.19h0a.64.64,0,0,0-.6.68l-.55,11.1Z" transform="translate(-5 -5)"/><path class="cls-5" d="M325.53,39.69l.23.4a2,2,0,0,0-.7.25,2.33,2.33,0,0,0-.66.54l-.23-.43a.18.18,0,0,0-.24,0l0,0-2-3.65c-.15-.28.11-.72.6-1s1-.26,1.15,0l2,3.64h0A.19.19,0,0,0,325.53,39.69Z" transform="translate(-5 -5)"/><path class="cls-6" d="M326.19,44.52l-.52-.9-1.38-2.49,0-.06-.36-.63,0,0a.18.18,0,0,1,.24,0l.23.43a2.33,2.33,0,0,1,.66-.54,2,2,0,0,1,.7-.25l-.23-.4a.19.19,0,0,1,.1-.22h0l.33.59.06.11,1.4,2.54L329,45.45A13.55,13.55,0,0,1,326.19,44.52Z" transform="translate(-5 -5)"/><path class="cls-4" d="M327.1,44.82l-4.84-8.73h0a.55.55,0,0,0-.23.76l4.24,7.64Z" transform="translate(-5 -5)"/><path class="cls-5" d="M343.27,37.36v.46a2.2,2.2,0,0,0-.73-.13,2.55,2.55,0,0,0-.84.14v-.49c0-.08-.08-.14-.19-.14h0l0-4.17c0-.31,2,1.87,2,1.87l0,2.32h0A.18.18,0,0,0,343.27,37.36Z" transform="translate(-5 -5)"/><path class="cls-6" d="M341.4,43.73l.05-2.89,0-2.84v-.8h0c.11,0,.19.06.19.14v.49a2.55,2.55,0,0,1,.84-.14,2.2,2.2,0,0,1,.73.13v-.46a.18.18,0,0,1,.19-.14h0V38l0,2.9,0,2.83c0,.31-.45.5-1,.49S341.4,44,341.4,43.73Z" transform="translate(-5 -5)"/><path class="cls-4" d="M341.67,33.9l-.1,9.56a.56.56,0,0,0,.56.56l.1-9.87S341.68,33.59,341.67,33.9Z" transform="translate(-5 -5)"/><path class="cls-2" d="M227,65.77l.44.57a1.48,1.48,0,0,0-.69.3,1.6,1.6,0,0,0-.52.69l-.47-.61a.21.21,0,0,0-.28-.07s0,0,0,0l-4.31-5.62a1,1,0,0,1,.26-1.32.94.94,0,0,1,1.33.11l4.31,5.62h0A.23.23,0,0,0,227,65.77Z" transform="translate(-5 -5)"/><path class="cls-3" d="M230.93,73.81l-2-2.58-2.71-3.56-.06-.08-.7-.91s0,0,0,0a.21.21,0,0,1,.28.07l.47.61a1.6,1.6,0,0,1,.52-.69,1.48,1.48,0,0,1,.69-.3l-.44-.57a.23.23,0,0,1,0-.3h0l.64.84.12.15,2.76,3.63,1.53,2A11.71,11.71,0,0,1,230.93,73.81Z" transform="translate(-5 -5)"/><path class="cls-4" d="M231.2,73.06l-9.51-12.47h0c-.24.19-.21.65.08,1l9.1,11.95Z" transform="translate(-5 -5)"/><path class="cls-5" d="M286.85,50.36l-.06.18a1.8,1.8,0,0,0-.81.07l-.41,1.32-1.37,4.51c-.1.3.27.61.8.77s1,.12,1.1-.17l1.33-4.36.51-1.62a2.21,2.21,0,0,0-.67-.4l.05-.16c0-.09-.05-.2-.18-.24S286.88,50.26,286.85,50.36Z" transform="translate(-5 -5)"/><path class="cls-6" d="M287.47,45.94,286,50.61a1.8,1.8,0,0,1,.81-.07l.06-.18c0-.1.16-.14.29-.1s.21.15.18.24l-.05.16a2.21,2.21,0,0,1,.67.4l.86-2.76A6.41,6.41,0,0,0,287.47,45.94Z" transform="translate(-5 -5)"/><path class="cls-4" d="M287.64,47.43l-2.77,8.84h0a.54.54,0,0,1-.38-.68l2.72-8.69Z" transform="translate(-5 -5)"/><path class="cls-5" d="M222,70l-.14-.28a1.48,1.48,0,0,1-.9-.11l-1-2-2.32-4.55a.87.87,0,0,1,.52-1.16c.49-.25.82-.6,1-.16l2.42,4.74,1.25,2.45a1.36,1.36,0,0,1-.54.6l.12.24a.27.27,0,0,1-.08.38A.29.29,0,0,1,222,70Z" transform="translate(-5 -5)"/><path class="cls-6" d="M224.77,77,221,69.6a1.48,1.48,0,0,0,.9.11L222,70a.29.29,0,0,0,.36.15.27.27,0,0,0,.08-.38l-.12-.24a1.36,1.36,0,0,0,.54-.6l3.9,7.66A5.09,5.09,0,0,1,224.77,77Z" transform="translate(-5 -5)"/><path class="cls-4" d="M225.38,76.81l-7.47-14.67h0c-.28.14-.33.6-.11,1l6.85,13.43C224.87,77,225.38,76.81,225.38,76.81Z" transform="translate(-5 -5)"/><path class="cls-7" d="M386.59,28.43a9.69,9.69,0,0,0-7.88-.52c-6.26,2.08-8.38,8.24-6.53,13.85S379.42,51,385.68,49a14.68,14.68,0,0,0,6.17-4l-2.7-8.15-5.81,1.93-.75-2.27,8.29-2.75,3.95,11.94a20.07,20.07,0,0,1-8.4,5.53,13.06,13.06,0,0,1-16.93-8.6,13.06,13.06,0,0,1,8.46-17c3.85-1.27,7-1.09,9.88.36Z" transform="translate(-5 -5)"/><path class="cls-7" d="M409.94,33.54l-.08-.42c-.6-2.88-2.28-4-5.16-3.41a7.55,7.55,0,0,0-4.66,3l-1.77-1.37c1.2-1.88,3.4-3.23,6.52-3.88s6.45.58,7.3,4.62l1.54,7.42a27.06,27.06,0,0,0,1.07,3.66l-2.28.48a17,17,0,0,1-.77-2.65h-.07a6.34,6.34,0,0,1-5.2,4.34c-2.95.62-6.06-.44-6.73-3.66-1.12-5.4,5.15-7.08,9.12-7.9Zm-.8,2.17c-2.38.49-7.7,1.79-7,5.12.46,2.2,2.66,2.63,4.54,2.24,3.4-.71,4.53-3.46,3.92-6.41l-.26-1.2Z" transform="translate(-5 -5)"/><path class="cls-7" d="M419.37,14.89l2.39,0,.13,13.26H422a8.13,8.13,0,0,1,6.57-3.32,8.68,8.68,0,0,1,9.11,8.83,8.68,8.68,0,0,1-8.94,9,8.11,8.11,0,0,1-6.63-3.2H422l0,2.83-2.39,0ZM428.55,27a6.74,6.74,0,1,0,.13,13.48c3.95,0,6.38-3,6.35-6.8S432.5,26.93,428.55,27Z" transform="translate(-5 -5)"/><path class="cls-7" d="M444,31.81c.33-1.48.54-2.77,1-5.2l2.3.51-.68,3.08.07,0a5.57,5.57,0,0,1,6.08-2.34,6.66,6.66,0,0,1,1.69.59l-1,2.2a4,4,0,0,0-1.3-.47,5.31,5.31,0,0,0-6.3,4.18l-2.06,9.34-2.33-.51Z" transform="translate(-5 -5)"/><path class="cls-7" d="M456.2,47l-2.29-.68,4.85-16.25,2.29.68Zm5.08-21.18a1.74,1.74,0,0,1,1-3.33,1.74,1.74,0,1,1-1,3.33Z" transform="translate(-5 -5)"/><path class="cls-7" d="M466.44,42.14A6.33,6.33,0,0,0,476.37,49l1.23,2a8.85,8.85,0,0,1-8.06.94,8.6,8.6,0,0,1-5.27-11.33,8.56,8.56,0,0,1,11-5.54c4.83,1.76,6.36,6.34,4.8,10.71l-.36,1Zm11.51,2a5.12,5.12,0,0,0-3.37-7c-2.94-1-6.48.5-7.42,3.13Z" transform="translate(-5 -5)"/><path class="cls-7" d="M486.2,56.84l-2.31-.6,7-26.5,2.31.61Z" transform="translate(-5 -5)"/><path class="cls-7" d="M496.79,59.07l-2.35-.42,4.86-27,2.35.43Z" transform="translate(-5 -5)"/><path class="cls-7" d="M516.58,50.83l0-.44c.22-2.92-1.09-4.47-4-4.69a7.56,7.56,0,0,0-5.32,1.62L506,45.51c1.67-1.47,4.16-2.17,7.34-1.93s6,2.32,5.74,6.44l-.55,7.56a26.61,26.61,0,0,0,0,3.81l-2.31-.17a16.9,16.9,0,0,1,0-2.76h-.07a6.33,6.33,0,0,1-6.19,2.74c-3-.22-5.7-2.08-5.46-5.37.4-5.49,6.89-5.38,10.94-5.09Zm-1.37,1.86c-2.42-.18-7.89-.39-8.14,3-.16,2.24,1.84,3.26,3.75,3.4,3.47.25,5.31-2.08,5.53-5.08l.09-1.23Z" transform="translate(-5 -5)"/><path class="cls-7" d="M550.86,56l7.41-21.35,4-.23L563.77,60l-2.6.16L559.85,38h-.07l-7.95,22.68-1.37.08L539.89,39.22h-.08l1.32,22.14-2.61.15L537,35.91l4-.24Z" transform="translate(-5 -5)"/><path class="cls-7" d="M570.89,37.32a1.74,1.74,0,1,1-.37-3.46,1.74,1.74,0,0,1,.37,3.46Zm3.47,21.49-2.38.26L570.2,42.2l2.38-.25Z" transform="translate(-5 -5)"/><path class="cls-7" d="M584.2,57.65l-2.38.3-3.44-27.18,2.38-.3Z" transform="translate(-5 -5)"/><path class="cls-7" d="M594.05,56.26l-2.36.35-4.07-27.08,2.36-.36Z" transform="translate(-5 -5)"/><path class="cls-7" d="M601.36,47a6.33,6.33,0,0,0,12,1.26l2.07,1.21a8.84,8.84,0,0,1-6.62,4.69,8.61,8.61,0,0,1-10.08-7.4,8.56,8.56,0,0,1,7-10.16c5.09-.78,8.63,2.5,9.36,7.08l.17,1.07Zm11.07-3.76a5.12,5.12,0,0,0-6.3-4.5c-3.08.5-5.45,3.56-5,6.31Z" transform="translate(-5 -5)"/><path class="cls-7" d="M620.66,40.52c-.12-1.52-.29-2.82-.56-5.26l2.35-.19.24,3.14h.08a5.57,5.57,0,0,1,5.14-4,6.72,6.72,0,0,1,1.78.08l-.28,2.38A4.26,4.26,0,0,0,628,36.6a5.32,5.32,0,0,0-4.82,5.83L624,52l-2.39.19Z" transform="translate(-5 -5)"/><path class="cls-8" d="M186,161.55c13.74-24.61,10.49-53.42-1.19-79.85,20.39,15.13,26.45,61.16,17.45,87.35C194.19,192.44,171.47,187.56,186,161.55Z" transform="translate(-5 -5)"/><path class="cls-8" d="M43.85,202.76c-17.33-11.5-29.55-29-35.45-48.88C36.53,158.06,47.91,175.92,43.85,202.76Z" transform="translate(-5 -5)"/><path class="cls-8" d="M63.25,54C41.61,62.85,29,84.4,24.83,107c-3.54,19.15-15.75,15-19.83,17.41C8.3,97.38,29.63,56.62,63.25,54Z" transform="translate(-5 -5)"/><path class="cls-9" d="M130.32,201.47c-.1,13.17-7.69,30.52.63,37.45,6.41,5.33,12.79-9.61,19.16-20.56,7.28-12.52,11-9.85,26.22-11.24,35.34-3.23,28.09-12.73,10.43-15.69-6.59-1.1-16.22-2.54-20.67-12.22-4.23-9.18.28-17.86,7.33-27.86,9.55-13.55,12.28-21.32-8.63-9.44-21.53,12.25-22.69,15.39-45.29,3.55-30.35-15.91-21.12.27-7.28,13.87C123.24,170.17,130.45,185.73,130.32,201.47Z" transform="translate(-5 -5)"/><path class="cls-10" d="M45.11,94.93c10-4.37,25.63-2.33,27.93-15,8.69,6.28,4.2,27.33-15.36,36.68C42.06,124.09,29.81,101.63,45.11,94.93Z" transform="translate(-5 -5)"/><path class="cls-10" d="M102.42,191.13C89,161.7,83.12,141.37,96.35,110.34c15.84-37.18,6.51-31.34-11.82-7.57-16.21,21-36.29,22.72-66.48,29.28C0,136,.16,143.33,24.65,144.37c28,1.18,33.61,20.37,32.8,44.47a78.37,78.37,0,0,1-4.21,23.7c-9,25,2.23,22.86,11.26,10.2C69,216.44,73,209.34,75,201.2,79.1,184.65,83.62,189,90.91,200,116.13,238,112.2,212.53,102.42,191.13Z" transform="translate(-5 -5)"/><path class="cls-9" d="M131.11,143.2c-5.27-5.79-4.33-18.33,1.56-23.68,7.5-6.83,14.14-6.06,18.25-1.94C165.23,131.93,142.63,155.86,131.11,143.2Z" transform="translate(-5 -5)"/><path class="cls-7" d="M655,193.08c0,8.42-7.49,15.31-16.64,15.31H233.76c-9.16,0-16.64-6.89-16.64-15.31s7.48-15.3,16.64-15.3h404.6C647.51,177.78,655,184.67,655,193.08Z" transform="translate(-5 -5)"/><path class="cls-11" d="M232,186.24h5.27c3,0,5.78,1,5.78,4.09,0,3.55-3,4.18-6.27,4.18h-2v5.84H232Zm4.47,6.12c1.6,0,3.65-.08,3.65-2,0-1.74-1.83-2-3.34-2h-2v4Z" transform="translate(-5 -5)"/><path class="cls-11" d="M247.74,186.24h10.39v2.27h-7.6V192h7.2v2.27h-7.2v3.83h8v2.27H247.74Z" transform="translate(-5 -5)"/><path class="cls-11" d="M263.49,186.24h6.18c4.11,0,8,2.27,8,7.06s-4.54,7-8.31,7h-5.84Zm4.87,11.84c3.5,0,6.36-1.35,6.36-4.78s-2.49-4.79-5.9-4.79h-2.54v9.57Z" transform="translate(-5 -5)"/><path class="cls-11" d="M282.44,186.24h2.79v14.11h-2.79Z" transform="translate(-5 -5)"/><path class="cls-11" d="M296,186.24h2.42l6.75,14.11h-3.19l-1.46-3.23h-6.8l-1.42,3.23h-3.12Zm3.54,8.73-2.41-5.74L294.62,195Z" transform="translate(-5 -5)"/><path class="cls-11" d="M310.26,188.51h-4.81v-2.27h12.4v2.27h-4.8v11.84h-2.79Z" transform="translate(-5 -5)"/><path class="cls-11" d="M322,186.24h5.45c3,0,5.85.88,5.85,4a3.75,3.75,0,0,1-3.64,3.82l4.17,6.24h-3.37l-3.63-6h-2v6H322Zm5,6c1.57,0,3.41-.12,3.41-1.95s-1.72-1.88-3.16-1.88h-2.42v3.83Z" transform="translate(-5 -5)"/><path class="cls-11" d="M338.07,186.24h2.79v14.11h-2.79Z" transform="translate(-5 -5)"/><path class="cls-11" d="M357.27,189.55a4.47,4.47,0,0,0-3.3-1.4,5.15,5.15,0,1,0,0,10.29,4.58,4.58,0,0,0,3.52-1.71l2.31,1.47a7.27,7.27,0,0,1-5.85,2.51c-4.83,0-8.29-3-8.29-7.35s3.46-7.48,8.29-7.48a7.18,7.18,0,0,1,5.49,2.23Z" transform="translate(-5 -5)"/><path class="cls-11" d="M372.66,186.24h5.45c3,0,5.85.88,5.85,4a3.75,3.75,0,0,1-3.64,3.82l4.17,6.24h-3.37l-3.63-6h-2v6h-2.79Zm5,6c1.57,0,3.41-.12,3.41-1.95s-1.73-1.88-3.17-1.88h-2.41v3.83Z" transform="translate(-5 -5)"/><path class="cls-11" d="M388.83,186.24h10.38v2.27h-7.59V192h7.19v2.27h-7.19v3.83h8v2.27H388.83Z" transform="translate(-5 -5)"/><path class="cls-11" d="M412.25,189.27a3.45,3.45,0,0,0-2.74-1.12c-1.29,0-2.57.52-2.57,1.82,0,2.83,7.44,1.21,7.44,6.24,0,3-2.66,4.5-5.73,4.5a6.89,6.89,0,0,1-5.14-1.91l2.1-1.84a3.83,3.83,0,0,0,3.1,1.48c1.29,0,2.75-.64,2.75-1.93,0-3.09-7.44-1.32-7.44-6.36,0-2.91,2.88-4.27,5.78-4.27a6.85,6.85,0,0,1,4.49,1.46Z" transform="translate(-5 -5)"/><path class="cls-11" d="M419.49,186.24h10.39v2.27h-7.59V192h7.19v2.27h-7.19v3.83h8v2.27H419.49Z" transform="translate(-5 -5)"/><path class="cls-11" d="M440.31,186.24h2.42l6.75,14.11h-3.19l-1.46-3.23H438l-1.42,3.23h-3.12Zm3.54,8.73-2.41-5.74L439,195Z" transform="translate(-5 -5)"/><path class="cls-11" d="M453.44,186.24h5.45c3,0,5.85.88,5.85,4a3.75,3.75,0,0,1-3.63,3.82l4.16,6.24H461.9l-3.63-6h-2v6h-2.79Zm5,6c1.58,0,3.41-.12,3.41-1.95s-1.72-1.88-3.16-1.88h-2.42v3.83Z" transform="translate(-5 -5)"/><path class="cls-11" d="M480.37,189.55a4.47,4.47,0,0,0-3.3-1.4,5.15,5.15,0,1,0,0,10.29,4.58,4.58,0,0,0,3.52-1.71l2.31,1.47a7.27,7.27,0,0,1-5.85,2.51c-4.83,0-8.28-3-8.28-7.35s3.45-7.48,8.28-7.48a7.18,7.18,0,0,1,5.49,2.23Z" transform="translate(-5 -5)"/><path class="cls-11" d="M487,186.24h2.79v5.62h7.33v-5.62h2.79v14.11h-2.79v-6.22h-7.33v6.22H487Z" transform="translate(-5 -5)"/><path class="cls-11" d="M514.38,186.24h5.27c3,0,5.78,1,5.78,4.09,0,3.55-2.94,4.18-6.26,4.18h-2v5.84h-2.79Zm4.48,6.12c1.59,0,3.65-.08,3.65-2,0-1.74-1.84-2-3.34-2h-2v4Z" transform="translate(-5 -5)"/><path class="cls-11" d="M530.13,186.24h5.45c3,0,5.84.88,5.84,4a3.74,3.74,0,0,1-3.63,3.82l4.17,6.24h-3.37l-3.63-6h-2v6h-2.79Zm5,6c1.57,0,3.41-.12,3.41-1.95s-1.73-1.88-3.17-1.88h-2.41v3.83Z" transform="translate(-5 -5)"/><path class="cls-11" d="M553.73,185.88c4.9-.08,8.35,2.87,8.35,7.4s-3.45,7.35-8.35,7.43-8.28-3-8.28-7.35S548.91,185.88,553.73,185.88Zm0,12.56a5.15,5.15,0,1,0-5.39-5.24A5.09,5.09,0,0,0,553.76,198.44Z" transform="translate(-5 -5)"/><path class="cls-11" d="M580.89,199.32a14.93,14.93,0,0,1-6.49,1.39c-4.83,0-8.29-3-8.29-7.35s3.46-7.48,8.29-7.48a9.66,9.66,0,0,1,6.18,1.77l-2.06,1.88a6.32,6.32,0,0,0-4.1-1.38,5.15,5.15,0,1,0,0,10.29,8.14,8.14,0,0,0,3.67-.74v-3.33h-3.21V192.1h6Z" transform="translate(-5 -5)"/><path class="cls-11" d="M586.4,186.24h5.45c3,0,5.84.88,5.84,4a3.74,3.74,0,0,1-3.63,3.82l4.16,6.24h-3.36l-3.63-6h-2v6H586.4Zm5,6c1.57,0,3.41-.12,3.41-1.95s-1.73-1.88-3.17-1.88h-2.41v3.83Z" transform="translate(-5 -5)"/><path class="cls-11" d="M607.63,186.24h2.42l6.75,14.11h-3.19l-1.46-3.23h-6.8l-1.41,3.23h-3.13Zm3.55,8.73-2.42-5.74L606.31,195Z" transform="translate(-5 -5)"/><path class="cls-11" d="M620.83,186.24h4.25l4.19,9.89,4.23-9.89h4.21v14.11h-2.66V188.63h0l-4.77,11.72H628.3l-4.77-11.72h0v11.72h-2.66Z" transform="translate(-5 -5)"/><path class="cls-12" d="M241,92.15q.35,5.19.41,10.84c0,3.78,0,8.19-.06,13.26s-.12,8.66-.12,10.78,0,4.94.12,8.67.12,6.34.12,7.83a152.15,152.15,0,0,1-.59,16.85,2.91,2.91,0,0,1-1.12,2,3,3,0,0,1-4.3-.41,3.06,3.06,0,0,1-.71-2.3,137.55,137.55,0,0,0,.59-16.15q0-2.11-.12-7.78c-.08-3.77-.11-6.67-.11-8.72s0-5.77.11-10.72.1-9.27.06-13-.17-7.27-.41-10.73a2.87,2.87,0,0,1,.71-2.24,3.09,3.09,0,0,1,2.12-1.06A2.91,2.91,0,0,1,240,90,3.13,3.13,0,0,1,241,92.15Zm42.07-3.65a61.52,61.52,0,0,1-7.9,7.89,50.57,50.57,0,0,1-6,4.13l-8.25,5.54a65.94,65.94,0,0,0-7.24,5.48c-1.69,1.53-2.58,2.53-2.66,3a2.07,2.07,0,0,0,.59,1.06,11.68,11.68,0,0,0,2.83,2.6c.79.63,2.08,1.53,3.89,2.71l3.42,2.47q5.29,4.71,15.08,15.09,9.32,9.89,14.73,14.61a3.09,3.09,0,0,1,1.06,2.12,2.89,2.89,0,0,1-.7,2.24,3.09,3.09,0,0,1-2.13,1.06,2.84,2.84,0,0,1-2.23-.71Q282,153,272.47,142.71T257.74,128.1a19.07,19.07,0,0,0-2.83-2l-4.24-2.94a20.13,20.13,0,0,1-3.89-3.78,7.12,7.12,0,0,1-1.88-5.53q.34-3,4.59-6.84a65.93,65.93,0,0,1,8-6l8.36-5.54q4.83-3.18,5.54-3.77a62.05,62.05,0,0,0,6.95-7.19,3.09,3.09,0,0,1,2.12-1.06,2.86,2.86,0,0,1,2.24.71,3,3,0,0,1,1.06,2.12A2.85,2.85,0,0,1,283.08,88.5Z" transform="translate(-5 -5)"/><path class="cls-12" d="M307.82,113.13q-.1,1.65-1.41,18.32t-1.3,25.4a3.06,3.06,0,1,1-6.12,0q0-6.48.47-13.91c.31-4.95.72-10.38,1.24-16.32s.84-10.58,1-14a3.17,3.17,0,0,1,1.06-2.07,2.71,2.71,0,0,1,2.18-.76,3.26,3.26,0,0,1,2.12,1.06A2.75,2.75,0,0,1,307.82,113.13Zm-2.41-21a3.14,3.14,0,1,1-2.18-.88A3,3,0,0,1,305.41,92.09Z" transform="translate(-5 -5)"/><path class="cls-12" d="M365.57,86.61q.35,4.61.59,14.26.22,11.32.35,13.91.58,12.14.35,22.51a90.26,90.26,0,0,1-.94,13.2,25.68,25.68,0,0,1-1.06,5.18,8.2,8.2,0,0,1-2.47,4c-2,1.49-4.95,2-9,1.65A50.76,50.76,0,0,1,343.06,159a74.12,74.12,0,0,1-10.13-4.12,24.43,24.43,0,0,1-6.72-4.48,19.91,19.91,0,0,1-5-9.55,27.42,27.42,0,0,1-.35-10.72,31.91,31.91,0,0,1,3.24-9.66c.78-1.5,1.45-2.67,2-3.54s1.31-1.94,2.3-3.24a13.81,13.81,0,0,1,3.42-3.24,15.54,15.54,0,0,1,4.3-2q6.7-2,22.62-1a4,4,0,0,1,1.42.47v-7q-.24-8.49-.71-13.67a3.06,3.06,0,0,1,.71-2.3,3,3,0,0,1,2.06-1.12,3,3,0,0,1,2.24.71A3,3,0,0,1,365.57,86.61Zm-7,68.24a9.52,9.52,0,0,0,.48-1.18,23.19,23.19,0,0,0,.82-4,94,94,0,0,0,.83-12.49q.22-10.36-.36-22.16a18,18,0,0,0-.12-2,2.54,2.54,0,0,1-2,.59q-14.73-.94-20.5.71a8.62,8.62,0,0,0-4.3,2.88,37.88,37.88,0,0,0-3.95,6.07,22.31,22.31,0,0,0-2.89,12q.18,6.72,4.07,10.85a20.16,20.16,0,0,0,5.24,3.35,57.15,57.15,0,0,0,9,3.6A40.23,40.23,0,0,0,354,155.2C356.3,155.44,357.83,155.32,358.61,154.85Z" transform="translate(-5 -5)"/><path class="cls-12" d="M408.46,119.37a47.47,47.47,0,0,0-11.78-4q-6.37-.83-9,2.94a2.87,2.87,0,0,0-.71,1.48,4.41,4.41,0,0,0,.48,1.59,16.23,16.23,0,0,0,1.41,2.12q.83,1.06,1.47,1.77a13.33,13.33,0,0,0,2.18,1.76l2,1.54,2.59,1.65c1.33.94,2.2,1.53,2.59,1.76a55.45,55.45,0,0,1,5.24,3.89,23.7,23.7,0,0,1,4.19,5,17.83,17.83,0,0,1,2.71,7q.58,4.25-3.77,7.19a24.33,24.33,0,0,1-7.66,3.07,48.72,48.72,0,0,1-8.31,1.41,29.05,29.05,0,0,1-6.54,0,55,55,0,0,1-6.84-2.59,3.32,3.32,0,0,1-1.65-1.77,2.79,2.79,0,0,1,.06-2.3,3.17,3.17,0,0,1,1.71-1.59,2.81,2.81,0,0,1,2.24,0,34.6,34.6,0,0,0,5.66,2.12,18.49,18.49,0,0,0,5.12.06,37.38,37.38,0,0,0,7-1.24,19.29,19.29,0,0,0,5.77-2.24c.78-.54,1.14-.94,1.06-1.17a12.71,12.71,0,0,0-2.83-6.31,30,30,0,0,0-6.6-5.48c-.31-.23-1.1-.76-2.35-1.59s-2.18-1.41-2.77-1.77a26.91,26.91,0,0,1-2.54-1.82,24.37,24.37,0,0,1-2.59-2.3c-.63-.67-1.34-1.49-2.12-2.48a16.69,16.69,0,0,1-1.89-2.88,8.07,8.07,0,0,1,.71-9.43q4.71-6.84,14.73-5.42a48.92,48.92,0,0,1,13.55,4.36,3,3,0,0,1,1.59,1.77,3,3,0,0,1-.11,2.35,2.85,2.85,0,0,1-1.71,1.59A3.21,3.21,0,0,1,408.46,119.37Z" transform="translate(-5 -5)"/><path class="cls-12" d="M454.77,80.13q3.78-.12,13,.12a123.44,123.44,0,0,0,12.61-.12,2.86,2.86,0,0,1,2.24.71A3.09,3.09,0,0,1,483.64,83a2.89,2.89,0,0,1-.7,2.24,3.09,3.09,0,0,1-2.12,1.06q-5.07.36-13.32.12-9-.24-12.49-.12h-.71v.12q0,7.31-1.06,19l-.59,5.89q4.13,1.77,7.6,2.89a56.05,56.05,0,0,0,7.43,1.83,29.79,29.79,0,0,0,7.66.41,24.61,24.61,0,0,0,7-1.59,3.09,3.09,0,0,1,2.35,0,2.8,2.8,0,0,1,1.65,1.65,3,3,0,0,1,0,2.36,2.86,2.86,0,0,1-1.65,1.65q-13,5.18-32.52-2.72c-.24,2.13-.39,4.17-.47,6.13q-.24,5.19.23,13.56.71,10.36.71,14.14a3.07,3.07,0,1,1-6.13,0q0-3.54-.7-13.67-.48-9-.24-14.26.24-4.25,1.53-18.86,1.06-11.9,1.06-18.38a3,3,0,0,1,3.07-3.07h.59a3.3,3.3,0,0,1,.82-2.24A2.72,2.72,0,0,1,454.77,80.13Z" transform="translate(-5 -5)"/><path class="cls-12" d="M501.79,113.13q-.12,1.65-1.41,18.32t-1.3,25.4a3,3,0,0,1-3.06,3.06,2.93,2.93,0,0,1-2.18-.88,3,3,0,0,1-.89-2.18q0-6.48.47-13.91c.32-4.95.73-10.38,1.24-16.32s.84-10.58,1-14a3.21,3.21,0,0,1,1.06-2.07,2.72,2.72,0,0,1,2.18-.76,3.24,3.24,0,0,1,2.12,1.06A2.76,2.76,0,0,1,501.79,113.13Zm-2.42-21a3.11,3.11,0,0,1,0,4.36,2.94,2.94,0,0,1-2.18.89,3.07,3.07,0,1,1,0-6.13A2.93,2.93,0,0,1,499.37,92.09Z" transform="translate(-5 -5)"/><path class="cls-12" d="M524.06,122.79q4.49-9.54,11.2-11.19,7.07-1.77,14.85,5.65a3,3,0,0,1,.94,2.18,3.07,3.07,0,0,1-.89,2.18,2.78,2.78,0,0,1-2.12,1,3.23,3.23,0,0,1-2.18-.83q-5.42-5.17-9.19-4.24t-6.95,7.89A3.11,3.11,0,0,1,528,127a3.31,3.31,0,0,1-2.36-.06,3.18,3.18,0,0,1-1.76-2.24,190.26,190.26,0,0,0,3.53,43.72,2.54,2.54,0,0,1-.35,2.24,3.12,3.12,0,0,1-2,1.35,2.78,2.78,0,0,1-2.29-.41,2.94,2.94,0,0,1-1.3-2,196,196,0,0,1-2.83-58.69,2.91,2.91,0,0,1,1.12-2,3,3,0,0,1,4.3.41,3,3,0,0,1,.71,2.3q-.6,6.95-.83,11.66A1,1,0,0,0,524.06,122.79Z" transform="translate(-5 -5)"/><path class="cls-12" d="M585.58,119.37a47.52,47.52,0,0,0-11.79-4q-6.36-.83-8.95,2.94a2.79,2.79,0,0,0-.71,1.48,4.34,4.34,0,0,0,.47,1.59A16.23,16.23,0,0,0,566,123.5c.55.71,1,1.3,1.48,1.77a13.33,13.33,0,0,0,2.18,1.76l2,1.54,2.59,1.65c1.34.94,2.2,1.53,2.6,1.76a56.79,56.79,0,0,1,5.24,3.89,23.69,23.69,0,0,1,4.18,5,17.53,17.53,0,0,1,2.71,7q.6,4.25-3.77,7.19a24.23,24.23,0,0,1-7.66,3.07,48.72,48.72,0,0,1-8.31,1.41,29.07,29.07,0,0,1-6.54,0,55.72,55.72,0,0,1-6.83-2.59,3.25,3.25,0,0,1-1.65-1.77,2.76,2.76,0,0,1,.06-2.3,3.11,3.11,0,0,1,1.71-1.59,2.81,2.81,0,0,1,2.24,0,34.63,34.63,0,0,0,5.65,2.12,18.55,18.55,0,0,0,5.13.06,37.42,37.42,0,0,0,7-1.24,19.37,19.37,0,0,0,5.78-2.24c.78-.54,1.13-.94,1.06-1.17a12.8,12.8,0,0,0-2.83-6.31,30.43,30.43,0,0,0-6.6-5.48c-.32-.23-1.1-.76-2.36-1.59s-2.18-1.41-2.77-1.77a27.07,27.07,0,0,1-2.53-1.82,23.4,23.4,0,0,1-2.59-2.3c-.63-.67-1.34-1.49-2.13-2.48a16.6,16.6,0,0,1-1.88-2.88,9.65,9.65,0,0,1-1.18-4.84,9.8,9.8,0,0,1,1.89-4.59q4.71-6.84,14.73-5.42a48.92,48.92,0,0,1,13.55,4.36,3.1,3.1,0,0,1,1.47,4.12,2.8,2.8,0,0,1-1.71,1.59A3.18,3.18,0,0,1,585.58,119.37Z" transform="translate(-5 -5)"/><path class="cls-12" d="M610,117a23.48,23.48,0,0,1-2.59-.12,11.22,11.22,0,0,1-3.07-.35,3.67,3.67,0,0,1-1.41-.48,3.58,3.58,0,0,1-1.89-2,3.38,3.38,0,0,1,.94-3.77,4.09,4.09,0,0,1,1.66-1.12,8.59,8.59,0,0,1,1.17-.41,33.46,33.46,0,0,1,9.31-5.3,2.94,2.94,0,0,1,2.3.23,3.07,3.07,0,0,1,1.53,1.77,2.77,2.77,0,0,1-.17,2.3,3.44,3.44,0,0,1-1.77,1.59,25.6,25.6,0,0,0-3.42,1.41h2.12l7.78-.59c3-.23,4.63-.35,4.95-.35a3.35,3.35,0,0,1,2.24.82,2.69,2.69,0,0,1,.94,2.13,3.3,3.3,0,0,1-.82,2.23,2.7,2.7,0,0,1-2.12.95c-.4,0-1.95.11-4.66.35s-5,.39-6.89.47q-.95,16.38.47,26.4,1.17,8.25,3.65,10.61a2,2,0,0,0,1.77.58c1.25-.15,2.79-1,4.59-2.59a2.91,2.91,0,0,1,2.24-.71,3.12,3.12,0,0,1,2.13,1.07,2.88,2.88,0,0,1,.7,2.23,3.09,3.09,0,0,1-1.06,2.13c-2.75,2.35-5.34,3.69-7.78,4a8.2,8.2,0,0,1-6.95-2.35q-3.89-3.78-5.3-14.15Q609,133.29,610,117Z" transform="translate(-5 -5)"/><path class="cls-13" d="M169.5,70.25c-24.9,14.29-62.5,8-83.9-9.46-10.26-8.36-8.34-8.56,2.65-11.3,9.49-2.35,15.1-4.19,26.27,4.24,6.64,5,13.41,8.7,19.63,10.21,14.79,3.62,25.95,3.31,36.12-.43C189.74,56.35,190.32,58.3,169.5,70.25Z" transform="translate(-5 -5)"/><path class="cls-14" d="M136.86,32.76C142.35,44.34,154.78,54.46,168,55c9.67.38,15.75-2.19.38,3.46-9.14,3.36-19.33,3.6-33,.27-5.13-1.26-10.76-4.23-16.39-8.33-13.62-9.9-.94-13.37,8.92-21.61C137.39,20.88,131.78,22,136.86,32.76Z" transform="translate(-5 -5)"/><path class="cls-15" d="M92,8a90.6,90.6,0,0,0,30.31,7c9.54.66,11.43-.38,4.07,8.54A50.39,50.39,0,0,1,114.12,34c-11.24,7-21.18-7.1-26.91-19.41C81.8,3,81.25,3.46,92,8Z" transform="translate(-5 -5)"/><path class="cls-16" d="M80,35.47a111.84,111.84,0,0,0,1.47-14.25c.28-8-1-8.12,3.38-1.06,2.35,3.82,5.2,8,7.73,11.38,4.26,5.73,7.46,9.51.52,11.44-2.31.65-4.65,1.22-7,1.71C74.74,47.08,78.3,45.42,80,35.47Z" transform="translate(-5 -5)"/><path class="cls-17" d="M394.82,243.86v-22a1,1,0,0,1,1.12-1.12h7.88a7,7,0,1,1,0,14h-6.95v9a1,1,0,0,1-1,1A1.07,1.07,0,0,1,394.82,243.86Zm8.78-21.2h-6.73V233h6.73a5.15,5.15,0,1,0,0-10.3Z" transform="translate(-5 -5)"/><path class="cls-17" d="M413.86,236.09c0-5.08,3.28-9.11,8.36-9.11s8.38,4,8.38,9.11-3.24,9.14-8.38,9.14S413.86,241.16,413.86,236.09Zm14.73,0c0-3.85-2.27-7.42-6.37-7.42s-6.34,3.57-6.34,7.42,2.3,7.45,6.34,7.45S428.59,240,428.59,236.09Z" transform="translate(-5 -5)"/><path class="cls-17" d="M443.31,228.1a1,1,0,0,1-1.11.93,6.62,6.62,0,0,0-4.9,3.1V244a.94.94,0,1,1-1.87,0V228.24a.94.94,0,0,1,1.87,0v2.2a8,8,0,0,1,4.25-3.17,2.44,2.44,0,0,1,.83-.14A.91.91,0,0,1,443.31,228.1Z" transform="translate(-5 -5)"/><path class="cls-17" d="M453.46,243.83a.79.79,0,0,1-.43.72,4,4,0,0,1-2.41.68c-2.3,0-3.42-1.4-3.42-3.78V229.07h-2.12a.83.83,0,1,1,0-1.66h2.12v-3.92a1,1,0,0,1,1.91,0v3.92h2.77a.83.83,0,1,1,0,1.66h-2.77v12.09c0,1.41.57,2.38,1.8,2.38,1,0,1.29-.54,1.73-.54A.81.81,0,0,1,453.46,243.83Z" transform="translate(-5 -5)"/><path class="cls-17" d="M469.66,232.56V244a.94.94,0,1,1-1.87,0v-1.29a7.43,7.43,0,0,1-5.9,2.55,5.82,5.82,0,0,1-6.08-5.79c0-3.78,3.05-5.76,6.08-5.76a7.52,7.52,0,0,1,5.9,2.48v-3.53c0-2.59-2.09-4-4.68-4a6.39,6.39,0,0,0-4.89,2.05.9.9,0,0,1-.54.18.82.82,0,0,1-.83-.83.76.76,0,0,1,.29-.61,8.23,8.23,0,0,1,6.19-2.45C466.86,227,469.66,228.67,469.66,232.56Zm-1.87,8.82v-3.82a6.53,6.53,0,0,0-5.25-2.41c-2.88,0-4.76,1.84-4.76,4.32s1.88,4.29,4.76,4.29A6.51,6.51,0,0,0,467.79,241.38Z" transform="translate(-5 -5)"/><path class="cls-17" d="M475.5,244V221.62a.94.94,0,1,1,1.87,0V244a.94.94,0,1,1-1.87,0Z" transform="translate(-5 -5)"/></svg>