<svg id="Isolation_Mode" data-name="Isolation Mode" xmlns="http://www.w3.org/2000/svg" viewBox="0 0 30.72 43.69"><defs><style>.cls-1{fill:#e44097;}</style></defs><title>icon-patient</title><path class="cls-1" d="M30.72,25.29a4.8,4.8,0,0,1-.52.66,2.1,2.1,0,0,1-3-.08l-5.06-5.07L22,20.65c-.07.08,0,.16,0,.23,0,1.42,0,2.83,0,4.24,0,.19,0,.25-.24.25H9.12c-.22,0-.25-.07-.25-.26,0-1.41,0-2.81,0-4.22v-.22c-.4.39-.8.77-1.18,1.15L3.86,25.68a2.47,2.47,0,0,1-1.73.81,2,2,0,0,1-1.86-1,2,2,0,0,1,.06-2.1,3.37,3.37,0,0,1,.55-.68L9,14.52a3.53,3.53,0,0,1,2-1.11,5.12,5.12,0,0,1,.76-.06H19a3.83,3.83,0,0,1,2.86,1.18q4.08,4.11,8.18,8.2a3.62,3.62,0,0,1,.67.9Z"/><path class="cls-1" d="M16,0c.34.08.7.1,1,.2A6,6,0,0,1,21.53,5,6.19,6.19,0,1,1,14.1.15c.27-.06.56-.1.83-.15Z"/><path class="cls-1" d="M12.51,43.67a2.88,2.88,0,0,0-.43,0,1.36,1.36,0,0,1-1.22-.51L8.67,40.9,4.9,37a3.92,3.92,0,0,1-.76-4.19,2.53,2.53,0,0,1,.48-.7l4.14-4.15c.1-.1.15-.09.24,0l4.69,4.69c.12.12.06.18,0,.27l-3.29,3.28c-.14.14-.17.21,0,.37q1.79,1.76,3.55,3.54a2.24,2.24,0,0,1,.73,1.86,2.16,2.16,0,0,1-1.11,1.69.38.38,0,0,1-.21,0Z"/><path class="cls-1" d="M18.29,43.67c-.22,0-.44,0-.66,0a.82.82,0,0,1-.6-.21,2.18,2.18,0,0,1-.17-3.35q1.79-1.81,3.6-3.6c.13-.13.14-.19,0-.32L17.15,32.9c-.13-.12-.13-.19,0-.31q2.31-2.3,4.61-4.62c.14-.14.2-.12.33,0,1.26,1.27,2.5,2.57,3.8,3.8a3.51,3.51,0,0,1,.78,4A3.89,3.89,0,0,1,25.85,37L20.21,42.9a4.26,4.26,0,0,1-.7.62.84.84,0,0,1-.54.15c-.23,0-.45,0-.68,0"/></svg>