<svg id="_7c_H" data-name="7c H" xmlns="http://www.w3.org/2000/svg" viewBox="0 0 645.75 239.08"><defs><style>.cls-1,.cls-16{fill:#f6921e;}.cls-2{fill:#fd9d6f;}.cls-3{fill:#b86966;}.cls-11,.cls-4{fill:#fff;}.cls-4{opacity:0.38;}.cls-5{fill:#fb5c0f;}.cls-6{fill:#882d00;}.cls-10,.cls-7{fill:#c39;}.cls-8{fill:#dfdfdf;}.cls-9{fill:#0d99b7;}.cls-10,.cls-13,.cls-14,.cls-15,.cls-16,.cls-9{fill-rule:evenodd;}.cls-12,.cls-17{fill:#2b388f;stroke:#2e3191;}.cls-12{stroke-width:0.81px;}.cls-13{fill:#90278e;}.cls-14{fill:#00adee;}.cls-15{fill:#be1e2d;}.cls-17{stroke-width:1px;}</style></defs><title>logo-kids-first-data-portal</title><path class="cls-1" d="M348.48,29.44a21.28,21.28,0,0,1,4.27-2.57,15.84,15.84,0,0,1,4.86-1.26,34.31,34.31,0,0,1-3.86.16,15.76,15.76,0,0,0-6.67,1.33,23,23,0,0,0-5.61,3.65,17.18,17.18,0,0,0-4.94-4.85,13.7,13.7,0,0,0-8.56-1.8,35.27,35.27,0,0,0-6.1,1.11A15,15,0,0,0,317,27.48c-.33.23-.64.49-.93.74s-.53.5-.77.75a12.45,12.45,0,0,0-1.26,1.58,14.64,14.64,0,0,0-2.27,6.74,24.67,24.67,0,0,0-6.73-.28,20.84,20.84,0,0,0-3.06.54,16.36,16.36,0,0,0-2.72,1l-.33.15h0l-.43.18a14.87,14.87,0,0,1-2.12.65h0l-.36.08a13.94,13.94,0,0,0-4.75,2c-1.51.93-3.14,2.09-4.89,3.31a23,23,0,0,0-3.42-5.3,13.72,13.72,0,0,0-6.71-3.89l.07,0c-.9-.24-1.82-.47-2.77-.67l-1.45-.28-1.38-.23h-.08a14.76,14.76,0,0,0-8.31,1,15.89,15.89,0,0,0-5.64,4.35,15,15,0,0,0-6.35-3.52,14.61,14.61,0,0,0-9,.74,54.72,54.72,0,0,0-5.21,2.38A14.44,14.44,0,0,0,230,45.19a17.53,17.53,0,0,0-2,6.66,20.13,20.13,0,0,0-6.85-.22,14.4,14.4,0,0,0-3.45,1,15.73,15.73,0,0,0-1.71.87,16.65,16.65,0,0,0-1.5,1,30.38,30.38,0,0,1-3.07,2,7.76,7.76,0,0,0-2,1.4,6.67,6.67,0,0,0-1.05,1.56,12.19,12.19,0,0,1-1.18,1.89,10.32,10.32,0,0,1-2,1.92A52.22,52.22,0,0,0,204,57.62a22.42,22.42,0,0,0-4.7-6.66c-.21-.18-.43-.37-.68-.56a8.31,8.31,0,0,0-1.87-.79,3.29,3.29,0,0,0-1,.08l-.82.2c-.54.13-1.09.26-1.65.43-.28.08-.55.18-.83.29l-.42.17-.38.18-1.5.71-3,1.43A29.19,29.19,0,0,1,184,54.34a5.94,5.94,0,0,1-3.2-.26,7.65,7.65,0,0,0-3.31.05c-1.08.22-.19.9-1.09.24.86.71,0-.12,1.06.05s1.41.06,2.53.14c.51,0,1.92.58,2.44.56a7.24,7.24,0,0,1,1.85.5,6.24,6.24,0,0,1,1.94,1.29,7.11,7.11,0,0,1,1.25,2,8.92,8.92,0,0,1,.66,2.21c.06.36.09.78.16,1.2s.14.82.25,1.23a7.59,7.59,0,0,0,1,2.41c2.2,3.24,6.89,3.48,7,3.49a12.91,12.91,0,0,0,6.95-1,9.61,9.61,0,0,0,2.38,3,10.15,10.15,0,0,0,4,2,12.66,12.66,0,0,0,5.07.24,15.41,15.41,0,0,0,5.15-1.76A48.3,48.3,0,0,0,225,68.82a16.62,16.62,0,0,0,1.84-1.53,14,14,0,0,0,3.1-4.51,21.77,21.77,0,0,0,1.47-6.51,26.3,26.3,0,0,0,6.58.62,15.53,15.53,0,0,0,6.47-1.78A37.3,37.3,0,0,1,248,53.5a14.44,14.44,0,0,0,5.15-3.36,43.64,43.64,0,0,0,4-4.84,35.29,35.29,0,0,0,4.69,4.2,14.4,14.4,0,0,0,6,2.46l-.33,0,1,.16.48.08.44.08c.6.12,1.2.26,1.83.42h0l.49.13-.25-.07a16.16,16.16,0,0,0,7,.14,19.28,19.28,0,0,0,6.52-2.69,13.58,13.58,0,0,0,5.33,5.44,14.25,14.25,0,0,0,10.06,1.1,32.66,32.66,0,0,0,6.26-2.15,15.48,15.48,0,0,0,4.39-3,12.26,12.26,0,0,0,2.41-3.3,17.5,17.5,0,0,0,1.55-6.6,47.83,47.83,0,0,0,6.26.94c.49,0,1,0,1.44,0l1.34,0a11.2,11.2,0,0,0,2.5-.39,17.61,17.61,0,0,1,3-.53A15.32,15.32,0,0,0,335.48,40a28.18,28.18,0,0,0,5.33-3.76,18.72,18.72,0,0,0,4.74,4.92,14.37,14.37,0,0,0,8.09,2.35,51.24,51.24,0,0,0,5.88-.27,15.12,15.12,0,0,1-7.21-.89,13.75,13.75,0,0,1-4.73-3.18l-1.74-2c-.83-1.08-1.59-2.22-2.33-3.36,1-.92,2-1.85,3-2.72v0C346.59,31,348.48,29.44,348.48,29.44Zm-146.12,29a11.86,11.86,0,0,1,.51,3.3c.05,1.13.23,2.66-.7,3.53S196.35,67,195.24,67c-1.49-.09-3.61-.66-4.59-1.83a6.26,6.26,0,0,1-1-1.92c-.13-.36-.24-.73-.33-1.11L189,60.9a9.71,9.71,0,0,0-.93-2.33,7.68,7.68,0,0,0-1.53-2,6.56,6.56,0,0,0-2.18-1.18,6.36,6.36,0,0,0-1.38-.3,7.68,7.68,0,0,0,1.19-.23,30,30,0,0,0,3.19-1.07l3.09-1.26,1.55-.63.38-.15.36-.12c.25-.08.5-.15.76-.21.52-.13,1.05-.22,1.6-.32l.81-.15a2,2,0,0,1,.62,0c3,.43,4.37,4.1,4.51,4.42C201.51,56.4,202,57.42,202.36,58.46Zm25.24.67-.32,2.6a19.09,19.09,0,0,1-.56,2.4c-.12.39-.26.79-.42,1.18q-.12.29-.25.58c-.09.2-.2.4-.32.6,0,0-1.25,1.79-1.23,1.81a13.78,13.78,0,0,1-2,2,15,15,0,0,1-2.17.86c-.63.18-2.24.5-2.24.5a12.52,12.52,0,0,1-5.86-.57l-2.6-1.33a10.39,10.39,0,0,1-3.08-3.37,11.05,11.05,0,0,0,1.66-2c.42-1,1.55-3.17,1.55-3.17a20.59,20.59,0,0,1,1.5-3.31s.88-1.06.8-1.13a3.89,3.89,0,0,1,1.07-1,10.85,10.85,0,0,1,3.47-1.07l1.21-.18q.62-.08,1.24-.11a19.81,19.81,0,0,1,2.49,0l2.62.33c1.21.2,2.41.46,3.61.73C227.75,56.71,227.7,57.93,227.6,59.13Zm23.49-10.61c-.78,1.25-3.7,4.61-3.7,4.61a13.59,13.59,0,0,1-1.26,1,15.14,15.14,0,0,1-1.85.36l-1.69.13a22.2,22.2,0,0,1-4.56-.41S233,53,231.67,52.65c.11-1.33,1.1-6.58,1.1-6.58a14,14,0,0,1,2.42-4.61,13.21,13.21,0,0,1,3.64-3.16,18.28,18.28,0,0,1,4.57-.72,15.36,15.36,0,0,1,11.14,5.18C253.74,44,251.08,48.52,251.08,48.52Zm32.4-1.67c-1.07.7-2.16,1.39-3.28,2-2.15,2-8.35,3-8.35,3.06a15.53,15.53,0,0,1-2.08.16l-.61-.28-.29-.15-1.78-1A18.45,18.45,0,0,1,264,48l-1.61-1.82c-1-1.19-2-2.45-3.06-3.67.89-1.09,5-5,6.18-5.59a29,29,0,0,1,5.65-1.69,7,7,0,0,1,1.12-.09c.4,0,.81,0,1.22.06a27,27,0,0,1,2.59,1.16,15.42,15.42,0,0,1,1.66,1.17,33.34,33.34,0,0,1,3.59,4.14C281.77,42.33,283.05,45.86,283.49,46.86Zm27.76-1.57,0,0c0,.26,0,.51-.07.76a7.09,7.09,0,0,1-.5,1.87v0A13.41,13.41,0,0,1,306.29,54a20.55,20.55,0,0,1-2.66,1.64A15.56,15.56,0,0,1,299,56c-5.47-.68-7.31-3.23-7.57-3.55A19.53,19.53,0,0,1,288.1,48a50,50,0,0,0,4-3.76l1.46-1.52A23.76,23.76,0,0,1,296,40.46s1.55-1.06,1.79-1.2a41.63,41.63,0,0,1,4.29-.09,27.72,27.72,0,0,1,9.53,1.77A42.51,42.51,0,0,1,311.25,45.29Zm24.94-9.57a23,23,0,0,1-5.52,4.7c-.43.27-2.12,1.15-2.58,1.34-.47,0-2.68-.44-2.68-.44-.58-.16-1.17-.34-1.78-.55s-1.23-.44-1.93-.65l-2.29-.75c-1.3-.43-2.65-.87-4-1.25a25.67,25.67,0,0,1,.68-4.31,7.72,7.72,0,0,1,.52-2.15,9.9,9.9,0,0,1,1-1.48,11.9,11.9,0,0,1,2.9-3.24A14.24,14.24,0,0,1,325,24.66a13.68,13.68,0,0,1,5,.58,12.64,12.64,0,0,1,4.53,2.64,18.18,18.18,0,0,1,2.23,2.32c.08.11,1.5,2.1,2.1,3Z"/><path class="cls-2" d="M309.48,43l-.29-.41a2.14,2.14,0,0,1-1.29.88l.31.44a.17.17,0,0,1-.06.23l0,0,3.07,4.2c.2.28.72.25,1.17-.07s.65-.8.44-1.08L309.73,43h0A.17.17,0,0,1,309.48,43Z"/><path class="cls-3" d="M304.68,39.33l1.13,1.56,1.81,2.52,0,.06.46.65,0,0a.17.17,0,0,0,.06-.23l-.31-.44a2.14,2.14,0,0,0,1.29-.88l.29.41a.17.17,0,0,0,.24,0h0l-.43-.6-.08-.11-1.84-2.57S305,39.3,304.68,39.33Z"/><path class="cls-4" d="M305.9,39.88l5.91,8.26h0A.58.58,0,0,1,311,48l-5.86-8.17Z"/><path class="cls-2" d="M347.8,35.2l.06-.5a2.13,2.13,0,0,1-1.54-.23l-.07.53a.17.17,0,0,1-.2.13h0l-.23,2,1.74,2,.47-3.72h0A.17.17,0,0,1,347.8,35.2Z"/><path class="cls-3" d="M346.93,28.17l-.42,3-.39,3.08v.07l-.1.79h0a.17.17,0,0,0,.2-.13l.07-.53a2.13,2.13,0,0,0,1.54.23l-.06.5a.17.17,0,0,0,.17.18h0l.09-.73,0-.13.39-3.14.41-3c0-.34-.37-.6-.91-.67S347,27.83,346.93,28.17Z"/><path class="cls-4" d="M347.62,28l-1.21,9.66-.48-.66L347,28.5a.58.58,0,0,1,.63-.53Z"/><path class="cls-2" d="M235.65,50.76l-.27-.4a2.22,2.22,0,0,1-1.31.83l.29.43a.17.17,0,0,1-.07.23l0,0,2.88,4.34c.18.27.7.25,1.16-.05s.68-.77.49-1l-2.88-4.33h0A.17.17,0,0,1,235.65,50.76Z"/><path class="cls-3" d="M232.24,48.9l1.55,2.27,0,.05.43.64,0,0a.17.17,0,0,0,.07-.23l-.29-.43a2.22,2.22,0,0,0,1.31-.83l.27.4a.17.17,0,0,0,.24,0h0l-.39-.59-.07-.11-1.69-2.53-1-1.46Z"/><path class="cls-4" d="M232.48,48,238,56.23h0a.57.57,0,0,1-.79-.17l-4.83-7.25Z"/><path class="cls-2" d="M264.38,43.15l0-.48a2.23,2.23,0,0,1-.74.05,2.2,2.2,0,0,1-.81-.24l0,.51a.17.17,0,0,1-.2.13h0l-.47,5.22c0,.33.39.64.93.69s1-.17,1-.5l.47-5.22h0A.17.17,0,0,1,264.38,43.15Z"/><path class="cls-3" d="M263,38.84l0,.48-.28,3v.07l-.07.76h0a.17.17,0,0,0,.2-.13l0-.51a2.2,2.2,0,0,0,.81.24,2.23,2.23,0,0,0,.74-.05l0,.48a.17.17,0,0,0,.17.17h0l.07-.71v-.13l.29-3,.22-2.35C265.19,36.77,263,38.84,263,38.84Z"/><path class="cls-4" d="M263.73,38.31,262.8,48h0a.57.57,0,0,1-.5-.63l.81-8.49Z"/><path class="cls-2" d="M226.22,57.46l-.3-.37a2.22,2.22,0,0,1-1.23.95l.32.4a.17.17,0,0,1-.05.23l0,0,2.38,3,.31-2.68-1.14-1.51h0A.17.17,0,0,1,226.22,57.46Z"/><path class="cls-3" d="M220.84,53.6l1.69,2.12L224.4,58l0,.05.48.6,0,0a.17.17,0,0,0,.05-.23l-.32-.4a2.22,2.22,0,0,0,1.23-.95l.3.37a.17.17,0,0,0,.24,0h0l-.45-.55-.08-.1L224,54.42l-1.65-2.07c-.21-.26-.68-.14-1.1.2S220.63,53.34,220.84,53.6Z"/><path class="cls-4" d="M221.17,53l6.13,7.61-.13.74-6.08-7.54a.57.57,0,0,1,.07-.81Z"/><path class="cls-2" d="M251.76,43.92l-.11-.47a2.23,2.23,0,0,1-1.52.32l.12.5a.17.17,0,0,1-.15.19h0l1,4.14c.36-.58,1.46-2.44,1.46-2.44L252,44h0A.17.17,0,0,1,251.76,43.92Z"/><path class="cls-3" d="M248.71,38.72l.48,2,.69,2.91v.06l.18.75h0a.17.17,0,0,0,.15-.19l-.12-.5a2.23,2.23,0,0,0,1.52-.32l.11.47a.17.17,0,0,0,.22.1h0l-.16-.69,0-.12-.7-3-.47-2c-.08-.32-.55-.42-1.08-.29S248.63,38.39,248.71,38.72Z"/><path class="cls-4" d="M249.26,38.15l2.25,9.51-.43.61-2.23-9.43a.57.57,0,0,1,.41-.7Z"/><path class="cls-2" d="M299.54,48.88l-.14-.7a1.57,1.57,0,0,1-.68.32,1.6,1.6,0,0,1-.86-.08l.15.76a.21.21,0,0,1-.14.25h0L299.14,56a4.46,4.46,0,0,0,2,0l-1.35-6.92h0A.21.21,0,0,1,299.54,48.88Z"/><path class="cls-3" d="M296.11,40.38l.64,3.47.84,4.36,0,.1.22,1.12h0a.21.21,0,0,0,.14-.25l-.15-.76a1.6,1.6,0,0,0,.86.08,1.57,1.57,0,0,0,.68-.32l.14.7a.21.21,0,0,0,.23.18h0l-.2-1,0-.19-.86-4.45L298.06,40a.87.87,0,0,0-1.12-.59C296.4,39.51,296,39.9,296.11,40.38Z"/><path class="cls-4" d="M296.7,40l3.05,15.77s-.51.32-.6-.15L296.31,41c-.09-.47.08-.9.39-1Z"/><path class="cls-2" d="M245.44,44.16l.26.68a1.55,1.55,0,0,0-.75.08,1.57,1.57,0,0,0-.69.52l-.28-.73a.21.21,0,0,0-.25-.15l0,0-2.58-6.76c-.18-.47,1.68-1.17,1.85-.71l2.58,6.75h0A.21.21,0,0,0,245.44,44.16Z"/><path class="cls-3" d="M247.1,53.36,245.76,50l-1.61-4.23,0-.09-.41-1.09,0,0a.21.21,0,0,1,.25.15l.28.73a1.57,1.57,0,0,1,.69-.52,1.55,1.55,0,0,1,.75-.08l-.26-.68a.21.21,0,0,1,.09-.28h0l.38,1,.07.18,1.64,4.31.89,2.35A7.14,7.14,0,0,1,247.1,53.36Z"/><path class="cls-4" d="M247.36,52.33l-5.69-14.91s-.58.06-.4.51l5.63,14.78C247.08,53.17,247.36,52.33,247.36,52.33Z"/><path class="cls-5" d="M275.67,43.74l-.19.69a1.57,1.57,0,0,0-.65-.37,1.6,1.6,0,0,0-.86,0l.2-.74a.21.21,0,0,0-.12-.26h0l1.88-6.84a9.21,9.21,0,0,1,1.75,1.22l-1.72,6.14h0A.21.21,0,0,0,275.67,43.74Z"/><path class="cls-6" d="M271.67,51.55l.83-3,1.18-4.29,0-.09.3-1.1h0a.21.21,0,0,1,.12.26l-.2.74a1.6,1.6,0,0,1,.86,0,1.57,1.57,0,0,1,.65.37l.19-.69a.21.21,0,0,1,.24-.16h0l-.28,1-.05.18-1.2,4.37-.81,2.92a.87.87,0,0,1-1.16.5C271.89,52.44,271.54,52,271.67,51.55Z"/><path class="cls-4" d="M272.15,52.34l4.29-15.61-.47-.34-4.13,15c-.13.46,0,.9.31,1Z"/><path class="cls-2" d="M270.05,42.51l-.11.71a1.58,1.58,0,0,0-.69-.3,1.6,1.6,0,0,0-.85.1l.12-.76a.21.21,0,0,0-.15-.25h0l1-6.43a5.25,5.25,0,0,1,2.08-.47l-1.15,7.21h0A.21.21,0,0,0,270.05,42.51Z"/><path class="cls-3" d="M266.94,50.71l.49-3.08.7-4.39,0-.1.18-1.13h0a.21.21,0,0,1,.15.25l-.12.76a1.6,1.6,0,0,1,.85-.1,1.58,1.58,0,0,1,.69.3l.11-.71a.21.21,0,0,1,.22-.19h0l-.17,1,0,.19L269.38,48l-.54,3.58c-.06.2-.68.17-1.22.08A.78.78,0,0,1,266.94,50.71Z"/><path class="cls-4" d="M267.53,51.35l2.55-15.91-.62.34-2.35,14.63c-.08.47.11.9.42.95Z"/><path class="cls-5" d="M239.08,47.39l.15.28a1.49,1.49,0,0,0-.43.79l1,2,2.67,5c.23.43,2-.5,1.75-.93l-2.55-4.76-1.28-2.41a1.42,1.42,0,0,0-.8.09l-.13-.24a.25.25,0,1,0-.43.23Z"/><path class="cls-6" d="M235.13,41.54l3.66,6.91a1.49,1.49,0,0,1,.43-.79l-.15-.28a.25.25,0,1,1,.43-.23l.13.24a1.42,1.42,0,0,1,.8-.09l-3.67-6.89a.82.82,0,0,0-.31-.32A16.69,16.69,0,0,0,235.13,41.54Z"/><path class="cls-4" d="M235.7,41.25l7.43,13.95h0c-.27.15-.68-.08-.9-.5l-6.95-13Z"/><path class="cls-5" d="M303.23,45.86l.14.28a1.49,1.49,0,0,0-.45.77l1,2,2.43,4.89a1,1,0,0,0,1.78-.88l-2.32-4.67-1.19-2.4a1.44,1.44,0,0,0-.8.08l-.12-.24a.25.25,0,1,0-.44.22Z"/><path class="cls-6" d="M299.08,39.2l3.84,7.7a1.49,1.49,0,0,1,.45-.77l-.14-.28a.25.25,0,1,1,.44-.22l.12.24a1.44,1.44,0,0,1,.8-.08l-3.27-6.63A6.34,6.34,0,0,0,299.08,39.2Z"/><path class="cls-4" d="M300.13,39.86l6.81,13.73h0c-.28.14-.67-.09-.88-.52l-6.54-13.18C299.31,39.47,300.13,39.86,300.13,39.86Z"/><path class="cls-5" d="M323,33.46l.07.3a1.49,1.49,0,0,0-.62.64l.49,2.14,1,4.31a8.93,8.93,0,0,0,2.24.63l-1.25-5.14-.6-2.61a1.43,1.43,0,0,0-.79-.11l-.06-.26a.25.25,0,1,0-.48.11Z"/><path class="cls-6" d="M320.59,26.46l1.85,7.93a1.49,1.49,0,0,1,.62-.64l-.07-.3a.25.25,0,1,1,.48-.11l.06.26a1.43,1.43,0,0,1,.79.11l-1.8-7.7c-.11-.47-.56-.53-1.09-.41S320.48,26,320.59,26.46Z"/><path class="cls-4" d="M321.15,25.9,324.64,41l-.63-.26L320.8,26.86c-.11-.46.05-.89.35-1Z"/><path class="cls-5" d="M328.91,32.4l0,.31a1.49,1.49,0,0,0-.72.53l.14,2.19.35,5.77c0,.48.47.42,1,.39s1-.36.94-.84l-.31-5.19-.17-2.68a1.44,1.44,0,0,0-.76-.24l0-.26a.25.25,0,1,0-.49,0Z"/><path class="cls-6" d="M327.69,24.74l.52,8.5a1.49,1.49,0,0,1,.72-.53l0-.31a.25.25,0,1,1,.49,0l0,.26a1.44,1.44,0,0,1,.76.24l-.47-7.7A9.29,9.29,0,0,0,327.69,24.74Z"/><path class="cls-4" d="M328.37,25.12l1,16.31c-.31,0-.6,0-.65-1.63l-.91-14.69C327.78,24.63,328.37,25.12,328.37,25.12Z"/><path class="cls-5" d="M210.07,67.07l0-.22a1.63,1.63,0,0,1-.8-.22L209,65l-.74-4.17a.93.93,0,0,1,.83-.92c.54-.1,1,0,1.08.39l.75,4.17.35,1.94a1.77,1.77,0,0,1-.7.34l0,.19a.25.25,0,0,1-.48.09Z"/><path class="cls-6" d="M209.79,69.79l-.56-3.16a1.63,1.63,0,0,0,.8.22l0,.22a.25.25,0,0,0,.48-.09l0-.19a1.77,1.77,0,0,0,.7-.34l.81,4.49A8.45,8.45,0,0,1,209.79,69.79Z"/><path class="cls-4" d="M210.54,70.19l-1.67-9.37h0a.6.6,0,0,0-.44.72l1.47,8.22Z"/><path class="cls-5" d="M200.1,63.82l.09-.13a2,2,0,0,1-.46-.64l.66-.93,2.15-3a15.68,15.68,0,0,1,.35,2.84l-.81,1.23-.81,1.14a2.34,2.34,0,0,1-.7-.31l-.08.11c0,.07-.18.06-.29,0S200,63.88,200.1,63.82Z"/><path class="cls-6" d="M196.26,67.91,199.73,63a2,2,0,0,0,.46.64l-.09.13c0,.07,0,.19.11.26s.24.09.29,0l.08-.11a2.34,2.34,0,0,0,.7.31l-3,4.21a1.34,1.34,0,0,1-1.28.23C196.45,68.58,196.15,68.07,196.26,67.91Z"/><path class="cls-4" d="M196.76,68.41l5.86-8.32h0a.51.51,0,0,0-.71,0l-5.44,7.71C196.33,68,196.76,68.41,196.76,68.41Z"/><path class="cls-5" d="M191,55.45l.11-.16a1.73,1.73,0,0,1-.43-.69l.81-1.15,1.29-1.82a16.53,16.53,0,0,1,2.87-.61l-2.45,3.45-1,1.4a2,2,0,0,1-.72-.28l-.1.14a.26.26,0,0,1-.4-.28Z"/><path class="cls-6" d="M187.78,58.75l2.93-4.14a1.73,1.73,0,0,0,.43.69l-.11.16a.26.26,0,0,0,.4.28l.1-.14a2,2,0,0,0,.72.28l-3.37,4.62c-.18.25-.59-.33-.79-.66S187.6,59,187.78,58.75Z"/><path class="cls-4" d="M188.07,59.46l5.5-7.83s-.6-.12-.77.12l-4.87,6.94a.55.55,0,0,0,.14.77Z"/><path class="cls-2" d="M197.56,62.39l.37-.47a1.8,1.8,0,0,1-1.19-1l-.4.51a.19.19,0,0,1-.26,0l0,0-3.81,4.8a.92.92,0,0,0,.23,1.24c.43.34,1,.45,1.22.12l3.92-4.94h0A.19.19,0,0,1,197.56,62.39Z"/><path class="cls-3" d="M201,55.21l-2,2.45L196.7,60.6l-.05.06-.6.75,0,0a.19.19,0,0,0,.26,0l.4-.51a1.8,1.8,0,0,0,1.19,1l-.37.47a.19.19,0,0,0,0,.26h0l.55-.7.1-.13,2.37-3,1.26-1.6A10.33,10.33,0,0,0,201,55.21Z"/><path class="cls-4" d="M200.94,56.31l-8.5,10.75h0a.66.66,0,0,1,0-.92l7.82-9.88C200.52,55.94,200.94,56.31,200.94,56.31Z"/><path class="cls-2" d="M194.62,59.42l.41-.56a1.61,1.61,0,0,1-.69-.29,1.63,1.63,0,0,1-.53-.68l-.44.6a.2.2,0,0,1-.28.06l0,0-3.77,5.1a.94.94,0,0,0,.28,1.29c.44.33.8.61,1.09.22l4-5.43h0A.2.2,0,0,1,194.62,59.42Z"/><path class="cls-3" d="M198.21,51.58l-1.86,2.5-2.57,3.48-.06.08-.66.89,0,0a.2.2,0,0,0,.28-.06l.44-.6a1.63,1.63,0,0,0,.53.68,1.61,1.61,0,0,0,.69.29l-.41.56a.2.2,0,0,0,0,.28h0l.61-.83.11-.15L198,55.19l1.67-2.26A3,3,0,0,0,198.21,51.58Z"/><path class="cls-4" d="M198.72,52l-9.3,12.59h0c-.25-.18-.23-.64.05-1l8.63-11.69C198.38,51.51,198.72,52,198.72,52Z"/><path class="cls-5" d="M294.18,47.41l0,.58a1.87,1.87,0,0,0-1.56,0l0-.62a.18.18,0,0,0-.18-.19h0l.28-5.68c0-.4.48-.7,1-.67s1,.37,1,.77l-.28,5.68h0A.18.18,0,0,0,294.18,47.41Z"/><path class="cls-6" d="M292.12,53.17l.07-1.43.18-3.59v-.08l0-.92h0a.18.18,0,0,1,.18.19l0,.62a1.87,1.87,0,0,1,1.56,0l0-.58a.18.18,0,0,1,.19-.17h0l0,.85v.15l-.18,3.66-.1,2.55C294,54.86,292.12,53.17,292.12,53.17Z"/><path class="cls-4" d="M292.77,53.46l.6-12.11h0a.64.64,0,0,0-.59.67l-.55,11Z"/><path class="cls-5" d="M318.44,34.46l.22.4a2.33,2.33,0,0,0-1.34.78l-.24-.43a.17.17,0,0,0-.23,0l0,0-2-3.62c-.15-.27.11-.71.59-1s1-.26,1.14,0l2,3.62h0A.17.17,0,0,0,318.44,34.46Z"/><path class="cls-6" d="M319.09,39.26l-.52-.89-1.37-2.47,0-.05-.35-.63,0,0a.17.17,0,0,1,.23,0l.24.43a2.33,2.33,0,0,1,1.34-.78l-.22-.4a.17.17,0,0,1,.1-.21h0l.33.59.06.11,1.4,2.52,1.56,2.73A13,13,0,0,1,319.09,39.26Z"/><path class="cls-4" d="M320,39.56l-4.81-8.67h0a.55.55,0,0,0-.22.75l4.21,7.6Z"/><path class="cls-5" d="M336.06,32.15v.46a2.34,2.34,0,0,0-.73-.12,2.32,2.32,0,0,0-.83.14v-.49c0-.08-.08-.14-.19-.14h0l0-4.14c0-.31,2,1.85,2,1.85l0,2.31h0C336.15,32,336.06,32.07,336.06,32.15Z"/><path class="cls-6" d="M334.21,38.47l0-2.87,0-2.83V32h0c.1,0,.19.06.19.14v.49a2.32,2.32,0,0,1,.83-.14,2.34,2.34,0,0,1,.73.12v-.46c0-.08.08-.14.19-.14h0v.79l0,2.88,0,2.81c0,.31-.44.5-1,.49S334.2,38.78,334.21,38.47Z"/><path class="cls-4" d="M334.47,28.71l-.1,9.5a.56.56,0,0,0,.55.56L335,29S334.48,28.4,334.47,28.71Z"/><path class="cls-2" d="M220.59,60.37l.43.57a1.55,1.55,0,0,0-1.2,1l-.47-.61a.21.21,0,0,0-.28-.06l0,0-4.28-5.59a1,1,0,0,1,1.58-1.2l4.28,5.58h0A.21.21,0,0,0,220.59,60.37Z"/><path class="cls-3" d="M224.45,68.36l-2-2.56-2.7-3.53-.06-.08-.69-.91,0,0a.21.21,0,0,1,.28.06l.47.61a1.55,1.55,0,0,1,1.2-1l-.43-.57a.21.21,0,0,1,0-.29h0l.64.84.12.15,2.75,3.6,1.52,2A11,11,0,0,1,224.45,68.36Z"/><path class="cls-4" d="M224.72,67.61l-9.45-12.39h0c-.25.19-.21.65.08,1l9,11.87Z"/><path class="cls-5" d="M280,45.06l-.06.18a1.75,1.75,0,0,0-.8.07l-.41,1.31-1.37,4.48c-.09.29.27.6.8.76s1,.12,1.1-.17l1.32-4.34.5-1.6a2,2,0,0,0-.66-.4l0-.16c0-.1-.05-.21-.18-.25A.22.22,0,0,0,280,45.06Z"/><path class="cls-6" d="M280.63,40.67l-1.48,4.64a1.75,1.75,0,0,1,.8-.07l.06-.18a.22.22,0,0,1,.29-.1c.13,0,.21.15.18.25l0,.16a2,2,0,0,1,.66.4l.86-2.74A6.36,6.36,0,0,0,280.63,40.67Z"/><path class="cls-4" d="M280.79,42.15,278,50.94h0a.55.55,0,0,1-.37-.68l2.7-8.63Z"/><path class="cls-5" d="M215.59,64.56l-.14-.28a1.49,1.49,0,0,1-.89-.1l-1-2-2.3-4.52a.87.87,0,0,1,.52-1.16c.49-.25.81-.6,1-.16l2.4,4.72,1.24,2.43a1.42,1.42,0,0,1-.53.6l.12.24a.25.25,0,1,1-.44.22Z"/><path class="cls-6" d="M218.33,71.56l-3.77-7.38a1.49,1.49,0,0,0,.89.1l.14.28a.25.25,0,1,0,.44-.22l-.12-.24a1.42,1.42,0,0,0,.53-.6l3.88,7.61A4.89,4.89,0,0,1,218.33,71.56Z"/><path class="cls-4" d="M218.94,71.34l-7.43-14.58h0c-.28.14-.32.6-.1,1l6.8,13.34C218.43,71.56,218.94,71.34,218.94,71.34Z"/><path class="cls-7" d="M379.1,23.28a9.6,9.6,0,0,0-7.83-.52c-6.22,2.06-8.33,8.18-6.48,13.75s7.19,9.22,13.41,7.16a14.63,14.63,0,0,0,6.13-3.93l-2.68-8.1-5.77,1.91-.75-2.26,8.24-2.73,3.93,11.86a19.88,19.88,0,0,1-8.34,5.49,13,13,0,0,1-16.82-8.54,13,13,0,0,1,8.4-16.89c3.83-1.27,7-1.09,9.82.35Z"/><path class="cls-7" d="M402.3,28.35l-.09-.42c-.6-2.85-2.26-4-5.12-3.38a7.49,7.49,0,0,0-4.63,3l-1.76-1.36c1.19-1.87,3.38-3.21,6.48-3.85s6.41.57,7.25,4.59L406,34.28A27.38,27.38,0,0,0,407,37.92l-2.26.47a16.85,16.85,0,0,1-.77-2.63h-.07a6.3,6.3,0,0,1-5.17,4.31c-2.92.61-6-.44-6.68-3.64-1.12-5.36,5.12-7,9.06-7.85Zm-.8,2.15c-2.36.49-7.65,1.78-7,5.09.46,2.18,2.64,2.61,4.51,2.22,3.38-.71,4.5-3.44,3.89-6.37l-.25-1.2Z"/><path class="cls-7" d="M411.66,9.82l2.38,0L414.17,23h.07a8,8,0,0,1,6.52-3.3,8.61,8.61,0,0,1,9,8.77,8.61,8.61,0,0,1-8.88,8.94,8,8,0,0,1-6.58-3.18h-.07l0,2.81-2.38,0Zm9.12,12a6.7,6.7,0,1,0,.13,13.39c3.92,0,6.34-3,6.31-6.76S424.7,21.79,420.78,21.83Z"/><path class="cls-7" d="M436.16,26.64c.32-1.48.53-2.76,1-5.16l2.29.5L438.76,25l.07,0a5.54,5.54,0,0,1,6-2.32,6.42,6.42,0,0,1,1.68.59l-1,2.18a4,4,0,0,0-1.3-.47A5.27,5.27,0,0,0,438,29.19l-2,9.28L433.67,38Z"/><path class="cls-7" d="M448.25,41.74,446,41.06l4.82-16.15,2.28.68Zm5-21a1.73,1.73,0,1,1,2.15-1.16A1.75,1.75,0,0,1,453.29,20.7Z"/><path class="cls-7" d="M458.42,36.9a6.29,6.29,0,0,0,9.87,6.83l1.22,2a8.78,8.78,0,0,1-8,.93,8.55,8.55,0,0,1-5.24-11.26,8.51,8.51,0,0,1,11-5.5c4.8,1.75,6.32,6.3,4.77,10.64l-.36,1Zm11.44,2A5.08,5.08,0,0,0,466.51,32c-2.92-1-6.44.5-7.37,3.11Z"/><path class="cls-7" d="M478.06,51.51l-2.3-.6,6.92-26.32,2.3.6Z"/><path class="cls-7" d="M488.58,53.72l-2.34-.42,4.83-26.79,2.34.42Z"/><path class="cls-7" d="M508.24,45.53l0-.43c.21-2.91-1.08-4.45-4-4.66A7.49,7.49,0,0,0,499,42l-1.31-1.79c1.66-1.47,4.13-2.15,7.29-1.92s6,2.31,5.71,6.41l-.55,7.5a27.51,27.51,0,0,0,0,3.79l-2.3-.17a16.67,16.67,0,0,1,0-2.74h-.07a6.3,6.3,0,0,1-6.15,2.73c-3-.22-5.66-2.07-5.42-5.34.4-5.46,6.85-5.35,10.87-5.06Zm-1.36,1.85c-2.41-.17-7.84-.39-8.08,3-.16,2.23,1.82,3.24,3.72,3.37,3.45.25,5.28-2.07,5.49-5l.09-1.22Z"/><path class="cls-7" d="M542.3,50.65l7.36-21.21,4-.24,1.51,25.44-2.59.15-1.31-22h-.07l-7.89,22.54-1.36.08L531.39,34h-.07l1.31,22-2.59.15L528.52,30.7l4-.23Z"/><path class="cls-7" d="M562.19,32.11a1.73,1.73,0,1,1,1.54-1.9A1.75,1.75,0,0,1,562.19,32.11Zm3.45,21.36-2.36.25L561.51,37l2.36-.25Z"/><path class="cls-7" d="M575.41,52.3l-2.36.3-3.42-27,2.36-.3Z"/><path class="cls-7" d="M585.2,50.92l-2.35.35-4-26.91,2.35-.35Z"/><path class="cls-7" d="M592.46,41.75A6.29,6.29,0,0,0,604.4,43l2.05,1.2a8.79,8.79,0,0,1-6.58,4.67,8.56,8.56,0,0,1-10-7.36,8.51,8.51,0,0,1,7-10.09c5.05-.78,8.57,2.49,9.3,7l.17,1.07Zm11-3.74a5.09,5.09,0,0,0-6.26-4.46c-3.06.49-5.41,3.53-5,6.27Z"/><path class="cls-7" d="M611.63,35.28c-.12-1.51-.29-2.79-.55-5.23l2.33-.18.24,3.12h.07a5.54,5.54,0,0,1,5.11-4,6.4,6.4,0,0,1,1.77.08l-.29,2.37a4,4,0,0,0-1.38-.07,5.27,5.27,0,0,0-4.78,5.79l.74,9.47-2.37.18Z"/><path class="cls-8" d="M179.8,155.52c13.65-24.45,10.42-53.07-1.19-79.32,20.26,15,26.28,60.76,17.34,86.77C188,186.21,165.38,181.36,179.8,155.52Z"/><path class="cls-8" d="M38.6,196.46C21.38,185,9.24,167.66,3.38,147.91,31.33,152.05,42.63,169.8,38.6,196.46Z"/><path class="cls-8" d="M57.87,48.69c-21.5,8.79-34,30.19-38.17,52.67-3.52,19-15.65,15-19.7,17.3C3.28,91.77,24.47,51.28,57.87,48.69Z"/><path class="cls-9" d="M124.5,195.18c-.1,13.08-7.64,30.33.62,37.2,6.36,5.29,12.7-9.54,19-20.42,7.23-12.44,10.93-9.79,26.05-11.17,35.11-3.21,27.9-12.65,10.36-15.58-6.55-1.1-16.11-2.52-20.54-12.14-4.2-9.13.28-17.75,7.28-27.68,9.49-13.46,12.2-21.18-8.57-9.37-21.39,12.16-22.55,15.29-45,3.52-30.15-15.8-21,.27-7.23,13.78C117.47,164.09,124.63,179.55,124.5,195.18Z"/><path class="cls-10" d="M39.84,89.35C49.76,85,65.31,87,67.6,74.45c8.64,6.25,4.17,27.16-15.26,36.44C36.82,118.31,24.65,96,39.84,89.35Z"/><path class="cls-10" d="M96.78,184.91c-13.37-29.24-19.17-49.43-6-80.26C106.49,67.71,97.22,73.52,79,97.13,62.9,118,43,119.7,13,126.22c-18,3.9-17.77,11.21,6.55,12.24,27.81,1.17,33.39,20.24,32.58,44.18a77.66,77.66,0,0,1-4.18,23.54c-9,24.88,2.22,22.71,11.18,10.14,4.46-6.26,8.45-13.31,10.45-21.4,4.06-16.44,8.55-12.14,15.79-1.21C110.4,231.5,106.5,206.17,96.78,184.91Z"/><path class="cls-9" d="M125.28,137.3c-5.23-5.75-4.3-18.2,1.55-23.53,7.45-6.78,14-6,18.13-1.92C159.18,126.1,136.73,149.88,125.28,137.3Z"/><path class="cls-7" d="M645.75,186.85c0,8.36-7.49,15.2-16.64,15.2H227.37c-9.15,0-16.64-6.84-16.64-15.2s7.49-15.2,16.64-15.2H629.11C638.26,171.65,645.75,178.49,645.75,186.85Z"/><path class="cls-11" d="M225.51,180.05h5.24c3,0,5.74,1,5.74,4.06,0,3.53-2.93,4.16-6.23,4.16h-2v5.8h-2.77Zm4.44,6.08c1.58,0,3.63-.08,3.63-2,0-1.72-1.83-2-3.32-2h-2v3.94Z"/><path class="cls-11" d="M241.15,180.05h10.32v2.26h-7.55v3.45h7.15V188h-7.15v3.8h7.94v2.26H241.15Z"/><path class="cls-11" d="M256.8,180.05h6.14c4.09,0,7.92,2.26,7.92,7s-4.51,7-8.25,7H256.8Zm4.84,11.76c3.48,0,6.31-1.35,6.31-4.75s-2.46-4.75-5.85-4.75h-2.53v9.51Z"/><path class="cls-11" d="M275.63,180.05h2.77v14h-2.77Z"/><path class="cls-11" d="M289,180.05h2.4l6.71,14H295l-1.45-3.21h-6.75l-1.41,3.21h-3.1Zm3.52,8.67-2.4-5.7-2.44,5.7Z"/><path class="cls-11" d="M303.26,182.31h-4.77v-2.26h12.32v2.26H306v11.76h-2.77Z"/><path class="cls-11" d="M314.9,180.05h5.41c3,0,5.81.87,5.81,4a3.73,3.73,0,0,1-3.61,3.8l4.14,6.2H323.3l-3.61-5.94h-2v5.94H314.9Zm4.93,5.94c1.56,0,3.39-.12,3.39-1.94,0-1.66-1.72-1.86-3.15-1.86h-2.4V186Z"/><path class="cls-11" d="M330.89,180.05h2.77v14h-2.77Z"/><path class="cls-11" d="M350,183.34a4.46,4.46,0,0,0-3.28-1.39,5.12,5.12,0,1,0,0,10.22,4.53,4.53,0,0,0,3.5-1.7l2.29,1.47a7.2,7.2,0,0,1-5.81,2.5c-4.8,0-8.23-2.93-8.23-7.31s3.43-7.43,8.23-7.43a7.12,7.12,0,0,1,5.46,2.22Z"/><path class="cls-11" d="M365.26,180.05h5.41c3,0,5.81.87,5.81,4a3.73,3.73,0,0,1-3.61,3.8l4.14,6.2h-3.34l-3.61-5.94h-2v5.94h-2.77Zm4.93,5.94c1.56,0,3.39-.12,3.39-1.94,0-1.66-1.72-1.86-3.15-1.86H368V186Z"/><path class="cls-11" d="M381.32,180.05h10.32v2.26h-7.55v3.45h7.15V188h-7.15v3.8H392v2.26H381.32Z"/><path class="cls-11" d="M404.59,183.07a3.45,3.45,0,0,0-2.73-1.11c-1.28,0-2.55.51-2.55,1.8,0,2.81,7.39,1.21,7.39,6.2,0,3-2.64,4.48-5.7,4.48a6.83,6.83,0,0,1-5.11-1.9l2.09-1.82a3.8,3.8,0,0,0,3.08,1.47c1.28,0,2.73-.63,2.73-1.92,0-3.07-7.39-1.31-7.39-6.32,0-2.89,2.86-4.24,5.74-4.24a6.84,6.84,0,0,1,4.47,1.45Z"/><path class="cls-11" d="M411.78,180.05H422.1v2.26h-7.55v3.45h7.15V188h-7.15v3.8h7.94v2.26H411.78Z"/><path class="cls-11" d="M432.47,180.05h2.4l6.71,14h-3.17L437,190.87H430.2l-1.41,3.21h-3.1Zm3.52,8.67-2.4-5.7-2.44,5.7Z"/><path class="cls-11" d="M445.51,180.05h5.41c3,0,5.81.87,5.81,4a3.73,3.73,0,0,1-3.61,3.8l4.14,6.2h-3.34l-3.61-5.94h-2v5.94h-2.77Zm4.93,5.94c1.56,0,3.39-.12,3.39-1.94,0-1.66-1.72-1.86-3.15-1.86h-2.4V186Z"/><path class="cls-11" d="M472.26,183.34A4.46,4.46,0,0,0,469,182a5.12,5.12,0,1,0,0,10.22,4.54,4.54,0,0,0,3.5-1.7l2.29,1.47a7.2,7.2,0,0,1-5.81,2.5c-4.8,0-8.23-2.93-8.23-7.31s3.43-7.43,8.23-7.43a7.12,7.12,0,0,1,5.46,2.22Z"/><path class="cls-11" d="M478.84,180.05h2.77v5.58h7.28v-5.58h2.77v14H488.9V187.9h-7.28v6.18h-2.77Z"/><path class="cls-11" d="M506.05,180.05h5.24c3,0,5.74,1,5.74,4.06,0,3.53-2.93,4.16-6.23,4.16h-2v5.8h-2.77Zm4.44,6.08c1.58,0,3.63-.08,3.63-2,0-1.72-1.83-2-3.32-2h-2v3.94Z"/><path class="cls-11" d="M521.69,180.05h5.41c3,0,5.81.87,5.81,4a3.73,3.73,0,0,1-3.61,3.8l4.14,6.2H530.1l-3.61-5.94h-2v5.94h-2.77Zm4.93,5.94c1.56,0,3.39-.12,3.39-1.94,0-1.66-1.72-1.86-3.15-1.86h-2.4V186Z"/><path class="cls-11" d="M545.15,179.7c4.86-.08,8.3,2.85,8.3,7.35s-3.43,7.31-8.3,7.39-8.23-2.93-8.23-7.31S540.35,179.7,545.15,179.7Zm0,12.48a5.12,5.12,0,1,0-5.35-5.21A5.06,5.06,0,0,0,545.17,192.18Z"/><path class="cls-11" d="M572.12,193a14.71,14.71,0,0,1-6.45,1.39c-4.8,0-8.23-2.93-8.23-7.31s3.43-7.43,8.23-7.43a9.55,9.55,0,0,1,6.14,1.76l-2,1.86A6.27,6.27,0,0,0,565.7,182a5.12,5.12,0,1,0,0,10.22,8.16,8.16,0,0,0,3.65-.73v-3.31h-3.19v-2.26h6Z"/><path class="cls-11" d="M577.6,180.05H583c3,0,5.81.87,5.81,4a3.73,3.73,0,0,1-3.61,3.8l4.14,6.2H586l-3.61-5.94h-2v5.94H577.6Zm4.93,5.94c1.56,0,3.39-.12,3.39-1.94,0-1.66-1.72-1.86-3.15-1.86h-2.4V186Z"/><path class="cls-11" d="M598.69,180.05h2.4l6.71,14h-3.17l-1.45-3.21h-6.75L595,194.08h-3.1Zm3.52,8.67-2.4-5.7-2.44,5.7Z"/><path class="cls-11" d="M611.81,180.05H616l4.16,9.82,4.2-9.82h4.18v14h-2.64V182.43h0l-4.73,11.65h-1.94l-4.73-11.65h0v11.65h-2.64Z"/><path class="cls-12" d="M234.46,86.58q.35,5.15.41,10.77t-.06,13.17q-.12,7.55-.12,10.71t.12,8.6q.12,5.56.12,7.79a151.62,151.62,0,0,1-.59,16.74,2.9,2.9,0,0,1-1.11,2,3,3,0,0,1-4.27-.41,3,3,0,0,1-.7-2.28,137,137,0,0,0,.59-16q0-2.11-.12-7.73t-.12-8.66q0-3.28.12-10.65t.06-12.88q-.06-5.5-.41-10.65a2.85,2.85,0,0,1,.7-2.22,3.06,3.06,0,0,1,2.11-1.05,2.86,2.86,0,0,1,2.22.7A3.07,3.07,0,0,1,234.46,86.58ZM276.26,83a61.07,61.07,0,0,1-7.84,7.84,51.63,51.63,0,0,1-6,4.1l-8.2,5.5a66.14,66.14,0,0,0-7.2,5.44q-2.52,2.28-2.63,3a2,2,0,0,0,.59,1.05,11.56,11.56,0,0,0,2.81,2.58q1.17.94,3.86,2.69l3.4,2.46q5.27,4.68,15,15,9.25,9.83,14.63,14.52a3.07,3.07,0,0,1,1.05,2.11,2.85,2.85,0,0,1-.7,2.22,3.06,3.06,0,0,1-2.11,1.05,2.84,2.84,0,0,1-2.22-.7q-5.5-4.8-15-15t-14.63-14.52a20.07,20.07,0,0,0-2.81-2l-4.21-2.93a19.71,19.71,0,0,1-3.86-3.75,7.11,7.11,0,0,1-1.87-5.5q.35-2.93,4.57-6.79a65.46,65.46,0,0,1,8-6l8.31-5.5q4.8-3.16,5.5-3.75A61.94,61.94,0,0,0,271.58,79a3.06,3.06,0,0,1,2.11-1.05,2.86,2.86,0,0,1,2.22.7A3.07,3.07,0,0,1,277,80.73,2.86,2.86,0,0,1,276.26,83Z"/><path class="cls-12" d="M300.85,107.42q-.12,1.64-1.4,18.21t-1.29,25.23a3,3,0,1,1-6.09,0q0-6.44.47-13.82t1.23-16.21q.76-8.84,1-13.87a3.17,3.17,0,0,1,1.05-2,2.68,2.68,0,0,1,2.17-.76,3.23,3.23,0,0,1,2.11,1.05A2.75,2.75,0,0,1,300.85,107.42Zm-2.4-20.9a3.11,3.11,0,1,1-2.17-.88A2.94,2.94,0,0,1,298.45,86.52Z"/><path class="cls-12" d="M358.21,81.08q.35,4.57.59,14.17.23,11.24.35,13.81.58,12.06.35,22.36a89.76,89.76,0,0,1-.94,13.11,25.94,25.94,0,0,1-1.05,5.15,8.13,8.13,0,0,1-2.46,4q-2.93,2.22-8.9,1.64a50.12,50.12,0,0,1-10.3-2.34,73.11,73.11,0,0,1-10.07-4.1,24.37,24.37,0,0,1-6.67-4.45,19.87,19.87,0,0,1-5-9.48,27.36,27.36,0,0,1-.35-10.65,32,32,0,0,1,3.22-9.6q1.17-2.22,2-3.51t2.28-3.22a14,14,0,0,1,3.4-3.22,15.87,15.87,0,0,1,4.27-2q6.67-2,22.48-.94a3.75,3.75,0,0,1,1.41.47V95.36q-.24-8.43-.7-13.58a3,3,0,0,1,.7-2.28,3,3,0,0,1,4.27-.41A2.9,2.9,0,0,1,358.21,81.08Zm-6.91,67.79a9.52,9.52,0,0,0,.47-1.17,23.33,23.33,0,0,0,.82-4,93.36,93.36,0,0,0,.82-12.41q.23-10.3-.35-22a18.29,18.29,0,0,0-.12-2,2.54,2.54,0,0,1-2,.58q-14.64-.94-20.37.7a8.61,8.61,0,0,0-4.27,2.87,37.61,37.61,0,0,0-3.92,6,22.22,22.22,0,0,0-2.87,11.94,15.7,15.7,0,0,0,4,10.77,20.08,20.08,0,0,0,5.21,3.34,56.89,56.89,0,0,0,9,3.57,39.66,39.66,0,0,0,9,2.11Q350.13,149.57,351.3,148.87Z"/><path class="cls-12" d="M400.82,113.63a46.94,46.94,0,0,0-11.71-4q-6.32-.82-8.9,2.93a2.83,2.83,0,0,0-.7,1.46,4.38,4.38,0,0,0,.47,1.58,16.29,16.29,0,0,0,1.4,2.11q.82,1.05,1.46,1.76a13.5,13.5,0,0,0,2.17,1.76l2,1.52,2.58,1.64q2,1.4,2.58,1.76a55,55,0,0,1,5.21,3.86,23.48,23.48,0,0,1,4.16,5,17.55,17.55,0,0,1,2.69,7q.58,4.21-3.75,7.14a24,24,0,0,1-7.61,3,47.32,47.32,0,0,1-8.25,1.41,29.36,29.36,0,0,1-6.5,0,54.77,54.77,0,0,1-6.79-2.58,3.26,3.26,0,0,1-1.64-1.76,2.74,2.74,0,0,1,.06-2.28,3.07,3.07,0,0,1,1.7-1.58,2.76,2.76,0,0,1,2.22,0,35.29,35.29,0,0,0,5.62,2.11,18.72,18.72,0,0,0,5.09.06,37.55,37.55,0,0,0,7-1.23,19.46,19.46,0,0,0,5.74-2.22q1.17-.82,1.05-1.17a12.64,12.64,0,0,0-2.81-6.26,29.83,29.83,0,0,0-6.56-5.44q-.47-.35-2.34-1.58t-2.75-1.76a26.8,26.8,0,0,1-2.52-1.81,23.46,23.46,0,0,1-2.58-2.28q-.94-1-2.11-2.46a16.29,16.29,0,0,1-1.87-2.87,9.63,9.63,0,0,1-1.17-4.8,9.81,9.81,0,0,1,1.87-4.57q4.68-6.79,14.63-5.39A48.88,48.88,0,0,1,403.4,108a3.09,3.09,0,0,1,1.46,4.1,2.83,2.83,0,0,1-1.7,1.58A3.22,3.22,0,0,1,400.82,113.63Z"/><path class="cls-12" d="M446.83,74.64q3.75-.11,12.88.12a124.51,124.51,0,0,0,12.53-.12,2.86,2.86,0,0,1,2.22.7,3.07,3.07,0,0,1,1.05,2.11,2.86,2.86,0,0,1-.7,2.22,3.05,3.05,0,0,1-2.11,1.05q-5,.35-13.23.12-8.9-.23-12.41-.12h-.7v.12q0,7.26-1.05,18.85l-.58,5.85q4.1,1.76,7.55,2.87a56.32,56.32,0,0,0,7.38,1.81,29.68,29.68,0,0,0,7.61.41,24.1,24.1,0,0,0,7-1.58,3.05,3.05,0,0,1,2.34,0,2.84,2.84,0,0,1,1.64,1.64,3.06,3.06,0,0,1,0,2.34,2.83,2.83,0,0,1-1.64,1.64q-12.88,5.15-32.31-2.69-.35,3.16-.47,6.09-.24,5.15.23,13.46.7,10.3.7,14a3,3,0,1,1-6.09,0q0-3.51-.7-13.58-.47-8.9-.23-14.17.23-4.21,1.52-18.73,1.05-11.82,1.05-18.26a3,3,0,0,1,3-3h.59a3.27,3.27,0,0,1,.82-2.22A2.67,2.67,0,0,1,446.83,74.64Z"/><path class="cls-12" d="M493.54,107.42q-.12,1.64-1.41,18.21t-1.29,25.23a3,3,0,1,1-6.09,0q0-6.44.47-13.82t1.23-16.21q.76-8.84,1-13.87a3.17,3.17,0,0,1,1.05-2,2.68,2.68,0,0,1,2.17-.76,3.23,3.23,0,0,1,2.11,1.05A2.76,2.76,0,0,1,493.54,107.42Zm-2.4-20.9a3.11,3.11,0,1,1-2.17-.88A2.94,2.94,0,0,1,491.14,86.52Z"/><path class="cls-12" d="M515.67,117q4.45-9.48,11.12-11.12,7-1.76,14.75,5.62a3,3,0,0,1,.94,2.17,3.07,3.07,0,0,1-.88,2.17,2.78,2.78,0,0,1-2.11.94,3.18,3.18,0,0,1-2.17-.82q-5.39-5.15-9.13-4.21t-6.91,7.84a3,3,0,0,1-1.76,1.58,3.22,3.22,0,0,1-2.34-.06,3.17,3.17,0,0,1-1.76-2.22,189.62,189.62,0,0,0,3.51,43.43,2.53,2.53,0,0,1-.35,2.22,3.12,3.12,0,0,1-1.93,1.35,2.79,2.79,0,0,1-2.28-.41,2.91,2.91,0,0,1-1.29-2,194.57,194.57,0,0,1-2.81-58.3,2.88,2.88,0,0,1,1.11-2,3,3,0,0,1,4.27.41,3,3,0,0,1,.7,2.28q-.59,6.91-.82,11.59A1,1,0,0,0,515.67,117Z"/><path class="cls-12" d="M576.78,113.63a46.94,46.94,0,0,0-11.71-4q-6.32-.82-8.9,2.93a2.83,2.83,0,0,0-.7,1.46,4.38,4.38,0,0,0,.47,1.58,16.29,16.29,0,0,0,1.4,2.11q.82,1.05,1.46,1.76a13.5,13.5,0,0,0,2.17,1.76l2,1.52,2.58,1.64q2,1.4,2.58,1.76a55,55,0,0,1,5.21,3.86,23.48,23.48,0,0,1,4.16,5,17.55,17.55,0,0,1,2.69,7q.58,4.21-3.75,7.14a24,24,0,0,1-7.61,3,47.32,47.32,0,0,1-8.25,1.41,29.36,29.36,0,0,1-6.5,0,54.77,54.77,0,0,1-6.79-2.58,3.26,3.26,0,0,1-1.64-1.76,2.74,2.74,0,0,1,.06-2.28,3.07,3.07,0,0,1,1.7-1.58,2.76,2.76,0,0,1,2.22,0,35.29,35.29,0,0,0,5.62,2.11,18.72,18.72,0,0,0,5.09.06,37.55,37.55,0,0,0,7-1.23,19.46,19.46,0,0,0,5.74-2.22q1.17-.82,1.05-1.17a12.64,12.64,0,0,0-2.81-6.26,29.83,29.83,0,0,0-6.56-5.44q-.47-.35-2.34-1.58t-2.75-1.76a26.8,26.8,0,0,1-2.52-1.81,23.46,23.46,0,0,1-2.58-2.28q-.94-1-2.11-2.46a16.29,16.29,0,0,1-1.87-2.87,9.63,9.63,0,0,1-1.17-4.8,9.81,9.81,0,0,1,1.87-4.57q4.68-6.79,14.63-5.39A48.88,48.88,0,0,1,579.36,108a3.09,3.09,0,0,1,1.46,4.1,2.83,2.83,0,0,1-1.7,1.58A3.22,3.22,0,0,1,576.78,113.63Z"/><path class="cls-12" d="M601,111.29a23.71,23.71,0,0,1-2.58-.12,10.86,10.86,0,0,1-3-.35,3.71,3.71,0,0,1-1.41-.47,3.57,3.57,0,0,1-1.87-2,3.36,3.36,0,0,1,.94-3.75,3.94,3.94,0,0,1,1.64-1.11,8.37,8.37,0,0,1,1.17-.41,33.41,33.41,0,0,1,9.25-5.27,2.93,2.93,0,0,1,2.28.23,3.08,3.08,0,0,1,1.52,1.76,2.76,2.76,0,0,1-.17,2.28,3.32,3.32,0,0,1-1.76,1.58,26.26,26.26,0,0,0-3.39,1.4h2.11l7.73-.59q4.45-.35,4.92-.35a3.28,3.28,0,0,1,2.22.82,2.68,2.68,0,0,1,.94,2.11,3.27,3.27,0,0,1-.82,2.22,2.67,2.67,0,0,1-2.11.94q-.59,0-4.62.35t-6.85.47q-.94,16.28.47,26.23,1.17,8.2,3.63,10.54a2,2,0,0,0,1.76.58q1.87-.23,4.57-2.58a2.85,2.85,0,0,1,2.22-.7,3.07,3.07,0,0,1,2.11,1.05,2.86,2.86,0,0,1,.7,2.22,3.06,3.06,0,0,1-1.05,2.11q-4.1,3.51-7.73,4a8.16,8.16,0,0,1-6.91-2.34q-3.86-3.74-5.27-14Q600.08,127.44,601,111.29Z"/><path class="cls-13" d="M163.43,64.82c-24.74,14.2-62.1,7.91-83.35-9.39-10.2-8.3-8.29-8.51,2.63-11.22,9.43-2.34,15-4.17,26.1,4.21,6.6,5,13.33,8.64,19.5,10.15,14.69,3.59,25.79,3.28,35.88-.43C183.53,51,184.11,52.95,163.43,64.82Z"/><path class="cls-14" d="M131,27.58c5.45,11.5,17.8,21.56,31,22.08,9.61.38,15.65-2.18.38,3.44-9.08,3.34-19.21,3.58-32.77.27-5.09-1.24-10.69-4.2-16.28-8.27-13.54-9.84-.94-13.29,8.86-21.47C131.53,15.78,125.95,16.92,131,27.58Z"/><path class="cls-15" d="M86.43,2.93a90.17,90.17,0,0,0,30.11,6.94c9.48.65,11.36-.38,4,8.48a50,50,0,0,1-12.18,10.47c-11.17,7-21-7.05-26.73-19.29C76.3-2,75.75-1.53,86.43,2.93Z"/><path class="cls-16" d="M74.47,30.27a110.6,110.6,0,0,0,1.46-14.15c.28-8-1-8.07,3.36-1.05C81.62,18.85,84.46,23,87,26.37c4.23,5.69,7.41,9.45.52,11.37-2.3.64-4.62,1.21-6.95,1.7C69.29,41.8,72.82,40.16,74.47,30.27Z"/><path class="cls-17" d="M251.6,238.23a2.25,2.25,0,0,1-2.39-2.36V216.27a2.23,2.23,0,0,1,2.39-2.36h5.8c3.4,0,6,.94,7.84,2.81a11.18,11.18,0,0,1,3.05,7.46,34.27,34.27,0,0,1,0,3.78,11.18,11.18,0,0,1-3.05,7.46c-1.84,1.87-4.44,2.81-7.84,2.81Zm13.85-14c-.24-4.75-2.88-7.63-8.05-7.63h-5.34v18.84h5.34c5.14,0,7.77-2.85,8.05-7.6A31.2,31.2,0,0,0,265.45,224.28Z"/><path class="cls-17" d="M287.35,235.46a1.27,1.27,0,0,1-.59,1.15,10.8,10.8,0,0,1-2.88,1.32,13.65,13.65,0,0,1-4.2.62c-4.44,0-6.94-2.33-6.94-5.9,0-3.23,2.5-5.62,7-5.62a19,19,0,0,1,4.86.73v-1.42c0-2.78-1.39-4-4.34-4a12.36,12.36,0,0,0-4.13.9c-1.11.42-2-.14-2-1.08a1.41,1.41,0,0,1,.9-1.32,12.72,12.72,0,0,1,5.52-1.11c4.3,0,6.84,2.08,6.84,6.49Zm-2.78-.73v-4.55a19.89,19.89,0,0,0-4.82-.76c-2.46,0-4.2,1.22-4.2,3.16,0,2.29,1.49,3.44,4.44,3.44C282.45,236,284,235.28,284.57,234.73Z"/><path class="cls-17" d="M298.48,238.54c-3.57,0-5.34-2.29-5.34-5.73v-15.1a1.38,1.38,0,0,1,1.39-1.42,1.41,1.41,0,0,1,1.42,1.42v2.85h5.24a1.28,1.28,0,1,1,0,2.57H296v9.79c0,1.84.87,3,2.67,3a13.44,13.44,0,0,0,2.78-.62,1.3,1.3,0,0,1,1.8,1.28,1.39,1.39,0,0,1-1.15,1.35A10.16,10.16,0,0,1,298.48,238.54Z"/><path class="cls-17" d="M321,235.46a1.27,1.27,0,0,1-.59,1.15,10.82,10.82,0,0,1-2.88,1.32,13.65,13.65,0,0,1-4.2.62c-4.44,0-6.94-2.33-6.94-5.9,0-3.23,2.5-5.62,7-5.62a19,19,0,0,1,4.86.73v-1.42c0-2.78-1.39-4-4.34-4a12.36,12.36,0,0,0-4.13.9c-1.11.42-2-.14-2-1.08a1.41,1.41,0,0,1,.9-1.32,12.72,12.72,0,0,1,5.52-1.11c4.3,0,6.84,2.08,6.84,6.49Zm-2.78-.73v-4.55a19.89,19.89,0,0,0-4.82-.76c-2.46,0-4.2,1.22-4.2,3.16,0,2.29,1.49,3.44,4.44,3.44C316.11,236,317.68,235.28,318.23,234.73Z"/><path class="cls-17" d="M353.32,238.37a1.35,1.35,0,0,1-1-.49l-6.53-8.05a2.24,2.24,0,0,0-1.94-1.11h-4.2v8.19a1.42,1.42,0,1,1-2.85,0V216.23a2.2,2.2,0,0,1,2.36-2.33h7.08a8.15,8.15,0,0,1,5.59,2,7,7,0,0,1,2.26,5.48c0,4-2.26,6.25-5.9,6.84l6.32,7.81a1.27,1.27,0,0,1,.31.87A1.5,1.5,0,0,1,353.32,238.37ZM339.61,226h6.25c3.54,0,5.31-1.56,5.31-4.65s-1.7-4.72-5.14-4.72h-6.42Z"/><path class="cls-17" d="M374.66,228.31a1.8,1.8,0,0,1-2,2H362.23v.56a4.79,4.79,0,0,0,5.17,5.1,13.46,13.46,0,0,0,4.23-.9,1.34,1.34,0,0,1,2,1.11,1.39,1.39,0,0,1-.76,1.25,12.73,12.73,0,0,1-5.52,1.11c-4.72,0-7.63-2.91-7.88-7.46a27.07,27.07,0,0,1,0-4.16c.38-4.44,3.4-7.18,7.67-7.18a7.11,7.11,0,0,1,5.41,2.12,7.44,7.44,0,0,1,2,5.41Zm-3.19-.35a.41.41,0,0,0,.45-.42c.17-3.16-1.67-5.27-4.69-5.27-3.33,0-5.1,2.19-5,5.69Z"/><path class="cls-17" d="M387.26,228.1c3.09.8,4.62,2.43,4.62,4.89,0,3.37-2.67,5.55-6.73,5.55A9.46,9.46,0,0,1,379,236.6a1.45,1.45,0,0,1-.28-1.87,1.27,1.27,0,0,1,1.94-.28,6.72,6.72,0,0,0,4.75,1.56c2.33,0,3.71-1.22,3.71-2.88,0-1.21-.94-2-2.78-2.5-1.63-.38-2.46-.56-2.5-.59-3.26-.83-4.89-2.46-4.89-4.93,0-3.3,2.64-5.38,6.49-5.38a7.82,7.82,0,0,1,5,1.49,1.36,1.36,0,0,1,.17,1.94,1.34,1.34,0,0,1-1.87.17,6.63,6.63,0,0,0-3.37-1q-3.64,0-3.64,2.71c0,1.15.73,1.84,2.71,2.39l1.77.42Z"/><path class="cls-17" d="M411.55,231.53a7,7,0,0,1-2.36,5,7.63,7.63,0,0,1-5.38,2,7.75,7.75,0,0,1-5.38-2,7,7,0,0,1-2.36-5,38.91,38.91,0,0,1,0-4.93,6.86,6.86,0,0,1,2.33-4.93,7.91,7.91,0,0,1,5.41-1.94,7.74,7.74,0,0,1,5.38,1.91,6.78,6.78,0,0,1,2.36,5A38.91,38.91,0,0,1,411.55,231.53Zm-12.67-.17a4.94,4.94,0,0,0,9.86,0,33.13,33.13,0,0,0,0-4.55,5,5,0,0,0-9.86,0A33.13,33.13,0,0,0,398.88,231.36Z"/><path class="cls-17" d="M416.86,221.44a1.41,1.41,0,0,1,1.39-1.46,1.44,1.44,0,0,1,1.42,1.46V231.5c0,2.74,1.73,4.37,4.65,4.37a8.36,8.36,0,0,0,4.79-1.28V221.44A1.41,1.41,0,0,1,430.5,220a1.44,1.44,0,0,1,1.42,1.46v13.88a1.27,1.27,0,0,1-.59,1.15,11.94,11.94,0,0,1-7,2.08c-4.55,0-7.46-2.6-7.46-7.08Z"/><path class="cls-17" d="M447.81,221.44a1.31,1.31,0,0,1-1.39,1.28,8,8,0,0,1-1.18-.14,9,9,0,0,0-1.56-.14q-2.81.05-2.81,3.12v11.38a1.42,1.42,0,1,1-2.85,0V225.25c0-3.44,2-5.52,5.66-5.52a10.52,10.52,0,0,1,3,.38A1.28,1.28,0,0,1,447.81,221.44Z"/><path class="cls-17" d="M462.91,233a1.4,1.4,0,0,1,1.35-.94,1.34,1.34,0,0,1,1.32,1.42q0,1.56-2,3.33a7.36,7.36,0,0,1-5.17,1.77,7.74,7.74,0,0,1-5.45-2,7.22,7.22,0,0,1-2.33-5,38.91,38.91,0,0,1,0-4.93,6.87,6.87,0,0,1,2.33-5,7.91,7.91,0,0,1,5.45-1.91,7.14,7.14,0,0,1,5.14,1.8c1.28,1.18,1.94,2.29,1.94,3.3a1.34,1.34,0,0,1-1.32,1.42,1.4,1.4,0,0,1-1.35-.94,4.57,4.57,0,0,0-4.37-2.95,4.63,4.63,0,0,0-5,4.41,33.49,33.49,0,0,0,0,4.58,4.72,4.72,0,0,0,5,4.55A4.66,4.66,0,0,0,462.91,233Z"/><path class="cls-17" d="M485.15,228.31a1.79,1.79,0,0,1-2,2H472.73v.56a4.79,4.79,0,0,0,5.17,5.1,13.46,13.46,0,0,0,4.23-.9,1.34,1.34,0,0,1,2,1.11,1.4,1.4,0,0,1-.76,1.25,12.73,12.73,0,0,1-5.52,1.11c-4.72,0-7.63-2.91-7.88-7.46a27.09,27.09,0,0,1,0-4.16c.38-4.44,3.4-7.18,7.67-7.18a7.11,7.11,0,0,1,5.41,2.12,7.44,7.44,0,0,1,2,5.41ZM482,228a.41.41,0,0,0,.45-.42c.17-3.16-1.67-5.27-4.68-5.27-3.33,0-5.1,2.19-5,5.69Z"/><path class="cls-17" d="M515.45,231.71a1.34,1.34,0,0,1,1.32-.9,1.43,1.43,0,0,1,1.35,1.35,2.35,2.35,0,0,1-.1.63,8.88,8.88,0,0,1-3.47,4.2,9.5,9.5,0,0,1-5.38,1.6,9.31,9.31,0,0,1-6.87-2.74,10.4,10.4,0,0,1-3-6.94,37.9,37.9,0,0,1,0-5.62,10.64,10.64,0,0,1,3-6.91,9.34,9.34,0,0,1,6.87-2.78,9.5,9.5,0,0,1,5.38,1.6,8.64,8.64,0,0,1,3.47,4.16,2.38,2.38,0,0,1,.1.66,1.4,1.4,0,0,1-1.35,1.32,1.34,1.34,0,0,1-1.32-.9,6.77,6.77,0,0,0-6.28-4.09,6.46,6.46,0,0,0-4.86,2,8,8,0,0,0-2.19,5.1,45.78,45.78,0,0,0,0,5.34,8,8,0,0,0,2.19,5.1,6.46,6.46,0,0,0,4.86,2A6.8,6.8,0,0,0,515.45,231.71Z"/><path class="cls-17" d="M537.56,228.31a1.79,1.79,0,0,1-2,2H525.13v.56a4.79,4.79,0,0,0,5.17,5.1,13.46,13.46,0,0,0,4.23-.9,1.34,1.34,0,0,1,2,1.11,1.4,1.4,0,0,1-.76,1.25,12.73,12.73,0,0,1-5.52,1.11c-4.72,0-7.63-2.91-7.88-7.46a27.09,27.09,0,0,1,0-4.16c.38-4.44,3.4-7.18,7.67-7.18a7.11,7.11,0,0,1,5.41,2.12,7.44,7.44,0,0,1,2,5.41Zm-3.19-.35a.41.41,0,0,0,.45-.42c.17-3.16-1.67-5.27-4.68-5.27-3.33,0-5.1,2.19-5,5.69Z"/><path class="cls-17" d="M557.79,236.91a1.37,1.37,0,0,1-1.39,1.46,1.42,1.42,0,0,1-1.42-1.46V227c0-3-2-4.55-4.65-4.55a9.22,9.22,0,0,0-4.79,1.15v13.36a1.39,1.39,0,0,1-1.39,1.46,1.42,1.42,0,0,1-1.42-1.46V222.86a1.48,1.48,0,0,1,.62-1.25,12.53,12.53,0,0,1,7-1.87c4.82,0,7.39,2.5,7.39,7.08Z"/><path class="cls-17" d="M569,238.54c-3.57,0-5.34-2.29-5.34-5.73v-15.1a1.38,1.38,0,0,1,1.39-1.42,1.41,1.41,0,0,1,1.42,1.42v2.85h5.24a1.28,1.28,0,1,1,0,2.57H566.5v9.79c0,1.84.87,3,2.67,3a13.45,13.45,0,0,0,2.78-.62,1.3,1.3,0,0,1,1.8,1.28,1.39,1.39,0,0,1-1.15,1.35A10.16,10.16,0,0,1,569,238.54Z"/><path class="cls-17" d="M592.53,228.31a1.79,1.79,0,0,1-2,2H580.1v.56a4.79,4.79,0,0,0,5.17,5.1,13.46,13.46,0,0,0,4.23-.9,1.34,1.34,0,0,1,2,1.11,1.4,1.4,0,0,1-.76,1.25,12.73,12.73,0,0,1-5.52,1.11c-4.72,0-7.63-2.91-7.88-7.46a27.09,27.09,0,0,1,0-4.16c.38-4.44,3.4-7.18,7.67-7.18a7.11,7.11,0,0,1,5.41,2.12,7.44,7.44,0,0,1,2,5.41Zm-3.19-.35a.41.41,0,0,0,.45-.42c.17-3.16-1.67-5.27-4.68-5.27-3.33,0-5.1,2.19-5,5.69Z"/><path class="cls-17" d="M607.27,221.44a1.31,1.31,0,0,1-1.39,1.28,8,8,0,0,1-1.18-.14,9,9,0,0,0-1.56-.14q-2.81.05-2.81,3.12v11.38a1.42,1.42,0,1,1-2.85,0V225.25c0-3.44,2-5.52,5.66-5.52a10.52,10.52,0,0,1,3,.38A1.28,1.28,0,0,1,607.27,221.44Z"/></svg>